<?xml version="1.0" encoding="utf-8"?>
<!-- Generator: Adobe Illustrator 16.0.0, SVG Export Plug-In . SVG Version: 6.00 Build 0)  -->
<!DOCTYPE svg PUBLIC "-//W3C//DTD SVG 1.1//EN" "http://www.w3.org/Graphics/SVG/1.1/DTD/svg11.dtd">
<svg version="1.1" id="Calque_1" xmlns="http://www.w3.org/2000/svg" xmlns:xlink="http://www.w3.org/1999/xlink" x="0px" y="0px"
	 width="210px" height="40px" viewBox="0 0 210 40" enable-background="new 0 0 210 40" xml:space="preserve">
<g>
	<path fill="#FFFFFF" d="M13.022,30.012c-1.137,1.02-2.745,1.687-4.51,1.687c-4.667,0-8.431-3.765-8.431-8.432v-6.47
		c0-4.667,3.765-8.432,8.431-8.432c4.667,0,8.432,3.765,8.432,8.432v14.705c0,4.667-3.765,8.432-8.432,8.432
		c-2.392,0-5.607-1.059-7.02-3.216c-0.274-0.392-0.392-0.745-0.392-1.137c0-1.06,1.02-1.961,2.039-1.961
		c0.588,0,1.098,0.313,1.569,0.901c0.863,1.099,2.431,1.49,3.804,1.49c2.51,0,4.51-2,4.51-4.51V30.012z M13.022,16.797
		c0-2.511-2-4.511-4.51-4.511s-4.51,2-4.51,4.511v6.47c0,2.51,2,4.51,4.51,4.51s4.51-2,4.51-4.51V16.797z"/>
	<path fill="#FFFFFF" d="M30.277,32.482c-4.667,0-8.432-3.765-8.432-8.432v-7.254c0-4.667,3.765-8.432,8.432-8.432
		c4.667,0,8.431,3.765,8.431,8.432v7.254C38.708,28.718,34.944,32.482,30.277,32.482z M34.787,16.797c0-2.511-2-4.511-4.51-4.511
		s-4.51,2-4.51,4.511v7.254c0,2.511,2,4.511,4.51,4.511s4.51-2,4.51-4.511V16.797z"/>
	<path fill="#FFFFFF" d="M51.845,32.482c-4.667,0-8.431-3.765-8.431-8.432v-7.254c0-4.667,3.765-8.432,8.431-8.432
		s8.431,3.765,8.431,8.432v7.254C60.276,28.718,56.512,32.482,51.845,32.482z M56.355,16.797c0-2.511-2-4.511-4.51-4.511
		s-4.51,2-4.51,4.511v7.254c0,2.511,2,4.511,4.51,4.511s4.51-2,4.51-4.511V16.797z"/>
	<path fill="#FFFFFF" d="M77.923,1.895c0-1.294,0.98-1.961,1.96-1.961s1.961,0.667,1.961,1.961v22.156
		c0,4.667-3.765,8.432-8.432,8.432c-4.667,0-8.431-3.765-8.431-8.432v-7.254c0-4.667,3.765-8.432,8.431-8.432
		c1.765,0,3.373,0.666,4.51,1.686V1.895z M68.903,16.797v7.254c0,2.511,2,4.511,4.51,4.511c2.51,0,4.51-2,4.51-4.511v-7.254
		c0-2.511-2-4.511-4.51-4.511C70.903,12.286,68.903,14.286,68.903,16.797z"/>
	<path fill="#00ACE7" d="M111.648,32.091c-0.98,0-1.961-0.667-1.961-1.961V16.012c0-2.039-1.687-3.726-3.726-3.726
		s-3.726,1.687-3.726,3.726V30.13c0,1.372-0.98,2.039-1.961,2.039c-0.98,0-1.96-0.667-1.96-2.039V16.012
		c0-2.039-1.686-3.726-3.726-3.726c-2.039,0-3.726,1.687-3.726,3.726V30.13c0,1.294-0.98,1.961-1.96,1.961
		c-0.98,0-1.961-0.667-1.961-1.961V16.012c0-4.235,3.412-7.646,7.647-7.646c2.274,0,4.274,0.98,5.686,2.549
		c1.412-1.568,3.412-2.549,5.687-2.549c4.235,0,7.647,3.411,7.647,7.646V30.13C113.609,31.424,112.629,32.091,111.648,32.091z"/>
	<path fill="#00ACE7" d="M125.844,32.482c-4,0-7.922-2.392-7.922-7.098c0-4.354,3.608-6.471,7.373-7.255l4.51-0.98v-1.255
		c0-2.196-1.137-3.608-3.883-3.608c-2.901,0-3.215,2.393-5.059,2.393c-1.059,0-1.961-0.823-1.961-1.961
		c0-0.627,0.314-1.177,0.707-1.607c1.568-1.804,3.921-2.745,6.312-2.745c4.863,0,7.805,3.137,7.805,7.529v9.059
		C133.727,29.502,130.001,32.482,125.844,32.482z M129.805,20.953l-4.117,0.941c-2.589,0.549-3.844,2-3.844,3.451
		c0,1.882,1.412,3.216,3.961,3.216c2.393,0,4-1.569,4-3.608V20.953z"/>
	<path fill="#00ACE7" d="M152.393,30.914c-1.333,0.98-2.98,1.568-4.627,1.568c-3.805,0-6.746-2.666-6.746-6.313v-13.49h-2.783
		c-1.295,0-1.961-0.98-1.961-1.961s0.666-1.961,1.961-1.961h2.783V4.561c0-1.294,0.98-1.961,1.961-1.961s1.961,0.667,1.961,1.961
		v4.196h6.157c1.294,0,1.961,0.98,1.961,1.961s-0.667,1.961-1.961,1.961h-6.157v13.49c0,1.216,0.902,2.393,2.824,2.393
		c1.882,0,2.549-1.451,3.765-1.451c1.294,0,2,1.098,2,2.156C153.53,30.051,152.98,30.482,152.393,30.914z"/>
	<path fill="#00ACE7" d="M160.588,10.051c1.138-1.02,2.746-1.686,4.51-1.686c4.667,0,8.432,3.765,8.432,8.432V30.13
		c0,1.294-0.98,1.961-1.961,1.961s-1.961-0.667-1.961-1.961V16.797c0-2.511-2-4.511-4.51-4.511s-4.51,2-4.51,4.511V30.13
		c0,1.294-0.98,1.961-1.961,1.961c-0.979,0-1.96-0.667-1.96-1.961V1.895c0-1.294,0.98-1.961,1.96-1.961
		c0.98,0,1.961,0.667,1.961,1.961V10.051z"/>
</g>
<g>
	<path fill="#00ACE7" d="M210,30.803c0,2.447-1.983,4.432-4.432,4.432h-23.045c-2.448,0-4.432-1.984-4.432-4.432V7.758
		c0-2.447,1.983-4.432,4.432-4.432h23.045c2.448,0,4.432,1.985,4.432,4.432V30.803z"/>
	<path fill="#FFFFFF" d="M188.453,31.306c0.479,0,0.949-0.187,1.32-0.525l10.667-9.484c0.708-0.611,1.069-1.292,1.069-2.017
		c0-0.737-0.39-1.438-1.193-2.14l-10.546-9.363c-0.368-0.336-0.838-0.522-1.317-0.522c-1.015,0-1.872,0.899-1.872,1.962
		c0,0.512,0.229,1,0.643,1.377l9.655,8.687l-9.653,8.687c-0.415,0.376-0.645,0.866-0.645,1.377
		C186.581,30.406,187.438,31.306,188.453,31.306"/>
</g>
</svg>
