<?xml version="1.0" encoding="utf-8"?>
<!-- Generator: Adobe Illustrator 16.0.0, SVG Export Plug-In . SVG Version: 6.00 Build 0)  -->
<!DOCTYPE svg PUBLIC "-//W3C//DTD SVG 1.1//EN" "http://www.w3.org/Graphics/SVG/1.1/DTD/svg11.dtd">
<svg version="1.1" id="Calque_1" xmlns="http://www.w3.org/2000/svg" xmlns:xlink="http://www.w3.org/1999/xlink" x="0px" y="0px"
	 width="218px" height="40px" viewBox="0 0 218 40" enable-background="new 0 0 218 40" xml:space="preserve">
<g>
	<g>
		<path fill="#FFFFFF" d="M12.923,32.946v0.157c0,1.656,1.339,2.957,2.953,2.957c1.339,0,1.971,0.984,1.971,1.969
			c0,0.985-0.632,1.971-1.971,1.971c-3.782,0-6.894-3.073-6.894-6.896v-0.157C3.862,32,0,27.508,0,22.147V10.956
			C0,4.887,4.885,0,10.952,0c6.065,0,10.95,4.887,10.95,10.956v11.192C21.902,27.508,18.044,32,12.923,32.946z M17.964,10.956
			c0-3.862-3.151-7.015-7.012-7.015c-3.861,0-7.012,3.153-7.012,7.015v11.192c0,3.862,3.15,7.015,7.012,7.015
			c3.86,0,7.012-3.152,7.012-7.015V10.956z"/>
		<path fill="#FFFFFF" d="M41.402,22.068h-11.03v2.562c0,2.364,2.283,4.531,4.924,4.531c1.496,0,2.796-0.433,3.82-1.496
			c0.434-0.632,0.984-0.908,1.576-0.908c1.023,0,2.048,0.908,2.048,1.972c0,0.394-0.117,0.749-0.393,1.144
			c0,0-0.158,0.274-0.513,0.63c-1.654,1.773-4.136,2.601-6.539,2.601c-4.531,0-8.864-3.665-8.864-8.473V17.34
			c0-4.689,3.782-8.473,8.47-8.473s8.47,3.783,8.47,8.473v2.759C43.371,21.163,42.465,22.068,41.402,22.068z M39.431,17.34
			c0-2.522-2.009-4.532-4.529-4.532c-2.52,0-4.529,2.01-4.529,4.532v0.788h9.059V17.34z"/>
		<path fill="#FFFFFF" d="M60.899,2.364c0-1.3,0.985-1.97,1.973-1.97c0.982,0,1.969,0.67,1.969,1.97v22.267
			c0,4.689-3.781,8.473-8.471,8.473c-4.688,0-8.47-3.783-8.47-8.473V17.34c0-4.689,3.782-8.473,8.47-8.473
			c1.774,0,3.389,0.67,4.529,1.694V2.364z M51.84,17.34v7.291c0,2.521,2.011,4.531,4.53,4.531c2.521,0,4.529-2.01,4.529-4.531V17.34
			c0-2.522-2.008-4.532-4.529-4.532C53.851,12.808,51.84,14.818,51.84,17.34z"/>
		<path fill="#FFFFFF" d="M78.43,33.104c-4.688,0-8.469-3.783-8.469-8.473V11.231c0-1.3,0.984-1.97,1.97-1.97
			c0.984,0,1.969,0.67,1.969,1.97v13.399c0,2.521,2.01,4.531,4.53,4.531s4.529-2.01,4.529-4.531V11.231c0-1.3,0.988-1.97,1.972-1.97
			s1.97,0.67,1.97,1.97v13.399C86.9,29.32,83.118,33.104,78.43,33.104z"/>
		<path fill="#00ACE7" d="M116.838,32.709c-0.983,0-1.969-0.67-1.969-1.971V16.552c0-2.05-1.694-3.744-3.741-3.744
			c-2.049,0-3.744,1.694-3.744,3.744v14.186c0,1.381-0.984,2.05-1.969,2.05c-0.985,0-1.97-0.669-1.97-2.05V16.552
			c0-2.05-1.692-3.744-3.742-3.744s-3.744,1.694-3.744,3.744v14.186c0,1.301-0.984,1.971-1.967,1.971
			c-0.986,0-1.972-0.67-1.972-1.971V16.552c0-4.257,3.427-7.685,7.683-7.685c2.284,0,4.294,0.985,5.712,2.562
			c1.417-1.576,3.428-2.562,5.713-2.562c4.253,0,7.681,3.428,7.681,7.685v14.186C118.809,32.039,117.823,32.709,116.838,32.709z"/>
		<path fill="#00ACE7" d="M131.1,33.104c-4.021,0-7.958-2.403-7.958-7.133c0-4.375,3.624-6.502,7.405-7.291l4.53-0.985v-1.261
			c0-2.208-1.142-3.626-3.899-3.626c-2.915,0-3.229,2.404-5.083,2.404c-1.062,0-1.97-0.828-1.97-1.971
			c0-0.63,0.316-1.182,0.709-1.615c1.576-1.813,3.939-2.759,6.344-2.759c4.885,0,7.838,3.153,7.838,7.567v9.103
			C139.016,30.108,135.274,33.104,131.1,33.104z M135.077,21.518l-4.136,0.945c-2.601,0.552-3.862,2.01-3.862,3.469
			c0,1.891,1.42,3.23,3.979,3.23c2.404,0,4.019-1.575,4.019-3.625V21.518z"/>
		<path fill="#00ACE7" d="M157.768,31.527c-1.341,0.984-2.993,1.576-4.648,1.576c-3.823,0-6.775-2.68-6.775-6.346V13.202h-2.797
			c-1.3,0-1.972-0.985-1.972-1.971s0.672-1.97,1.972-1.97h2.797V5.045c0-1.301,0.984-1.971,1.97-1.971c0.982,0,1.97,0.67,1.97,1.971
			v4.216h6.185c1.3,0,1.97,0.985,1.97,1.97s-0.67,1.971-1.97,1.971h-6.185v13.556c0,1.223,0.905,2.404,2.836,2.404
			c1.891,0,2.561-1.457,3.781-1.457c1.3,0,2.007,1.104,2.007,2.168C158.907,30.66,158.357,31.094,157.768,31.527z"/>
		<path fill="#00ACE7" d="M165.999,10.562c1.144-1.024,2.759-1.694,4.531-1.694c4.688,0,8.47,3.783,8.47,8.473v13.398
			c0,1.301-0.985,1.971-1.969,1.971c-0.987,0-1.971-0.67-1.971-1.971V17.34c0-2.522-2.011-4.532-4.53-4.532
			c-2.521,0-4.531,2.01-4.531,4.532v13.398c0,1.301-0.983,1.971-1.971,1.971c-0.982,0-1.968-0.67-1.968-1.971V2.364
			c0-1.3,0.985-1.97,1.968-1.97c0.987,0,1.971,0.67,1.971,1.97V10.562z"/>
	</g>
	<g>
		<path fill="#00ACE7" d="M218,31.256c0,2.447-1.982,4.431-4.432,4.431h-23.04c-2.446,0-4.431-1.983-4.431-4.431V8.214
			c0-2.446,1.984-4.431,4.431-4.431h23.04c2.449,0,4.432,1.984,4.432,4.431V31.256z"/>
		<path fill="#FFFFFF" d="M196.457,31.759c0.479,0,0.948-0.187,1.32-0.524l10.665-9.484c0.708-0.61,1.068-1.291,1.068-2.016
			c0-0.736-0.39-1.437-1.192-2.138l-10.545-9.362c-0.368-0.335-0.837-0.522-1.316-0.522c-1.013,0-1.871,0.899-1.871,1.961
			c0,0.511,0.229,1,0.643,1.377l9.652,8.685l-9.65,8.686c-0.416,0.375-0.645,0.865-0.645,1.375
			C194.586,30.859,195.444,31.759,196.457,31.759"/>
	</g>
</g>
</svg>
