<?xml version="1.0" encoding="utf-8"?>
<!-- Generator: Adobe Illustrator 15.0.0, SVG Export Plug-In . SVG Version: 6.00 Build 0)  -->
<!DOCTYPE svg PUBLIC "-//W3C//DTD SVG 1.1//EN" "http://www.w3.org/Graphics/SVG/1.1/DTD/svg11.dtd">
<svg version="1.1" id="Layer_1" xmlns="http://www.w3.org/2000/svg" xmlns:xlink="http://www.w3.org/1999/xlink" x="0px" y="0px"
	 width="500px" height="200px" viewBox="0 0 500 200" enable-background="new 0 0 500 200" xml:space="preserve">
<g>
	
		<image overflow="visible" opacity="0.35" width="1832" height="420" xlink:href="3A12984C.png"  transform="matrix(0.24 0 0 0.24 30.2256 49.689)">
	</image>
	<g>
		<g>
			<path fill="#FFFFFF" d="M73.755,108.666H48.311v5.906c0,5.454,5.269,10.452,11.357,10.452c3.453,0,6.455-1.004,8.819-3.453
				c0.997-1.456,2.267-2.09,3.635-2.09c2.36,0,4.724,2.09,4.724,4.539c0,0.911-0.274,1.73-0.912,2.638c0,0-0.359,0.638-1.178,1.457
				c-3.816,4.087-9.542,5.999-15.088,5.999c-10.449,0-20.442-8.456-20.442-19.542V97.761c0-10.812,8.722-19.536,19.534-19.536
				c10.816,0,19.542,8.725,19.542,19.536v6.364C78.302,106.576,76.208,108.666,73.755,108.666z M69.212,97.761
				c0-5.815-4.635-10.449-10.453-10.449s-10.449,4.633-10.449,10.449v1.82h20.902V97.761z"/>
			<path fill="#FFFFFF" d="M120.613,63.229c0-2.998,2.271-4.541,4.543-4.541s4.546,1.543,4.546,4.541v51.343
				c0,10.815-8.726,19.542-19.542,19.542c-10.812,0-19.534-8.727-19.534-19.542V97.761c0-10.812,8.722-19.536,19.534-19.536
				c4.091,0,7.818,1.543,10.453,3.907V63.229z M99.712,97.761v16.812c0,5.817,4.635,10.452,10.449,10.452
				c5.817,0,10.453-4.635,10.453-10.452V97.761c0-5.815-4.635-10.449-10.453-10.449C104.347,87.312,99.712,91.945,99.712,97.761z"/>
			<path fill="#FFFFFF" d="M162.929,134.114c-10.812,0-19.538-8.727-19.538-19.542V83.677c0-3,2.271-4.542,4.542-4.542
				c2.271,0,4.547,1.543,4.547,4.542v30.895c0,5.817,4.631,10.452,10.449,10.452s10.453-4.635,10.453-10.452V83.677
				c0-3,2.267-4.542,4.542-4.542c2.267,0,4.542,1.543,4.542,4.542v30.895C182.467,125.388,173.745,134.114,162.929,134.114z"/>
			<path fill="#FFFFFF" d="M205.241,128.66c0,3.001-2.271,4.542-4.543,4.542c-2.271,0-4.542-1.541-4.542-4.542V63.229
				c0-2.998,2.271-4.541,4.542-4.541c2.271,0,4.543,1.543,4.543,4.541V128.66z"/>
			<g>
				<g>
					<path fill="#18ABE3" d="M277.729,108.666h-25.444v5.906c0,5.454,5.269,10.452,11.356,10.452c3.453,0,6.455-1.004,8.815-3.453
						c1-1.456,2.271-2.09,3.639-2.09c2.359,0,4.724,2.09,4.724,4.539c0,0.911-0.274,1.73-0.907,2.638c0,0-0.363,0.638-1.183,1.457
						c-3.82,4.087-9.545,5.999-15.088,5.999c-10.449,0-20.446-8.456-20.446-19.542V97.761c0-10.812,8.722-19.536,19.539-19.536
						c10.812,0,19.537,8.725,19.537,19.536v6.364C282.271,106.576,280.183,108.666,277.729,108.666z M273.187,97.761
						c0-5.815-4.64-10.449-10.452-10.449c-5.814,0-10.449,4.633-10.449,10.449v1.82h20.901V97.761z"/>
				</g>
			</g>
			<g>
				<g>
					<path fill="#18ABE3" d="M322.135,91.038c-1.093,0-2.275-0.454-3.271-1.454l-0.182-0.182c-1.638-1.361-3.82-2.09-5.906-2.09
						c-5.18,0-8.638,3.454-8.638,11.086v30.262c0,3.001-2.267,4.542-4.542,4.542c-2.271,0-4.543-1.541-4.543-4.542V98.398
						c0-10.632,5.817-20.174,17.723-20.174c4.176,0,9.541,1.816,12.631,4.999c0.904,1,1.36,2.088,1.36,3.179
						C326.767,88.855,324.495,91.038,322.135,91.038z"/>
				</g>
			</g>
			<g>
				<g>
					<path fill="#18ABE3" d="M352.453,134.114c-9.268,0-18.353-5.543-18.353-16.452c0-10.086,8.359-14.991,17.081-16.811
						l10.449-2.271v-2.909c0-5.087-2.635-8.359-8.997-8.359c-6.721,0-7.451,5.543-11.724,5.543c-2.448,0-4.542-1.906-4.542-4.545
						c0-1.452,0.729-2.727,1.638-3.724c3.635-4.182,9.085-6.362,14.628-6.362c11.269,0,18.086,7.268,18.086,17.447v20.991
						C370.72,127.207,362.087,134.114,352.453,134.114z M361.631,107.395l-9.541,2.183c-5.999,1.271-8.904,4.632-8.904,7.996
						c0,4.365,3.272,7.451,9.179,7.451c5.539,0,9.267-3.635,9.267-8.362V107.395z"/>
				</g>
			</g>
			<path fill="#FFFFFF" d="M228.664,132.452c-1.125,0-2.231-0.44-3.106-1.234l-25.081-22.302c-1.666-1.437-2.513-3.038-2.513-4.744
				c0-1.733,0.916-3.379,2.804-5.029l24.795-22.019c0.871-0.791,1.977-1.229,3.102-1.229c2.384,0,4.401,2.114,4.401,4.615
				c0,1.2-0.541,2.35-1.509,3.238l-22.705,20.424l22.701,20.425c0.972,0.892,1.513,2.038,1.513,3.24
				C233.065,130.338,231.048,132.452,228.664,132.452z"/>
			<g>
				<g>
					<path fill="#18ABE3" d="M460.83,130.891c0,5.757-4.664,10.421-10.421,10.421h-54.188c-5.757,0-10.421-4.664-10.421-10.421V76.7
						c0-5.753,4.664-10.42,10.421-10.42h54.188c5.757,0,10.421,4.667,10.421,10.42V130.891z"/>
				</g>
				<path fill="#FFFFFF" d="M410.163,132.072c1.13,0,2.231-0.436,3.106-1.234l25.081-22.302c1.667-1.436,2.518-3.037,2.518-4.742
					c0-1.734-0.915-3.38-2.808-5.03l-24.795-22.02c-0.871-0.789-1.973-1.229-3.103-1.229c-2.384,0-4.401,2.116-4.401,4.613
					c0,1.202,0.541,2.352,1.513,3.24l22.701,20.425l-22.696,20.428c-0.977,0.88-1.518,2.033-1.518,3.235
					C405.762,129.959,407.779,132.072,410.163,132.072"/>
			</g>
		</g>
	</g>
</g>
</svg>
