<?xml version="1.0" encoding="iso-8859-1"?>
<!-- Generator: Adobe Illustrator 16.0.0, SVG Export Plug-In . SVG Version: 6.00 Build 0)  -->
<!DOCTYPE svg PUBLIC "-//W3C//DTD SVG 1.1//EN" "http://www.w3.org/Graphics/SVG/1.1/DTD/svg11.dtd">
<svg version="1.1" id="Calque_1" xmlns="http://www.w3.org/2000/svg" xmlns:xlink="http://www.w3.org/1999/xlink" x="0px" y="0px"
	 width="92.232px" height="90px" viewBox="0 0 92.232 90" style="enable-background:new 0 0 92.232 90;" xml:space="preserve">
<g>
	<defs>
		<rect id="SVGID_1_" x="8.155" y="4.868" width="79.054" height="79.054"/>
	</defs>
	<clipPath id="SVGID_2_">
		<use xlink:href="#SVGID_1_"  style="overflow:visible;"/>
	</clipPath>
	<path style="clip-path:url(#SVGID_2_);fill:#FFFFFF;" d="M8.155,44.396c0,21.83,17.698,39.526,39.527,39.526
		c21.83,0,39.526-17.696,39.526-39.526c0-21.831-17.696-39.527-39.526-39.527C25.853,4.868,8.155,22.564,8.155,44.396"/>
</g>
<g>
	<defs>
		<path id="SVGID_3_" d="M9.623,44.398c0,21.057,17.071,38.125,38.126,38.125c21.056,0,38.127-17.068,38.127-38.125
			c0-21.056-17.071-38.126-38.127-38.126C26.694,6.272,9.623,23.342,9.623,44.398"/>
	</defs>
	<clipPath id="SVGID_4_">
		<use xlink:href="#SVGID_3_"  style="overflow:visible;"/>
	</clipPath>
	
		<linearGradient id="SVGID_5_" gradientUnits="userSpaceOnUse" x1="-310.4492" y1="93.9258" x2="-308.9632" y2="93.9258" gradientTransform="matrix(49.8405 0 0 -49.8405 15484.1426 4725.6875)">
		<stop  offset="0" style="stop-color:#05ABD8"/>
		<stop  offset="0.7607" style="stop-color:#0081C0"/>
		<stop  offset="1" style="stop-color:#0074B2"/>
	</linearGradient>
	<rect x="9.623" y="6.272" style="clip-path:url(#SVGID_4_);fill:url(#SVGID_5_);" width="76.253" height="76.251"/>
</g>
<g>
	<defs>
		<rect id="SVGID_6_" x="8.155" y="4.868" width="79.054" height="79.054"/>
	</defs>
	<clipPath id="SVGID_7_">
		<use xlink:href="#SVGID_6_"  style="overflow:visible;"/>
	</clipPath>
	
		<circle style="clip-path:url(#SVGID_7_);fill:none;stroke:#FFFFFF;stroke-width:0.7562;stroke-miterlimit:10;" cx="47.749" cy="44.398" r="26.186"/>
	<path style="clip-path:url(#SVGID_7_);fill:#838382;" d="M55.554,44.187c0,2.163,1.9,3.918,4.244,3.918
		c2.345,0,4.245-1.756,4.245-3.918c0-2.164-1.9-3.917-4.245-3.917C57.454,40.27,55.554,42.023,55.554,44.187"/>
	<path style="clip-path:url(#SVGID_7_);fill:#FFFFFF;" d="M57.907,43.355c1.228-0.276,3.045-0.869,4.138-0.133
		c-0.66,0.896-1.843,1.271-2.536,2.134c-0.043-0.283-0.582,0.023-0.667,0.133c0.413,0.567,1.644,0.315,1.867,1.069
		c0.063,0.463-0.723,0.076-0.801,0.4c0.714,0.215,1.656,0.122,2.137-0.267v-1.735c0.208-0.193,0.52-0.281,0.801-0.402
		c0.327-0.313-0.198-0.248-0.135-0.666c0.444-0.313,0.962-0.551,0.801-1.468C61.612,41.617,59.162,42.347,57.907,43.355
		 M61.109,31.077c-0.767,0.012-1.541,0.028-2.135-0.135c0.979,0.712,2.278,1.103,2.802,2.269c0.305,0.097,0.682,0.119,0.935,0.267
		c0.101,0.412-0.365,0.258-0.267,0.667c0.641,0.063,0.293-0.863,0.934-0.801c0.644,0.071,0.71,0.717,0.668,1.468
		c-0.517,0.24-0.877,0.636-1.2,1.068c0.831,2.428,2.288,5.466,1.467,8.675c0.378,1.083,0.798,1.953,1.469,2.938
		c0.783,1.147,2.085,1.972,1.602,3.87c-0.589,0.39-1.663,0.296-2.002,0.934c0.359,1.09,1.016,2.544-0.666,2.671
		c0.422,0.378,0.875,0.725,0.933,1.468c-0.239,0.471-0.836,0.587-1.066,1.068c0.199,0.755,0.518,2.397-0.401,3.336
		c-1.974,2.017-7.287-1.527-9.476,0.534c-1.859,1.75-2.881,4.306-3.336,8.143c-7.184,1.05-13.345-1.012-17.618-3.739
		c0.966-1.212,2.182-2.175,3.336-3.203c-0.318-0.343-0.789,0.82-1.202,0.401c0.107-0.472,0.815-0.343,0.801-0.935
		c-1.346-0.055-1.927,0.653-2.536,1.334c-0.989-0.229-1.616,0.452-2.268,0.934c-0.809-0.569-1.517-1.241-2.269-1.867
		c2.039-0.896,4.16-1.712,4.938-3.871c-1.325,0.99-2.971,2.813-5.339,3.204c-0.815-0.473-1.152-1.428-1.869-2.002
		c0.48-0.639,2.162-0.615,1.869-1.603c0.945-0.079,1.365-0.682,2.269-0.801c-0.097-0.124-0.242-0.201-0.4-0.267
		c0.646-0.466,0.723-1.502,1.735-1.602c-0.662-0.761,0.504-1.738,0.534-2.67c-1.529,0.738-4.05,2.524-5.874,1.47
		c-0.259-0.15-0.316-0.5-0.533-0.669c-1.013-0.779-2.391-1.025-3.471-1.335c-0.092-0.796-0.322-1.456-0.533-2.134
		c-0.022-0.29,0.475-0.062,0.667-0.134c-0.399-0.133-0.799-0.269-0.934-0.667c1.924-0.322,3.988,0.37,5.739,0.667
		c0.165,0.28,0.37,0.52,0.535,0.801c0.618-0.04,1.155,0.002,1.468,0.266c0.276-0.034,0.036-0.585,0.266-0.667
		c0.431-0.027,0.566,0.236,1.068,0.133c0.334-0.909-0.883-1.189-1.068-2c1.24,0.539,1.538,2.022,3.47,1.867
		c-0.46-1.287-1.701-2.324-2.268-3.603c-0.372-0.836-0.682-1.94-0.935-3.204c-0.299-1.493-0.689-3.017-0.801-4.138
		c-0.345-3.444,2.001-5.139,2.936-7.207c0.569-0.055,0.566-0.68,1.202-0.668c-0.065-0.421,0.241-0.47,0.134-0.935
		c2.305-4.548,11.159-6.669,18.819-5.471c2.786,0.435,6.439,1.268,7.605,2.136C62.021,28.214,62.498,29.97,61.109,31.077"/>
</g>
<rect x="12.704" y="38.373" transform="matrix(-0.9867 -0.1625 0.1625 -0.9867 26.0229 80.4968)" style="fill:#FFFFFF;" width="7.198" height="1.623"/>
<g>
	<defs>
		<rect id="SVGID_8_" x="8.155" y="4.868" width="79.054" height="79.054"/>
	</defs>
	<clipPath id="SVGID_9_">
		<use xlink:href="#SVGID_8_"  style="overflow:visible;"/>
	</clipPath>
	<path style="clip-path:url(#SVGID_9_);fill:#FFFFFF;" d="M20.079,37.847l-6.792-2.379l0.628-1.792l2.983-0.54
		c0.857-0.154,1.841-0.25,2.716-0.295l0.007-0.019c-0.928-0.224-1.857-0.515-2.883-0.874l-1.976-0.693l0.495-1.409l6.792,2.377
		l-0.564,1.612l-3.127,0.535c-0.868,0.148-1.903,0.296-2.812,0.338l-0.014,0.041c0.924,0.267,1.888,0.582,2.997,0.971l2.046,0.715
		L20.079,37.847z"/>
	<path style="clip-path:url(#SVGID_9_);fill:#FFFFFF;" d="M23.44,29.901l-7.3-1.953l0.965-1.499l3.033,0.908
		c0.86,0.261,1.663,0.514,2.511,0.854l0.017-0.026c-0.629-0.62-1.227-1.271-1.785-1.922l-2.089-2.436l0.936-1.454l4.741,5.931
		L23.44,29.901z"/>
</g>
<polygon style="fill:#FFFFFF;" points="26.982,20.832 25.12,22.715 26.335,23.917 28.414,21.813 29.363,22.75 26.144,26.009 
	21.025,20.95 24.14,17.798 25.088,18.737 23.116,20.733 24.178,21.784 26.04,19.901 "/>
<g>
	<defs>
		<rect id="SVGID_10_" x="8.155" y="4.868" width="79.054" height="79.054"/>
	</defs>
	<clipPath id="SVGID_11_">
		<use xlink:href="#SVGID_10_"  style="overflow:visible;"/>
	</clipPath>
	<path style="clip-path:url(#SVGID_11_);fill:#FFFFFF;" d="M29.077,20.857c0.478-0.057,1.171-0.255,1.743-0.649
		c0.618-0.42,0.77-0.898,0.505-1.287c-0.254-0.372-0.681-0.39-1.562-0.149c-1.229,0.322-2.254,0.222-2.845-0.643
		c-0.692-1.015-0.36-2.365,1.034-3.316c0.679-0.463,1.254-0.663,1.721-0.737l0.436,1.281c-0.308,0.043-0.855,0.169-1.428,0.562
		c-0.583,0.397-0.678,0.863-0.473,1.164c0.259,0.379,0.7,0.324,1.675,0.084c1.313-0.329,2.172-0.113,2.743,0.726
		c0.681,0.997,0.501,2.361-1.131,3.475c-0.679,0.463-1.476,0.735-1.938,0.779L29.077,20.857z"/>
</g>
<polygon style="fill:#FFFFFF;" points="33.506,13.386 31.72,14.151 31.183,12.894 36.267,10.717 36.804,11.975 34.998,12.747 
	37.292,18.106 35.8,18.744 "/>
<rect x="35.999" y="12.77" transform="matrix(-0.2551 -0.9669 0.9669 -0.2551 36.5666 55.3328)" style="fill:#FFFFFF;" width="7.198" height="1.622"/>
<g>
	<defs>
		<rect id="SVGID_12_" x="8.155" y="4.868" width="79.054" height="79.054"/>
	</defs>
	<clipPath id="SVGID_13_">
		<use xlink:href="#SVGID_12_"  style="overflow:visible;"/>
	</clipPath>
	<path style="clip-path:url(#SVGID_13_);fill:#FFFFFF;" d="M42.282,14.871c0.448,0.175,1.152,0.322,1.843,0.245
		c0.743-0.083,1.101-0.435,1.049-0.902c-0.05-0.446-0.418-0.663-1.312-0.863c-1.236-0.292-2.095-0.862-2.213-1.902
		c-0.136-1.22,0.79-2.258,2.467-2.447c0.817-0.092,1.419,0.001,1.866,0.156l-0.215,1.335c-0.292-0.106-0.835-0.251-1.524-0.173
		c-0.699,0.078-1.002,0.445-0.962,0.807c0.051,0.457,0.466,0.614,1.44,0.86c1.314,0.324,1.972,0.917,2.085,1.925
		c0.134,1.199-0.665,2.319-2.627,2.541c-0.816,0.091-1.648-0.042-2.077-0.218L42.282,14.871z"/>
	<path style="clip-path:url(#SVGID_13_);fill:#FFFFFF;" d="M48.011,14.375c0.407,0.258,1.07,0.538,1.762,0.594
		c0.745,0.061,1.163-0.215,1.202-0.684c0.036-0.447-0.282-0.729-1.12-1.1c-1.157-0.523-1.89-1.246-1.805-2.29
		c0.101-1.224,1.209-2.064,2.889-1.927c0.821,0.067,1.393,0.275,1.802,0.512l-0.468,1.269c-0.266-0.161-0.771-0.406-1.463-0.462
		c-0.702-0.058-1.069,0.243-1.1,0.605c-0.036,0.458,0.341,0.691,1.249,1.12c1.228,0.572,1.759,1.28,1.674,2.29
		c-0.099,1.204-1.097,2.15-3.065,1.988c-0.819-0.067-1.61-0.357-1.995-0.614L48.011,14.375z"/>
</g>
<polygon style="fill:#FFFFFF;" points="58.165,14.819 55.616,14.102 55.153,15.748 58.001,16.546 57.642,17.833 53.229,16.594 
	55.175,9.665 59.44,10.862 59.081,12.147 56.378,11.388 55.974,12.828 58.523,13.543 "/>
<g>
	<defs>
		<rect id="SVGID_14_" x="8.155" y="4.868" width="79.054" height="79.054"/>
	</defs>
	<clipPath id="SVGID_15_">
		<use xlink:href="#SVGID_14_"  style="overflow:visible;"/>
	</clipPath>
	<path style="clip-path:url(#SVGID_15_);fill:#FFFFFF;" d="M65.003,18.572c0.4-0.766,0.892-1.692,1.41-2.602l-0.02-0.011
		c-0.657,0.683-1.425,1.424-2.084,2.019l-2.152,2.007l-1.104-0.63l0.709-2.792c0.218-0.859,0.521-1.866,0.83-2.772l-0.019-0.01
		c-0.51,0.829-1.097,1.772-1.577,2.53l-1.474,2.306l-1.31-0.746l3.964-6.025l1.884,1.074l-0.578,2.437
		c-0.21,0.839-0.468,1.725-0.748,2.536l0.037,0.021c0.581-0.627,1.266-1.331,1.875-1.906l1.843-1.701l1.855,1.058l-3.231,6.442
		l-1.372-0.782L65.003,18.572z"/>
</g>
<polygon style="fill:#FFFFFF;" points="70.854,23.248 68.941,21.417 67.76,22.651 69.898,24.696 68.976,25.661 65.665,22.495 
	70.639,17.293 73.842,20.356 72.919,21.321 70.891,19.38 69.855,20.461 71.771,22.292 "/>
<g>
	<defs>
		<rect id="SVGID_16_" x="8.155" y="4.868" width="79.054" height="79.054"/>
	</defs>
	<clipPath id="SVGID_17_">
		<use xlink:href="#SVGID_16_"  style="overflow:visible;"/>
	</clipPath>
	<path style="clip-path:url(#SVGID_17_);fill:#FFFFFF;" d="M69.492,26.186l5.986-3.996l1.055,1.58l-1.363,2.709
		c-0.394,0.776-0.907,1.621-1.4,2.346l0.012,0.017c0.737-0.608,1.529-1.174,2.435-1.777l1.741-1.162l0.829,1.244l-5.984,3.994
		l-0.95-1.42l1.457-2.819c0.4-0.783,0.908-1.699,1.419-2.45l-0.023-0.035c-0.77,0.577-1.602,1.158-2.578,1.811l-1.803,1.203
		L69.492,26.186z"/>
</g>
<polygon style="fill:#FFFFFF;" points="79.144,31.311 78.445,29.497 79.721,29.006 81.709,34.167 80.435,34.658 79.729,32.825 
	74.287,34.92 73.703,33.405 "/>
<g>
	<defs>
		<rect id="SVGID_18_" x="8.155" y="4.868" width="79.054" height="79.054"/>
	</defs>
	<clipPath id="SVGID_19_">
		<use xlink:href="#SVGID_18_"  style="overflow:visible;"/>
	</clipPath>
	<path style="clip-path:url(#SVGID_19_);fill:#FFFFFF;" d="M76.721,36.951c-0.146,0.46-0.244,1.172-0.119,1.856
		c0.132,0.734,0.508,1.069,0.97,0.985c0.44-0.081,0.634-0.463,0.772-1.367c0.208-1.253,0.719-2.148,1.749-2.334
		c1.207-0.22,2.307,0.634,2.605,2.294c0.148,0.808,0.096,1.416-0.029,1.872l-1.346-0.125c0.087-0.299,0.194-0.851,0.069-1.532
		c-0.126-0.694-0.513-0.969-0.869-0.905c-0.453,0.081-0.58,0.506-0.761,1.494c-0.236,1.333-0.781,2.03-1.78,2.21
		c-1.187,0.216-2.36-0.505-2.713-2.448c-0.146-0.81-0.069-1.648,0.078-2.088L76.721,36.951z"/>
	<path style="clip-path:url(#SVGID_19_);fill:#FFFFFF;" d="M25.62,71.22c0.086,0.103,0.262,0.237,0.405,0.347
		c1.102,0.857,2.292,0.807,3.275-0.475c0.854-1.115,0.652-2.207-0.4-3.014c-0.263-0.201-0.465-0.317-0.587-0.374L25.62,71.22z
		 M27.763,65.915c0.5,0.27,1.12,0.669,1.724,1.132c1.03,0.789,1.552,1.493,1.77,2.267c0.239,0.843,0.083,1.772-0.643,2.722
		c-0.788,1.027-1.707,1.449-2.553,1.497c-0.925,0.038-1.965-0.405-3.017-1.213c-0.63-0.481-1.055-0.871-1.319-1.136L27.763,65.915z"
		/>
	<path style="clip-path:url(#SVGID_19_);fill:#FFFFFF;" d="M35.606,70.722c-0.72,0.727-1.552,1.407-2.305,1.869l-0.863-0.34
		c0.659-0.633,1.331-1.372,1.857-2.097L35.606,70.722z"/>
	<path style="clip-path:url(#SVGID_19_);fill:#FFFFFF;" d="M37.887,75.939l0.057-1.496c0.013-0.419,0.058-0.933,0.091-1.347
		l-0.02-0.006c-0.223,0.35-0.48,0.803-0.71,1.138l-0.836,1.234L37.887,75.939z M35.895,76.479l-1.009,1.495l-1.495-0.502
		l4.102-5.762l1.905,0.637l-0.152,7.086l-1.572-0.525l0.058-1.812L35.895,76.479z"/>
	<path style="clip-path:url(#SVGID_19_);fill:#FFFFFF;" d="M42.949,80.008l-1.432-6.962l1.667,0.18l0.513,2.933
		c0.143,0.834,0.271,1.615,0.34,2.473l0.03,0.003c0.257-0.791,0.553-1.567,0.865-2.312l1.169-2.783l1.617,0.173l-2.992,6.487
		L42.949,80.008z"/>
</g>
<polygon style="fill:#FFFFFF;" points="53.251,77.051 50.773,77.314 50.944,78.912 53.711,78.619 53.843,79.866 49.561,80.323 
	48.842,73.593 52.984,73.15 53.118,74.398 50.493,74.68 50.643,76.077 53.118,75.812 "/>
<g>
	<defs>
		<rect id="SVGID_20_" x="8.155" y="4.868" width="79.054" height="79.054"/>
	</defs>
	<clipPath id="SVGID_21_">
		<use xlink:href="#SVGID_20_"  style="overflow:visible;"/>
	</clipPath>
	<path style="clip-path:url(#SVGID_21_);fill:#FFFFFF;" d="M56.704,79.292l-2.185-6.405l1.691-0.579l2.132,1.895
		c0.61,0.546,1.255,1.218,1.794,1.839l0.021-0.006c-0.374-0.817-0.699-1.673-1.03-2.641l-0.635-1.863l1.331-0.455l2.184,6.408
		l-1.519,0.518l-2.213-2.005c-0.613-0.554-1.324-1.236-1.885-1.883l-0.036,0.013c0.338,0.839,0.666,1.736,1.023,2.783l0.657,1.93
		L56.704,79.292z"/>
</g>
<rect x="60.324" y="71.985" transform="matrix(-0.4909 -0.8712 0.8712 -0.4909 31.606 163.9653)" style="fill:#FFFFFF;" width="6.767" height="1.526"/>
<g>
	<defs>
		<rect id="SVGID_22_" x="8.155" y="4.868" width="79.054" height="79.054"/>
	</defs>
	<clipPath id="SVGID_23_">
		<use xlink:href="#SVGID_22_"  style="overflow:visible;"/>
	</clipPath>
	<path style="clip-path:url(#SVGID_23_);fill:#FFFFFF;" d="M67.354,69.885l0.468-0.38c0.592-0.482,0.702-1.062,0.327-1.522
		c-0.386-0.476-0.917-0.458-1.462-0.016c-0.287,0.235-0.438,0.385-0.505,0.478L67.354,69.885z M64.339,68.582
		c0.332-0.373,0.854-0.875,1.494-1.395c0.778-0.634,1.419-0.962,2.034-0.969c0.522-0.011,0.998,0.225,1.39,0.708
		c0.54,0.661,0.438,1.507,0.119,2.038l0.02,0.024c0.485-0.15,0.968,0.027,1.492,0.402c0.65,0.467,1.364,1.027,1.631,1.147
		l-1.216,0.988c-0.203-0.093-0.679-0.406-1.352-0.932c-0.688-0.543-1.052-0.531-1.55-0.138l-0.352,0.284l1.681,2.064l-1.179,0.956
		L64.339,68.582z"/>
</g>
</svg>
