<?xml version="1.0" encoding="UTF-8" standalone="no"?>
<!-- Created with Inkscape (http://www.inkscape.org/) -->

<svg
   xmlns:dc="http://purl.org/dc/elements/1.1/"
   xmlns:cc="http://creativecommons.org/ns#"
   xmlns:rdf="http://www.w3.org/1999/02/22-rdf-syntax-ns#"
   xmlns:svg="http://www.w3.org/2000/svg"
   xmlns="http://www.w3.org/2000/svg"
   xmlns:sodipodi="http://sodipodi.sourceforge.net/DTD/sodipodi-0.dtd"
   xmlns:inkscape="http://www.inkscape.org/namespaces/inkscape"
   width="744.09448819"
   height="1052.3622047"
   id="svg3962"
   version="1.1"
   inkscape:version="0.48.4 r9939"
   sodipodi:docname="graph.svg">
  <defs
     id="defs3964" />
  <sodipodi:namedview
     id="base"
     pagecolor="#ffffff"
     bordercolor="#666666"
     borderopacity="1.0"
     inkscape:pageopacity="0.0"
     inkscape:pageshadow="2"
     inkscape:zoom="0.35"
     inkscape:cx="39.285714"
     inkscape:cy="520"
     inkscape:document-units="px"
     inkscape:current-layer="layer1"
     showgrid="false"
     inkscape:window-width="1920"
     inkscape:window-height="1007"
     inkscape:window-x="0"
     inkscape:window-y="24"
     inkscape:window-maximized="1" />
  <metadata
     id="metadata3967">
    <rdf:RDF>
      <cc:Work
         rdf:about="">
        <dc:format>image/svg+xml</dc:format>
        <dc:type
           rdf:resource="http://purl.org/dc/dcmitype/StillImage" />
        <dc:title></dc:title>
      </cc:Work>
    </rdf:RDF>
  </metadata>
  <g
     inkscape:label="Layer 1"
     inkscape:groupmode="layer"
     id="layer1">
    <g
       transform="matrix(0.76666668,0,0,0.88453035,10643.831,568.27972)"
       id="text3069-8"
       style="font-size:1215.83117676px;font-style:normal;font-weight:normal;line-height:125%;letter-spacing:0px;word-spacing:0px;fill:white;fill-opacity:0.94117647;stroke:none;font-family:Sans">
      <path
         inkscape:connector-curvature="0"
         id="path3074-4"
         transform="matrix(1.2,0,0,1.0401,-13997.978,-567.64433)"
         d="M 319.4375,250 125,474.28125 l 0,51.375 L 319.4375,750 l 59.375,-68.5 -46.03125,-53.0625 334.4375,0 L 621.1875,681.5 680.5625,750 875,525.65625 875,474.28125 680.5625,250 l -59.375,68.5 46.03125,53.0625 -334.4375,0 L 378.8125,318.5 319.4375,250 z m -46.03125,190.03125 453.1875,0 51.9375,59.96875 -51.9375,59.9375 -453.1875,0 -51.9375,-59.9375 51.9375,-59.96875 z"
         style="fill:white;fill-opacity:0.94117647" />
    </g>
  </g>
</svg>
