<?xml version="1.0" encoding="UTF-8" standalone="no"?>
<!-- Created with Inkscape (http://www.inkscape.org/) -->

<svg
   xmlns:dc="http://purl.org/dc/elements/1.1/"
   xmlns:cc="http://creativecommons.org/ns#"
   xmlns:rdf="http://www.w3.org/1999/02/22-rdf-syntax-ns#"
   xmlns:svg="http://www.w3.org/2000/svg"
   xmlns="http://www.w3.org/2000/svg"
   xmlns:sodipodi="http://sodipodi.sourceforge.net/DTD/sodipodi-0.dtd"
   xmlns:inkscape="http://www.inkscape.org/namespaces/inkscape"
   id="svg2"
   version="1.1"
   inkscape:version="0.91 r13725"
   xml:space="preserve"
   width="400"
   height="120"
   viewBox="0 0 399.99998 120"
   sodipodi:docname="sorbonne.svg"><metadata
     id="metadata8"><rdf:RDF><cc:Work
         rdf:about=""><dc:format>image/svg+xml</dc:format><dc:type
           rdf:resource="http://purl.org/dc/dcmitype/StillImage" /><dc:title></dc:title></cc:Work></rdf:RDF></metadata><defs
     id="defs6" /><sodipodi:namedview
     pagecolor="#ffffff"
     bordercolor="#666666"
     borderopacity="1"
     objecttolerance="10"
     gridtolerance="10"
     guidetolerance="10"
     inkscape:pageopacity="0"
     inkscape:pageshadow="2"
     inkscape:window-width="1920"
     inkscape:window-height="1004"
     id="namedview4"
     showgrid="false"
     inkscape:zoom="0.61557221"
     inkscape:cx="72.747662"
     inkscape:cy="372.04999"
     inkscape:window-x="0"
     inkscape:window-y="24"
     inkscape:window-maximized="1"
     inkscape:current-layer="g10" /><g
     id="g10"
     inkscape:groupmode="layer"
     inkscape:label="ink_ext_XXXXXX"
     transform="matrix(1.25,0,0,-1.25,0,120.00002)"><g
       id="g12"
       transform="matrix(0.1,0,0,0.1,-260.94451,-249.29206)"><path
         d="m 3415.69,3389.44 -166.64,0 c 0.21,-7.97 0.04,-37.12 0.3,-45.72 0.87,-31.88 3.44,-75.25 4.19,-102.55 l -20.66,-0.15 c -0.23,0.79 -2.76,13.04 -2.97,13.83 -21.76,77.86 -43.22,107.02 -64.4,123.88 -28.5,23.82 -73.18,37.49 -134.71,37.32 -61.12,-0.14 -108.92,-16.13 -136.62,-47.29 -16.42,-18.46 -25.6,-43.86 -24.76,-73.89 1.54,-54.63 39.19,-82.6 112.39,-123.66 27.16,-15.26 65.47,-35.31 136.66,-73.35 107.13,-57.2 165.99,-122.07 168.79,-222.24 4.05,-144.42 -124.27,-224.05 -257.27,-224.37 -165.57,-0.4 -273.48,88.98 -273.48,172.95 0,30.83 18.36,51.53 46.84,51.53 43.75,0 54.2,-26.68 72.05,-80.1 23.89,-71.58 89.17,-108.7 154.81,-108.7 76.92,0 146.06,45.46 145.34,132.7 -2.34,43.85 -26.82,101.62 -122.09,153.36 -34.28,18.59 -110.33,60.21 -141.32,77.66 -72.52,40.83 -141.62,85.72 -144.49,188.18 -1.37,49.62 13.12,93.87 44.16,129.33 7.02,7.81 20.32,21.03 20.32,21.03 l -200.54,0 0,-533.74 c 0.02,-8.18 0.88,-16.95 1.78,-24.93 21.42,-188.36 164.62,-300.73 399.14,-300.73 213.81,0 359.97,111.67 381.39,300.04 0.89,7.97 1.75,16.74 1.79,24.91 l 0,534.7"
         style="fill:#2b2c6d;fill-opacity:1;fill-rule:nonzero;stroke:none"
         id="path14"
         inkscape:connector-curvature="0" /><path
         d="m 3724.24,2848.24 c 13.93,-0.3 37.51,-0.6 45.67,-0.6 8.47,0 32.66,0.3 43.85,0.6 l 0,-4.23 c -13.61,-1.81 -19.34,-3.03 -22.07,-5.16 -1.83,-1.19 -3.34,-3.61 -3.62,-6.05 -1.21,-6.03 -2.14,-32.32 -2.14,-63.48 0,-53.83 0.6,-77.11 6.67,-90.73 9.06,-19.93 30.23,-25.4 47.76,-25.4 25.14,0 49.9,8.48 58.36,32.06 4.84,13.6 5.45,32.35 5.45,74.41 0,17.53 -0.61,41.42 -0.88,51.97 -0.63,13.03 -0.92,18.46 -1.83,22.11 -0.61,2.12 -2.42,3.92 -4.83,5.11 -3.03,1.53 -9.08,3.35 -23.3,5.16 l 0,4.23 c 16.34,-0.6 28.13,-0.6 36.29,-0.6 8.16,0 19.35,0.3 36,0.6 l 0,-4.23 c -9.99,-1.21 -15.74,-2.71 -19.38,-4.22 -2.71,-0.94 -4.82,-3.32 -5.43,-6.05 -1.23,-3.94 -1.82,-11.8 -2.11,-22.11 -0.3,-6.62 -1.22,-20.85 -1.5,-53.5 0,-22.99 -0.62,-37.51 -1.23,-50.49 -2.72,-44.47 -31.15,-69.27 -77.72,-69.27 -47.46,0 -85.88,13.92 -86.79,68.36 -0.31,16.01 -0.31,48.07 -0.31,61.97 0,9.39 0,54.14 -2.11,63.51 -0.6,2.43 -1.52,5.16 -4.24,6.35 -3.01,1.82 -7.25,3.64 -20.56,5.45 l 0,4.23"
         style="fill:#263472;fill-opacity:1;fill-rule:nonzero;stroke:none"
         id="path16"
         inkscape:connector-curvature="0" /><path
         d="m 4120.44,2811.65 c -0.33,12.1 -0.94,18.44 -1.83,22.09 -0.59,2.12 -1.82,4.24 -4.23,5.44 -3.02,1.49 -7.26,2.71 -21.78,4.83 l 0,4.23 c 16.02,-0.6 26.61,-0.6 34.78,-0.6 8.17,0 19.35,0.3 34.49,0.6 l 0,-4.23 c -9.39,-1.19 -15.74,-2.42 -19.36,-4.24 -2.72,-1.21 -4.83,-3.33 -5.45,-6.03 -0.92,-4.24 -1.83,-11.8 -2.12,-22.09 -0.29,-6.94 -0.89,-47.46 -0.89,-85.59 0,-56.85 1.18,-83.15 1.18,-87.67 l -6.33,-1.22 c -34.48,47.18 -113.71,150.57 -140.34,184.77 0.92,-54.12 1.52,-122.5 2.13,-141.23 0.3,-12.09 1.21,-19.95 2.11,-23.58 0.64,-2.12 1.53,-3.94 3.94,-5.13 3.04,-1.52 7.88,-2.72 22.67,-5.16 l 0,-4.23 c -16.3,0.59 -26.61,0.59 -34.76,0.59 -8.17,0 -19.06,-0.29 -35.69,-0.59 l 0,4.23 c 10,1.22 16.03,2.74 19.66,4.24 2.71,1.21 4.84,3.33 5.44,6.05 0.9,4.21 1.83,12.39 2.12,22.68 0.3,13.3 1.21,136.39 1.21,144.85 0,9.08 -2.43,13 -8.77,15.11 -3.03,0.9 -9.98,3.05 -20.25,4.24 l 0,4.23 c 6.94,-0.6 30.53,-0.6 38.71,-0.6 10.27,0 24.18,0.3 29,0.6 18.75,-26.91 43.27,-59.27 106.18,-141.51 -0.92,54.14 -1.23,84.98 -1.82,104.92"
         style="fill:#263472;fill-opacity:1;fill-rule:nonzero;stroke:none"
         id="path18"
         inkscape:connector-curvature="0" /><path
         d="m 4630.64,2697.05 c -4.23,-15.12 -9.06,-26.61 -12.7,-32.36 -2.41,-3.02 -6.66,-6.34 -11.19,-7.89 -8.46,-3 -26.6,-4.21 -43.24,-4.21 -12.08,0 -19.34,0.91 -23.29,2.44 -2.71,1.19 -4.84,3.32 -5.44,6.64 -2.43,10.89 -2.43,41.12 -2.43,83.14 28.74,0 40.53,-0.9 47.5,-2.38 4.52,-0.94 6.95,-2.44 9.38,-5.45 2.71,-3.64 5.13,-13.93 6.64,-23.59 l 4.82,0 c -0.3,12.38 -0.3,28.1 -0.3,34.46 0,8.47 0.3,28.12 0.61,35.99 l -4.83,0 c -2.42,-11.21 -4.53,-18.14 -6.65,-21.78 -1.51,-2.4 -4.25,-4.54 -6.67,-5.45 -5.74,-2.39 -16.92,-3.03 -50.5,-3.03 0,32.09 0.61,68.67 2.11,77.76 0.63,3 3.34,5.42 7.26,6.03 6.66,0.9 14.83,1.22 20.57,1.22 18.46,0 31.77,-1.53 37.8,-3.35 3.35,-0.9 7.56,-3.9 9.37,-7.56 1.82,-3.61 5.17,-12.41 8.48,-27.2 l 5.45,0 c -0.92,16.3 -0.92,34.45 -0.92,47.46 -39.3,-0.32 -163.61,-0.7 -222.9,0.33 l 0,-4.26 c 10,-0.9 16.95,-2.42 20.59,-3.63 5.43,-1.53 6.63,-4.52 6.63,-7.84 0,-4.25 -2.11,-13.95 -8.16,-29.35 -17.55,-44.75 -32.04,-79.23 -45.36,-112.2 -12.4,32.65 -26.91,69.58 -44.15,114.93 -6.63,17.84 -7.85,24.78 -7.85,27.51 0,2.72 1.51,5.16 5.43,6.95 3.04,1.21 10.59,2.73 19.66,3.63 l 0,4.26 c -26.54,-1.08 -129.64,-0.8 -177.83,0 l 0,-4.26 c 13.01,-1.5 18.13,-3.32 21.18,-5.16 2.72,-1.79 3.62,-3.92 4.25,-6.93 2.08,-9.39 2.08,-33.89 2.08,-84.98 0,-53.83 -0.29,-79.82 -2.41,-89.21 -0.59,-3.03 -2.11,-4.52 -4.23,-6.05 -2.74,-1.5 -7.86,-3.33 -20.87,-4.84 l 0,-4.25 c 13.92,0.32 35.69,0.61 43.86,0.61 8.47,0 34.17,-0.29 45.35,-0.61 l 0,4.25 c -13.61,1.51 -18.44,3.03 -21.17,4.84 -2.11,1.53 -3.01,3.95 -3.64,6.67 -1.49,9.05 -2.7,32.64 -2.7,87.68 0,54.12 0.91,77.41 2.42,86.18 0.6,2.72 1.81,5.16 3.92,6.64 2.36,1.8 9.96,4.54 20.18,4.54 7.3,0 13.22,-2.79 16.74,-5.43 7.55,-6.04 13.6,-19.63 36.59,-77.39 20.87,-52.63 37.49,-94.98 46.27,-121.6 l 7.55,0 c 13.02,31.76 31.15,74.42 55.05,130.05 23.87,55.34 28.71,63.8 33.85,68.04 4.19,3.59 11.35,6.23 19.53,6.23 12.71,0 16.53,-2.62 19.53,-4.44 2.72,-1.79 3.61,-3.92 4.2,-6.93 2.12,-9.39 2.12,-33.89 2.12,-84.98 0,-53.83 -0.29,-79.82 -2.4,-89.21 -0.62,-3.03 -2.1,-4.52 -4.25,-6.05 -2.72,-1.5 -7.85,-3.33 -20.86,-4.84 l 0,-4.25 c 13.91,0.32 49.6,0.61 57.78,0.61 41.7,0 61.97,0 104,-0.29 0.91,21.47 2.13,40.81 3.32,53.83 l -5.13,0.31"
         style="fill:#263472;fill-opacity:1;fill-rule:nonzero;stroke:none"
         id="path20"
         inkscape:connector-curvature="0" /><path
         d="m 4792.45,2641.71 c -17.83,22.67 -45.97,68.63 -61.39,94.95 l -3.33,0 c -4.22,0 -14.52,0.32 -19.36,0.91 0,-59.27 1.23,-73.19 3.04,-79.55 0.59,-2.1 2.73,-4.83 5.14,-6.05 2.71,-1.81 9.67,-3.32 23.59,-5.13 l 0,-4.23 c -11.19,0.3 -40.22,0.59 -48.68,0.59 -8.19,0 -30.86,-0.29 -44.78,-0.59 l 0,4.23 c 13.03,1.51 17.85,3.32 20.87,4.84 2.15,1.22 3.63,3.02 4.24,5.73 2.13,8.18 2.42,35.41 2.42,89.53 0,51.72 0,76.19 -2.13,85.27 -0.6,2.43 -1.49,5.45 -4.23,6.67 -3.03,1.79 -7.84,3.32 -21.17,5.11 l 0,4.25 c 15.44,-0.6 40.83,-0.6 49.01,-0.6 5.73,0 33.57,0.3 41.72,0.3 63.21,0 73.8,-28.11 73.8,-54.14 0,-17.52 -10.28,-41.7 -44.76,-52.02 9.07,-14.5 28.42,-44.44 33.55,-51.37 13.92,-19.07 23.3,-29.96 30.57,-35.1 4.22,-3.02 10.57,-6.59 21.76,-8.11 l 0,-3.93 c -20.49,0 -45.67,-0.66 -59.88,-1.56 m -66.23,103.72 c 28.74,0 47.76,9.37 47.76,46.55 0,32.69 -14.49,47.81 -52.9,47.81 -9.99,0 -11.48,-0.61 -11.81,-8.79 -0.59,-12.38 -0.9,-38.71 -0.9,-84.66 6.06,-0.62 13.32,-0.91 17.85,-0.91"
         style="fill:#263472;fill-opacity:1;fill-rule:nonzero;stroke:none"
         id="path22"
         inkscape:connector-curvature="0" /><path
         d="m 4981.49,2798.66 c -5.15,21.17 -10.6,29.02 -16.02,33.55 -7.27,6.35 -19.39,9.99 -35.39,9.99 -26.02,0 -42.34,-11.5 -42.34,-32.37 0,-14.51 8.17,-25.38 27.51,-36.27 l 34.79,-19.36 c 27.82,-15.74 42.64,-29.02 42.64,-55.64 0,-36.89 -32.97,-59.87 -74.7,-59.87 -24.19,0 -47.17,4.22 -63.2,12.37 0.32,8.19 0.32,16.95 0.32,26.02 0,8.47 0,14.84 -0.32,22.07 l 6.03,0 c 5.15,-19.95 11.5,-30.53 16.33,-35.07 8.18,-7.57 21.19,-15.14 47.5,-15.14 22.07,0 39.61,12.4 39.61,34.19 0,11.8 -8.17,26.01 -31.75,39.32 l -36.59,20.86 c -19.06,10.58 -35.1,24.48 -35.1,51.72 0,33.26 25.41,57.77 80.47,57.77 14.8,0 32.03,-3.05 45.95,-6.66 -0.31,-8.48 -0.31,-15.14 -0.31,-23.3 0,-8.48 0.31,-16.92 0.31,-24.18 l -5.74,0"
         style="fill:#263472;fill-opacity:1;fill-rule:nonzero;stroke:none"
         id="path24"
         inkscape:connector-curvature="0" /><path
         d="m 5052.87,2643.2 c -8.15,0 -29.94,-0.29 -43.86,-0.59 l 0,4.25 c 13.03,1.49 18.17,3.3 20.88,4.84 2.11,1.49 3.61,3 4.22,6.03 2.13,9.39 2.43,35.36 2.43,89.21 0,51.09 0,75.61 -2.14,84.96 -0.57,3.03 -1.48,5.16 -4.21,6.95 -3.01,1.82 -8.15,3.66 -21.18,5.16 l 0,4.23 c 13.92,-0.3 35.71,-0.6 43.86,-0.6 8.48,0 34.17,0.3 45.35,0.6 l 0,-4.23 c -13.89,-1.81 -18.74,-3.34 -21.17,-5.16 -2.11,-1.48 -3.33,-3.92 -3.92,-6.64 -1.5,-8.77 -2.43,-32.06 -2.43,-86.18 0,-55.04 1.22,-78.63 2.73,-87.7 0.6,-2.7 1.51,-5.14 3.62,-6.63 2.74,-1.83 7.57,-3.35 21.17,-4.84 l 0,-4.25 c -11.18,0.3 -36.87,0.59 -45.35,0.59"
         style="fill:#263472;fill-opacity:1;fill-rule:nonzero;stroke:none"
         id="path26"
         inkscape:connector-curvature="0" /><path
         d="m 5196.22,2643.2 c -8.15,0 -30.25,-0.29 -44.16,-0.59 l 0,4.25 c 12.71,1.49 18.47,3.3 21.16,4.84 2.15,1.49 3.64,3 4.25,6.03 2.11,9.39 2.74,35.36 2.74,89.21 0,51.7 -0.33,75.02 -1.52,84.38 -0.33,3 -2.13,5.44 -7.25,6.05 -6.06,0.59 -13.01,0.9 -18.76,0.9 -10.29,0 -19.37,-1.51 -25.11,-3.95 -3.32,-1.52 -6.63,-4.52 -8.77,-8.13 -2.12,-3.64 -6.62,-14.24 -9.67,-28.43 l -5.44,0 c 0.6,16.31 0.9,37.48 0.9,50.48 39.29,-0.3 53.54,-0.6 92.83,-0.6 39.33,0 53.22,0.3 92.54,0.6 0,-13 0.3,-34.17 0.91,-50.48 l -5.74,0 c -3.03,14.19 -7.87,24.79 -9.68,28.43 -2.1,3.61 -5.44,6.35 -8.76,7.84 -6.05,2.73 -14.2,4.24 -23.59,4.24 -5.75,0 -13.91,-0.31 -19.97,-0.9 -5.13,-0.61 -7.26,-3.05 -7.54,-6.05 -0.62,-8.19 -1.53,-30.84 -1.53,-85.57 0,-55.05 0.91,-78.35 2.43,-87.42 0.3,-2.7 1.8,-5.14 3.91,-6.63 2.44,-1.83 7.87,-3.35 21.48,-4.84 l 0,-4.25 c -11.18,0.3 -37.18,0.59 -45.66,0.59"
         style="fill:#263472;fill-opacity:1;fill-rule:nonzero;stroke:none"
         id="path28"
         inkscape:connector-curvature="0" /><path
         d="m 5353.8,2643.2 c -8.18,0 -43.85,-0.29 -57.75,-0.59 l 0,4.25 c 12.99,1.49 18.14,3.3 20.85,4.84 2.11,1.49 3.65,3 4.22,6.03 2.13,9.39 2.43,35.36 2.43,89.21 0,51.09 0,75.61 -2.11,84.96 -0.6,3.03 -1.51,5.16 -4.23,6.95 -3.02,1.82 -8.17,3.66 -21.16,5.16 l 0,4.23 c 14.5,-0.3 47.46,-0.6 55.64,-0.6 39.31,0 56.84,0 96.16,0.3 0,-13.01 0,-31.14 0.9,-47.46 l -5.43,0 c -3.33,14.82 -6.66,23.59 -8.48,27.22 -1.8,3.62 -6.06,6.62 -9.38,7.54 -6.04,1.82 -19.34,3.32 -37.77,3.32 -5.77,0 -13.93,-0.29 -20.58,-1.19 -3.93,-0.61 -6.66,-3.05 -7.27,-6.05 -1.5,-9.09 -2.12,-45.68 -2.12,-77.74 33.58,0 44.76,0.62 50.49,3.03 2.45,0.91 5.16,3.05 6.66,5.45 2.13,3.64 4.25,10.57 6.66,21.78 l 4.84,0 c -0.29,-7.89 -0.6,-27.52 -0.6,-35.99 0,-6.36 0,-22.08 0.31,-34.46 l -4.85,0 c -1.51,9.66 -3.92,19.95 -6.65,23.57 -2.41,3.03 -4.82,4.53 -9.37,5.47 -6.96,1.48 -18.75,2.41 -47.49,2.41 0,-42.05 0,-72.28 2.43,-83.17 0.6,-3.34 2.71,-5.45 5.43,-6.66 3.93,-1.51 11.21,-2.42 23.3,-2.42 16.63,0 34.76,1.21 43.25,4.21 4.53,1.53 8.77,4.87 11.19,7.87 3.59,5.77 8.47,17.23 12.7,32.38 l 5.12,-0.3 c -1.2,-13.01 -2.41,-32.37 -3.32,-53.84 -42.04,0.29 -62.29,0.29 -104.02,0.29"
         style="fill:#263472;fill-opacity:1;fill-rule:nonzero;stroke:none"
         id="path30"
         inkscape:connector-curvature="0" /><path
         d="m 5605.11,2798.66 c -5.15,21.17 -10.57,29.02 -16.03,33.55 -7.25,6.35 -19.35,9.99 -35.37,9.99 -26,0 -42.34,-11.5 -42.34,-32.37 0,-14.51 8.17,-25.38 27.52,-36.27 l 34.77,-19.36 c 27.82,-15.74 42.63,-29.02 42.63,-55.64 0,-36.89 -32.96,-59.87 -74.69,-59.87 -24.18,0 -47.16,4.22 -63.2,12.37 0.31,8.19 0.31,16.95 0.31,26.02 0,8.47 0,14.84 -0.31,22.07 l 6.05,0 c 5.13,-19.95 11.52,-30.53 16.34,-35.07 8.16,-7.57 21.16,-15.14 47.46,-15.14 22.09,0 39.62,12.4 39.62,34.19 0,11.8 -8.16,26.01 -31.75,39.32 l -36.58,20.86 c -19.04,10.58 -35.09,24.48 -35.09,51.72 0,33.26 25.41,57.77 80.44,57.77 14.82,0 32.05,-3.05 45.98,-6.66 -0.31,-8.48 -0.31,-15.14 -0.31,-23.3 0,-8.48 0.31,-16.92 0.31,-24.18 l -5.76,0"
         style="fill:#263472;fill-opacity:1;fill-rule:nonzero;stroke:none"
         id="path32"
         inkscape:connector-curvature="0" /><path
         d="m 3754.74,3205.3 c -7.24,29.75 -14.89,40.81 -22.54,47.2 -10.2,8.91 -27.21,14.02 -49.75,14.02 -36.56,0 -59.53,-16.16 -59.53,-45.48 0,-20.42 11.48,-35.73 38.7,-51.03 l 48.9,-27.21 c 39.11,-22.1 59.93,-40.82 59.93,-78.22 0,-51.88 -46.32,-84.2 -104.99,-84.2 -34.02,0 -66.35,5.96 -88.88,17.44 0.43,11.47 0.43,23.82 0.43,36.56 0,11.92 0,20.84 -0.43,31.04 l 8.51,0 c 7.22,-28.05 16.14,-42.95 22.97,-49.32 11.48,-10.62 29.75,-21.25 66.74,-21.25 31.05,0 55.7,17.43 55.7,48.04 0,16.56 -11.48,36.57 -44.63,55.27 l -51.47,29.35 c -26.78,14.86 -49.31,34.42 -49.31,72.69 0,46.77 35.7,81.19 113.09,81.19 20.84,0 45.07,-4.24 64.62,-9.35 -0.41,-11.9 -0.41,-21.24 -0.41,-32.73 0,-11.92 0.41,-23.82 0.41,-34.01 l -8.06,0"
         style="fill:#263472;fill-opacity:1;fill-rule:nonzero;stroke:none"
         id="path34"
         inkscape:connector-curvature="0" /><path
         d="m 3942.22,2979.97 c -29.77,0 -56.98,7.64 -79.51,22.09 -40.4,24.68 -66.34,71.01 -66.34,125 0,95.67 67.6,154.34 153.07,154.34 32.3,0 61.22,-9.35 84.61,-26.36 34.85,-25.51 56.55,-67.17 56.55,-117.34 0,-92.69 -56.13,-157.73 -148.38,-157.73 m 62.92,250.84 c -16.59,22.97 -37,36.57 -68.02,36.57 -52.32,0 -85.9,-43.81 -85.9,-119.48 0,-51.87 12.33,-95.23 34.02,-121.6 16.16,-20.39 37.43,-33.59 65.88,-33.59 54.02,0 84.63,47.62 84.63,122.88 0,49.73 -11.49,89.71 -30.61,115.22"
         style="fill:#263472;fill-opacity:1;fill-rule:nonzero;stroke:none"
         id="path36"
         inkscape:connector-curvature="0" /><path
         d="m 4793.77,2979.97 c -29.76,0 -56.97,7.64 -79.5,22.09 -40.41,24.68 -66.33,71.01 -66.33,125 0,95.67 67.6,154.34 153.04,154.34 32.32,0 61.22,-9.35 84.62,-26.36 34.87,-25.51 56.54,-67.17 56.54,-117.34 0,-92.69 -56.12,-157.73 -148.37,-157.73 m 62.9,250.84 c -16.55,22.97 -36.96,36.57 -68.01,36.57 -52.28,0 -85.87,-43.81 -85.87,-119.48 0,-51.87 12.32,-95.23 34.01,-121.6 16.16,-20.39 37.4,-33.59 65.9,-33.59 53.97,0 84.59,47.62 84.59,122.88 0,49.73 -11.46,89.71 -30.62,115.22"
         style="fill:#263472;fill-opacity:1;fill-rule:nonzero;stroke:none"
         id="path38"
         inkscape:connector-curvature="0" /><path
         d="m 5780.07,3062.44 c -5.93,-21.26 -12.75,-37.4 -17.85,-45.49 -3.38,-4.25 -9.36,-8.92 -15.73,-11.04 -11.89,-4.26 -37.42,-5.99 -60.8,-5.99 -16.99,0 -27.21,1.3 -32.73,3.42 -3.83,1.72 -6.8,4.69 -7.66,9.36 -3.38,15.31 -3.38,57.81 -3.38,116.92 40.38,0 56.96,-1.27 66.74,-3.4 6.38,-1.28 9.77,-3.42 13.18,-7.66 3.82,-5.11 7.21,-19.55 9.36,-33.17 l 6.8,0 c -0.45,17.44 -0.45,39.55 -0.45,48.48 0,11.89 0.45,39.54 0.89,50.6 l -6.82,0 c -3.42,-15.73 -6.38,-25.53 -9.35,-30.62 -2.14,-3.4 -5.96,-6.38 -9.35,-7.65 -8.09,-3.4 -23.82,-4.24 -71,-4.24 0,45.05 0.83,96.49 2.96,109.27 0.85,4.23 4.67,7.63 10.19,8.48 9.38,1.28 20.84,1.71 28.93,1.71 25.93,0 44.63,-2.13 53.14,-4.68 4.68,-1.28 10.62,-5.51 13.19,-10.63 2.53,-5.11 7.23,-17.43 11.89,-38.25 l 7.67,0 c -1.28,22.94 -1.28,48.45 -1.28,66.74 -55.29,-0.42 -252.59,-0.42 -264.01,-0.42 -11.48,0 -26.36,0 -48.89,0.85 l 0,-5.96 c 20.39,-2.97 26.37,-4.68 30.63,-6.79 3.38,-1.72 5.1,-4.68 5.93,-7.66 1.26,-5.11 2.11,-14.01 2.55,-31.05 0.83,-28.05 1.27,-71.41 2.54,-147.53 -88.41,115.65 -122.86,161.16 -149.23,198.99 -6.79,-0.43 -26.34,-0.85 -40.82,-0.85 l -103.73,0 c -11.45,0 -26.35,0 -48.87,0.85 l 0,-5.96 c 20.4,-2.97 26.35,-4.68 30.6,-6.79 3.41,-1.72 5.1,-4.68 5.97,-7.66 1.27,-5.11 2.12,-14.01 2.55,-31.05 0.83,-28.05 1.27,-71.41 2.55,-147.53 -88.44,115.65 -122.87,161.16 -149.25,198.99 -6.79,-0.43 -26.36,-0.85 -40.8,-0.85 -11.49,0 -44.64,0 -54.42,0.85 l 0,-5.96 c 14.47,-1.69 24.24,-4.68 28.47,-5.96 8.95,-2.97 12.34,-8.49 12.34,-21.26 0,-11.89 -1.28,-184.92 -1.69,-203.63 -0.43,-14.46 -1.7,-25.94 -2.99,-31.89 -0.85,-3.82 -3.84,-6.83 -7.66,-8.51 -5.09,-2.12 -13.6,-4.25 -27.64,-5.95 l 0,-5.96 c 23.41,0.43 38.7,0.85 50.2,0.85 11.44,0 25.92,0 48.89,-0.85 l 0,5.96 c -20.85,3.4 -27.65,5.1 -31.89,7.24 -3.43,1.68 -4.7,4.23 -5.56,7.22 -1.25,5.1 -2.52,16.15 -2.95,33.14 -0.83,26.37 -1.71,122.45 -2.98,198.57 37.41,-48.05 148.81,-193.45 197.27,-259.79 l 8.94,1.7 c 0,6.39 -1.71,43.38 -1.71,123.31 0,53.57 0.85,110.54 1.29,120.31 0.42,14.47 1.69,25.09 2.96,31.05 0.87,3.83 4.29,7.11 7.66,8.49 23.35,9.58 52.82,1.6 56.54,0 8.64,-3.68 12.32,-8.49 12.32,-21.26 0,-11.89 -1.29,-184.92 -1.72,-203.63 -0.41,-14.46 -1.69,-25.94 -2.96,-31.89 -0.85,-3.82 -3.83,-6.83 -7.64,-8.51 -5.13,-2.12 -13.62,-4.25 -27.65,-5.95 l 0,-5.96 c 23.38,0.43 38.68,0.85 50.18,0.85 11.47,0 25.92,0 48.88,-0.85 l 0,5.96 c -20.83,3.4 -27.64,5.1 -31.88,7.24 -3.4,1.68 -4.68,4.23 -5.53,7.22 -1.27,5.1 -2.58,16.15 -2.99,33.14 -0.84,26.37 -1.68,122.45 -2.97,198.57 37.41,-48.05 148.81,-193.45 197.29,-259.79 l 8.92,1.7 c 0,6.39 -1.69,43.38 -1.69,123.31 0,53.57 0.83,110.54 1.26,120.31 0.43,14.47 1.71,25.09 2.99,31.05 0.84,3.83 3.5,6.77 7.64,8.49 25.49,10.61 54.84,1.27 59.09,-1.27 3.82,-2.55 5.11,-5.53 5.95,-9.78 2.98,-13.18 2.98,-47.6 2.98,-119.46 0,-75.67 -0.43,-112.24 -3.42,-125.44 -0.83,-4.24 -2.96,-6.37 -5.95,-8.5 -3.82,-2.13 -11.03,-4.66 -29.33,-6.79 l 0,-5.96 c 19.56,0.43 69.72,0.85 81.19,0.85 58.69,0 87.18,0 146.27,-0.42 1.27,30.2 2.99,57.38 4.67,75.68 l -7.23,0.42"
         style="fill:#263472;fill-opacity:1;fill-rule:nonzero;stroke:none"
         id="path40"
         inkscape:connector-curvature="0" /><path
         d="m 4511.04,2999.1 c -19.98,0 -26.37,0.84 -34,4.24 -3.83,1.7 -7.24,6.38 -8.08,10.22 -2.56,9.76 -2.98,33.14 -2.98,116.48 l 9.34,0 c 34.89,0 49.33,-1.25 63.78,-7.24 19.55,-8.06 30.62,-29.75 30.62,-56.11 0,-45.9 -21.7,-67.59 -58.68,-67.59 m -43.78,250.84 c 0.43,9.77 4.24,12.34 16.58,12.34 53.15,0 73.98,-13.62 73.98,-59.11 0,-28.07 -11.91,-51.01 -38.28,-57.4 -7.65,-2.12 -25.08,-3.81 -42.1,-3.81 l -11.46,0 c 0,64.18 0.42,91.41 1.28,107.98 M 4212.6,3130.47 c -6.39,0 -16.58,0.42 -25.09,1.28 0,64.63 0.43,101.62 1.27,119.05 0.42,11.48 2.56,12.31 16.58,12.31 54.01,0 74.42,-21.26 74.42,-67.16 0,-52.3 -26.79,-65.48 -67.18,-65.48 m 321.4,8.52 c 45.91,8.91 73.99,34.42 73.99,66.74 0,36.56 -16.59,68.86 -103.33,68.86 -11.47,0 -57.82,-0.41 -65.9,-0.41 -11.47,0 -38.26,0.41 -59.94,0.85 l 0,-5.96 c 18.7,-2.55 25.52,-4.68 29.77,-7.22 3.79,-2.14 5.08,-5.54 5.93,-8.94 2.99,-13.17 2.99,-47.61 2.99,-120.32 0,-76.09 -0.14,-111.64 -3.11,-124.39 -0.85,-3.82 -4.1,-8.29 -7.09,-9.99 -3.02,-1.7 -8.35,-4.58 -20.05,-4.58 -9.06,0 -19.76,4.4 -27.96,10.14 -10.28,7.16 -23.41,22.53 -42.96,49.33 -7.23,9.78 -34.44,51.87 -47.21,72.28 48.48,14.43 62.93,48.47 62.93,73.12 0,36.56 -14.86,76.09 -103.72,76.09 -11.49,0 -50.6,-0.41 -58.68,-0.41 -11.49,0 -47.22,0 -68.89,0.85 l 0,-5.96 c 18.71,-2.55 25.53,-4.68 29.77,-7.22 3.83,-1.71 5.11,-5.96 5.96,-9.36 2.96,-12.75 2.96,-47.19 2.96,-119.9 0,-76.09 -0.43,-114.37 -3.42,-125.85 -0.83,-3.84 -2.94,-6.37 -5.91,-8.08 -4.26,-2.13 -11.07,-4.66 -29.36,-6.79 l 0,-5.96 c 19.56,0.43 51.45,0.86 62.93,0.86 11.9,0 52.74,-0.43 68.46,-0.86 l 0,5.96 c -19.56,2.54 -29.34,4.66 -33.19,7.24 -3.37,1.69 -6.35,5.51 -7.2,8.49 -2.57,8.94 -4.26,28.48 -4.26,111.82 6.82,-0.86 21.26,-1.29 27.23,-1.29 l 4.67,0 c 21.67,-36.98 61.05,-102.22 86.13,-134.1 40.52,2.32 79.32,2.29 96.62,2.29 11.9,0 74.03,-0.41 98.26,-0.41 86.32,0.43 122.46,33.6 122.46,83.35 0,41.66 -34.04,65.46 -88.88,69.73"
         style="fill:#263472;fill-opacity:1;fill-rule:nonzero;stroke:none"
         id="path42"
         inkscape:connector-curvature="0" /><path
         d="m 3576.58,2908.76 2210.72,0 0,20.4688 -2210.72,0 0,-20.4688 z"
         style="fill:#d42b3e;fill-opacity:1;fill-rule:nonzero;stroke:none"
         id="path44"
         inkscape:connector-curvature="0" /><path
         d="m 5358.38,2858.47 c 18.3,14.8 37.02,31.07 42.27,35.48 4.58,3.84 8.76,6.51 13.89,6.06 6.02,-0.53 10.99,-6.1 10.41,-12.76 -0.56,-6.32 -5.68,-9.53 -11.01,-11.47 -12.9,-4.94 -31.76,-12.41 -53.7,-20.5 l -1.86,3.19"
         style="fill:#263472;fill-opacity:1;fill-rule:nonzero;stroke:none"
         id="path46"
         inkscape:connector-curvature="0" /></g></g></svg>