<?xml version="1.0" encoding="UTF-8" standalone="no"?>
<!-- Created with Inkscape (http://www.inkscape.org/) -->

<svg
   xmlns:dc="http://purl.org/dc/elements/1.1/"
   xmlns:cc="http://creativecommons.org/ns#"
   xmlns:rdf="http://www.w3.org/1999/02/22-rdf-syntax-ns#"
   xmlns:svg="http://www.w3.org/2000/svg"
   xmlns="http://www.w3.org/2000/svg"
   xmlns:sodipodi="http://sodipodi.sourceforge.net/DTD/sodipodi-0.dtd"
   xmlns:inkscape="http://www.inkscape.org/namespaces/inkscape"
   width="744.09448819"
   height="1052.3622047"
   id="svg3962"
   version="1.1"
   inkscape:version="0.48.4 r9939"
   sodipodi:docname="New document 11">
  <defs
     id="defs3964" />
  <sodipodi:namedview
     id="base"
     pagecolor="#ffffff"
     bordercolor="#666666"
     borderopacity="1.0"
     inkscape:pageopacity="0.0"
     inkscape:pageshadow="2"
     inkscape:zoom="0.35"
     inkscape:cx="39.285714"
     inkscape:cy="520"
     inkscape:document-units="px"
     inkscape:current-layer="layer1"
     showgrid="false"
     inkscape:window-width="1920"
     inkscape:window-height="1007"
     inkscape:window-x="0"
     inkscape:window-y="24"
     inkscape:window-maximized="1" />
  <metadata
     id="metadata3967">
    <rdf:RDF>
      <cc:Work
         rdf:about="">
        <dc:format>image/svg+xml</dc:format>
        <dc:type
           rdf:resource="http://purl.org/dc/dcmitype/StillImage" />
        <dc:title></dc:title>
      </cc:Work>
    </rdf:RDF>
  </metadata>
  <g
     inkscape:label="Layer 1"
     inkscape:groupmode="layer"
     id="layer1">
    <g
       transform="matrix(26.455026,0,0,-26.455026,421.01549,333.55678)"
       id="g992"
       style="fill:#00acef;fill-opacity:0.94117647">
      <path
         inkscape:connector-curvature="0"
         id="path994"
         transform="matrix(0.0378,0,0,-0.0378,-20.751,11.959001)"
         d="M 233.3125,218 C 214.97917,218 200,233.01042 200,251.34375 l 0,392.53125 c 0,18.33333 14.97917,33.34375 33.3125,33.34375 l 533.34375,0 C 784.96313,677.21875 800,662.20833 800,643.875 l 0,-392.53125 C 800,233.01042 784.96313,218 766.65625,218 l -533.34375,0 z m 21.59375,54.90625 490.1875,0 0,308.09375 -490.1875,0 0,-308.09375 z m 294.0625,43.46875 0,129.9375 31.4375,-24.34375 31.125,66.21875 29.9375,-14.0625 -31.15625,-66.1875 38.375,-8.21875 L 548.96875,316.375 z M 433.8125,710.53125 C 429.47388,732.43601 418.36508,748.71429 389,753 l -29.96875,0 C 346.01538,753 335.5,763.45767 335.5,776.5 c 0,12.98942 10.51538,23.5 23.53125,23.5 l 281.9375,0 C 653.93171,800 664.5,789.48942 664.5,776.5 664.5,763.45767 653.93171,753 640.96875,753 l -26.8125,0 c -29.36508,-4.28571 -40.53638,-20.56399 -44.875,-42.46875 l -135.46875,0 z"
         style="fill:#00acef;fill-opacity:0.94117647;fill-rule:nonzero;stroke:none" />
    </g>
  </g>
</svg>
