<?xml version="1.0" encoding="UTF-8" standalone="no"?>
<!-- Created with Inkscape (http://www.inkscape.org/) -->

<svg
   xmlns:dc="http://purl.org/dc/elements/1.1/"
   xmlns:cc="http://creativecommons.org/ns#"
   xmlns:rdf="http://www.w3.org/1999/02/22-rdf-syntax-ns#"
   xmlns:svg="http://www.w3.org/2000/svg"
   xmlns="http://www.w3.org/2000/svg"
   xmlns:sodipodi="http://sodipodi.sourceforge.net/DTD/sodipodi-0.dtd"
   xmlns:inkscape="http://www.inkscape.org/namespaces/inkscape"
   id="svg2"
   version="1.1"
   inkscape:version="0.91 r13725"
   xml:space="preserve"
   width="465.14999"
   height="141.4875"
   viewBox="0 0 465.14999 141.4875"
   sodipodi:docname="logo_polytech.svg"><metadata
     id="metadata8"><rdf:RDF><cc:Work
         rdf:about=""><dc:format>image/svg+xml</dc:format><dc:type
           rdf:resource="http://purl.org/dc/dcmitype/StillImage" /><dc:title></dc:title></cc:Work></rdf:RDF></metadata><defs
     id="defs6" /><sodipodi:namedview
     pagecolor="#ffffff"
     bordercolor="#666666"
     borderopacity="1"
     objecttolerance="10"
     gridtolerance="10"
     guidetolerance="10"
     inkscape:pageopacity="0"
     inkscape:pageshadow="2"
     inkscape:window-width="1920"
     inkscape:window-height="1004"
     id="namedview4"
     showgrid="false"
     inkscape:zoom="0.78899281"
     inkscape:cx="232.575"
     inkscape:cy="70.743752"
     inkscape:window-x="0"
     inkscape:window-y="24"
     inkscape:window-maximized="1"
     inkscape:current-layer="g10" /><g
     id="g10"
     inkscape:groupmode="layer"
     inkscape:label="ink_ext_XXXXXX"
     transform="matrix(1.25,0,0,-1.25,0,141.4875)"><g
       id="g12"
       transform="scale(0.1,0.1)"><path
         d="m 1042.58,565.621 c 0,59.285 5.09,114.785 15.34,166.453 10.21,51.672 25.67,102.52 46.52,152.617 20.81,50.071 46.58,100.227 77.2,150.559 18.47,30.63 34.82,51.98 46.55,66.25 12.1,14.77 24.98,30.37 42.65,30.37 19.24,0 28.86,-5.32 28.86,-15.93 0,-3.54 -9.05,-24.84 -27.1,-63.92 -18.09,-39.09 -35.06,-80.032 -50.96,-122.836 -15.95,-42.86 -30.68,-96.25 -44.17,-160.293 -13.59,-64.012 -20.35,-131.778 -20.35,-203.27 0,-70.695 6.67,-137.707 20.02,-200.93 13.35,-63.23 32.26,-118.046 49.35,-164.394 17.1,-46.367 30.47,-87.926 47.57,-124.6251 17.09,-36.7305 25.64,-56.6602 25.64,-59.8125 C 1299.7,5.26172 1290.08,0 1270.84,0 c -18.08,0 -30.47,18.0508 -42.65,31.7617 -12.18,13.7696 -27.7,35.7383 -46.55,66.0196 -31.01,51.8437 -56.68,101.8237 -76.9,149.9487 -20.24,48.114 -35.63,98.133 -46.23,150 -10.63,51.786 -15.93,107.782 -15.93,167.891"
         style="fill:#1476c6;fill-opacity:1;fill-rule:nonzero;stroke:none"
         id="path14"
         inkscape:connector-curvature="0" /><path
         d="m 1772.97,332.379 c 0,0 -4.88,-2.051 -4.88,-4.27 l 0,-121.179 c 0,-2.149 4.98,-4.239 4.98,-4.239 0,0 4.88,2.032 4.88,4.239 l 0,121.179 c 0,2.18 -4.98,4.27 -4.98,4.27"
         style="fill:#fab20b;fill-opacity:1;fill-rule:nonzero;stroke:none"
         id="path16"
         inkscape:connector-curvature="0" /><path
         d="m 1772.4,201.09 c -0.1,0 -1.36,0.527 -2.77,1.426 -1.31,0.957 -3.11,1.98 -3.26,4.414 l 0,121.179 c 0.15,2.442 1.95,3.457 3.2,4.446 1.41,0.879 2.68,1.425 2.73,1.425 l 0.67,0.293 0.7,-0.293 c 0.04,0 1.35,-0.546 2.7,-1.425 1.34,-0.989 3.12,-2.004 3.3,-4.446 l 0,-121.179 c -0.18,-2.434 -1.96,-3.457 -3.26,-4.414 -1.35,-0.899 -2.64,-1.426 -2.7,-1.426 l -0.64,-0.313 -0.67,0.313 z m -2.54,5.82 c 0.04,-0.058 0.14,-0.176 0.34,-0.383 0.29,-0.339 0.78,-0.73 1.3,-1.043 0.57,-0.351 1.14,-0.664 1.57,-0.898 0.29,0.195 0.64,0.371 1.03,0.633 1,0.519 1.94,1.367 2.05,1.691 l 0.06,0.02 0,121.121 c -0.06,0 -0.06,0.058 -0.06,0.058 -0.04,0.09 -0.11,0.235 -0.27,0.411 -0.29,0.343 -0.82,0.722 -1.37,1.046 -0.56,0.352 -1.09,0.664 -1.48,0.899 -0.33,-0.176 -0.73,-0.352 -1.14,-0.645 -0.91,-0.519 -1.89,-1.359 -2.03,-1.652 -0.04,-0.059 0,-0.059 0,-0.059 l 0,-121.199 z m 2.44,123.875 0.67,1.574 -0.67,-1.574"
         style="fill:#fab20b;fill-opacity:1;fill-rule:nonzero;stroke:none"
         id="path18"
         inkscape:connector-curvature="0" /><path
         d="m 1728.75,279.293 c 0,0 -0.62,-5.293 1.27,-6.387 l 29.2,-16.855 c 11.8,-6.809 22.66,-13.086 22.66,-13.086 l 29.21,-16.856 c 1.94,-1.132 6.18,2.129 6.18,2.129 0,0 0.68,5.293 -1.25,6.387 l -29.2,16.855 c 0,0 -10.88,6.25 -22.68,13.086 l -29.24,16.856 c -1.85,1.094 -6.15,-2.129 -6.15,-2.129"
         style="fill:#fab20b;fill-opacity:1;fill-rule:nonzero;stroke:none"
         id="path20"
         inkscape:connector-curvature="0" /><path
         d="m 1810.23,224.605 -29.19,16.856 c 0,0 -10.9,6.269 -22.66,13.074 l -29.22,16.848 c -1.25,0.762 -1.64,1.953 -1.95,2.969 -0.24,1.015 -0.3,2.031 -0.3,2.929 0,1.25 0.12,2.188 0.12,2.215 l 0.1,0.695 0.6,0.469 c 0.18,0.028 3.05,2.559 6.27,2.735 0.57,0 1.2,-0.118 1.8,-0.469 l 29.22,-16.887 c 11.82,-6.766 22.66,-13.074 22.64,-13.074 l 29.2,-16.856 c 1.25,-0.754 1.71,-1.945 1.97,-2.91 0.21,-1.074 0.31,-2.09 0.31,-2.961 0,-1.25 -0.14,-2.175 -0.14,-2.234 l -0.07,-0.703 -0.59,-0.461 c -0.18,-0.027 -3.05,-2.559 -6.29,-2.703 -0.55,0 -1.19,0.086 -1.82,0.468 m 1.82,2.989 c 0.41,-0.02 1.64,0.41 2.52,0.996 0.39,0.234 0.76,0.43 1.02,0.605 0.02,0.262 0.02,0.645 0.02,1.043 0.05,1.192 -0.28,2.707 -0.45,2.883 l -0.04,0 -29.22,16.856 c 0,0 -10.84,6.25 -22.64,13.066 l -29.18,16.855 -0.08,0 c -0.41,0.04 -1.66,-0.402 -2.54,-0.976 -0.41,-0.215 -0.76,-0.449 -1.03,-0.617 0,-0.262 -0.04,-0.633 -0.04,-1.024 -0.04,-1.191 0.31,-2.726 0.49,-2.871 l 0,0.028 29.24,-16.883 c 11.77,-6.797 22.59,-13.047 22.65,-13.078 l 29.18,-16.883 0.1,0"
         style="fill:#fab20b;fill-opacity:1;fill-rule:nonzero;stroke:none"
         id="path22"
         inkscape:connector-curvature="0" /><path
         d="m 1817.29,279.293 c 0,0 0.66,-5.293 -1.25,-6.387 l -29.22,-16.855 c -11.8,-6.809 -22.68,-13.086 -22.68,-13.086 l -29.24,-16.856 c -1.85,-1.132 -6.15,2.129 -6.15,2.129 0,0 -0.61,5.293 1.29,6.387 l 29.2,16.855 c 0,0 10.84,6.25 22.64,13.086 l 29.23,16.856 c 1.92,1.094 6.18,-2.129 6.18,-2.129"
         style="fill:#fab20b;fill-opacity:1;fill-rule:nonzero;stroke:none"
         id="path24"
         inkscape:connector-curvature="0" /><path
         d="m 1734,224.176 c -3.22,0.105 -6.09,2.637 -6.27,2.695 l -0.6,0.43 -0.1,0.703 c 0,0.059 -0.12,0.984 -0.12,2.207 0,0.898 0.06,1.914 0.3,2.988 0.25,0.996 0.7,2.188 1.95,2.938 l 29.22,16.828 c 0,0 10.84,6.308 22.66,13.105 l 29.19,16.856 c 0.61,0.351 1.23,0.469 1.82,0.469 3.24,-0.157 6.11,-2.707 6.29,-2.735 l -1.05,-1.367 1.05,1.367 0.59,-0.43 0.07,-0.734 c 0,-0.027 0.14,-0.984 0.14,-2.215 0,-0.898 -0.1,-1.914 -0.31,-2.961 -0.26,-0.984 -0.72,-2.148 -1.94,-2.937 l -29.21,-16.848 c -11.8,-6.765 -22.66,-13.074 -22.66,-13.074 l -29.22,-16.856 c -0.6,-0.351 -1.23,-0.429 -1.76,-0.429 l -0.04,0 z m -2.54,4.414 c 0.92,-0.586 2.13,-1.016 2.54,-0.957 l 0.08,0 29.18,16.816 c 0.04,0.059 10.84,6.336 22.64,13.106 l 29.22,16.855 c 0.04,0 0.04,0.028 0.08,0.117 0.03,0.086 0.17,0.352 0.21,0.645 0.18,0.605 0.23,1.387 0.23,2.109 0,0.41 0,0.762 -0.05,1.024 -0.26,0.168 -0.63,0.402 -1.02,0.617 -0.92,0.574 -2.11,1.035 -2.52,0.976 l -0.1,0 -29.18,-16.855 c -11.79,-6.816 -22.61,-13.066 -22.65,-13.066 l -29.18,-16.856 c 0,0 -0.06,-0.058 -0.1,-0.09 -0.06,-0.144 -0.14,-0.379 -0.23,-0.672 -0.14,-0.578 -0.22,-1.425 -0.22,-2.148 0,-0.371 0.04,-0.723 0.04,-0.988 0.27,-0.203 0.62,-0.399 1.03,-0.633"
         style="fill:#fab20b;fill-opacity:1;fill-rule:nonzero;stroke:none"
         id="path26"
         inkscape:connector-curvature="0" /><path
         d="m 1554.28,201.91 -19.25,0 -12.21,35.418 -62.69,0 -11.95,-35.418 -19.29,0 49.85,147.5 25.67,0 49.87,-147.5 z m -62.67,133.789 -26.39,-81.738 52.77,0 -26.38,81.738"
         style="fill:#231f20;fill-opacity:1;fill-rule:nonzero;stroke:none"
         id="path28"
         inkscape:connector-curvature="0" /><path
         d="m 1578.18,353.863 18.63,0 0,-26.828 -18.63,0 0,26.828 z m 0,-44.082 18.63,0 0,-107.902 -18.63,0 0,107.902"
         style="fill:#231f20;fill-opacity:1;fill-rule:nonzero;stroke:none"
         id="path30"
         inkscape:connector-curvature="0" /><path
         d="m 1618.54,201.879 35.4,54.309 -34.77,53.593 19.28,0 25.67,-39.648 25.73,39.648 19.25,0 -34.98,-53.593 35.65,-54.309 -19.47,0 -26.18,40.109 -25.89,-40.109 -19.69,0"
         style="fill:#231f20;fill-opacity:1;fill-rule:nonzero;stroke:none"
         id="path32"
         inkscape:connector-curvature="0" /><path
         d="m 1864.14,321.52 -2.83,-119.61 -18.42,0 5.12,147.5 24.12,0 42.54,-114.082 42.54,114.082 24.1,0 5.12,-147.5 -18.38,0 -2.87,119.61 -37.64,-100.579 -25.68,0 -37.72,100.579"
         style="fill:#231f20;fill-opacity:1;fill-rule:nonzero;stroke:none"
         id="path34"
         inkscape:connector-curvature="0" /><path
         d="m 2087.73,201.879 -15.7,0 -1.11,8 c -9.53,-6.66 -21.94,-10.207 -34.98,-10.207 -20.2,0 -28.6,11.973 -28.6,31.035 0,22.375 11.29,30.344 33.01,30.344 l 28.79,0 0,16.844 c 0,13.488 -6,18.164 -23.46,18.164 -10.43,0 -20.52,-1.075 -28.92,-2.821 l -1.99,14.825 c 10.15,2.675 20.48,3.945 32.01,3.945 30.76,0 40.95,-11.973 40.95,-35.039 l 0,-75.09 z m -18.59,43.644 -27.46,0 c -11.52,0 -15.72,-3.535 -15.72,-14.375 0,-11.074 1.99,-15.527 15.29,-15.527 9.32,0 19.67,3.555 27.89,8.895 l 0,21.007"
         style="fill:#231f20;fill-opacity:1;fill-rule:nonzero;stroke:none"
         id="path36"
         inkscape:connector-curvature="0" /><path
         d="m 2166.13,294.926 c -10.19,-4.883 -21.95,-12.41 -30.82,-18.621 l 0,-74.426 -18.57,0 0,107.902 16.19,0 1.05,-15.058 c 7.97,6.191 19.07,12.851 29.71,17.285 l 2.44,-17.082"
         style="fill:#231f20;fill-opacity:1;fill-rule:nonzero;stroke:none"
         id="path38"
         inkscape:connector-curvature="0" /><path
         d="m 2214.82,199.672 c -11.03,0 -25.7,2.441 -34.31,5.754 l 2.44,14.648 c 9.3,-2.676 21.5,-4.453 30.82,-4.453 16.99,0 19.9,3.113 19.9,14.649 0,11.484 -0.88,12.812 -22.6,18.132 -26.83,6.653 -29.25,12.2 -29.25,34.551 0,19.961 8.9,29.055 37.2,29.055 10.45,0 21.76,-1.328 30.63,-3.77 l -1.33,-15.293 c -9.1,1.778 -21.07,3.114 -29.96,3.114 -15.9,0 -18.13,-3.778 -18.13,-13.543 0,-11.934 0.24,-14.153 18.38,-18.594 31.04,-7.734 33.44,-11.504 33.44,-32.988 0,-21.055 -6.41,-31.262 -37.23,-31.262"
         style="fill:#231f20;fill-opacity:1;fill-rule:nonzero;stroke:none"
         id="path40"
         inkscape:connector-curvature="0" /><path
         d="m 2318.42,215.66 c 10.62,0 22.36,1.973 34.1,5.078 l 2.44,-14.843 c -10.19,-3.782 -24.59,-6.223 -38.08,-6.223 -31.94,0 -42.76,15.285 -42.76,39.641 l 0,32.402 c 0,22.344 10.16,40.293 42.33,40.293 31.87,0 40.52,-18.418 40.52,-40.762 l 0,-22.609 -64.27,0 0,-9.09 c 0,-17.031 4.66,-23.887 25.72,-23.887 m -25.72,48.496 46.32,0 0,8.867 c 0,15.02 -5.11,23.477 -22.57,23.477 -17.54,0 -23.75,-8.457 -23.75,-23.477 l 0,-8.867"
         style="fill:#231f20;fill-opacity:1;fill-rule:nonzero;stroke:none"
         id="path42"
         inkscape:connector-curvature="0" /><path
         d="m 2381.33,353.863 18.63,0 0,-26.828 -18.63,0 0,26.828 z m 0,-44.082 18.63,0 0,-107.902 -18.63,0 0,107.902"
         style="fill:#231f20;fill-opacity:1;fill-rule:nonzero;stroke:none"
         id="path44"
         inkscape:connector-curvature="0" /><path
         d="m 2435.39,201.879 0,151.984 18.57,2.617 0,-154.601 -18.57,0"
         style="fill:#231f20;fill-opacity:1;fill-rule:nonzero;stroke:none"
         id="path46"
         inkscape:connector-curvature="0" /><path
         d="m 2489.43,201.879 0,151.984 18.6,2.617 0,-154.601 -18.6,0"
         style="fill:#231f20;fill-opacity:1;fill-rule:nonzero;stroke:none"
         id="path48"
         inkscape:connector-curvature="0" /><path
         d="m 2574.86,215.66 c 10.59,0 22.35,1.973 34.1,5.078 l 2.45,-14.843 c -10.2,-3.782 -24.61,-6.223 -38.09,-6.223 -31.95,0 -42.77,15.285 -42.77,39.641 l 0,32.402 c 0,22.344 10.17,40.293 42.3,40.293 31.92,0 40.55,-18.418 40.55,-40.762 l 0,-22.609 -64.26,0 0,-9.09 c 0,-17.031 4.65,-23.887 25.72,-23.887 m -25.72,48.496 46.31,0 0,8.867 c 0,15.02 -5.12,23.477 -22.6,23.477 -17.5,0 -23.71,-8.457 -23.71,-23.477 l 0,-8.867"
         style="fill:#231f20;fill-opacity:1;fill-rule:nonzero;stroke:none"
         id="path50"
         inkscape:connector-curvature="0" /><path
         d="m 2791.25,345.582 0,-102.754 c 0,-23.371 -13.48,-42.285 -50.61,-42.285 -37.1,0 -50.64,18.914 -50.64,42.285 l 0,102.754 18.46,0 0,-101.68 c 0,-17.578 9.67,-26.797 32.18,-26.797 22.52,0 32.17,9.219 32.17,26.797 l 0,101.68 18.44,0"
         style="fill:#231f20;fill-opacity:1;fill-rule:nonzero;stroke:none"
         id="path52"
         inkscape:connector-curvature="0" /><path
         d="m 2891.33,202.691 0,79.825 c 0,6.894 -3.46,9.648 -10.1,9.648 -7.71,0 -23.81,-4.707 -34.96,-10.488 l 0,-78.985 -18.05,0 0,104.493 14.61,0 1.72,-9.004 c 11.56,5.586 29.61,11.16 42.05,11.16 16.76,0 22.76,-10.496 22.76,-26.59 l 0,-80.059 -18.03,0"
         style="fill:#231f20;fill-opacity:1;fill-rule:nonzero;stroke:none"
         id="path54"
         inkscape:connector-curvature="0" /><path
         d="m 2942.62,349.879 17.99,0 0,-25.957 -17.99,0 0,25.957 z m 0,-42.715 17.99,0 0,-104.492 -17.99,0 0,104.492"
         style="fill:#231f20;fill-opacity:1;fill-rule:nonzero;stroke:none"
         id="path56"
         inkscape:connector-curvature="0" /><path
         d="m 3054.82,307.184 17.78,0 -34.55,-104.493 -24.01,0 -34.55,104.493 17.81,0 28.72,-89.7 28.8,89.7"
         style="fill:#231f20;fill-opacity:1;fill-rule:nonzero;stroke:none"
         id="path58"
         inkscape:connector-curvature="0" /><path
         d="m 3129.06,216 c 10.3,0 21.64,1.945 33.05,4.973 l 2.34,-14.446 c -9.9,-3.601 -23.82,-5.957 -36.89,-5.957 -30.92,0 -41.43,14.817 -41.43,38.418 l 0,31.301 c 0,21.68 9.89,39.051 40.98,39.051 30.92,0 39.24,-17.813 39.24,-39.461 l 0,-21.914 -62.21,0 0,-8.77 c 0,-16.562 4.53,-23.195 24.92,-23.195 m -24.92,46.984 44.88,0 0,8.575 c 0,14.589 -4.96,22.754 -21.91,22.754 -16.93,0 -22.97,-8.165 -22.97,-22.754 l 0,-8.575"
         style="fill:#231f20;fill-opacity:1;fill-rule:nonzero;stroke:none"
         id="path60"
         inkscape:connector-curvature="0" /><path
         d="m 3242.56,292.809 c -9.9,-4.707 -21.25,-12.032 -29.86,-18.02 l 0,-72.098 -18.01,0 0,104.493 15.66,0 1.08,-14.61 c 7.71,6.043 18.43,12.461 28.77,16.766 l 2.36,-16.531"
         style="fill:#231f20;fill-opacity:1;fill-rule:nonzero;stroke:none"
         id="path62"
         inkscape:connector-curvature="0" /><path
         d="m 3289.75,200.57 c -10.75,0 -24.89,2.325 -33.27,5.578 l 2.35,14.161 c 9.02,-2.598 20.82,-4.336 29.84,-4.336 16.49,0 19.3,3.027 19.3,14.207 0,11.133 -0.84,12.414 -21.86,17.59 -25.99,6.414 -28.34,11.796 -28.34,33.476 0,19.285 8.6,28.094 36.04,28.094 10.08,0 21.03,-1.277 29.65,-3.66 l -1.33,-14.785 c -8.79,1.679 -20.37,2.988 -28.97,2.988 -15.46,0 -17.55,-3.664 -17.55,-13.106 0,-11.562 0.21,-13.691 17.79,-17.988 30.06,-7.5 32.4,-11.191 32.4,-31.992 0,-20.344 -6.25,-30.227 -36.05,-30.227"
         style="fill:#231f20;fill-opacity:1;fill-rule:nonzero;stroke:none"
         id="path64"
         inkscape:connector-curvature="0" /><path
         d="m 3354.98,349.879 18.01,0 0,-25.957 -18.01,0 0,25.957 z m 0,-42.715 18.01,0 0,-104.492 -18.01,0 0,104.492"
         style="fill:#231f20;fill-opacity:1;fill-rule:nonzero;stroke:none"
         id="path66"
         inkscape:connector-curvature="0" /><path
         d="m 3461.82,204.41 c -6.49,-2.355 -14.2,-3.84 -21.92,-3.84 -17.56,0 -25.94,6.418 -25.94,23.801 l 0,67.82 -18.45,0 0,14.993 18.45,0 0,25.75 18.01,2.589 0,-28.339 29.61,0 -1.48,-14.993 -28.13,0 0,-64.793 c 0,-7.734 1.06,-11.621 10.73,-11.621 4.92,0 10.15,0.899 16.77,2.606 l 2.35,-13.973"
         style="fill:#231f20;fill-opacity:1;fill-rule:nonzero;stroke:none"
         id="path68"
         inkscape:connector-curvature="0" /><path
         d="m 3524.04,216 c 10.28,0 21.64,1.945 33.03,4.941 l 2.36,-14.382 c -9.9,-3.633 -23.82,-6.016 -36.91,-6.016 -30.92,0 -41.41,14.824 -41.41,38.418 l 0,31.328 c 0,21.68 9.89,39.082 40.98,39.082 30.92,0 39.24,-17.844 39.24,-39.492 l 0,-21.914 -62.23,0 0,-8.77 c 0,-16.543 4.53,-23.195 24.94,-23.195 m -24.94,46.984 44.86,0 0,8.575 c 0,14.589 -4.94,22.754 -21.87,22.754 -16.93,0 -22.99,-8.165 -22.99,-22.754 l 0,-8.575 z m 9.45,68.008 c 10.73,6.25 21.92,13.301 29.4,19.551 l 7.73,-11.992 c -9.84,-7.324 -18.82,-12.91 -29.8,-18.692 l -7.33,11.133"
         style="fill:#231f20;fill-opacity:1;fill-rule:nonzero;stroke:none"
         id="path70"
         inkscape:connector-curvature="0" /><path
         d="M 437.313,1015.74 C 221.063,1015.74 40.9063,861.918 0,657.691 l 182.488,0 c 13.481,38.946 35.571,73.856 64.192,102.547 49.121,49.004 115.925,78.973 190.633,79.016 74.757,-0.043 141.625,-30.012 190.667,-79.016 48.915,-48.992 78.985,-115.937 78.985,-190.554 0,-74.805 -30.07,-141.602 -78.985,-190.684 -49.042,-48.957 -115.91,-78.965 -190.667,-78.965 -74.708,0 -141.512,30.008 -190.633,78.965 -28.418,28.418 -50.301,62.949 -63.86,101.512 l -182.47625,0 0,-227.403 C 0.34375,61.3789 166.27,72.6797 166.27,72.6797 l 0.019,142.5703 c 75.188,-57.512 169.109,-91.711 271.024,-91.801 246.476,0.09 446.105,199.739 446.144,446.235 -0.039,246.39 -199.668,446.056 -446.144,446.056"
         style="fill:#4dc6f4;fill-opacity:1;fill-rule:nonzero;stroke:none"
         id="path72"
         inkscape:connector-curvature="0" /><path
         d="m 1428.89,732.813 0,207.816 116.52,0 c 22.12,0.164 38.23,-7.16 47.54,-20.063 9.2,-12.75 11.51,-28.933 11.51,-46.136 0,-8.676 0.14,-24.641 -7.51,-39.711 -7.52,-15.125 -24.74,-27.824 -52.6,-27.449 l -74.63,0 0,-74.457 -40.83,0 z m 40.83,110.222 55.2,0 c 11.63,-0.023 20.76,0.195 26.48,1.731 5.63,1.832 7.53,3.172 9.78,8.617 1.55,3.707 2.56,9.68 2.56,18.273 0.13,18.032 -2.49,26.395 -5.07,28.766 -2.2,2.625 -8.96,4.5 -23.74,4.441 l -65.21,0 0,-61.828"
         style="fill:#1476c6;fill-opacity:1;fill-rule:nonzero;stroke:none"
         id="path74"
         inkscape:connector-curvature="0" /><path
         d="m 1816.89,942.152 c 27.13,-0.316 46.7,-4.168 60.08,-16.55 13.3,-12.676 17.31,-31.368 17.31,-56.059 l 0,-67.973 c 0.08,-23.441 -4.67,-41.789 -18.11,-54.105 -13.59,-11.992 -33.03,-16.141 -59.28,-16.141 l -28.63,0 c -26.27,0 -45.76,4.149 -59.24,16.141 -13.51,12.316 -18.22,30.664 -18.22,54.105 l 0,67.973 c 0.08,24.691 4,43.383 17.38,56.059 13.38,12.382 32.87,16.234 60.08,16.55 l 28.63,0 m -28.63,-35.8 c -17.44,0.093 -26.44,-2.379 -30.08,-6.262 -3.88,-3.457 -6.68,-12.301 -6.58,-30.547 l 0,-67.973 c 0.06,-18.23 3.46,-25.761 7.78,-29.031 4.12,-3.605 13.61,-5.367 28.88,-5.367 l 28.56,0 c 15.29,0 24.82,1.762 28.98,5.367 4.24,3.27 7.7,10.801 7.7,29.031 l 0,67.973 c 0.09,18.246 -2.64,27.09 -6.61,30.547 -3.69,3.883 -12.59,6.355 -30,6.262 l -28.63,0"
         style="fill:#1476c6;fill-opacity:1;fill-rule:nonzero;stroke:none"
         id="path76"
         inkscape:connector-curvature="0" /><path
         d="m 2022.5,732.813 0,207.816 40.84,0 0,-171.945 108.14,0 0,-35.871 -148.98,0"
         style="fill:#1476c6;fill-opacity:1;fill-rule:nonzero;stroke:none"
         id="path78"
         inkscape:connector-curvature="0" /><path
         d="m 2326.58,732.871 0,85.43 -85.47,122.328 48.38,0 58.5,-83.207 58.51,83.207 49.18,0 -88.36,-122.445 0,-85.313 -40.74,0"
         style="fill:#1476c6;fill-opacity:1;fill-rule:nonzero;stroke:none"
         id="path80"
         inkscape:connector-curvature="0" /><path
         d="m 2612.48,732.871 0,171.914 -68.79,0 0,35.844 178.44,0 0,-35.844 -68.83,0 0,-171.914 -40.82,0"
         style="fill:#1476c6;fill-opacity:1;fill-rule:nonzero;stroke:none"
         id="path82"
         inkscape:connector-curvature="0" /><path
         d="m 2836.09,732.813 0,207.816 153.19,0 0,-35.766 -112.46,0 0,-48.375 107.63,0 0,-34.437 -107.63,0 0,-53.367 112.46,0 0,-35.871 -153.19,0"
         style="fill:#1476c6;fill-opacity:1;fill-rule:nonzero;stroke:none"
         id="path84"
         inkscape:connector-curvature="0" /><path
         d="m 3184.47,731.324 -0.11,0 c -20.9,0 -38.72,5.981 -51.18,18.09 -12.52,12.051 -18.88,29.649 -18.88,50.387 l 0,73.898 c -0.35,28.742 10.86,48.231 29.55,57.711 18.3,9.485 41.35,10.641 67.52,10.742 l 19.84,0 c 23.15,0 40.16,-4.5 51.62,-15.859 11.27,-11.535 14.73,-27.832 14.73,-47.543 l 0,-14.418 -40.78,0 0,13.742 c 0.08,12.848 -1.86,19.731 -4.83,22.617 -2.52,3.036 -9.37,5.696 -24.25,5.661 l -13.5,0 c -18.48,0 -32.21,-0.848 -41.07,-3.305 -9.09,-2.574 -12.54,-5.434 -15.22,-10.996 -1.78,-3.875 -2.81,-9.528 -2.71,-17.621 l 0,-52.473 c -0.1,-16.199 0.33,-28.75 2.44,-37.094 2.26,-8.414 4.92,-11.679 11.13,-14.625 4.22,-1.847 10.82,-3.066 20.16,-3.066 l 28.61,0 c 14.14,0 24.34,0.703 30.51,2.547 6.15,2.136 7.91,3.754 9.61,7.777 1.23,2.746 2.01,7.16 1.95,13.41 l 0,23.614 40.74,0 0,-26.172 c 0.41,-23.735 -9.41,-40.422 -25.41,-48.258 -15.64,-7.777 -35.02,-8.641 -56.54,-8.766 l -33.93,0"
         style="fill:#1476c6;fill-opacity:1;fill-rule:nonzero;stroke:none"
         id="path86"
         inkscape:connector-curvature="0" /><path
         d="m 3571.29,732.813 0,87.906 -107.64,0 0,-87.906 -40.82,0 0,207.816 40.82,0 0,-84.141 107.64,0 0,84.141 40.76,0 0,-207.816 -40.76,0"
         style="fill:#1476c6;fill-opacity:1;fill-rule:nonzero;stroke:none"
         id="path88"
         inkscape:connector-curvature="0" /><path
         d="m 3693.18,967.621 c 14.87,0 28.03,-10.687 28.03,-27.351 0,-16.649 -13.16,-27.387 -28.03,-27.387 -14.88,0 -28.16,10.738 -28.16,27.387 0,16.664 13.28,27.351 28.16,27.351 m 0,-48.945 c 11.27,0 20.65,9.097 20.65,21.594 0,12.527 -9.38,21.496 -20.65,21.496 -11.54,0 -20.74,-8.969 -20.74,-21.496 0,-12.497 9.2,-21.594 20.74,-21.594 m 14.4,16.965 c -1.19,-7.278 -6.88,-11.532 -13.42,-11.532 -9.49,0 -15.78,7.157 -15.78,16.329 0,9.414 5.86,16.347 15.58,16.347 6.82,0 12.35,-3.918 13.34,-11.379 l -5.8,0 c -0.6,3.465 -3.71,5.528 -7.54,5.528 -5.42,0 -8.51,-4.379 -8.51,-10.407 0,-5.726 3.38,-10.582 8.71,-10.582 4.08,0 6.97,2.203 7.34,5.696 l 6.08,0"
         style="fill:#1476c6;fill-opacity:1;fill-rule:nonzero;stroke:none"
         id="path90"
         inkscape:connector-curvature="0" /><path
         d="m 1609.11,644.281 0,-158.816 -24.2,0 0,106.105 c 0,6.907 0.19,15.285 0.58,25.141 l 0.35,8.379 -0.59,0 -2.55,-7.449 c -3.88,-11.414 -6.52,-18.895 -7.91,-22.465 l -44.21,-109.711 -22.92,0 -44.33,108.656 c -1.71,4.117 -4.38,11.563 -8.03,22.34 l -2.67,7.445 -0.59,0 0.35,-8.011 c 0.46,-9.872 0.7,-17.981 0.7,-24.325 l 0,-106.105 -24.2,0 0,158.816 40.37,0 35.13,-87.617 c 2.25,-5.652 5.82,-15.34 10.71,-29.09 l 3.49,-9.648 0.7,0 3.38,9.648 c 4.8,13.817 8.3,23.465 10.46,28.985 l 34.91,87.722 41.07,0"
         style="fill:#4dc6f4;fill-opacity:1;fill-rule:nonzero;stroke:none"
         id="path92"
         inkscape:connector-curvature="0" /><path
         d="m 1764.45,536.07 -31.19,89.121 -30.7,-89.121 61.89,0 z m 6.18,-18.613 -74.23,0 -10.94,-31.992 -25.72,0 55.38,158.816 35.6,0 56.31,-158.816 -25.12,0 -11.28,31.992"
         style="fill:#4dc6f4;fill-opacity:1;fill-rule:nonzero;stroke:none"
         id="path94"
         inkscape:connector-curvature="0" /><path
         d="m 1882.23,564.586 46.99,0 c 10.31,0 17.73,1.574 22.21,4.762 3.65,2.632 5.99,6.511 6.99,11.636 0.47,2.243 0.72,6.051 0.72,11.395 0,9.855 -0.6,16.488 -1.76,19.894 -1.95,5.743 -6.68,9.2 -14.2,10.36 -2.87,0.469 -6.17,0.707 -9.9,0.707 l -51.05,0 0,-58.754 z m -24.44,-79.121 0,158.816 76.9,0 c 14.51,0 25.41,-2.148 32.69,-6.414 7.05,-4.113 11.8,-10.433 14.2,-18.949 1.47,-5.129 2.21,-12.109 2.21,-20.945 0,-10.938 -0.86,-19.157 -2.56,-24.672 -2.56,-7.91 -7.58,-13.297 -15.02,-16.168 -2.4,-1.004 -5.88,-1.903 -10.47,-2.684 l 0,-0.812 c 8.77,-0.614 15.31,-3.465 19.61,-8.555 4.3,-5.066 6.47,-12.461 6.47,-22.156 l 0,-37.461 -24.55,0 0,32.332 c 0.07,9.844 -2.15,16.758 -6.64,20.723 -4.73,3.722 -11.47,5.46 -20.26,5.234 l -48.14,0 0,-58.289 -24.44,0"
         style="fill:#4dc6f4;fill-opacity:1;fill-rule:nonzero;stroke:none"
         id="path96"
         inkscape:connector-curvature="0" /><path
         d="m 2158.09,599.598 -23.85,0 c 0.08,9.004 -0.98,15.168 -3.15,18.511 -2.16,3.477 -6.17,5.762 -11.97,6.856 -3.57,0.609 -9.16,0.933 -16.76,0.933 -10.15,0 -17.42,-0.296 -21.81,-0.878 -4.4,-0.59 -7.93,-1.727 -10.65,-3.434 -4.96,-3.102 -7.44,-9.773 -7.44,-20.02 0,-6.902 0.96,-12.132 2.89,-15.703 2.25,-4.34 7.58,-6.976 15.96,-7.898 2.48,-0.328 10.35,-0.82 23.61,-1.524 14.2,-0.683 24.01,-1.593 29.44,-2.671 11.32,-2.329 19.04,-7.641 23.14,-15.942 2.71,-5.43 4.08,-13.957 4.08,-25.605 0,-9.446 -0.7,-17.012 -2.09,-22.676 -1.4,-5.656 -3.69,-10.168 -6.87,-13.496 -5.9,-6.211 -14.38,-9.844 -25.47,-10.938 -7.85,-0.773 -17.46,-1.164 -28.85,-1.164 -18.24,0 -30.64,1.008 -37.25,3.028 -13.41,4.179 -21.05,14.425 -22.91,30.722 -0.39,3.489 -0.66,9.297 -0.82,17.453 l 23.85,0 0,-3.605 c 0,-6.981 0.63,-12.305 1.86,-15.957 1.25,-3.652 3.3,-6.367 6.17,-8.133 2.87,-1.867 7.19,-2.902 12.91,-3.156 5.84,-0.145 12.34,-0.215 19.55,-0.215 10.02,0 17.17,0.469 21.52,1.398 4.36,0.918 7.68,2.704 10.02,5.332 2.8,3.184 4.18,10.438 4.18,21.758 0,5.977 -0.72,10.516 -2.22,13.614 -2.15,4.355 -7.07,6.98 -14.77,7.91 -2.09,0.32 -10.1,0.867 -24.08,1.64 -13.58,0.762 -22.15,1.426 -25.72,1.981 -12.02,1.769 -20.63,6.269 -25.8,13.492 -4.44,6.207 -6.65,15.894 -6.65,29.082 0,18.074 4.07,30.129 12.21,36.176 6.29,4.664 14.51,7.449 24.67,8.379 7.38,0.625 15.55,0.933 24.55,0.933 15.37,0 26.25,-0.769 32.7,-2.328 11.4,-2.789 18.9,-8.765 22.55,-17.894 2.17,-5.368 3.27,-12.817 3.27,-22.344 0,-0.637 0,-1.844 0,-3.617"
         style="fill:#4dc6f4;fill-opacity:1;fill-rule:nonzero;stroke:none"
         id="path98"
         inkscape:connector-curvature="0" /><path
         d="m 2238.4,623.691 0,-47.125 77.26,0 0,-18.847 -77.26,0 0,-51.668 81.33,0 0,-20.586 -105.77,0 0,158.816 105.43,0 0,-20.59 -80.99,0"
         style="fill:#4dc6f4;fill-opacity:1;fill-rule:nonzero;stroke:none"
         id="path100"
         inkscape:connector-curvature="0" /><path
         d="m 2378.14,485.465 24.4609,0 0,158.816 -24.4609,0 0,-158.816 z"
         style="fill:#4dc6f4;fill-opacity:1;fill-rule:nonzero;stroke:none"
         id="path102"
         inkscape:connector-curvature="0" /><path
         d="m 2491.95,644.281 0,-136.941 77.72,0 0,-21.875 -102.13,0 0,158.816 24.41,0"
         style="fill:#4dc6f4;fill-opacity:1;fill-rule:nonzero;stroke:none"
         id="path104"
         inkscape:connector-curvature="0" /><path
         d="m 2645.45,644.281 0,-136.941 77.71,0 0,-21.875 -102.16,0 0,158.816 24.45,0"
         style="fill:#4dc6f4;fill-opacity:1;fill-rule:nonzero;stroke:none"
         id="path106"
         inkscape:connector-curvature="0" /><path
         d="m 2794.28,623.691 0,-47.125 77.24,0 0,-18.847 -77.24,0 0,-51.668 81.31,0 0,-20.586 -105.77,0 0,158.816 105.43,0 0,-20.59 -80.97,0"
         style="fill:#4dc6f4;fill-opacity:1;fill-rule:nonzero;stroke:none"
         id="path108"
         inkscape:connector-curvature="0" /></g></g></svg>