<?xml version="1.0" encoding="UTF-8" standalone="no"?>
<!-- Created with Inkscape (http://www.inkscape.org/) -->

<svg
   xmlns:dc="http://purl.org/dc/elements/1.1/"
   xmlns:cc="http://creativecommons.org/ns#"
   xmlns:rdf="http://www.w3.org/1999/02/22-rdf-syntax-ns#"
   xmlns:svg="http://www.w3.org/2000/svg"
   xmlns="http://www.w3.org/2000/svg"
   xmlns:sodipodi="http://sodipodi.sourceforge.net/DTD/sodipodi-0.dtd"
   xmlns:inkscape="http://www.inkscape.org/namespaces/inkscape"
   id="svg3058"
   version="1.1"
   inkscape:version="0.48.4 r9939"
   width="177.165"
   height="177.165"
   xml:space="preserve"
   sodipodi:docname="UM_LOGO_original_CMJN.pdf"><metadata
     id="metadata3064"><rdf:RDF><cc:Work
         rdf:about=""><dc:format>image/svg+xml</dc:format><dc:type
           rdf:resource="http://purl.org/dc/dcmitype/StillImage" /><dc:title></dc:title></cc:Work></rdf:RDF></metadata><defs
     id="defs3062"><clipPath
       clipPathUnits="userSpaceOnUse"
       id="clipPath3076"><path
         d="m 0,141.732 141.732,0 L 141.732,0 0,0 0,141.732 z"
         id="path3078" /></clipPath></defs><sodipodi:namedview
     pagecolor="#ffffff"
     bordercolor="#666666"
     borderopacity="1"
     objecttolerance="10"
     gridtolerance="10"
     guidetolerance="10"
     inkscape:pageopacity="0"
     inkscape:pageshadow="2"
     inkscape:window-width="1298"
     inkscape:window-height="867"
     id="namedview3060"
     showgrid="false"
     inkscape:zoom="1.3320916"
     inkscape:cx="88.582497"
     inkscape:cy="88.582497"
     inkscape:window-x="0"
     inkscape:window-y="24"
     inkscape:window-maximized="0"
     inkscape:current-layer="g3066" /><g
     id="g3066"
     inkscape:groupmode="layer"
     inkscape:label="UM_LOGO_original_CMJN"
     transform="matrix(1.25,0,0,-1.25,0,177.165)"><g
       id="g3068"
       transform="translate(120.6216,70.9443)"><path
         d="m 0,0 -2.672,-3.712 2.078,-4.073 -3.217,-3.249 1.413,-4.35 -3.69,-2.701 0.709,-4.518 -4.068,-2.087 -0.008,-4.573 -4.344,-1.427 -0.719,-4.516 -4.513,-0.733 -1.414,-4.349 -4.573,-0.022 -2.074,-4.075 -4.519,0.696 -2.692,-3.699 -4.353,1.4 -3.239,-3.228 -4.08,2.065 -3.703,-2.683 -3.711,2.671 -4.073,-2.078 -3.25,3.217 -4.349,-1.412 -2.702,3.69 -4.517,-0.71 -2.088,4.068 -4.572,0.008 -1.428,4.344 -4.516,0.72 -0.733,4.512 -4.35,1.414 -0.021,4.573 -4.075,2.076 0.696,4.519 -3.697,2.69 1.397,4.353 -3.228,3.24 2.066,4.08 -2.683,3.703 2.671,3.712 -2.078,4.072 3.218,3.25 -1.412,4.349 3.688,2.702 -0.709,4.517 4.069,2.088 0.007,4.573 4.344,1.427 0.72,4.516 4.514,0.734 1.413,4.349 4.572,0.021 2.075,4.075 4.52,-0.696 2.69,3.697 4.354,-1.398 3.239,3.228 4.08,-2.065 3.703,2.683 3.711,-2.671 4.074,2.077 3.248,-3.217 4.35,1.412 2.701,-3.689 4.518,0.709 2.087,-4.069 4.575,-0.006 1.425,-4.345 4.516,-0.72 0.734,-4.513 4.35,-1.414 0.022,-4.572 4.074,-2.075 -0.696,-4.52 3.698,-2.69 L -3.846,11.021 -0.617,7.783 -2.684,3.702 0,0 z"
         style="fill:#f03f52;fill-opacity:1;fill-rule:nonzero;stroke:none"
         id="path3070" /></g><g
       id="g3072"><g
         id="g3074"
         clip-path="url(#clipPath3076)"><g
           id="g3080"
           transform="translate(94.1313,57.043)"><path
             d="m 0,0 -12.383,32.873 c -0.488,1.293 -1.728,2.148 -3.109,2.148 -1.383,0 -2.621,-0.855 -3.11,-2.148 l -4.816,-12.74 -3.552,-9.403 -0.255,-0.668 0,-0.003 c 0,0 -1.69,-4.476 -1.706,-4.527 -1.551,-4.79 -5.048,-6.073 -7.644,-5.233 -0.971,0.312 -2.501,1.131 -1.91,3.098 l 7.142,18.898 3.403,-8.997 3.586,9.314 -3.877,10.261 c -0.491,1.293 -1.729,2.148 -3.112,2.148 -1.382,0 -2.62,-0.855 -3.108,-2.148 L -44.738,5.656 c -0.021,-0.052 -0.039,-0.105 -0.056,-0.159 -1.607,-5.007 0.991,-9.852 6.179,-11.526 5.186,-1.67 11.924,0.447 15.18,7.402 l 7.943,20.922 9.273,-24.645 c 0.502,-1.332 1.766,-2.151 3.11,-2.151 0.39,0 0.787,0.069 1.173,0.216 C -0.217,-3.637 0.648,-1.718 0,0"
             style="fill:#ffffff;fill-opacity:1;fill-rule:nonzero;stroke:none"
             id="path3082" /></g><g
           id="g3084"
           transform="translate(61.0464,97.7656)"><path
             d="m 0,0 1.414,-4.131 c 0.06,0.004 0.118,0.005 0.178,0.007 L 0,0 z"
             style="fill:#ffffff;fill-opacity:1;fill-rule:nonzero;stroke:none"
             id="path3086" /></g><g
           id="g3088"
           transform="translate(61.0464,97.7656)"><path
             d="m 0,0 1.414,-4.131 c 0.06,0.004 0.118,0.005 0.178,0.007 L 0,0 z"
             style="fill:none;stroke:#ffffff;stroke-opacity:1;stroke-width:0.085;stroke-linecap:butt;stroke-linejoin:miter;stroke-miterlimit:10;stroke-dasharray:none"
             id="path3090" /></g><g
           id="g3092"
           transform="translate(71.0288,82.4893)"><path
             d="M 0,0 -0.163,17.004 -0.61,-0.052 -0.315,-0.834 0,0 z"
             style="fill:#ffffff;fill-opacity:1;fill-rule:nonzero;stroke:none"
             id="path3094" /></g><g
           id="g3096"
           transform="translate(71.0288,82.4893)"><path
             d="M 0,0 -0.163,17.004 -0.61,-0.052 -0.315,-0.834 0,0 z"
             style="fill:none;stroke:#ffffff;stroke-opacity:1;stroke-width:0.085;stroke-linecap:butt;stroke-linejoin:miter;stroke-miterlimit:10;stroke-dasharray:none"
             id="path3098" /></g><g
           id="g3100"
           transform="translate(92.8442,89.248)"><path
             d="M 0,0 -7.02,-5.663 -6.885,-6.02 0,0 z"
             style="fill:#ffffff;fill-opacity:1;fill-rule:nonzero;stroke:none"
             id="path3102" /></g><g
           id="g3104"
           transform="translate(92.8442,89.248)"><path
             d="M 0,0 -7.02,-5.663 -6.885,-6.02 0,0 z"
             style="fill:none;stroke:#ffffff;stroke-opacity:1;stroke-width:0.085;stroke-linecap:butt;stroke-linejoin:miter;stroke-miterlimit:10;stroke-dasharray:none"
             id="path3106" /></g><g
           id="g3108"
           transform="translate(97.8345,60.9824)"><path
             d="M 0,0 -4.09,1.578 -4.012,1.373 0,0 z"
             style="fill:#ffffff;fill-opacity:1;fill-rule:nonzero;stroke:none"
             id="path3110" /></g><g
           id="g3112"
           transform="translate(97.8345,60.9824)"><path
             d="M 0,0 -4.09,1.578 -4.012,1.373 0,0 z"
             style="fill:none;stroke:#ffffff;stroke-opacity:1;stroke-width:0.085;stroke-linecap:butt;stroke-linejoin:miter;stroke-miterlimit:10;stroke-dasharray:none"
             id="path3114" /></g><g
           id="g3116"
           transform="translate(42.1704,70.7979)"><path
             d="M 0,0 8.525,-0.173 8.657,0.175 0,0 z"
             style="fill:#ffffff;fill-opacity:1;fill-rule:nonzero;stroke:none"
             id="path3118" /></g><g
           id="g3120"
           transform="translate(42.1704,70.7979)"><path
             d="M 0,0 8.525,-0.173 8.657,0.175 0,0 z"
             style="fill:none;stroke:#ffffff;stroke-opacity:1;stroke-width:0.085;stroke-linecap:butt;stroke-linejoin:miter;stroke-miterlimit:10;stroke-dasharray:none"
             id="path3122" /></g><g
           id="g3124"
           transform="translate(42.6011,75.7656)"><path
             d="M 0,0 9.349,-1.824 9.481,-1.471 0,0 z"
             style="fill:#ffffff;fill-opacity:1;fill-rule:nonzero;stroke:none"
             id="path3126" /></g><g
           id="g3128"
           transform="translate(42.6011,75.7656)"><path
             d="M 0,0 9.349,-1.824 9.481,-1.471 0,0 z"
             style="fill:none;stroke:#ffffff;stroke-opacity:1;stroke-width:0.085;stroke-linecap:butt;stroke-linejoin:miter;stroke-miterlimit:10;stroke-dasharray:none"
             id="path3130" /></g><g
           id="g3132"
           transform="translate(42.6011,65.8301)"><path
             d="M 0,0 6.674,1.035 6.783,1.324 0,0 z"
             style="fill:#ffffff;fill-opacity:1;fill-rule:nonzero;stroke:none"
             id="path3134" /></g><g
           id="g3136"
           transform="translate(42.6011,65.8301)"><path
             d="M 0,0 6.674,1.035 6.783,1.324 0,0 z"
             style="fill:none;stroke:#ffffff;stroke-opacity:1;stroke-width:0.085;stroke-linecap:butt;stroke-linejoin:miter;stroke-miterlimit:10;stroke-dasharray:none"
             id="path3138" /></g><g
           id="g3140"
           transform="translate(43.897,60.9824)"><path
             d="m 0,0 3.718,1.272 c 0.014,0.06 0.028,0.119 0.044,0.179 L 0,0 z"
             style="fill:#ffffff;fill-opacity:1;fill-rule:nonzero;stroke:none"
             id="path3142" /></g><g
           id="g3144"
           transform="translate(43.897,60.9824)"><path
             d="m 0,0 3.718,1.272 c 0.014,0.06 0.028,0.119 0.044,0.179 L 0,0 z"
             style="fill:none;stroke:#ffffff;stroke-opacity:1;stroke-width:0.085;stroke-linecap:butt;stroke-linejoin:miter;stroke-miterlimit:10;stroke-dasharray:none"
             id="path3146" /></g><g
           id="g3148"
           transform="translate(97.8345,80.6162)"><path
             d="M 0,0 -9.646,-3.305 -9.508,-3.67 0,0 z"
             style="fill:#ffffff;fill-opacity:1;fill-rule:nonzero;stroke:none"
             id="path3150" /></g><g
           id="g3152"
           transform="translate(97.8345,80.6162)"><path
             d="M 0,0 -9.646,-3.305 -9.508,-3.67 0,0 z"
             style="fill:none;stroke:#ffffff;stroke-opacity:1;stroke-width:0.085;stroke-linecap:butt;stroke-linejoin:miter;stroke-miterlimit:10;stroke-dasharray:none"
             id="path3154" /></g><g
           id="g3156"
           transform="translate(80.6821,97.7666)"><path
             d="m 0,0 -1.598,-4.142 c 0.057,-0.004 0.116,-0.012 0.172,-0.019 L 0,0 z"
             style="fill:#ffffff;fill-opacity:1;fill-rule:nonzero;stroke:none"
             id="path3158" /></g><g
           id="g3160"
           transform="translate(80.6821,97.7666)"><path
             d="m 0,0 -1.598,-4.142 c 0.057,-0.004 0.116,-0.012 0.172,-0.019 L 0,0 z"
             style="fill:none;stroke:#ffffff;stroke-opacity:1;stroke-width:0.085;stroke-linecap:butt;stroke-linejoin:miter;stroke-miterlimit:10;stroke-dasharray:none"
             id="path3162" /></g><g
           id="g3164"
           transform="translate(43.897,80.6143)"><path
             d="M 0,0 9.229,-3.561 9.363,-3.204 0,0 z"
             style="fill:#ffffff;fill-opacity:1;fill-rule:nonzero;stroke:none"
             id="path3166" /></g><g
           id="g3168"
           transform="translate(43.897,80.6143)"><path
             d="M 0,0 9.229,-3.561 9.363,-3.204 0,0 z"
             style="fill:none;stroke:#ffffff;stroke-opacity:1;stroke-width:0.085;stroke-linecap:butt;stroke-linejoin:miter;stroke-miterlimit:10;stroke-dasharray:none"
             id="path3170" /></g><g
           id="g3172"
           transform="translate(85.2231,95.6465)"><path
             d="m 0,0 -2.518,-4.163 c 0.041,-0.06 0.079,-0.122 0.116,-0.184 L 0,0 z"
             style="fill:#ffffff;fill-opacity:1;fill-rule:nonzero;stroke:none"
             id="path3174" /></g><g
           id="g3176"
           transform="translate(85.2231,95.6465)"><path
             d="m 0,0 -2.518,-4.163 c 0.041,-0.06 0.079,-0.122 0.116,-0.184 L 0,0 z"
             style="fill:none;stroke:#ffffff;stroke-opacity:1;stroke-width:0.085;stroke-linecap:butt;stroke-linejoin:miter;stroke-miterlimit:10;stroke-dasharray:none"
             id="path3178" /></g><g
           id="g3180"
           transform="translate(89.3169,92.7754)"><path
             d="M 0,0 -4.859,-5.558 -4.74,-5.875 0,0 z"
             style="fill:#ffffff;fill-opacity:1;fill-rule:nonzero;stroke:none"
             id="path3182" /></g><g
           id="g3184"
           transform="translate(89.3169,92.7754)"><path
             d="M 0,0 -4.859,-5.558 -4.74,-5.875 0,0 z"
             style="fill:none;stroke:#ffffff;stroke-opacity:1;stroke-width:0.085;stroke-linecap:butt;stroke-linejoin:miter;stroke-miterlimit:10;stroke-dasharray:none"
             id="path3186" /></g><g
           id="g3188"
           transform="translate(99.1294,75.7695)"><path
             d="M 0,0 -9.787,-1.52 -9.65,-1.887 0,0 z"
             style="fill:#ffffff;fill-opacity:1;fill-rule:nonzero;stroke:none"
             id="path3190" /></g><g
           id="g3192"
           transform="translate(99.1294,75.7695)"><path
             d="M 0,0 -9.787,-1.52 -9.65,-1.887 0,0 z"
             style="fill:none;stroke:#ffffff;stroke-opacity:1;stroke-width:0.085;stroke-linecap:butt;stroke-linejoin:miter;stroke-miterlimit:10;stroke-dasharray:none"
             id="path3194" /></g><g
           id="g3196"
           transform="translate(99.1294,65.8301)"><path
             d="M 0,0 -7.141,1.395 -7.027,1.09 0,0 z"
             style="fill:#ffffff;fill-opacity:1;fill-rule:nonzero;stroke:none"
             id="path3198" /></g><g
           id="g3200"
           transform="translate(99.1294,65.8301)"><path
             d="M 0,0 -7.141,1.395 -7.027,1.09 0,0 z"
             style="fill:none;stroke:#ffffff;stroke-opacity:1;stroke-width:0.085;stroke-linecap:butt;stroke-linejoin:miter;stroke-miterlimit:10;stroke-dasharray:none"
             id="path3202" /></g><g
           id="g3204"
           transform="translate(99.561,70.7979)"><path
             d="M 0,0 -8.986,0.181 -8.852,-0.177 0,0 z"
             style="fill:#ffffff;fill-opacity:1;fill-rule:nonzero;stroke:none"
             id="path3206" /></g><g
           id="g3208"
           transform="translate(99.561,70.7979)"><path
             d="M 0,0 -8.986,0.181 -8.852,-0.177 0,0 z"
             style="fill:none;stroke:#ffffff;stroke-opacity:1;stroke-width:0.085;stroke-linecap:butt;stroke-linejoin:miter;stroke-miterlimit:10;stroke-dasharray:none"
             id="path3210" /></g><g
           id="g3212"
           transform="translate(95.7134,85.1563)"><path
             d="M 0,0 -8.674,-4.795 -8.535,-5.163 0,0 z"
             style="fill:#ffffff;fill-opacity:1;fill-rule:nonzero;stroke:none"
             id="path3214" /></g><g
           id="g3216"
           transform="translate(95.7134,85.1563)"><path
             d="M 0,0 -8.674,-4.795 -8.535,-5.163 0,0 z"
             style="fill:none;stroke:#ffffff;stroke-opacity:1;stroke-width:0.085;stroke-linecap:butt;stroke-linejoin:miter;stroke-miterlimit:10;stroke-dasharray:none"
             id="path3218" /></g><g
           id="g3220"
           transform="translate(48.8862,89.2461)"><path
             d="M 0,0 6.65,-5.813 6.78,-5.469 0,0 z"
             style="fill:#ffffff;fill-opacity:1;fill-rule:nonzero;stroke:none"
             id="path3222" /></g><g
           id="g3224"
           transform="translate(48.8862,89.2461)"><path
             d="M 0,0 6.65,-5.813 6.78,-5.469 0,0 z"
             style="fill:none;stroke:#ffffff;stroke-opacity:1;stroke-width:0.085;stroke-linecap:butt;stroke-linejoin:miter;stroke-miterlimit:10;stroke-dasharray:none"
             id="path3226" /></g><g
           id="g3228"
           transform="translate(56.5112,95.6475)"><path
             d="M 0,0 2.263,-4.094 C 2.3,-4.04 2.339,-3.986 2.379,-3.935 L 0,0 z"
             style="fill:#ffffff;fill-opacity:1;fill-rule:nonzero;stroke:none"
             id="path3230" /></g><g
           id="g3232"
           transform="translate(56.5112,95.6475)"><path
             d="M 0,0 2.263,-4.094 C 2.3,-4.04 2.339,-3.986 2.379,-3.935 L 0,0 z"
             style="fill:none;stroke:#ffffff;stroke-opacity:1;stroke-width:0.085;stroke-linecap:butt;stroke-linejoin:miter;stroke-miterlimit:10;stroke-dasharray:none"
             id="path3234" /></g><g
           id="g3236"
           transform="translate(52.4136,92.7744)"><path
             d="M 0,0 4.531,-5.615 4.646,-5.312 0,0 z"
             style="fill:#ffffff;fill-opacity:1;fill-rule:nonzero;stroke:none"
             id="path3238" /></g><g
           id="g3240"
           transform="translate(52.4136,92.7744)"><path
             d="M 0,0 4.531,-5.615 4.646,-5.312 0,0 z"
             style="fill:none;stroke:#ffffff;stroke-opacity:1;stroke-width:0.085;stroke-linecap:butt;stroke-linejoin:miter;stroke-miterlimit:10;stroke-dasharray:none"
             id="path3242" /></g><g
           id="g3244"
           transform="translate(67.7788,89.4229)"><path
             d="m 0,0 -1.881,9.64 1.254,-8.082 c 0.085,-0.163 0.163,-0.33 0.23,-0.505 L 0,0 z"
             style="fill:#ffffff;fill-opacity:1;fill-rule:nonzero;stroke:none"
             id="path3246" /></g><g
           id="g3248"
           transform="translate(67.7788,89.4229)"><path
             d="m 0,0 -1.881,9.64 1.254,-8.082 c 0.085,-0.163 0.163,-0.33 0.23,-0.505 L 0,0 z"
             style="fill:none;stroke:#ffffff;stroke-opacity:1;stroke-width:0.085;stroke-linecap:butt;stroke-linejoin:miter;stroke-miterlimit:10;stroke-dasharray:none"
             id="path3250" /></g><g
           id="g3252"
           transform="translate(46.0171,85.1563)"><path
             d="M 0,0 8.279,-5.005 8.413,-4.651 0,0 z"
             style="fill:#ffffff;fill-opacity:1;fill-rule:nonzero;stroke:none"
             id="path3254" /></g><g
           id="g3256"
           transform="translate(46.0171,85.1563)"><path
             d="M 0,0 8.279,-5.005 8.413,-4.651 0,0 z"
             style="fill:none;stroke:#ffffff;stroke-opacity:1;stroke-width:0.085;stroke-linecap:butt;stroke-linejoin:miter;stroke-miterlimit:10;stroke-dasharray:none"
             id="path3258" /></g><g
           id="g3260"
           transform="translate(73.9517,89.4229)"><path
             d="M 0,0 1.881,9.64 0.627,1.558 C 0.543,1.395 0.465,1.228 0.398,1.053 L 0,0 z"
             style="fill:#ffffff;fill-opacity:1;fill-rule:nonzero;stroke:none"
             id="path3262" /></g><g
           id="g3264"
           transform="translate(73.9517,89.4229)"><path
             d="M 0,0 1.881,9.64 0.627,1.558 C 0.543,1.395 0.465,1.228 0.398,1.053 L 0,0 z"
             style="fill:none;stroke:#ffffff;stroke-opacity:1;stroke-width:0.085;stroke-linecap:butt;stroke-linejoin:miter;stroke-miterlimit:10;stroke-dasharray:none"
             id="path3266" /></g><g
           id="g3268"
           transform="translate(70.8657,114.0977)"><path
             d="m 0,0 c -23.838,0 -43.232,-19.394 -43.232,-43.232 0,-23.838 19.394,-43.232 43.232,-43.232 23.838,0 43.232,19.394 43.232,43.232 C 43.232,-19.394 23.838,0 0,0 m 0,-86.78 c -24.013,0 -43.549,19.536 -43.549,43.548 0,24.013 19.536,43.549 43.549,43.549 24.014,0 43.549,-19.536 43.549,-43.549 C 43.549,-67.244 24.014,-86.78 0,-86.78"
             style="fill:#ffffff;fill-opacity:1;fill-rule:nonzero;stroke:none"
             id="path3270" /></g><g
           id="g3272"
           transform="translate(70.8657,114.0977)"><path
             d="m 0,0 c -23.838,0 -43.232,-19.394 -43.232,-43.232 0,-23.838 19.394,-43.232 43.232,-43.232 23.838,0 43.232,19.394 43.232,43.232 C 43.232,-19.394 23.838,0 0,0 z m 0,-86.78 c -24.013,0 -43.549,19.536 -43.549,43.548 0,24.013 19.536,43.549 43.549,43.549 24.014,0 43.549,-19.536 43.549,-43.549 C 43.549,-67.244 24.014,-86.78 0,-86.78 z"
             style="fill:none;stroke:#ffffff;stroke-opacity:1;stroke-width:0.085;stroke-linecap:butt;stroke-linejoin:miter;stroke-miterlimit:10;stroke-dasharray:none"
             id="path3274" /></g><g
           id="g3276"
           transform="translate(70.8657,100.9219)"><path
             d="m 0,0 c -16.572,0 -30.056,-13.483 -30.056,-30.057 0,-16.572 13.484,-30.054 30.056,-30.054 16.572,0 30.057,13.482 30.057,30.054 C 30.057,-13.483 16.572,0 0,0 m 0,-60.428 c -16.747,0 -30.373,13.625 -30.373,30.371 0,16.748 13.626,30.373 30.373,30.373 16.748,0 30.373,-13.625 30.373,-30.373 0,-16.746 -13.625,-30.371 -30.373,-30.371"
             style="fill:#ffffff;fill-opacity:1;fill-rule:nonzero;stroke:none"
             id="path3278" /></g><g
           id="g3280"
           transform="translate(70.8657,100.9219)"><path
             d="m 0,0 c -16.572,0 -30.056,-13.483 -30.056,-30.057 0,-16.572 13.484,-30.054 30.056,-30.054 16.572,0 30.057,13.482 30.057,30.054 C 30.057,-13.483 16.572,0 0,0 z m 0,-60.428 c -16.747,0 -30.373,13.625 -30.373,30.371 0,16.748 13.626,30.373 30.373,30.373 16.748,0 30.373,-13.625 30.373,-30.373 0,-16.746 -13.625,-30.371 -30.373,-30.371 z"
             style="fill:none;stroke:#ffffff;stroke-opacity:1;stroke-width:0.085;stroke-linecap:butt;stroke-linejoin:miter;stroke-miterlimit:10;stroke-dasharray:none"
             id="path3282" /></g><g
           id="g3284"
           transform="translate(37.2437,78.9873)"><path
             d="M 0,0 C 0.582,-0.14 0.988,0.007 1.115,0.533 1.24,1.051 0.944,1.366 0.362,1.506 l -4.943,1.189 0.162,0.674 4.906,-1.18 C 1.467,1.954 2.014,1.343 1.774,0.345 1.536,-0.644 0.771,-0.938 -0.208,-0.703 L -5.114,0.478 -4.943,1.189 0,0 z"
             style="fill:#ffffff;fill-opacity:1;fill-rule:nonzero;stroke:none"
             id="path3286" /></g><g
           id="g3288"
           transform="translate(37.2437,78.9873)"><path
             d="M 0,0 C 0.582,-0.14 0.988,0.007 1.115,0.533 1.24,1.051 0.944,1.366 0.362,1.506 l -4.943,1.189 0.162,0.674 4.906,-1.18 C 1.467,1.954 2.014,1.343 1.774,0.345 1.536,-0.644 0.771,-0.938 -0.208,-0.703 L -5.114,0.478 -4.943,1.189 0,0 z"
             style="fill:none;stroke:#ffffff;stroke-opacity:1;stroke-width:0.085;stroke-linecap:butt;stroke-linejoin:miter;stroke-miterlimit:10;stroke-dasharray:none"
             id="path3290" /></g><g
           id="g3292"
           transform="translate(42.3481,87.9512)"><path
             d="m 0,0 -0.347,-0.567 -5.675,3.463 0.49,0.803 4.904,-1.19 L -4.73,5.013 -4.39,5.572 1.287,2.108 0.886,1.451 -4.59,2.801 0,0 z"
             style="fill:#ffffff;fill-opacity:1;fill-rule:nonzero;stroke:none"
             id="path3294" /></g><g
           id="g3296"
           transform="translate(42.3481,87.9512)"><path
             d="m 0,0 -0.347,-0.567 -5.675,3.463 0.49,0.803 4.904,-1.19 L -4.73,5.013 -4.39,5.572 1.287,2.108 0.886,1.451 -4.59,2.801 0,0 z"
             style="fill:none;stroke:#ffffff;stroke-opacity:1;stroke-width:0.085;stroke-linecap:butt;stroke-linejoin:miter;stroke-miterlimit:10;stroke-dasharray:none"
             id="path3298" /></g><g
           id="g3300"
           transform="translate(44.3735,100.9238)"><path
             d="M 0,0 4.509,-4.888 3.964,-5.39 -0.545,-0.502 0,0 z"
             style="fill:#ffffff;fill-opacity:1;fill-rule:nonzero;stroke:none"
             id="path3302" /></g><g
           id="g3304"
           transform="translate(44.3735,100.9238)"><path
             d="M 0,0 4.509,-4.888 3.964,-5.39 -0.545,-0.502 0,0 z"
             style="fill:none;stroke:#ffffff;stroke-opacity:1;stroke-width:0.085;stroke-linecap:butt;stroke-linejoin:miter;stroke-miterlimit:10;stroke-dasharray:none"
             id="path3306" /></g><g
           id="g3308"
           transform="translate(52.2212,106.4746)"><path
             d="M 0,0 3.566,-4.685 1.927,0.969 2.538,1.275 4.413,-5.227 3.437,-5.717 -0.671,-0.337 0,0 z"
             style="fill:#ffffff;fill-opacity:1;fill-rule:nonzero;stroke:none"
             id="path3310" /></g><g
           id="g3312"
           transform="translate(52.2212,106.4746)"><path
             d="M 0,0 3.566,-4.685 1.927,0.969 2.538,1.275 4.413,-5.227 3.437,-5.717 -0.671,-0.337 0,0 z"
             style="fill:none;stroke:#ffffff;stroke-opacity:1;stroke-width:0.085;stroke-linecap:butt;stroke-linejoin:miter;stroke-miterlimit:10;stroke-dasharray:none"
             id="path3314" /></g><g
           id="g3316"
           transform="translate(66.1655,107.9004)"><path
             d="M 0,0 0.104,-0.657 -1.501,-0.91 -1.133,-3.246 0.838,-2.936 0.943,-3.603 -1.76,-4.028 -2.795,2.541 -0.092,2.967 0.013,2.301 -1.958,1.99 -1.604,-0.253 0,0 z"
             style="fill:#ffffff;fill-opacity:1;fill-rule:nonzero;stroke:none"
             id="path3318" /></g><g
           id="g3320"
           transform="translate(66.1655,107.9004)"><path
             d="M 0,0 0.104,-0.657 -1.501,-0.91 -1.133,-3.246 0.838,-2.936 0.943,-3.603 -1.76,-4.028 -2.795,2.541 -0.092,2.967 0.013,2.301 -1.958,1.99 -1.604,-0.253 0,0 z"
             style="fill:none;stroke:#ffffff;stroke-opacity:1;stroke-width:0.085;stroke-linecap:butt;stroke-linejoin:miter;stroke-miterlimit:10;stroke-dasharray:none"
             id="path3322" /></g><g
           id="g3324"
           transform="translate(76.0005,107.6348)"><path
             d="m 0,0 c 0.582,-0.085 0.957,0.052 1.062,0.766 l 0.094,0.63 C 1.242,1.987 1.072,2.33 0.527,2.41 L -0.187,2.515 -0.545,0.08 0,0 z M 0.645,3.074 C 1.678,2.922 2.033,2.333 1.889,1.354 L 1.811,0.819 C 1.703,0.096 1.383,-0.318 0.793,-0.414 1.369,-0.681 1.523,-1.203 1.418,-1.908 L 1.268,-2.933 C 1.225,-3.224 1.195,-3.498 1.283,-3.741 l -0.742,0.109 c -0.057,0.2 -0.07,0.375 -0.004,0.817 l 0.15,1.034 c 0.11,0.742 -0.203,1.028 -0.814,1.118 l -0.518,0.076 -0.412,-2.81 -0.732,0.108 0.967,6.579 1.467,-0.216 z"
             style="fill:#ffffff;fill-opacity:1;fill-rule:nonzero;stroke:none"
             id="path3326" /></g><g
           id="g3328"
           transform="translate(76.0005,107.6348)"><path
             d="m 0,0 c 0.582,-0.085 0.957,0.052 1.062,0.766 l 0.094,0.63 C 1.242,1.987 1.072,2.33 0.527,2.41 L -0.187,2.515 -0.545,0.08 0,0 z M 0.645,3.074 C 1.678,2.922 2.033,2.333 1.889,1.354 L 1.811,0.819 C 1.703,0.096 1.383,-0.318 0.793,-0.414 1.369,-0.681 1.523,-1.203 1.418,-1.908 L 1.268,-2.933 C 1.225,-3.224 1.195,-3.498 1.283,-3.741 l -0.742,0.109 c -0.057,0.2 -0.07,0.375 -0.004,0.817 l 0.15,1.034 c 0.11,0.742 -0.203,1.028 -0.814,1.118 l -0.518,0.076 -0.412,-2.81 -0.732,0.108 0.967,6.579 1.467,-0.216 z"
             style="fill:none;stroke:#ffffff;stroke-opacity:1;stroke-width:0.085;stroke-linecap:butt;stroke-linejoin:miter;stroke-miterlimit:10;stroke-dasharray:none"
             id="path3330" /></g><g
           id="g3332"
           transform="translate(88.8013,105.0605)"><path
             d="m 0,0 -0.08,-0.162 -0.631,0.308 0.096,0.197 c 0.261,0.538 0.211,0.954 -0.268,1.187 -0.476,0.233 -0.836,0.017 -1.094,-0.512 -0.654,-1.341 1.29,-2.448 0.469,-4.13 -0.441,-0.905 -1.164,-1.282 -2.078,-0.836 -0.914,0.446 -1.053,1.243 -0.611,2.148 l 0.166,0.342 0.623,-0.305 -0.184,-0.376 c -0.262,-0.537 -0.193,-0.962 0.285,-1.195 0.477,-0.233 0.854,-0.025 1.116,0.513 0.65,1.332 -1.286,2.434 -0.465,4.117 0.451,0.922 1.156,1.286 2.052,0.849 C 0.303,1.703 0.441,0.905 0,0"
             style="fill:#ffffff;fill-opacity:1;fill-rule:nonzero;stroke:none"
             id="path3334" /></g><g
           id="g3336"
           transform="translate(88.8013,105.0605)"><path
             d="m 0,0 -0.08,-0.162 -0.631,0.308 0.096,0.197 c 0.261,0.538 0.211,0.954 -0.268,1.187 -0.476,0.233 -0.836,0.017 -1.094,-0.512 -0.654,-1.341 1.29,-2.448 0.469,-4.13 -0.441,-0.905 -1.164,-1.282 -2.078,-0.836 -0.914,0.446 -1.053,1.243 -0.611,2.148 l 0.166,0.342 0.623,-0.305 -0.184,-0.376 c -0.262,-0.537 -0.193,-0.962 0.285,-1.195 0.477,-0.233 0.854,-0.025 1.116,0.513 0.65,1.332 -1.286,2.434 -0.465,4.117 0.451,0.922 1.156,1.286 2.052,0.849 C 0.303,1.703 0.441,0.905 0,0 z"
             style="fill:none;stroke:#ffffff;stroke-opacity:1;stroke-width:0.085;stroke-linecap:butt;stroke-linejoin:miter;stroke-miterlimit:10;stroke-dasharray:none"
             id="path3338" /></g><g
           id="g3340"
           transform="translate(97.3813,100.9043)"><path
             d="m 0,0 -4.422,-4.969 -0.553,0.492 4.422,4.97 L 0,0 z"
             style="fill:#ffffff;fill-opacity:1;fill-rule:nonzero;stroke:none"
             id="path3342" /></g><g
           id="g3344"
           transform="translate(97.3813,100.9043)"><path
             d="m 0,0 -4.422,-4.969 -0.553,0.492 4.422,4.97 L 0,0 z"
             style="fill:none;stroke:#ffffff;stroke-opacity:1;stroke-width:0.085;stroke-linecap:butt;stroke-linejoin:miter;stroke-miterlimit:10;stroke-dasharray:none"
             id="path3346" /></g><g
           id="g3348"
           transform="translate(98.2778,89.7275)"><path
             d="M 0,0 5.023,3.236 4.359,4.268 4.928,4.633 6.656,1.948 6.09,1.583 5.426,2.614 0.4,-0.623 0,0 z"
             style="fill:#ffffff;fill-opacity:1;fill-rule:nonzero;stroke:none"
             id="path3350" /></g><g
           id="g3352"
           transform="translate(98.2778,89.7275)"><path
             d="M 0,0 5.023,3.236 4.359,4.268 4.928,4.633 6.656,1.948 6.09,1.583 5.426,2.614 0.4,-0.623 0,0 z"
             style="fill:none;stroke:#ffffff;stroke-opacity:1;stroke-width:0.085;stroke-linecap:butt;stroke-linejoin:miter;stroke-miterlimit:10;stroke-dasharray:none"
             id="path3354" /></g><g
           id="g3356"
           transform="translate(110.4712,81.6514)"><path
             d="M 0,0 -1.18,0.59 -1.316,1.084 -0.197,0.705 0,0 z m -4.123,-1.203 -0.641,-0.179 -0.433,1.566 -2.28,-0.633 0.534,-1.922 -0.651,-0.181 -0.73,2.636 6.406,1.779 0.732,-2.635 -0.65,-0.181 -0.533,1.923 -2.188,-0.609 0.434,-1.564 z"
             style="fill:#ffffff;fill-opacity:1;fill-rule:nonzero;stroke:none"
             id="path3358" /></g><g
           id="g3360"
           transform="translate(110.4712,81.6514)"><path
             d="M 0,0 -1.18,0.59 -1.316,1.084 -0.197,0.705 0,0 z m -4.123,-1.203 -0.641,-0.179 -0.433,1.566 -2.28,-0.633 0.534,-1.922 -0.651,-0.181 -0.73,2.636 6.406,1.779 0.732,-2.635 -0.65,-0.181 -0.533,1.923 -2.188,-0.609 0.434,-1.564 z"
             style="fill:none;stroke:#ffffff;stroke-opacity:1;stroke-width:0.085;stroke-linecap:butt;stroke-linejoin:miter;stroke-miterlimit:10;stroke-dasharray:none"
             id="path3362" /></g><g
           id="g3364"
           transform="translate(105.7583,61.6465)"><path
             d="M 0,0 C 0.139,0.572 0.037,0.959 -0.666,1.129 L -1.283,1.278 C -1.865,1.419 -2.221,1.28 -2.352,0.744 L -2.521,0.043 -0.129,-0.535 0,0 z m -3.002,0.922 c 0.244,1.015 0.865,1.315 1.826,1.084 L -0.65,1.878 C 0.061,1.705 0.443,1.35 0.486,0.753 0.803,1.302 1.338,1.406 2.029,1.24 L 3.037,0.996 C 3.322,0.928 3.594,0.871 3.844,0.937 L 3.668,0.209 C 3.463,0.17 3.287,0.174 2.854,0.278 L 1.838,0.523 C 1.107,0.7 0.795,0.414 0.648,-0.186 l -0.121,-0.507 2.76,-0.668 -0.174,-0.721 -6.465,1.562 0.35,1.442 z"
             style="fill:#ffffff;fill-opacity:1;fill-rule:nonzero;stroke:none"
             id="path3366" /></g><g
           id="g3368"
           transform="translate(105.7583,61.6465)"><path
             d="M 0,0 C 0.139,0.572 0.037,0.959 -0.666,1.129 L -1.283,1.278 C -1.865,1.419 -2.221,1.28 -2.352,0.744 L -2.521,0.043 -0.129,-0.535 0,0 z m -3.002,0.922 c 0.244,1.015 0.865,1.315 1.826,1.084 L -0.65,1.878 C 0.061,1.705 0.443,1.35 0.486,0.753 0.803,1.302 1.338,1.406 2.029,1.24 L 3.037,0.996 C 3.322,0.928 3.594,0.871 3.844,0.937 L 3.668,0.209 C 3.463,0.17 3.287,0.174 2.854,0.278 L 1.838,0.523 C 1.107,0.7 0.795,0.414 0.648,-0.186 l -0.121,-0.507 2.76,-0.668 -0.174,-0.721 -6.465,1.562 0.35,1.442 z"
             style="fill:none;stroke:#ffffff;stroke-opacity:1;stroke-width:0.085;stroke-linecap:butt;stroke-linejoin:miter;stroke-miterlimit:10;stroke-dasharray:none"
             id="path3370" /></g><g
           id="g3372"
           transform="translate(102.6411,53.873)"><path
             d="M 0,0 0.582,-0.322 -0.207,-1.744 1.861,-2.893 2.83,-1.148 3.42,-1.476 2.092,-3.868 -3.723,-0.637 -2.395,1.755 -1.805,1.428 -2.773,-0.317 -0.789,-1.42 0,0 z"
             style="fill:#ffffff;fill-opacity:1;fill-rule:nonzero;stroke:none"
             id="path3374" /></g><g
           id="g3376"
           transform="translate(102.6411,53.873)"><path
             d="M 0,0 0.582,-0.322 -0.207,-1.744 1.861,-2.893 2.83,-1.148 3.42,-1.476 2.092,-3.868 -3.723,-0.637 -2.395,1.755 -1.805,1.428 -2.773,-0.317 -0.789,-1.42 0,0 z"
             style="fill:none;stroke:#ffffff;stroke-opacity:1;stroke-width:0.085;stroke-linecap:butt;stroke-linejoin:miter;stroke-miterlimit:10;stroke-dasharray:none"
             id="path3378" /></g><g
           id="g3380"
           transform="translate(95.3013,48.4121)"><path
             d="M 0,0 4.902,-4.495 4.4,-5.041 -0.5,-0.545 0,0 z"
             style="fill:#ffffff;fill-opacity:1;fill-rule:nonzero;stroke:none"
             id="path3382" /></g><g
           id="g3384"
           transform="translate(95.3013,48.4121)"><path
             d="M 0,0 4.902,-4.495 4.4,-5.041 -0.5,-0.545 0,0 z"
             style="fill:none;stroke:#ffffff;stroke-opacity:1;stroke-width:0.085;stroke-linecap:butt;stroke-linejoin:miter;stroke-miterlimit:10;stroke-dasharray:none"
             id="path3386" /></g><g
           id="g3388"
           transform="translate(92.02,36.9717)"><path
             d="M 0,0 -3.74,5.501 -3.127,5.917 0.234,0.975 1.807,2.044 2.186,1.485 0,0 z"
             style="fill:#ffffff;fill-opacity:1;fill-rule:nonzero;stroke:none"
             id="path3390" /></g><g
           id="g3392"
           transform="translate(92.02,36.9717)"><path
             d="M 0,0 -3.74,5.501 -3.127,5.917 0.234,0.975 1.807,2.044 2.186,1.485 0,0 z"
             style="fill:none;stroke:#ffffff;stroke-opacity:1;stroke-width:0.085;stroke-linecap:butt;stroke-linejoin:miter;stroke-miterlimit:10;stroke-dasharray:none"
             id="path3394" /></g><g
           id="g3396"
           transform="translate(82.8403,32.6807)"><path
             d="M 0,0 -2.211,6.271 -1.512,6.519 0.475,0.883 2.268,1.515 2.492,0.878 0,0 z"
             style="fill:#ffffff;fill-opacity:1;fill-rule:nonzero;stroke:none"
             id="path3398" /></g><g
           id="g3400"
           transform="translate(82.8403,32.6807)"><path
             d="M 0,0 -2.211,6.271 -1.512,6.519 0.475,0.883 2.268,1.515 2.492,0.878 0,0 z"
             style="fill:none;stroke:#ffffff;stroke-opacity:1;stroke-width:0.085;stroke-linecap:butt;stroke-linejoin:miter;stroke-miterlimit:10;stroke-dasharray:none"
             id="path3402" /></g><g
           id="g3404"
           transform="translate(74.7036,34.7422)"><path
             d="M 0,0 0.051,-0.663 -1.568,-0.789 -1.387,-3.146 0.604,-2.992 0.656,-3.665 -2.072,-3.877 -2.586,2.754 0.141,2.965 0.193,2.293 -1.795,2.139 -1.621,-0.125 0,0 z"
             style="fill:#ffffff;fill-opacity:1;fill-rule:nonzero;stroke:none"
             id="path3406" /></g><g
           id="g3408"
           transform="translate(74.7036,34.7422)"><path
             d="M 0,0 0.051,-0.663 -1.568,-0.789 -1.387,-3.146 0.604,-2.992 0.656,-3.665 -2.072,-3.877 -2.586,2.754 0.141,2.965 0.193,2.293 -1.795,2.139 -1.621,-0.125 0,0 z"
             style="fill:none;stroke:#ffffff;stroke-opacity:1;stroke-width:0.085;stroke-linecap:butt;stroke-linejoin:miter;stroke-miterlimit:10;stroke-dasharray:none"
             id="path3410" /></g><g
           id="g3412"
           transform="translate(64.147,34.7588)"><path
             d="M 0,0 C 0.541,-0.102 0.85,0.102 0.968,0.728 L 1.131,1.595 C 1.243,2.192 1.084,2.532 0.552,2.632 L -0.148,2.764 -0.645,0.122 0,0 z M 0.677,3.295 C 1.703,3.103 2.028,2.413 1.843,1.423 L 1.695,0.639 C 1.5,-0.397 0.913,-0.849 -0.123,-0.653 l -0.645,0.121 -0.484,-2.576 -0.727,0.136 1.227,6.535 1.429,-0.268 z"
             style="fill:#ffffff;fill-opacity:1;fill-rule:nonzero;stroke:none"
             id="path3414" /></g><g
           id="g3416"
           transform="translate(64.147,34.7588)"><path
             d="M 0,0 C 0.541,-0.102 0.85,0.102 0.968,0.728 L 1.131,1.595 C 1.243,2.192 1.084,2.532 0.552,2.632 L -0.148,2.764 -0.645,0.122 0,0 z M 0.677,3.295 C 1.703,3.103 2.028,2.413 1.843,1.423 L 1.695,0.639 C 1.5,-0.397 0.913,-0.849 -0.123,-0.653 l -0.645,0.121 -0.484,-2.576 -0.727,0.136 1.227,6.535 1.429,-0.268 z"
             style="fill:none;stroke:#ffffff;stroke-opacity:1;stroke-width:0.085;stroke-linecap:butt;stroke-linejoin:miter;stroke-miterlimit:10;stroke-dasharray:none"
             id="path3418" /></g><g
           id="g3420"
           transform="translate(53.2563,34.9854)"><path
             d="M 0,0 2.62,5.371 1.519,5.908 1.814,6.515 4.684,5.115 4.388,4.509 3.286,5.046 0.666,-0.325 0,0 z"
             style="fill:#ffffff;fill-opacity:1;fill-rule:nonzero;stroke:none"
             id="path3422" /></g><g
           id="g3424"
           transform="translate(53.2563,34.9854)"><path
             d="M 0,0 2.62,5.371 1.519,5.908 1.814,6.515 4.684,5.115 4.388,4.509 3.286,5.046 0.666,-0.325 0,0 z"
             style="fill:none;stroke:#ffffff;stroke-opacity:1;stroke-width:0.085;stroke-linecap:butt;stroke-linejoin:miter;stroke-miterlimit:10;stroke-dasharray:none"
             id="path3426" /></g><g
           id="g3428"
           transform="translate(44.061,41.3359)"><path
             d="M 0,0 -0.498,0.441 3.905,5.424 4.61,4.801 2.58,0.18 5.764,3.781 6.255,3.348 1.851,-1.635 1.274,-1.125 3.561,4.029 0,0 z"
             style="fill:#ffffff;fill-opacity:1;fill-rule:nonzero;stroke:none"
             id="path3430" /></g><g
           id="g3432"
           transform="translate(44.061,41.3359)"><path
             d="M 0,0 -0.498,0.441 3.905,5.424 4.61,4.801 2.58,0.18 5.764,3.781 6.255,3.348 1.851,-1.635 1.274,-1.125 3.561,4.029 0,0 z"
             style="fill:none;stroke:#ffffff;stroke-opacity:1;stroke-width:0.085;stroke-linecap:butt;stroke-linejoin:miter;stroke-miterlimit:10;stroke-dasharray:none"
             id="path3434" /></g><g
           id="g3436"
           transform="translate(38.5874,50.4395)"><path
             d="m 0,0 c -0.511,-0.33 -0.667,-0.736 -0.379,-1.184 0.294,-0.455 0.724,-0.472 1.234,-0.142 L 3.81,0.582 C 4.312,0.907 4.481,1.311 4.187,1.766 3.898,2.213 3.456,2.232 2.953,1.907 L 0,0 z M 2.524,2.502 C 3.379,3.053 4.203,2.986 4.755,2.131 5.312,1.27 5.034,0.49 4.18,-0.061 L 1.29,-1.928 c -0.847,-0.547 -1.679,-0.484 -2.235,0.378 -0.552,0.855 -0.267,1.638 0.58,2.185 l 2.889,1.867 z"
             style="fill:#ffffff;fill-opacity:1;fill-rule:nonzero;stroke:none"
             id="path3438" /></g><g
           id="g3440"
           transform="translate(38.5874,50.4395)"><path
             d="m 0,0 c -0.511,-0.33 -0.667,-0.736 -0.379,-1.184 0.294,-0.455 0.724,-0.472 1.234,-0.142 L 3.81,0.582 C 4.312,0.907 4.481,1.311 4.187,1.766 3.898,2.213 3.456,2.232 2.953,1.907 L 0,0 z M 2.524,2.502 C 3.379,3.053 4.203,2.986 4.755,2.131 5.312,1.27 5.034,0.49 4.18,-0.061 L 1.29,-1.928 c -0.847,-0.547 -1.679,-0.484 -2.235,0.378 -0.552,0.855 -0.267,1.638 0.58,2.185 l 2.889,1.867 z"
             style="fill:none;stroke:#ffffff;stroke-opacity:1;stroke-width:0.085;stroke-linecap:butt;stroke-linejoin:miter;stroke-miterlimit:10;stroke-dasharray:none"
             id="path3442" /></g><g
           id="g3444"
           transform="translate(33.0688,58.9736)"><path
             d="M 0,0 -0.198,0.685 4.577,3.216 -0.514,1.739 -0.694,2.36 5.692,4.21 5.98,3.216 1.185,0.689 6.578,1.154 6.866,0.159 0.479,-1.69 0.284,-1.015 5.421,0.473 0,0 z"
             style="fill:#ffffff;fill-opacity:1;fill-rule:nonzero;stroke:none"
             id="path3446" /></g><g
           id="g3448"
           transform="translate(33.0688,58.9736)"><path
             d="M 0,0 -0.198,0.685 4.577,3.216 -0.514,1.739 -0.694,2.36 5.692,4.21 5.98,3.216 1.185,0.689 6.578,1.154 6.866,0.159 0.479,-1.69 0.284,-1.015 5.421,0.473 0,0 z"
             style="fill:none;stroke:#ffffff;stroke-opacity:1;stroke-width:0.085;stroke-linecap:butt;stroke-linejoin:miter;stroke-miterlimit:10;stroke-dasharray:none"
             id="path3450" /></g><g
           id="g3452"
           transform="translate(35.0376,70.8672)"><path
             d="m 0,0 c 0,-0.519 -0.418,-0.937 -0.936,-0.937 -0.516,0 -0.934,0.418 -0.934,0.937 0,0.516 0.418,0.936 0.934,0.936 C -0.418,0.936 0,0.516 0,0"
             style="fill:#ffffff;fill-opacity:1;fill-rule:nonzero;stroke:none"
             id="path3454" /></g><g
           id="g3456"
           transform="translate(108.6157,70.8672)"><path
             d="m 0,0 c 0,-0.519 -0.418,-0.937 -0.937,-0.937 -0.516,0 -0.934,0.418 -0.934,0.937 0,0.516 0.418,0.936 0.934,0.936 C -0.418,0.936 0,0.516 0,0"
             style="fill:#ffffff;fill-opacity:1;fill-rule:nonzero;stroke:none"
             id="path3458" /></g></g></g></g></svg>