<?xml version="1.0" encoding="UTF-8" standalone="no"?>
<!-- Created with Inkscape (http://www.inkscape.org/) -->

<svg
   xmlns:dc="http://purl.org/dc/elements/1.1/"
   xmlns:cc="http://creativecommons.org/ns#"
   xmlns:rdf="http://www.w3.org/1999/02/22-rdf-syntax-ns#"
   xmlns:svg="http://www.w3.org/2000/svg"
   xmlns="http://www.w3.org/2000/svg"
   xmlns:sodipodi="http://sodipodi.sourceforge.net/DTD/sodipodi-0.dtd"
   xmlns:inkscape="http://www.inkscape.org/namespaces/inkscape"
   width="744.09448819"
   height="1052.3622047"
   id="svg3962"
   version="1.1"
   inkscape:version="0.48.4 r9939"
   sodipodi:docname="lightning.svg">
  <defs
     id="defs3964" />
  <sodipodi:namedview
     id="base"
     pagecolor="#ffffff"
     bordercolor="#666666"
     borderopacity="1.0"
     inkscape:pageopacity="0.0"
     inkscape:pageshadow="2"
     inkscape:zoom="0.35"
     inkscape:cx="39.285714"
     inkscape:cy="520"
     inkscape:document-units="px"
     inkscape:current-layer="layer1"
     showgrid="false"
     inkscape:window-width="1920"
     inkscape:window-height="1007"
     inkscape:window-x="0"
     inkscape:window-y="24"
     inkscape:window-maximized="1" />
  <metadata
     id="metadata3967">
    <rdf:RDF>
      <cc:Work
         rdf:about="">
        <dc:format>image/svg+xml</dc:format>
        <dc:type
           rdf:resource="http://purl.org/dc/dcmitype/StillImage" />
        <dc:title></dc:title>
      </cc:Work>
    </rdf:RDF>
  </metadata>
  <g
     inkscape:label="Layer 1"
     inkscape:groupmode="layer"
     id="layer1">
    <path
       style="fill:#00acef;fill-opacity:0.94117647"
       d="m 166.17227,234.58735 0,103.4063 -103.437499,0 0,51.6874 103.437499,0 0,103.3751 51.7187,0 0,-103.3751 103.4688,0 0,-51.6874 -103.4688,0 0,-103.4063 -51.7187,0 z m 258.62504,103.4063 0,51.6562 258.6874,0 0,-51.6562 -258.6874,0 z m 116,206.7187 0,51.6875 51.7499,0 0,-51.6875 -51.7499,0 z m -441.500039,24.5312 -51.25,51.12509 73.156199,73.0937 -73.156199,73.0625 51.25,51.1562 73.124999,-73.0625 73.1562,73.1563 51.2188,-51.25 -73.125,-73.0625 73.125,-73.0937 -51.2188,-51.12509 -73.1562,73.09379 -73.124999,-73.09379 z m 338.062539,78.87509 0,51.7187 258.6874,0 0,-51.7187 -258.6874,0 z m 103.4375,103.3437 0,51.7188 51.7499,0 0,-51.7188 -51.7499,0 z"
       id="path4435"
       inkscape:connector-curvature="0" />
  </g>
</svg>
