<?xml version="1.0" encoding="UTF-8" standalone="no"?>
<!-- Created with Inkscape (http://www.inkscape.org/) -->

<svg
   xmlns:dc="http://purl.org/dc/elements/1.1/"
   xmlns:cc="http://creativecommons.org/ns#"
   xmlns:rdf="http://www.w3.org/1999/02/22-rdf-syntax-ns#"
   xmlns:svg="http://www.w3.org/2000/svg"
   xmlns="http://www.w3.org/2000/svg"
   xmlns:sodipodi="http://sodipodi.sourceforge.net/DTD/sodipodi-0.dtd"
   xmlns:inkscape="http://www.inkscape.org/namespaces/inkscape"
   width="200mm"
   height="200mm"
   viewBox="0 0 744.09448819 1052.3622047"
   id="svg5233"
   version="1.1"
   inkscape:version="0.91 r13725"
   sodipodi:docname="drawing.svg">
  <defs
     id="defs5235" />
  <sodipodi:namedview
     id="base"
     pagecolor="#ffffff"
     bordercolor="#666666"
     borderopacity="1.0"
     inkscape:pageopacity="0.0"
     inkscape:pageshadow="2"
     inkscape:zoom="0.35"
     inkscape:cx="-713.57143"
     inkscape:cy="520"
     inkscape:document-units="px"
     inkscape:current-layer="layer1"
     showgrid="false"
     inkscape:window-width="1920"
     inkscape:window-height="1004"
     inkscape:window-x="0"
     inkscape:window-y="24"
     inkscape:window-maximized="1" />
  <metadata
     id="metadata5238">
    <rdf:RDF>
      <cc:Work
         rdf:about="">
        <dc:format>image/svg+xml</dc:format>
        <dc:type
           rdf:resource="http://purl.org/dc/dcmitype/StillImage" />
        <dc:title />
      </cc:Work>
    </rdf:RDF>
  </metadata>
  <g
     inkscape:label="Layer 1"
     inkscape:groupmode="layer"
     id="layer1">
    <path
       inkscape:connector-curvature="0"
       id="path4206"
       d="m 372.29253,16.021602 c -76.34141,-0.067 -152.57731,17.05117 -222.72356,51.36058 -53.860624,26.34421 -89.553259,51.404658 -132.245549,92.855008 -46.39238,45.04166 -75.93999,85.6732 -103.840544,142.79284 -26.728227,54.71968 -43.671257,114.94053 -49.762847,176.86783 -12.59857,128.07822 27.85835,263.01073 109.540451,365.32569 18.87373,23.6415 61.75664,66.169 85.0646,84.3607 73.033929,57.0015 169.934039,95.65175 263.998659,105.30295 29.04473,2.9799 96.4111,1.1495 125.51823,-3.4107 C 616.36222,1005.0756 757.08361,901.44455 831.26238,749.11306 890.32081,627.8347 898.77281,489.16818 855.00831,359.54529 845.79951,332.26869 817.83609,274.83561 801.54934,249.74587 782.50767,220.41209 764.92175,198.75882 736.13005,169.19693 693.12687,125.04547 651.64073,95.094182 595.65036,67.774422 525.07976,33.340832 448.63395,16.089022 372.29253,16.021602 Z m 1.7485,72.74825 c 195.15954,0.52487 372.77061,133.392568 422.50679,330.619238 64.21429,254.64622 -107.79047,506.56356 -369.66508,541.41126 -64.64319,8.6021 -132.56666,1.3343 -198.23557,-21.2082 C 19.136581,867.67295 -103.55716,647.80258 -54.833539,431.58657 -17.181249,264.50209 110.22618,137.09465 277.30997,99.442622 c 32.39195,-7.29934 64.79638,-10.75865 96.73106,-10.67277 z M 243.05608,261.427 c -6.37333,0.0322 -12.59347,1.36555 -17.03563,3.98899 -15.22357,8.9931 -14.53938,-3.94014 -13.83249,261.08439 l 0.6422,241.23692 9.09081,8.32809 c 7.57151,6.93906 10.94028,8.33036 20.19335,8.33036 6.10781,0 14.60973,-1.78263 18.8919,-3.96015 20.31134,-10.32813 378.48355,-226.22689 384.53576,-231.78963 14.90475,-13.70131 17.27617,-26.7096 7.81092,-42.85951 C 647.86802,496.42697 632.2666,486.568 458.09352,382.40888 353.97931,320.14602 265.2895,267.4172 261.00622,265.23427 c -5.05033,-2.57481 -11.57684,-3.84034 -17.95014,-3.80727 z"
       style="fill:#000000" />
  </g>
</svg>
