<?xml version="1.0" standalone="no"?>
<!DOCTYPE svg PUBLIC "-//W3C//DTD SVG 1.1//EN" "http://www.w3.org/Graphics/SVG/1.1/DTD/svg11.dtd" >
<svg xmlns="http://www.w3.org/2000/svg">
<metadata></metadata>
<defs>
<font id="geoslb712_md_btmedium" horiz-adv-x="1014" >
<font-face units-per-em="2048" ascent="1638" descent="-410" />
<missing-glyph horiz-adv-x="508" />
<glyph horiz-adv-x="2048" />
<glyph horiz-adv-x="2048" />
<glyph unicode="&#xd;" horiz-adv-x="508" />
<glyph unicode=" "  horiz-adv-x="508" />
<glyph unicode="&#x09;" horiz-adv-x="508" />
<glyph unicode="&#xa0;" horiz-adv-x="508" />
<glyph unicode="!" horiz-adv-x="563" d="M168 0v252h227v-252h-227zM186 973v448h191v-448l-43 -590h-105z" />
<glyph unicode="&#x22;" horiz-adv-x="614" d="M90 881v555h139v-555h-139zM385 881v555h139v-555h-139z" />
<glyph unicode="#" horiz-adv-x="1575" d="M88 449l53 147h310l92 262h-330l51 146h332l162 454h166l-162 -454h256l164 454h164l-160 -454h301l-51 -146h-303l-93 -262h322l-51 -147h-322l-162 -453h-165l161 453h-258l-162 -453h-165l159 453h-309zM616 594h261l92 264h-260z" />
<glyph unicode="$" d="M57 1061q0 164 105 263q53 50 124.5 76.5t159.5 26.5v152h109v-159q50 -12 94 -36t84 -63v94h148v-371h-150v103q-31 43 -74 75t-102 54v-451l100 -30q143 -43 220 -146.5t77 -251.5q0 -180 -106 -289q-54 -55 -128 -87t-163 -32v-167h-109v176q-58 9 -111 36.5 t-104 71.5v-88h-161v431h161v-130q45 -62 95 -100t120 -61v510l-110 37q-136 45 -207.5 135.5t-71.5 220.5zM225 1079q0 -89 49 -140.5t172 -88.5v440q-104 -9 -162.5 -63.5t-58.5 -147.5zM555 150q111 12 170 74t59 165q0 101 -56 166t-173 98v-503z" />
<glyph unicode="%" horiz-adv-x="1460" d="M53 1034q0 189 75.5 300.5t203.5 111.5q123 0 199.5 -111.5t76.5 -300.5t-75.5 -301t-200.5 -112t-202 112t-77 301zM199 1034q0 -129 36 -206.5t95 -77.5t96 78.5t37 205.5q0 132 -36.5 207.5t-96.5 75.5t-95.5 -76t-35.5 -207zM225 -29l869 1475h139l-868 -1475h-140z M850 383q0 189 75.5 301.5t200.5 112.5q126 0 201.5 -112t75.5 -302q0 -189 -75.5 -300.5t-201.5 -111.5t-201 111t-75 301zM993 383q0 -129 36.5 -206t96.5 -77t97 77q17 37 27 90t10 116q0 131 -36.5 208t-97.5 77q-60 0 -96.5 -77t-36.5 -208z" />
<glyph unicode="&#x26;" horiz-adv-x="1450" d="M92 436q0 156 77 266.5t237 184.5q-38 82 -57 143.5t-19 108.5q0 135 89 221t232 86q153 0 241.5 -81.5t88.5 -221.5q0 -114 -72.5 -192.5t-228.5 -135.5l285 -383q19 38 35.5 78.5t31.5 83.5q26 73 47 168h287v-178h-156q-21 -80 -53 -150q-17 -38 -36.5 -75t-43.5 -76 l86 -113h203v-170h-313l-97 129q-89 -83 -180 -120.5t-205 -37.5q-205 0 -342 132.5t-137 332.5zM295 465q0 -127 90.5 -219t216.5 -92q65 0 128 27t126 85l-352 475q-98 -36 -153.5 -108.5t-55.5 -167.5zM506 1151q0 -41 17.5 -87.5t56.5 -111.5q120 36 172.5 81.5 t52.5 117.5q0 62 -42.5 102.5t-111.5 40.5q-65 0 -105 -38.5t-40 -104.5z" />
<glyph unicode="'" horiz-adv-x="317" d="M90 881v555h139v-555h-139z" />
<glyph unicode="(" horiz-adv-x="768" d="M211 563q0 343 136.5 572.5t387.5 310.5v-131q-166 -91 -246.5 -275.5t-80.5 -476.5q0 -295 79.5 -477.5t247.5 -273.5v-134q-249 81 -386.5 311.5t-137.5 573.5z" />
<glyph unicode=")" horiz-adv-x="768" d="M39 -190q166 91 247 274.5t81 476.5q0 297 -79.5 479t-248.5 275v131q251 -81 387.5 -311t136.5 -572q0 -344 -136.5 -574t-387.5 -311v132z" />
<glyph unicode="*" horiz-adv-x="920" d="M119 1147l47 139l235 -94l-16 254h147l-16 -254l238 94l45 -139l-248 -64l164 -196l-119 -86l-137 215l-135 -215l-119 86l162 196z" />
<glyph unicode="+" horiz-adv-x="1706" d="M254 541v139h528v541h142v-541h528v-139h-528v-541h-142v541h-528z" />
<glyph unicode="," horiz-adv-x="508" d="M123 -172q62 13 87.5 44.5t25.5 96.5v31h-109v252h231v-252q0 -135 -59 -206q-30 -37 -74 -58t-102 -21v113z" />
<glyph unicode="-" horiz-adv-x="668" d="M86 422v176h498v-176h-498z" />
<glyph unicode="." horiz-adv-x="508" d="M135 0v252h238v-252h-238z" />
<glyph unicode="/" horiz-adv-x="627" d="M-53 -190l551 1636h127l-551 -1636h-127z" />
<glyph unicode="0" d="M70 709q0 349 114 543t322 194q210 0 325 -197.5t115 -560.5q0 -333 -117.5 -525t-322.5 -192q-207 0 -321.5 193.5t-114.5 544.5zM262 719q0 -273 65.5 -425.5t180.5 -152.5q111 0 177.5 149t66.5 406q0 288 -63.5 443t-180.5 155q-115 0 -180.5 -151t-65.5 -424z" />
<glyph unicode="1" d="M240 0v176h184v1071h-184v174h374v-1245h177v-176h-551z" />
<glyph unicode="2" d="M49 0v18q0 153 49.5 279.5t145.5 222.5q67 69 178 151q115 85 135 103q80 70 111.5 131.5t31.5 147.5q0 106 -57.5 168.5t-153.5 62.5q-120 0 -177 -94q-28 -46 -43.5 -121.5t-15.5 -173.5h-177l-2 22v35q0 234 115 364t321 130q177 0 285 -108.5t108 -286.5 q0 -77 -23.5 -147t-70.5 -128q-77 -95 -252 -217q-33 -22 -53 -37q-26 -19 -37 -28q-104 -83 -155.5 -160.5t-59.5 -157.5h483v326h176v-502h-862z" />
<glyph unicode="3" d="M57 457v16h183v-6q0 -159 67.5 -249.5t186.5 -90.5q108 0 178.5 75t70.5 189q0 135 -82.5 206t-242.5 71l-24 -1l-23 -1v165h32q145 0 222 62t77 178q0 100 -56.5 159.5t-153.5 59.5q-110 0 -165 -72t-55 -221v-8h-176v35q0 195 105 308.5t286 113.5q182 0 294 -101.5 t112 -267.5q0 -115 -55 -194.5t-166 -124.5q134 -48 197 -135t63 -226q0 -192 -122.5 -309t-324.5 -117q-198 0 -313 129t-115 357z" />
<glyph unicode="4" d="M29 561l557 885h176v-885h201v-158h-201v-227h137v-176h-467v176h160v227h-488q-6 50 -24 87.5t-51 70.5zM199 561h393l8 647z" />
<glyph unicode="5" d="M51 436v29h187v-8q0 -150 60 -231t171 -81q117 0 187.5 86.5t70.5 231.5q0 139 -66.5 216t-185.5 77q-77 0 -140 -41t-102 -121l-135 106l76 721h676v-383h-166v209h-383l-41 -407q29 20 62 38t64 30q66 22 132 22q185 0 294.5 -124.5t109.5 -334.5q0 -226 -124 -363 t-329 -137q-198 0 -308 123t-110 342z" />
<glyph unicode="6" d="M72 672q0 373 123 573.5t354 200.5q177 0 279 -101.5t102 -277.5v-33h-168q0 130 -54 195t-161 65q-135 0 -208 -129t-73 -377v-20q77 68 154 102.5t155 34.5q168 0 270.5 -127t102.5 -336q0 -210 -118.5 -340.5t-309.5 -130.5q-219 0 -333.5 179t-114.5 522zM264 524 q0 -181 71.5 -283t194.5 -102q109 0 177.5 83t68.5 218q0 142 -63.5 222.5t-175.5 80.5q-67 0 -136.5 -37.5t-134.5 -110.5q0 -17 -2 -27v-44z" />
<glyph unicode="7" d="M86 1032v389h862v-143q-188 -296 -283 -565q-46 -132 -70 -262t-24 -252v-23h152v-176h-520v176h165q0 122 23 245t69 254q85 247 279 572h-491v-215h-162z" />
<glyph unicode="8" d="M57 381q0 138 61.5 233t178.5 138q-98 37 -153.5 123.5t-55.5 199.5q0 162 117.5 266.5t302.5 104.5t302.5 -104t117.5 -267q0 -114 -54.5 -199t-154.5 -124q116 -42 177.5 -138t61.5 -233q0 -178 -126.5 -294t-323.5 -116q-198 0 -324.5 115.5t-126.5 294.5zM252 406 q0 -109 74 -184t180 -75q107 0 181.5 75.5t74.5 183.5q0 107 -74 181.5t-182 74.5q-106 0 -180 -75.5t-74 -180.5zM274 1065q0 -95 68 -162t164 -67q98 0 166 66q33 33 50 73.5t17 89.5q0 96 -67 162.5t-166 66.5q-98 0 -165 -67t-67 -162z" />
<glyph unicode="9" d="M59 975q0 210 119 340.5t309 130.5q219 0 334 -178.5t115 -519.5q0 -385 -125 -581t-369 -196q-167 0 -265.5 103t-98.5 280v29h168q0 -130 53.5 -195t161.5 -65q136 0 208 129t72 377v20q-75 -67 -151.5 -101t-157.5 -34q-166 0 -269.5 126.5t-103.5 334.5zM231 979 q0 -141 65 -223t177 -82q64 0 135.5 39.5t134.5 109.5l2 28v44q0 181 -71 283t-195 102q-107 0 -177.5 -83.5t-70.5 -217.5z" />
<glyph unicode=":" horiz-adv-x="555" d="M158 0v252h237v-252h-237zM158 750v249h237v-249h-237z" />
<glyph unicode=";" horiz-adv-x="555" d="M156 -172q62 13 87 44t25 97v31h-108v252h231v-252q0 -135 -59 -206q-30 -37 -74 -58t-102 -21v113zM156 750v249h237v-249h-237z" />
<glyph unicode="&#x3c;" horiz-adv-x="1706" d="M264 547v129l1178 483v-153l-969 -396l969 -393v-154z" />
<glyph unicode="=" horiz-adv-x="1706" d="M254 342v139h1198v-139h-1198zM254 739v140h1198v-140h-1198z" />
<glyph unicode="&#x3e;" horiz-adv-x="1706" d="M264 63v154l971 393l-971 396v153l1178 -483v-129z" />
<glyph unicode="?" horiz-adv-x="958" d="M47 1010v24q0 188 111 300t301 112q180 0 296.5 -107t116.5 -268q0 -168 -101 -272t-286 -125l-18 -271h-111l-24 441l37 -10l34 -3q128 0 201.5 63.5t73.5 174.5q0 95 -62.5 157t-160.5 62q-105 0 -165.5 -68t-60.5 -188v-22h-182zM299 0v252h227v-252h-227z" />
<glyph unicode="@" horiz-adv-x="2048" d="M106 522q0 166 51.5 312.5t151.5 269.5q146 177 352 269.5t455 92.5q161 0 309 -45t254 -127q127 -98 196 -230t69 -284q0 -175 -63.5 -314.5t-184.5 -236.5q-31 -25 -70 -46.5t-80 -36.5q-82 -29 -166 -29q-99 0 -149.5 39t-50.5 118v19q-54 -88 -128.5 -131t-172.5 -43 q-153 0 -233.5 85t-80.5 247q0 233 138 393t339 160q43 0 78.5 -9t66.5 -29q60 -36 97 -112l57 115h132l-146 -576l-6 -31l-2 -28q0 -45 25.5 -69.5t74.5 -24.5q25 0 50 6t52 20q53 27 107 76q78 73 124 185t46 235q0 259 -190.5 420t-499.5 161q-134 0 -247 -27.5 t-210 -86.5q-189 -113 -295 -299t-106 -410q0 -177 61 -307.5t193 -230.5q99 -76 236 -118t288 -42q169 0 327 48t294 142l55 -82q-145 -109 -313 -166t-351 -57q-192 0 -349.5 47t-278.5 140q-152 116 -229 274t-77 354zM725 446q0 -105 48 -162t138 -57q96 0 174 69 t105 179l59 236q-16 86 -68 135t-130 49q-138 0 -232 -130t-94 -319z" />
<glyph unicode="A" horiz-adv-x="1294" d="M-57 0v184h163l371 1063h-184v174h711v-174h-175l367 -1063h154v-184h-533v184h172l-110 320h-480l-108 -320h160v-184h-508zM461 676h356l-176 528z" />
<glyph unicode="B" horiz-adv-x="1225" d="M41 0v184h168v1063h-168v174h571q212 0 325.5 -92.5t113.5 -269.5q0 -107 -50.5 -180t-162.5 -123q140 -40 215 -131.5t75 -223.5q0 -194 -123.5 -297.5t-365.5 -103.5h-598zM412 178h198q146 0 227 63t81 177q0 115 -87.5 178t-250.5 63h-168v-481zM412 825h149 q140 0 213.5 51.5t73.5 153.5q0 105 -70.5 161t-204.5 56h-161v-422z" />
<glyph unicode="C" horiz-adv-x="1540" d="M70 709q0 323 200.5 530t511.5 207q160 0 268.5 -49t190.5 -158v182h174v-456h-188q-62 143 -171 217.5t-259 74.5q-226 0 -367 -151t-141 -395q0 -242 138 -395.5t353 -153.5q171 0 308.5 110.5t197.5 300.5l176 -104q-69 -233 -250 -365.5t-430 -132.5 q-313 0 -512.5 207t-199.5 531z" />
<glyph unicode="D" horiz-adv-x="1464" d="M35 0v184h174v1063h-174v174h657q332 0 517.5 -187t185.5 -523q0 -339 -184 -525t-519 -186h-657zM412 186h262q245 0 370 135t125 396q0 254 -122 392t-347 138h-288v-1061z" />
<glyph unicode="E" horiz-adv-x="1300" d="M41 0v184h168v1063h-168v174h1161v-422h-172v248h-618v-432h553v-170h-553v-461h618v271h172v-455h-1161z" />
<glyph unicode="F" horiz-adv-x="1157" d="M41 0v184h168v1063h-168v174h1079v-422h-170v248h-538v-432h475v-170h-475v-461h186v-184h-557z" />
<glyph unicode="G" horiz-adv-x="1561" d="M72 709q0 322 201.5 529.5t514.5 207.5q161 0 270.5 -49.5t190.5 -157.5v182h172v-456h-186q-63 143 -172 217.5t-260 74.5q-228 0 -371 -151t-143 -395q0 -251 144.5 -400t387.5 -149q186 0 303.5 92.5t135.5 257.5h-261v176h487l2 -24l1 -35q0 -301 -190.5 -479.5 t-510.5 -178.5q-316 0 -516 206q-100 104 -150 236t-50 296z" />
<glyph unicode="H" horiz-adv-x="1442" d="M41 0v184h168v1063h-168v174h547v-174h-176v-401h616v401h-174v174h547v-174h-168v-1063h168v-184h-547v184h174v492h-616v-492h176v-184h-547z" />
<glyph unicode="I" horiz-adv-x="621" d="M41 0v184h168v1063h-168v174h541v-174h-170v-1063h170v-184h-541z" />
<glyph unicode="J" horiz-adv-x="616" d="M-66 -131l49 -12l46 -4q100 0 140 53q20 27 30 93.5t10 178.5v1069h-168v174h541v-174h-170v-1149q0 -228 -82 -329t-267 -101l-70 3q-27 3 -30.5 3.5t-28.5 6.5v188z" />
<glyph unicode="K" horiz-adv-x="1237" d="M41 0v184h168v1063h-168v174h541v-174h-170v-1063h170v-184h-541zM412 756l483 491h-156v174h531v-174h-146l-460 -481l466 -582h168v-184h-557v184h142z" />
<glyph unicode="L" horiz-adv-x="1208" d="M41 0v184h168v1063h-168v174h541v-174h-170v-1063h512v482h172v-666h-1055z" />
<glyph unicode="M" horiz-adv-x="1864" d="M41 0v184h172v1063h-172v174h502l391 -1009l401 1009h488v-174h-174v-1063h174v-184h-557v184h172v1065l-508 -1249h-41l-496 1266v-1082h203v-184h-555z" />
<glyph unicode="N" horiz-adv-x="1524" d="M35 0v184h174v1063h-174v174h452l643 -1108v934h-174v174h562v-174h-205v-1247h-232l-690 1192v-1008h174v-184h-530z" />
<glyph unicode="O" horiz-adv-x="1565" d="M70 709q0 320 201.5 528.5t510.5 208.5q316 0 513.5 -206t197.5 -531q0 -324 -198.5 -531t-512.5 -207q-313 0 -512.5 207t-199.5 531zM289 711q0 -242 138 -395.5t353 -153.5t354.5 153.5t139.5 395.5q0 240 -138.5 392t-355.5 152q-213 0 -352 -152.5t-139 -391.5z" />
<glyph unicode="P" horiz-adv-x="1231" d="M41 0v184h168v1063h-168v174h571q282 0 413.5 -105t131.5 -329q0 -226 -133 -334t-412 -108h-200v-361h170v-184h-541zM412 715h170q195 0 276.5 62t81.5 204q0 141 -82 203.5t-276 62.5h-170v-532z" />
<glyph unicode="Q" horiz-adv-x="1565" d="M70 709q0 320 201.5 528.5t510.5 208.5q316 0 513.5 -206t197.5 -531q0 -286 -159 -484.5t-421 -240.5q98 -32 161.5 -46t103.5 -14l32 3l50 7l-58 -182l-22 -7l-27 -3q-112 0 -267.5 63.5t-203.5 63.5q-38 0 -76 -13q-36 -14 -78 -42l-69 100q28 33 59.5 51t74.5 29 q-238 57 -380.5 252t-142.5 463zM289 711q0 -242 138 -395.5t353 -153.5t354.5 153.5t139.5 395.5q0 240 -138.5 392t-355.5 152q-213 0 -352 -152.5t-139 -391.5z" />
<glyph unicode="R" horiz-adv-x="1223" d="M41 0v184h168v1063h-168v174h608q224 0 342.5 -92.5t118.5 -269.5q0 -141 -72 -234t-207 -123l242 -518h158v-184h-285l-321 684h-213v-500h170v-184h-541zM412 840h161q168 0 246 48t78 152q0 113 -71.5 164t-237.5 51h-176v-415z" />
<glyph unicode="S" horiz-adv-x="1124" d="M102 1061q0 166 111.5 275.5t282.5 109.5q90 0 168.5 -30.5t142.5 -88.5v94h166v-407h-168v104q-60 74 -136.5 114t-154.5 40q-96 0 -154.5 -53t-58.5 -140q0 -76 40.5 -122t137.5 -80l246 -86q156 -54 232.5 -154.5t76.5 -249.5q0 -190 -118.5 -303t-317.5 -113 q-92 0 -167 29t-146 90v-90h-181v487h181v-127q54 -100 133 -154q40 -26 83.5 -39t94.5 -13q105 0 169 62t64 161q0 84 -46.5 145t-137.5 92l-252 84q-144 48 -217.5 140.5t-73.5 222.5z" />
<glyph unicode="T" horiz-adv-x="1262" d="M76 870v551h1108v-551h-170v377h-283v-1063h172v-184h-545v184h170v1063h-280v-377h-172z" />
<glyph unicode="U" horiz-adv-x="1477" d="M25 1247v174h557v-174h-172v-760q0 -169 72.5 -249t228.5 -80t232.5 81t76.5 248v760h-174v174h543v-174h-172v-659q0 -333 -118 -475t-392 -142q-271 0 -389.5 141.5t-118.5 475.5v659h-174z" />
<glyph unicode="V" horiz-adv-x="1270" d="M-70 1247v174h527v-174h-150l336 -977l336 977h-166v174h526v-174h-178l-428 -1247h-213l-426 1247h-164z" />
<glyph unicode="W" horiz-adv-x="1849" d="M-37 1247v174h526v-174h-178l246 -952l231 952h-178v174h641v-174h-176l246 -952l231 952h-178v174h520v-174h-178l-309 -1247h-188l-301 1126l-277 -1126h-188l-338 1247h-152z" />
<glyph unicode="X" horiz-adv-x="1229" d="M-29 0v184h164l365 527l-353 536h-176v174h543v-174h-119l228 -352l233 352h-162v174h523v-174h-154l-336 -510l367 -553h170v-184h-570v184h154l-244 371l-246 -371h156v-184h-543z" />
<glyph unicode="Y" horiz-adv-x="1110" d="M-113 1247v174h566v-174h-154l268 -422l277 422h-178v174h555v-174h-174l-394 -596v-467h185v-184h-576v184h187v467l-390 596h-172z" />
<glyph unicode="Z" horiz-adv-x="1114" d="M43 0v180l723 1067h-512v-248h-170v422h934v-174l-725 -1067h584v266h172v-446h-1006z" />
<glyph unicode="[" horiz-adv-x="768" d="M266 -299v1720h473v-141h-284v-1436h284v-143h-473z" />
<glyph unicode="\" horiz-adv-x="627" d="M-10 1446h127l551 -1636h-127z" />
<glyph unicode="]" horiz-adv-x="768" d="M29 -156h284v1436h-284v141h473v-1720h-473v143z" />
<glyph unicode="^" horiz-adv-x="2048" d="M420 901l510 557h186l510 -557h-180l-422 420l-424 -420h-180z" />
<glyph unicode="_" horiz-adv-x="1024" d="M0 -340h1024v-143h-1024v143z" />
<glyph unicode="`" horiz-adv-x="1024" d="M250 1483h201l204 -348h-120z" />
<glyph unicode="a" horiz-adv-x="1051" d="M59 289q0 147 97.5 237t257.5 90q53 0 127 -18t157 -53v59q0 134 -51 198t-160 64q-77 0 -134.5 -30.5t-106.5 -98.5l-174 45q47 114 158.5 178t271.5 64q199 0 288 -96.5t89 -319.5v-432h151v-176h-325v94q-79 -64 -155.5 -93.5t-162.5 -29.5q-147 0 -237.5 87.5 t-90.5 230.5zM256 295q0 -60 45.5 -99.5t118.5 -39.5q60 0 129 30t156 93v73q-83 49 -141.5 69.5t-114.5 20.5q-87 0 -140 -40t-53 -107z" />
<glyph unicode="b" horiz-adv-x="1208" d="M31 0v176h143v1079h-143v166h319v-571q84 78 166 113.5t174 35.5q200 0 325.5 -141.5t125.5 -372.5q0 -232 -123.5 -373t-327.5 -141q-48 0 -89 8t-83 27q-80 35 -162 113v-119h-325zM356 489q0 -154 81.5 -246.5t213.5 -92.5q138 0 216.5 90.5t78.5 248.5q0 160 -79 250 t-216 90t-216 -91t-79 -249z" />
<glyph unicode="c" horiz-adv-x="1096" d="M66 498q0 230 136.5 378t346.5 148q86 0 158 -27.5t137 -85.5v88h160v-372h-160q-27 107 -95.5 165t-170.5 58q-143 0 -226.5 -94t-83.5 -256q0 -160 82.5 -252t224.5 -92q101 0 183 51.5t133 148.5l158 -77q-57 -143 -185 -225.5t-289 -82.5q-226 0 -367.5 144.5 t-141.5 382.5z" />
<glyph unicode="d" horiz-adv-x="1208" d="M70 485q0 232 123 373t325 141q93 0 175 -35.5t165 -113.5v405h-143v166h319v-1245h144v-176h-326v119q-79 -76 -160 -112t-174 -36q-200 0 -324 141t-124 373zM262 489q0 -156 80 -247.5t217 -91.5q128 0 210.5 93.5t82.5 245.5q0 158 -78 249t-215 91t-217 -91 t-80 -249z" />
<glyph unicode="e" horiz-adv-x="1120" d="M66 498q0 237 138.5 381.5t360.5 144.5q231 0 358.5 -151.5t127.5 -426.5h-785q0 -128 88 -209t226 -81q96 0 180.5 45.5t136.5 130.5l158 -82q-76 -136 -197.5 -207.5t-279.5 -71.5q-234 0 -373 144t-139 383zM283 594h567q-15 127 -88 195.5t-197 68.5t-198 -70 q-39 -36 -60 -82q-24 -51 -24 -112z" />
<glyph unicode="f" horiz-adv-x="555" d="M27 0v176h151v658h-151v165h151v107q0 177 57.5 258.5t184.5 81.5q112 0 174 -60.5t74 -181.5l-162 -22q-12 61 -29 82.5t-49 21.5q-39 0 -54.5 -36.5t-15.5 -147.5v-103h166v-165h-166v-658h166v-176h-497z" />
<glyph unicode="g" horiz-adv-x="1208" d="M66 498q0 226 123 363.5t327 137.5q96 0 175.5 -33t164.5 -112v145h320v-165h-144v-639v-17q0 -126 -12 -196.5t-41 -122.5q-57 -104 -162 -160q-52 -27 -114 -41t-136 -14q-115 0 -212.5 31t-180.5 94l113 131q66 -54 135.5 -78.5t148.5 -24.5q139 0 209 74q34 37 52 92 t18 129v64q-61 -80 -146 -122q-44 -20 -89 -30t-99 -10q-203 0 -326.5 137.5t-123.5 366.5zM260 496q0 -155 79.5 -243.5t217.5 -88.5q130 0 211.5 90.5t81.5 241.5q0 155 -78.5 244t-214.5 89q-138 0 -218 -89q-39 -44 -59 -105t-20 -139z" />
<glyph unicode="h" horiz-adv-x="1104" d="M33 0v176h143v1079h-143v166h323v-569q96 76 176.5 111.5t159.5 35.5q132 0 187 -73.5t55 -282.5v-467h147v-176h-327v569q0 181 -28 226t-99 45q-64 0 -128.5 -36t-142.5 -118v-510h146v-176h-469z" />
<glyph unicode="i" horiz-adv-x="537" d="M39 0v176h141v658h-141v165h321v-823h148v-176h-469zM139 1305q0 48 34 82t83 34q48 0 83 -35q36 -33 36 -81q0 -51 -34.5 -85t-84.5 -34q-49 0 -83 33t-34 86z" />
<glyph unicode="j" horiz-adv-x="508" d="M-49 -186l12 -1l49 -3q88 0 124 36t36 134v854h-141v165h321v-962v-70q0 -85 -12 -130t-39 -85q-38 -51 -100 -79.5t-135 -28.5l-55 3q-15 0 -33 2.5t-27 4.5v160zM131 1305q0 47 35 81.5t84 34.5q47 0 82 -35q35 -33 35 -81q0 -51 -34 -85t-83 -34q-51 0 -85 34t-34 85z " />
<glyph unicode="k" horiz-adv-x="1071" d="M33 0v176h143v1079h-143v166h323v-1245h146v-176h-469zM362 524l367 310h-131v165h459v-165h-117l-350 -295l342 -363h143v-176h-227z" />
<glyph unicode="l" horiz-adv-x="537" d="M33 0v176h143v1079h-143v166h323v-1245h146v-176h-469z" />
<glyph unicode="m" horiz-adv-x="1692" d="M35 0v176h145v658h-145v165h321v-153q100 81 181 117t163 36q91 0 148.5 -39.5t81.5 -119.5q97 81 182 120t170 39q130 0 186 -75.5t56 -280.5v-467h145v-176h-332v662q0 90 -30.5 134t-94.5 44t-131 -37.5t-137 -116.5v-510h146v-176h-332v659q0 92 -30.5 136.5 t-96.5 44.5q-65 0 -129 -37t-137 -117v-510h145v-176h-475z" />
<glyph unicode="n" horiz-adv-x="1110" d="M39 0v176h141v658h-141v165h313v-153q99 81 183 118t163 37q130 0 185 -73.5t55 -284.5v-467h147v-176h-327v569q0 177 -27.5 224t-99.5 47q-64 0 -128.5 -36t-142.5 -118v-510h148v-176h-469z" />
<glyph unicode="o" horiz-adv-x="1133" d="M66 498q0 237 138.5 381.5t360.5 144.5q224 0 363 -145.5t139 -380.5q0 -236 -139 -381.5t-363 -145.5q-222 0 -360.5 144.5t-138.5 382.5zM264 500q0 -159 81 -251.5t220 -92.5q140 0 220.5 91t80.5 253q0 83 -19 144.5t-61 108.5q-79 91 -221 91q-139 0 -220 -91.5 t-81 -252.5z" />
<glyph unicode="p" horiz-adv-x="1208" d="M31 -158h143v992h-143v165h319v-149q84 78 166 113.5t174 35.5q200 0 324.5 -141t124.5 -373q0 -231 -123.5 -372.5t-325.5 -141.5q-48 0 -89 8t-83 27q-80 35 -162 113v-277h191v-174h-516v174zM356 489q0 -152 81 -245.5t212 -93.5q137 0 217 90.5t80 248.5 q0 160 -79.5 250t-217.5 90q-134 0 -213.5 -90t-79.5 -250z" />
<glyph unicode="q" horiz-adv-x="1208" d="M70 485q0 231 123.5 373.5t324.5 142.5q92 0 174.5 -36t165.5 -115v149h320v-165h-144v-992h144v-174h-516v174h190v277q-79 -76 -160 -112t-174 -36q-200 0 -324 141t-124 373zM262 489q0 -156 80 -247.5t217 -91.5q128 0 210.5 93.5t82.5 245.5q0 158 -78 249t-215 91 t-217 -91t-80 -249z" />
<glyph unicode="r" horiz-adv-x="737" d="M39 0v176h141v658h-141v165h313v-196q50 113 125 164t193 51l36 -1l39 -1v-193l-6 1l-69 3q-160 0 -235 -92t-75 -295v-264h179v-176h-500z" />
<glyph unicode="s" horiz-adv-x="954" d="M80 725q0 126 99.5 212.5t248.5 86.5q79 0 145.5 -25t120.5 -75v75h154v-325h-154q0 44 -20.5 80t-57.5 64q-69 54 -178 54q-79 0 -125.5 -35t-46.5 -94q0 -49 36.5 -79.5t125.5 -49.5l170 -34q143 -30 213 -101t70 -184q0 -146 -100.5 -235t-266.5 -89 q-82 0 -150.5 24.5t-119.5 72.5v-68h-160v338h160q9 -97 79 -153t181 -56q86 0 140 38.5t54 98.5q0 51 -39 81t-143 56l-154 35q-146 34 -214 103.5t-68 183.5z" />
<glyph unicode="t" horiz-adv-x="559" d="M29 834v165h131v134l180 149v-283h186v-165h-186v-558q0 -73 17.5 -99.5t62.5 -26.5q21 0 46 6t60 22v-174q-37 -15 -77 -24t-80 -9q-115 0 -162 55t-47 220v588h-131z" />
<glyph unicode="u" horiz-adv-x="1104" d="M23 834v165h327v-618q0 -156 28.5 -202t100.5 -46q65 0 130.5 36.5t140.5 117.5v547h-154v165h332v-823h143v-176h-315v127q-49 -39 -94.5 -69t-88.5 -50q-39 -17 -80.5 -27t-80.5 -10q-132 0 -187 75t-55 284v504h-147z" />
<glyph unicode="v" horiz-adv-x="995" d="M-39 834v165h449v-165h-111l203 -568l219 568h-139v165h442v-165h-139l-320 -834h-155l-304 834h-145z" />
<glyph unicode="w" horiz-adv-x="1540" d="M-2 834v165h387v-165h-88l170 -558l182 558h-106v165h452v-165h-88l170 -558l183 558h-107v165h379v-165h-100l-304 -834h-143l-225 725l-242 -725h-141l-271 834h-108z" />
<glyph unicode="x" horiz-adv-x="1034" d="M4 0v176h137l269 320l-304 338h-81v165h417v-161h-114l194 -217l183 217h-127v161h393v-165h-86l-262 -318l305 -340h88v-176h-418v172h111l-199 221l-186 -221h120v-172h-440z" />
<glyph unicode="y" horiz-adv-x="1006" d="M-10 834v165h420v-165h-115l221 -558l215 558h-117v165h400v-165h-117l-448 -1166h-340v166h237l76 197l-320 803h-112z" />
<glyph unicode="z" horiz-adv-x="979" d="M53 0v195l615 651h-408v-215h-166v368h791v-190l-613 -645h437v211h176v-375h-832z" />
<glyph unicode="{" horiz-adv-x="1024" d="M168 457v149l23 -1l22 -1q128 0 183 60t55 208v246q0 148 22 210t78 97q44 26 107.5 39t170.5 13h37v-150h-41q-119 0 -160.5 -44.5t-41.5 -184.5v-242q0 -159 -44 -226.5t-157 -99.5q112 -27 156.5 -95.5t44.5 -229.5v-242q0 -141 41.5 -185t162.5 -44h39v-148h-43 q-107 0 -168 11.5t-104 37.5q-54 33 -78 97q-22 66 -22 211v245q0 149 -55 210t-185 61l-22 -1z" />
<glyph unicode="|" horiz-adv-x="1024" d="M438 -483v2048h150v-2048h-150z" />
<glyph unicode="}" horiz-adv-x="1024" d="M160 -266h39q120 0 162 45t42 186v240q0 161 44.5 228t156.5 97q-111 30 -156 98t-45 228v242q0 139 -42 184t-162 45h-39v150h37q53 0 95 -3t76 -10q62 -12 107 -39q53 -32 76.5 -96t23.5 -211v-246q0 -146 54 -207t184 -61l22 1l23 1v-149l-22 1l-21 1 q-132 0 -186 -60.5t-54 -210.5v-245q0 -149 -22 -211.5t-78 -96.5q-41 -25 -102 -37t-170 -12h-43v148z" />
<glyph unicode="~" horiz-adv-x="1706" d="M178 451v155q106 72 202 108t185 36q33 0 62.5 -3t64.5 -11q64 -12 164 -48l47 -17q159 -57 240 -57q87 0 179.5 37t207.5 119v-156q-101 -70 -199 -107q-46 -16 -94.5 -25t-95.5 -9t-109 14t-147 44l-34 12l-15 5q-176 60 -273 60q-41 0 -85 -9t-90 -28 q-90 -36 -210 -120z" />
<glyph unicode="&#xa0;" />
<glyph unicode="&#xa1;" horiz-adv-x="563" d="M168 1171v250h227v-250h-227zM186 0v451l43 587h105l43 -587v-451h-191z" />
<glyph unicode="&#xa2;" d="M43 510q0 224 126 370t320 146q31 0 90 -7l11 -1l84 260h112l-94 -299l78 -57l8 -6v88h152v-365h-139q-22 73 -57 122t-87 81l-214 -664l55 -11l49 -3q90 0 171 54t130 149l135 -70q-54 -142 -175 -222.5t-280 -80.5q-32 0 -65.5 6t-71.5 18l-92 -282h-119l104 325 q-111 60 -171 175.5t-60 273.5zM217 512q0 -48 7 -90.5t22 -79.5q30 -73 86 -111l209 639h-21q-131 0 -217 -100t-86 -258z" />
<glyph unicode="&#xa3;" d="M14 180q0 87 57.5 141t151.5 54q45 0 78 -11q38 -10 72 -32v26q0 65 -13 131q-6 35 -15 68.5t-23 73.5h-275v155h209q-40 94 -60 173t-20 135q0 161 101 256.5t272 95.5q169 0 262.5 -93.5t93.5 -267.5v-30h-180q0 118 -44 177.5t-130 59.5q-81 0 -126.5 -45.5 t-45.5 -126.5q0 -56 20 -132q11 -42 27 -90t41 -112h258v-155h-205l15 -104q6 -48 6 -85q0 -50 -7 -92q-6 -45 -22 -88q69 -45 117.5 -65.5t87.5 -20.5q66 0 100.5 48t34.5 138v17l127 -1q0 -203 -63.5 -303t-190.5 -100q-69 0 -136 30t-138 95q-56 -69 -110 -100 q-27 -15 -56 -23t-62 -8q-87 0 -148 60t-61 151zM135 184q0 -32 25 -56q27 -22 63 -22q37 0 66.5 20t56.5 64q-37 36 -68.5 52t-62.5 16q-34 0 -57 -20.5t-23 -53.5z" />
<glyph unicode="&#xa4;" horiz-adv-x="1241" d="M80 428l207 205q-41 52 -62.5 116.5t-21.5 135.5q0 68 20.5 131t63.5 121l-207 206l82 80l205 -204q56 41 121 63.5t133 22.5q71 0 133.5 -21.5t122.5 -64.5l204 204l82 -80l-205 -206q40 -53 61 -117t21 -135q0 -75 -20 -136.5t-62 -115.5l205 -205l-82 -82l-204 205 q-57 -42 -121 -64t-133 -22q-71 0 -136 21.5t-120 64.5l-205 -205zM319 887q0 -127 89 -216t215 -89q125 0 214 90t89 215t-89 214t-214 89q-126 0 -215 -89t-89 -214z" />
<glyph unicode="&#xa5;" horiz-adv-x="1141" d="M-90 1247v174h555v-178h-158l277 -434l284 434h-184v178h545v-174h-174l-154 -233h203v-113h-279l-100 -151h379v-115h-442v-451h186v-184h-563v184h186v451h-436v115h373l-101 151h-272v113h198l-151 233h-172z" />
<glyph unicode="&#xa6;" horiz-adv-x="1024" d="M438 -350v758h150v-758h-150zM438 674v758h150v-758h-150z" />
<glyph unicode="&#xa7;" horiz-adv-x="1042" d="M70 766q0 100 80.5 170t199.5 70h4q-36 42 -53.5 89t-17.5 99q0 117 77 173t238 56h242v-311h-123v203h-94q-104 0 -145.5 -29t-41.5 -98q0 -40 19 -78q21 -38 71 -90l330 -344q55 -58 85 -115.5t30 -109.5q0 -99 -76 -168q-39 -35 -86.5 -54.5t-106.5 -19.5 q47 -48 71 -102t24 -115q0 -116 -77.5 -173t-238.5 -57h-268v312h125v-203h119q103 0 144.5 29t41.5 98q0 39 -20.5 78.5t-69.5 89.5l-369 373q-54 54 -84 113t-30 114zM240 780q0 -51 40 -112t142 -162q107 -105 167 -144q32 -20 58.5 -30t50.5 -10q46 0 78.5 32.5 t32.5 77.5q0 51 -41 114t-144 163.5t-165 141t-109 40.5q-45 0 -77.5 -32.5t-32.5 -78.5z" />
<glyph unicode="&#xa8;" horiz-adv-x="1024" d="M207 1298q0 44 33.5 78.5t78.5 34.5t79 -33t34 -80q0 -48 -32.5 -81t-80.5 -33q-45 0 -80 33q-32 34 -32 81zM590 1298q0 45 35 79t80 34q44 0 77 -33t33 -80q0 -49 -31 -81.5t-79 -32.5q-47 0 -81 33t-34 81z" />
<glyph unicode="&#xa9;" horiz-adv-x="1706" d="M117 727q0 148 56 282.5t163 241.5q103 103 236.5 158t279.5 55q153 0 285.5 -54.5t237.5 -159t160.5 -240.5t55.5 -283q0 -150 -55 -282q-27 -66 -66.5 -124.5t-91.5 -109.5q-108 -105 -244.5 -163t-281.5 -58q-146 0 -278 55.5t-238.5 162t-163.5 239.5 q-27 67 -41 136.5t-14 143.5zM213 727q0 -126 48 -241t142 -210q90 -88 206.5 -138t244.5 -50q125 0 242.5 48.5t212.5 142.5q89 86 136.5 201.5t47.5 246.5q0 129 -47.5 246.5t-138 207t-207 138.5t-246.5 49q-131 0 -245.5 -47t-204.5 -138t-140.5 -210t-50.5 -246z M463 733q0 200 108.5 322.5t286.5 122.5q140 0 235 -75t107 -196h-147q-12 76 -65.5 118t-139.5 42q-105 0 -165 -90.5t-60 -249.5q0 -156 62 -244t173 -88q82 0 136 47t69 129h145q0 -62 -28 -115t-80 -96q-98 -81 -248 -81q-181 0 -285 120.5t-104 333.5z" />
<glyph unicode="&#xaa;" horiz-adv-x="788" d="M45 926q0 102 73.5 165.5t192.5 63.5q41 0 93 -13q28 -6 56 -15t64 -23v43q0 94 -38 138t-119 44q-58 0 -102.5 -22t-80.5 -68l-131 31q36 81 121 125.5t203 44.5q151 0 216.5 -67t65.5 -224v-303h113v-123h-244v65q-55 -42 -114 -64t-123 -22q-111 0 -178.5 62 t-67.5 162zM193 930q0 -41 34 -71q18 -14 39 -21t49 -7q45 0 96 21t117 66v51q-62 35 -107 49t-85 14q-63 0 -103 -28t-40 -74z" />
<glyph unicode="&#xab;" horiz-adv-x="901" d="M66 506l262 311h180l-258 -311l258 -313h-180zM397 506l262 311h181l-258 -311l258 -313h-181z" />
<glyph unicode="&#xac;" horiz-adv-x="1706" d="M254 721v139h1198v-502h-137v363h-1061z" />
<glyph unicode="&#xad;" horiz-adv-x="668" d="M86 422v176h498v-176h-498z" />
<glyph unicode="&#xae;" horiz-adv-x="1706" d="M117 727q0 145 57 282t166 246q101 102 232 155.5t280 53.5q78 0 146.5 -13t139.5 -43q136 -56 240 -163q101 -102 158 -238q27 -67 41 -136.5t14 -143.5q0 -150 -54.5 -283.5t-161.5 -236.5t-243.5 -160t-279.5 -57q-148 0 -279.5 56t-240.5 165q-104 105 -159.5 238.5 t-55.5 277.5zM213 727q0 -124 48.5 -240.5t139 -207.5t208 -141t239.5 -50q129 0 247 48.5t212 139.5q90 87 138 201.5t48 243.5q0 135 -45.5 250.5t-137 208t-208.5 139.5q-56 23 -119.5 36t-128.5 13q-130 0 -244.5 -46.5t-201.5 -135.5q-92 -94 -143.5 -214t-51.5 -245z M557 324v835h315q175 0 262 -58t87 -171q0 -89 -49 -147t-142 -78l187 -381h-177l-170 356h-155v-356h-158zM715 780h133q113 0 162 31.5t49 101.5q0 74 -51 110q-53 34 -164 34h-129v-277z" />
<glyph unicode="&#xaf;" horiz-adv-x="1024" d="M242 1229v139h540v-139h-540z" />
<glyph unicode="&#xb0;" horiz-adv-x="674" d="M49 1167q0 120 84.5 204.5t204.5 84.5q117 0 202 -85t85 -204q0 -117 -84.5 -201.5t-204.5 -84.5q-121 0 -204 83t-83 203zM143 1169q0 -80 57 -138t138 -58q80 0 136 57.5t56 138.5t-55 137t-137 56t-138.5 -56t-56.5 -137z" />
<glyph unicode="&#xb1;" horiz-adv-x="1706" d="M254 29v141h1198v-141h-1198zM254 713v139h528v340h142v-340h528v-139h-528v-340h-142v340h-528z" />
<glyph unicode="&#xb2;" horiz-adv-x="670" d="M33 567v11q0 94 32.5 169t96.5 132q21 20 51 43t67 49l89 61q50 40 73 78q21 38 21 88q0 62 -38.5 100.5t-100.5 38.5q-80 0 -117 -56q-18 -27 -28.5 -73t-10.5 -104h-119v35q0 139 76 218t211 79q116 0 188 -65.5t72 -172.5q0 -48 -15 -88t-46 -78q-51 -57 -168 -129 l-60 -39q-69 -51 -102 -96.5t-39 -93.5h319v194h117v-301h-569z" />
<glyph unicode="&#xb3;" horiz-adv-x="670" d="M37 842v10h121v-4q0 -95 45 -150t123 -55q70 0 118 45t48 115q0 82 -56 123q-27 21 -66.5 32t-93.5 11l-16 -1l-16 -1v100h22q96 0 146.5 36.5t50.5 106.5q0 61 -37.5 96t-101.5 35q-73 0 -108.5 -43t-35.5 -133v-4h-117v21q0 116 69 185t190 69q120 0 194 -60.5 t74 -161.5q0 -69 -36 -117t-112 -75q89 -28 130.5 -80.5t41.5 -136.5q0 -115 -80 -184.5t-215 -69.5q-133 0 -207.5 77t-74.5 214z" />
<glyph unicode="&#xb4;" horiz-adv-x="1024" d="M369 1135l204 348h201l-285 -348h-120z" />
<glyph unicode="&#xb5;" horiz-adv-x="1151" d="M-113 -428l318 1499h180l-129 -600l-11 -65l-3 -68q0 -100 51.5 -153.5t148.5 -53.5q132 0 208 92t124 312l115 536h178l-156 -732l-4 -20q-18 -87 -18 -112q0 -36 16 -53q17 -15 56 -15h18l14 2l-31 -143l-50 -7l-58 -3q-64 0 -97 28.5t-52 100.5q-45 -67 -113 -99 q-33 -16 -71.5 -24t-86.5 -8q-80 0 -141.5 27t-114.5 89l-110 -530h-181z" />
<glyph unicode="&#xb6;" horiz-adv-x="1024" d="M66 1130q0 156 107.5 252.5t285.5 96.5h499v-86h-120v-1393h-111v1393h-176v-1393h-113v782q-83 0 -150.5 26.5t-120.5 75.5q-101 95 -101 246z" />
<glyph unicode="&#xb8;" horiz-adv-x="1024" d="M254 -326q36 -9 69.5 -15.5t67 -12t62 -8.5t49.5 -3q61 0 90 20t29 62t-31 64t-94 22h-35l-27 -1v198h78v-102h29q108 0 165.5 -45.5t57.5 -135.5t-65.5 -139t-186.5 -49q-48 0 -114 11t-144 34v100z" />
<glyph unicode="&#xb9;" horiz-adv-x="670" d="M158 567v107h123v641h-123v104h248v-745h116v-107h-364z" />
<glyph unicode="&#xba;" horiz-adv-x="850" d="M49 1071q0 165 103.5 267t271.5 102q165 0 271 -102t106 -267q0 -163 -105 -266t-272 -103q-168 0 -271.5 102t-103.5 267zM199 1073q0 -111 60 -176.5t165 -65.5t165 63.5t60 178.5q0 111 -59.5 175.5t-165.5 64.5q-105 0 -166 -64q-29 -31 -44 -75t-15 -101z" />
<glyph unicode="&#xbb;" horiz-adv-x="901" d="M61 193l258 313l-258 311h181l262 -311l-262 -313h-181zM393 193l258 313l-258 311h180l263 -311l-263 -313h-180z" />
<glyph unicode="&#xbc;" horiz-adv-x="1620" d="M150 623v98h116v600h-116v98h237v-698h111v-98h-348zM297 -29l887 1475h137l-887 -1475h-137zM999 313l351 496h110v-496h127v-88h-127v-127h88v-98h-295v98h101v127h-307q-3 26 -14 48t-34 40zM1106 313h248l6 363z" />
<glyph unicode="&#xbd;" horiz-adv-x="1620" d="M150 623v98h116v600h-116v98h237v-698h111v-98h-348zM297 -29l887 1475h137l-887 -1475h-137zM1012 0v10q0 86 30.5 157t92.5 124q41 38 113 86l83 57q50 37 70 72t20 84q0 58 -35.5 93.5t-95.5 35.5q-75 0 -112 -53q-18 -26 -28 -67t-10 -97h-112v30q0 132 72.5 204.5 t202.5 72.5q111 0 179 -60.5t68 -160.5q0 -42 -14.5 -81.5t-44.5 -72.5q-48 -51 -155 -118l-60 -40q-65 -44 -98.5 -88.5t-38.5 -88.5l305 -1v183h110v-281h-542z" />
<glyph unicode="&#xbe;" horiz-adv-x="1620" d="M37 879v8h115q0 -92 42 -142.5t117 -50.5q69 0 113.5 41.5t44.5 106.5q0 75 -53 115q-26 20 -63 30t-89 10l-16 -1l-15 -1v92h21q91 0 139.5 35t48.5 101q0 54 -36 88.5t-97 34.5q-69 0 -103 -40.5t-34 -123.5v-6h-111v20q0 108 66 172t180 64q115 0 185.5 -56.5 t70.5 -148.5q0 -66 -35 -111t-104 -69q84 -27 124 -76.5t40 -124.5q0 -108 -78 -174t-205 -66q-123 0 -195.5 72.5t-72.5 200.5zM297 -29l887 1475h137l-887 -1475h-137zM999 313l351 496h110v-496h127v-88h-127v-127h88v-98h-295v98h101v127h-307q-3 26 -14 48t-34 40z M1106 313h248l6 363z" />
<glyph unicode="&#xbf;" horiz-adv-x="958" d="M86 346q0 169 100.5 273.5t284.5 123.5l18 271h113l23 -441l-43 12l-27 3q-129 0 -202.5 -64t-73.5 -176q0 -96 63 -157.5t162 -61.5q104 0 163.5 68t59.5 188v23h184v-25q0 -188 -111 -300t-300 -112q-181 0 -297.5 107t-116.5 268zM432 1165v252h227v-252h-227z" />
<glyph unicode="&#xc0;" horiz-adv-x="1294" d="M-57 0v184h163l371 1063h-184v174h711v-174h-175l367 -1063h154v-184h-533v184h172l-110 320h-480l-108 -320h160v-184h-508zM385 1905h201l204 -348h-120zM461 676h356l-176 528z" />
<glyph unicode="&#xc1;" horiz-adv-x="1294" d="M-57 0v184h163l371 1063h-184v174h711v-174h-175l367 -1063h154v-184h-533v184h172l-110 320h-480l-108 -320h160v-184h-508zM461 676h356l-176 528zM504 1557l204 348h201l-285 -348h-120z" />
<glyph unicode="&#xc2;" horiz-adv-x="1294" d="M-57 0v184h163l371 1063h-184v174h711v-174h-175l367 -1063h154v-184h-533v184h172l-110 320h-480l-108 -320h160v-184h-508zM352 1557l197 348h196l197 -348h-123l-172 229l-174 -229h-121zM461 676h356l-176 528z" />
<glyph unicode="&#xc3;" horiz-adv-x="1294" d="M-57 0v184h163l371 1063h-184v174h711v-174h-175l367 -1063h154v-184h-533v184h172l-110 320h-480l-108 -320h160v-184h-508zM354 1604q9 52 25 87.5t43 63.5q50 53 125 53l29 -3q16 -2 31 -7l97 -26l33 -9l21 -2q32 0 55.5 17.5t38.5 56.5h88q-20 -103 -70.5 -156 t-126.5 -53l-30 2l-36 9l-96 26l-26 6l-23 2q-31 0 -53.5 -17t-36.5 -50h-88zM461 676h356l-176 528z" />
<glyph unicode="&#xc4;" horiz-adv-x="1294" d="M-57 0v184h163l371 1063h-184v174h711v-174h-175l367 -1063h154v-184h-533v184h172l-110 320h-480l-108 -320h160v-184h-508zM342 1720q0 44 33.5 78.5t78.5 34.5t79 -33t34 -80q0 -48 -32.5 -81t-80.5 -33q-45 0 -80 33q-32 34 -32 81zM461 676h356l-176 528zM725 1720 q0 45 35 79t80 34q44 0 77 -33t33 -80q0 -49 -31 -81.5t-79 -32.5q-47 0 -81 33t-34 81z" />
<glyph unicode="&#xc5;" horiz-adv-x="1294" d="M-57 0v184h163l371 1063h-184v174h711v-174h-175l367 -1063h154v-184h-533v184h172l-110 320h-480l-108 -320h160v-184h-508zM406 1731q0 101 70 171t171 70q102 0 173 -69.5t71 -171.5t-71 -173t-173 -71q-101 0 -171 71.5t-70 172.5zM461 676h356l-176 528zM524 1731 q0 -51 38 -88t87 -37q51 0 87 36.5t36 88.5q0 48 -36 85t-87 37q-50 0 -87.5 -36.5t-37.5 -85.5z" />
<glyph unicode="&#xc6;" horiz-adv-x="1939" d="M-92 0v184h160l569 1063h-201v174h1403v-422h-170v248h-534v-430h467v-170h-467v-463h534v271h170v-455h-1126v184h219v463h-414l-246 -463h156v-184h-520zM610 817h322v445h-88z" />
<glyph unicode="&#xc7;" horiz-adv-x="1540" d="M70 709q0 323 200.5 530t511.5 207q160 0 268.5 -49t190.5 -158v182h174v-456h-188q-62 143 -171 217.5t-259 74.5q-226 0 -367 -151t-141 -395q0 -242 138 -395.5t353 -153.5q171 0 308.5 110.5t197.5 300.5l176 -104q-69 -233 -250 -365.5t-430 -132.5h-12v-73h29 q108 0 165.5 -45.5t57.5 -135.5t-65.5 -139t-186.5 -49q-48 0 -114 11t-144 34v100q36 -9 69.5 -15.5t67 -12t62 -8.5t49.5 -3q61 0 90 20t29 62t-31 64t-94 22h-35l-27 -1v174q-252 26 -423 201q-199 208 -199 532z" />
<glyph unicode="&#xc8;" horiz-adv-x="1300" d="M41 0v184h168v1063h-168v174h1161v-422h-172v248h-618v-432h553v-170h-553v-461h618v271h172v-455h-1161zM406 1905h201l204 -348h-120z" />
<glyph unicode="&#xc9;" horiz-adv-x="1300" d="M41 0v184h168v1063h-168v174h1161v-422h-172v248h-618v-432h553v-170h-553v-461h618v271h172v-455h-1161zM525 1557l204 348h201l-285 -348h-120z" />
<glyph unicode="&#xca;" horiz-adv-x="1300" d="M41 0v184h168v1063h-168v174h1161v-422h-172v248h-618v-432h553v-170h-553v-461h618v271h172v-455h-1161zM373 1557l197 348h196l197 -348h-123l-172 229l-174 -229h-121z" />
<glyph unicode="&#xcb;" horiz-adv-x="1300" d="M41 0v184h168v1063h-168v174h1161v-422h-172v248h-618v-432h553v-170h-553v-461h618v271h172v-455h-1161zM363 1720q0 44 33.5 78.5t78.5 34.5t79 -33t34 -80q0 -48 -32.5 -81t-80.5 -33q-45 0 -80 33q-32 34 -32 81zM746 1720q0 45 35 79t80 34q44 0 77 -33t33 -80 q0 -49 -31 -81.5t-79 -32.5q-47 0 -81 33t-34 81z" />
<glyph unicode="&#xcc;" horiz-adv-x="621" d="M41 0v184h168v1063h-168v174h541v-174h-170v-1063h170v-184h-541zM49 1905h201l204 -348h-120z" />
<glyph unicode="&#xcd;" horiz-adv-x="621" d="M41 0v184h168v1063h-168v174h541v-174h-170v-1063h170v-184h-541zM168 1557l204 348h201l-285 -348h-120z" />
<glyph unicode="&#xce;" horiz-adv-x="621" d="M16 1557l197 348h196l197 -348h-123l-172 229l-174 -229h-121zM41 0v184h168v1063h-168v174h541v-174h-170v-1063h170v-184h-541z" />
<glyph unicode="&#xcf;" horiz-adv-x="621" d="M6 1720q0 44 33.5 78.5t78.5 34.5t79 -33t34 -80q0 -48 -32.5 -81t-80.5 -33q-45 0 -80 33q-32 34 -32 81zM41 0v184h168v1063h-168v174h541v-174h-170v-1063h170v-184h-541zM389 1720q0 45 35 79t80 34q44 0 77 -33t33 -80q0 -49 -31 -81.5t-79 -32.5q-47 0 -81 33 t-34 81z" />
<glyph unicode="&#xd0;" horiz-adv-x="1561" d="M72 709q0 322 201.5 529.5t514.5 207.5q161 0 270.5 -49.5t190.5 -157.5v182h172v-456h-186q-63 143 -172 217.5t-260 74.5q-228 0 -371 -151t-143 -395q0 -251 144.5 -400t387.5 -149q186 0 303.5 92.5t135.5 257.5h-261v176h487l2 -24l1 -35q0 -301 -190.5 -479.5 t-510.5 -178.5q-316 0 -516 206q-100 104 -150 236t-50 296zM489 1870h109q0 -35 12.5 -61t36.5 -45q44 -33 133 -33t133 34q23 17 36.5 43.5t13.5 61.5h108q0 -69 -22 -123t-59 -90q-69 -66 -210 -66q-140 0 -210 67q-38 37 -58 86q-23 56 -23 126z" />
<glyph unicode="&#xd1;" horiz-adv-x="1524" d="M35 0v184h174v1063h-174v174h452l643 -1108v934h-174v174h562v-174h-205v-1247h-232l-690 1192v-1008h174v-184h-530zM473 1604q9 52 25 87.5t43 63.5q50 53 125 53l29 -3q16 -2 31 -7l97 -26l33 -9l21 -2q32 0 55.5 17.5t38.5 56.5h88q-20 -103 -70.5 -156t-126.5 -53 l-30 2l-36 9l-96 26l-26 6l-23 2q-31 0 -53.5 -17t-36.5 -50h-88z" />
<glyph unicode="&#xd2;" horiz-adv-x="1565" d="M70 709q0 320 201.5 528.5t510.5 208.5q316 0 513.5 -206t197.5 -531q0 -324 -198.5 -531t-512.5 -207q-313 0 -512.5 207t-199.5 531zM289 711q0 -242 138 -395.5t353 -153.5t354.5 153.5t139.5 395.5q0 240 -138.5 392t-355.5 152q-213 0 -352 -152.5t-139 -391.5z M520 1905h201l204 -348h-120z" />
<glyph unicode="&#xd3;" horiz-adv-x="1565" d="M70 709q0 320 201.5 528.5t510.5 208.5q316 0 513.5 -206t197.5 -531q0 -324 -198.5 -531t-512.5 -207q-313 0 -512.5 207t-199.5 531zM289 711q0 -242 138 -395.5t353 -153.5t354.5 153.5t139.5 395.5q0 240 -138.5 392t-355.5 152q-213 0 -352 -152.5t-139 -391.5z M639 1557l204 348h201l-285 -348h-120z" />
<glyph unicode="&#xd4;" horiz-adv-x="1565" d="M70 709q0 320 201.5 528.5t510.5 208.5q316 0 513.5 -206t197.5 -531q0 -324 -198.5 -531t-512.5 -207q-313 0 -512.5 207t-199.5 531zM289 711q0 -242 138 -395.5t353 -153.5t354.5 153.5t139.5 395.5q0 240 -138.5 392t-355.5 152q-213 0 -352 -152.5t-139 -391.5z M487 1557l197 348h196l197 -348h-123l-172 229l-174 -229h-121z" />
<glyph unicode="&#xd5;" horiz-adv-x="1565" d="M70 709q0 320 201.5 528.5t510.5 208.5q316 0 513.5 -206t197.5 -531q0 -324 -198.5 -531t-512.5 -207q-313 0 -512.5 207t-199.5 531zM289 711q0 -242 138 -395.5t353 -153.5t354.5 153.5t139.5 395.5q0 240 -138.5 392t-355.5 152q-213 0 -352 -152.5t-139 -391.5z M489 1604q9 52 25 87.5t43 63.5q50 53 125 53l29 -3q16 -2 31 -7l97 -26l33 -9l21 -2q32 0 55.5 17.5t38.5 56.5h88q-20 -103 -70.5 -156t-126.5 -53l-30 2l-36 9l-96 26l-26 6l-23 2q-31 0 -53.5 -17t-36.5 -50h-88z" />
<glyph unicode="&#xd6;" horiz-adv-x="1565" d="M70 709q0 320 201.5 528.5t510.5 208.5q316 0 513.5 -206t197.5 -531q0 -324 -198.5 -531t-512.5 -207q-313 0 -512.5 207t-199.5 531zM289 711q0 -242 138 -395.5t353 -153.5t354.5 153.5t139.5 395.5q0 240 -138.5 392t-355.5 152q-213 0 -352 -152.5t-139 -391.5z M477 1720q0 44 33.5 78.5t78.5 34.5t79 -33t34 -80q0 -48 -32.5 -81t-80.5 -33q-45 0 -80 33q-32 34 -32 81zM860 1720q0 45 35 79t80 34q44 0 77 -33t33 -80q0 -49 -31 -81.5t-79 -32.5q-47 0 -81 33t-34 81z" />
<glyph unicode="&#xd7;" horiz-adv-x="1706" d="M293 141l469 469l-469 469l98 99l469 -469l469 469l98 -99l-469 -469l469 -469l-98 -96l-469 467l-469 -467z" />
<glyph unicode="&#xd8;" horiz-adv-x="1565" d="M70 709q0 325 201.5 531t521.5 206q123 0 224 -30.5t183 -94.5l133 152l109 -97l-135 -151q93 -109 139.5 -236.5t46.5 -279.5q0 -324 -198.5 -531t-512.5 -207q-134 0 -243.5 36.5t-202.5 113.5l-143 -166l-115 102l151 172q-81 102 -121 218q-18 56 -28 123t-10 139z M289 711q0 -109 20.5 -185t65.5 -139l688 780q-66 45 -137 66.5t-146 21.5q-213 0 -352 -152.5t-139 -391.5zM473 276q62 -55 141 -86q40 -14 79 -21t87 -7q214 0 354 153.5t140 395.5q0 56 -6 102.5t-20 90.5q-25 86 -81 159z" />
<glyph unicode="&#xd9;" horiz-adv-x="1477" d="M25 1247v174h557v-174h-172v-760q0 -169 72.5 -249t228.5 -80t232.5 81t76.5 248v760h-174v174h543v-174h-172v-659q0 -333 -118 -475t-392 -142q-271 0 -389.5 141.5t-118.5 475.5v659h-174zM477 1905h201l204 -348h-120z" />
<glyph unicode="&#xda;" horiz-adv-x="1477" d="M25 1247v174h557v-174h-172v-760q0 -169 72.5 -249t228.5 -80t232.5 81t76.5 248v760h-174v174h543v-174h-172v-659q0 -333 -118 -475t-392 -142q-271 0 -389.5 141.5t-118.5 475.5v659h-174zM596 1557l204 348h201l-285 -348h-120z" />
<glyph unicode="&#xdb;" horiz-adv-x="1477" d="M25 1247v174h557v-174h-172v-760q0 -169 72.5 -249t228.5 -80t232.5 81t76.5 248v760h-174v174h543v-174h-172v-659q0 -333 -118 -475t-392 -142q-271 0 -389.5 141.5t-118.5 475.5v659h-174zM444 1557l197 348h196l197 -348h-123l-172 229l-174 -229h-121z" />
<glyph unicode="&#xdc;" horiz-adv-x="1477" d="M25 1247v174h557v-174h-172v-760q0 -169 72.5 -249t228.5 -80t232.5 81t76.5 248v760h-174v174h543v-174h-172v-659q0 -333 -118 -475t-392 -142q-271 0 -389.5 141.5t-118.5 475.5v659h-174zM434 1720q0 44 33.5 78.5t78.5 34.5t79 -33t34 -80q0 -48 -32.5 -81 t-80.5 -33q-45 0 -80 33q-32 34 -32 81zM817 1720q0 45 35 79t80 34q44 0 77 -33t33 -80q0 -49 -31 -81.5t-79 -32.5q-47 0 -81 33t-34 81z" />
<glyph unicode="&#xdd;" horiz-adv-x="621" d="M41 0v184h168v1063h-168v174h541v-174h-170v-1063h170v-184h-541zM194 1720q0 48 35 83.5t82 35.5t83 -35.5t36 -83.5q0 -50 -34 -84t-85 -34q-49 0 -83 33t-34 85z" />
<glyph unicode="&#xde;" horiz-adv-x="1124" d="M102 1061q0 166 111.5 275.5t282.5 109.5q90 0 168.5 -30.5t142.5 -88.5v94h166v-407h-168v104q-60 74 -136.5 114t-154.5 40q-96 0 -154.5 -53t-58.5 -140q0 -76 40.5 -122t137.5 -80l246 -86q156 -54 232.5 -154.5t76.5 -249.5q0 -190 -119 -303q-57 -54 -133 -83.5 t-169 -29.5v-73h29q108 0 165.5 -45.5t57.5 -135.5t-65.5 -139t-186.5 -49q-48 0 -114 11t-144 34v100q36 -9 69.5 -15.5t67 -12t62 -8.5t49.5 -3q61 0 90 20t29 62t-31 64t-94 22h-35l-27 -1v173q-56 6 -104 25q-75 29 -146 90v-90h-181v487h181v-127q54 -100 133 -154 q40 -26 83.5 -39t94.5 -13q105 0 169 62t64 161q0 84 -46.5 145t-137.5 92l-252 84q-144 48 -217.5 140.5t-73.5 222.5z" />
<glyph unicode="&#xdf;" horiz-adv-x="1102" d="M10 0v176h152v873q0 206 86 301.5t270 95.5q157 0 253.5 -84.5t96.5 -222.5q0 -88 -46 -144.5t-144 -89.5q77 0 140.5 -33t111.5 -93q92 -115 92 -306q0 -213 -112 -348t-287 -135l-51 2h-12q-7 0 -15 2v180h28q124 0 187 75t63 226t-77.5 227t-233.5 76h-31v172 q49 0 88 12.5t67 36.5q54 44 54 123q0 75 -47.5 119.5t-130.5 44.5q-90 0 -129 -56.5t-39 -193.5v-860h111v-176h-445z" />
<glyph unicode="&#xe0;" horiz-adv-x="1051" d="M59 289q0 147 97.5 237t257.5 90q53 0 127 -18t157 -53v59q0 134 -51 198t-160 64q-77 0 -134.5 -30.5t-106.5 -98.5l-174 45q47 114 158.5 178t271.5 64q199 0 288 -96.5t89 -319.5v-432h151v-176h-325v94q-79 -64 -155.5 -93.5t-162.5 -29.5q-147 0 -237.5 87.5 t-90.5 230.5zM225 1483h201l204 -348h-120zM256 295q0 -60 45.5 -99.5t118.5 -39.5q60 0 129 30t156 93v73q-83 49 -141.5 69.5t-114.5 20.5q-87 0 -140 -40t-53 -107z" />
<glyph unicode="&#xe1;" horiz-adv-x="1051" d="M59 289q0 147 97.5 237t257.5 90q53 0 127 -18t157 -53v59q0 134 -51 198t-160 64q-77 0 -134.5 -30.5t-106.5 -98.5l-174 45q47 114 158.5 178t271.5 64q199 0 288 -96.5t89 -319.5v-432h151v-176h-325v94q-79 -64 -155.5 -93.5t-162.5 -29.5q-147 0 -237.5 87.5 t-90.5 230.5zM256 295q0 -60 45.5 -99.5t118.5 -39.5q60 0 129 30t156 93v73q-83 49 -141.5 69.5t-114.5 20.5q-87 0 -140 -40t-53 -107zM344 1135l204 348h201l-285 -348h-120z" />
<glyph unicode="&#xe2;" horiz-adv-x="1051" d="M59 289q0 147 97.5 237t257.5 90q53 0 127 -18t157 -53v59q0 134 -51 198t-160 64q-77 0 -134.5 -30.5t-106.5 -98.5l-174 45q47 114 158.5 178t271.5 64q199 0 288 -96.5t89 -319.5v-432h151v-176h-325v94q-79 -64 -155.5 -93.5t-162.5 -29.5q-147 0 -237.5 87.5 t-90.5 230.5zM192 1135l197 348h196l197 -348h-123l-172 229l-174 -229h-121zM256 295q0 -60 45.5 -99.5t118.5 -39.5q60 0 129 30t156 93v73q-83 49 -141.5 69.5t-114.5 20.5q-87 0 -140 -40t-53 -107z" />
<glyph unicode="&#xe3;" horiz-adv-x="1051" d="M59 289q0 147 97.5 237t257.5 90q53 0 127 -18t157 -53v59q0 134 -51 198t-160 64q-77 0 -134.5 -30.5t-106.5 -98.5l-174 45q47 114 158.5 178t271.5 64q199 0 288 -96.5t89 -319.5v-432h151v-176h-325v94q-79 -64 -155.5 -93.5t-162.5 -29.5q-147 0 -237.5 87.5 t-90.5 230.5zM194 1182q9 52 25 87.5t43 63.5q50 53 125 53l29 -3q16 -2 31 -7l97 -26l33 -9l21 -2q32 0 55.5 17.5t38.5 56.5h88q-20 -103 -70.5 -156t-126.5 -53l-30 2l-36 9l-96 26l-26 6l-23 2q-31 0 -53.5 -17t-36.5 -50h-88zM256 295q0 -60 45.5 -99.5t118.5 -39.5 q60 0 129 30t156 93v73q-83 49 -141.5 69.5t-114.5 20.5q-87 0 -140 -40t-53 -107z" />
<glyph unicode="&#xe4;" horiz-adv-x="1051" d="M59 289q0 147 97.5 237t257.5 90q53 0 127 -18t157 -53v59q0 134 -51 198t-160 64q-77 0 -134.5 -30.5t-106.5 -98.5l-174 45q47 114 158.5 178t271.5 64q199 0 288 -96.5t89 -319.5v-432h151v-176h-325v94q-79 -64 -155.5 -93.5t-162.5 -29.5q-147 0 -237.5 87.5 t-90.5 230.5zM182 1298q0 44 33.5 78.5t78.5 34.5t79 -33t34 -80q0 -48 -32.5 -81t-80.5 -33q-45 0 -80 33q-32 34 -32 81zM256 295q0 -60 45.5 -99.5t118.5 -39.5q60 0 129 30t156 93v73q-83 49 -141.5 69.5t-114.5 20.5q-87 0 -140 -40t-53 -107zM565 1298q0 45 35 79 t80 34q44 0 77 -33t33 -80q0 -49 -31 -81.5t-79 -32.5q-47 0 -81 33t-34 81z" />
<glyph unicode="&#xe5;" horiz-adv-x="1051" d="M59 289q0 147 97.5 237t257.5 90q53 0 127 -18t157 -53v59q0 134 -51 198t-160 64q-77 0 -134.5 -30.5t-106.5 -98.5l-174 45q47 114 158.5 178t271.5 64q199 0 288 -96.5t89 -319.5v-432h151v-176h-325v94q-79 -64 -155.5 -93.5t-162.5 -29.5q-147 0 -237.5 87.5 t-90.5 230.5zM248 1335q0 102 70 172t171 70q102 0 172 -70q34 -34 52 -77t18 -95q0 -101 -70 -172t-172 -71q-100 0 -170.5 71.5t-70.5 171.5zM256 295q0 -60 45.5 -99.5t118.5 -39.5q60 0 129 30t156 93v73q-83 49 -141.5 69.5t-114.5 20.5q-87 0 -140 -40t-53 -107z M367 1335q0 -50 36.5 -87.5t85.5 -37.5q51 0 88 38t37 87q0 51 -36.5 87t-88.5 36q-48 0 -85 -36t-37 -87z" />
<glyph unicode="&#xe6;" horiz-adv-x="1698" d="M66 289q0 147 96.5 237t257.5 90q53 0 126.5 -18t158.5 -53v59q0 134 -51 198t-160 64q-77 0 -135 -30.5t-107 -98.5l-172 45q47 114 159 178t267 64q118 0 200 -36.5t125 -108.5q70 71 156.5 108t181.5 37q216 0 336.5 -151t120.5 -427h-737q0 -128 81 -209 q41 -39 93.5 -59t118.5 -20q93 0 169.5 44.5t129.5 129.5l149 -82q-75 -141 -188.5 -210t-272.5 -69q-119 0 -215.5 51t-167.5 150q-83 -101 -181 -151t-210 -50q-147 0 -238 88t-91 230zM264 295q0 -60 46.5 -98.5t121.5 -38.5q78 0 147 29.5t132 88.5v76 q-85 51 -144.5 70.5t-111.5 19.5q-86 0 -138.5 -40.5t-52.5 -106.5zM897 594h530q-12 127 -81 195.5t-185 68.5t-186 -70q-36 -36 -57 -84.5t-21 -109.5z" />
<glyph unicode="&#xe7;" horiz-adv-x="1096" d="M66 498q0 230 136.5 378t346.5 148q86 0 158 -27.5t137 -85.5v88h160v-372h-160q-27 107 -95.5 165t-170.5 58q-143 0 -226.5 -94t-83.5 -256q0 -160 82.5 -252t224.5 -92q101 0 183 51.5t133 148.5l158 -77q-57 -143 -185 -225.5t-289 -82.5h-26v-73h29 q108 0 165.5 -45.5t57.5 -135.5t-65.5 -139t-186.5 -49q-48 0 -114 11t-144 34v100q36 -9 69.5 -15.5t67 -12t62 -8.5t49.5 -3q61 0 90 20t29 62t-31 64t-94 22h-35l-27 -1v177q-155 27 -264 137q-141 144 -141 382z" />
<glyph unicode="&#xe8;" horiz-adv-x="1120" d="M66 498q0 237 138.5 381.5t360.5 144.5q231 0 358.5 -151.5t127.5 -426.5h-785q0 -128 88 -209t226 -81q96 0 180.5 45.5t136.5 130.5l158 -82q-76 -136 -197.5 -207.5t-279.5 -71.5q-234 0 -373 144t-139 383zM283 594h567q-15 127 -88 195.5t-197 68.5t-198 -70 q-39 -36 -60 -82q-24 -51 -24 -112zM313 1483h201l204 -348h-120z" />
<glyph unicode="&#xe9;" horiz-adv-x="1120" d="M66 498q0 237 138.5 381.5t360.5 144.5q231 0 358.5 -151.5t127.5 -426.5h-785q0 -128 88 -209t226 -81q96 0 180.5 45.5t136.5 130.5l158 -82q-76 -136 -197.5 -207.5t-279.5 -71.5q-234 0 -373 144t-139 383zM283 594h567q-15 127 -88 195.5t-197 68.5t-198 -70 q-39 -36 -60 -82q-24 -51 -24 -112zM432 1135l204 348h201l-285 -348h-120z" />
<glyph unicode="&#xea;" horiz-adv-x="1120" d="M66 498q0 237 138.5 381.5t360.5 144.5q231 0 358.5 -151.5t127.5 -426.5h-785q0 -128 88 -209t226 -81q96 0 180.5 45.5t136.5 130.5l158 -82q-76 -136 -197.5 -207.5t-279.5 -71.5q-234 0 -373 144t-139 383zM280 1135l197 348h196l197 -348h-123l-172 229l-174 -229 h-121zM283 594h567q-15 127 -88 195.5t-197 68.5t-198 -70q-39 -36 -60 -82q-24 -51 -24 -112z" />
<glyph unicode="&#xeb;" horiz-adv-x="1120" d="M66 498q0 237 138.5 381.5t360.5 144.5q231 0 358.5 -151.5t127.5 -426.5h-785q0 -128 88 -209t226 -81q96 0 180.5 45.5t136.5 130.5l158 -82q-76 -136 -197.5 -207.5t-279.5 -71.5q-234 0 -373 144t-139 383zM270 1298q0 44 33.5 78.5t78.5 34.5t79 -33t34 -80 q0 -48 -32.5 -81t-80.5 -33q-45 0 -80 33q-32 34 -32 81zM283 594h567q-15 127 -88 195.5t-197 68.5t-198 -70q-39 -36 -60 -82q-24 -51 -24 -112zM653 1298q0 45 35 79t80 34q44 0 77 -33t33 -80q0 -49 -31 -81.5t-79 -32.5q-47 0 -81 33t-34 81z" />
<glyph unicode="&#xec;" horiz-adv-x="537" d="M-20 1483h201l204 -348h-120zM39 0v176h141v658h-141v165h321v-823h148v-176h-469z" />
<glyph unicode="&#xed;" horiz-adv-x="537" d="M39 0v176h141v658h-141v165h321v-823h148v-176h-469zM99 1135l204 348h201l-285 -348h-120z" />
<glyph unicode="&#xee;" horiz-adv-x="537" d="M-53 1135l197 348h196l197 -348h-123l-172 229l-174 -229h-121zM39 0v176h141v658h-141v165h321v-823h148v-176h-469z" />
<glyph unicode="&#xef;" horiz-adv-x="537" d="M-63 1298q0 44 33.5 78.5t78.5 34.5t79 -33t34 -80q0 -48 -32.5 -81t-80.5 -33q-45 0 -80 33q-32 34 -32 81zM39 0v176h141v658h-141v165h321v-823h148v-176h-469zM320 1298q0 45 35 79t80 34q44 0 77 -33t33 -80q0 -49 -31 -81.5t-79 -32.5q-47 0 -81 33t-34 81z" />
<glyph unicode="&#xf0;" horiz-adv-x="1208" d="M66 498q0 226 123 363.5t327 137.5q96 0 175.5 -33t164.5 -112v145h320v-165h-144v-639v-17q0 -126 -12 -196.5t-41 -122.5q-57 -104 -162 -160q-52 -27 -114 -41t-136 -14q-115 0 -212.5 31t-180.5 94l113 131q66 -54 135.5 -78.5t148.5 -24.5q139 0 209 74q34 37 52 92 t18 129v64q-61 -80 -146 -122q-44 -20 -89 -30t-99 -10q-203 0 -326.5 137.5t-123.5 366.5zM260 496q0 -155 79.5 -243.5t217.5 -88.5q130 0 211.5 90.5t81.5 241.5q0 155 -78.5 244t-214.5 89q-138 0 -218 -89q-39 -44 -59 -105t-20 -139zM313 1448h109q0 -35 12.5 -61 t36.5 -45q44 -33 133 -33t133 34q23 17 36.5 43.5t13.5 61.5h108q0 -69 -22 -123t-59 -90q-69 -66 -210 -66q-140 0 -210 67q-38 37 -58 86q-23 56 -23 126z" />
<glyph unicode="&#xf1;" horiz-adv-x="1110" d="M39 0v176h141v658h-141v165h313v-153q99 81 183 118t163 37q130 0 185 -73.5t55 -284.5v-467h147v-176h-327v569q0 177 -27.5 224t-99.5 47q-64 0 -128.5 -36t-142.5 -118v-510h148v-176h-469zM262 1182q9 52 25 87.5t43 63.5q50 53 125 53l29 -3q16 -2 31 -7l97 -26 l33 -9l21 -2q32 0 55.5 17.5t38.5 56.5h88q-20 -103 -70.5 -156t-126.5 -53l-30 2l-36 9l-96 26l-26 6l-23 2q-31 0 -53.5 -17t-36.5 -50h-88z" />
<glyph unicode="&#xf2;" horiz-adv-x="1133" d="M66 498q0 237 138.5 381.5t360.5 144.5q224 0 363 -145.5t139 -380.5q0 -236 -139 -381.5t-363 -145.5q-222 0 -360.5 144.5t-138.5 382.5zM264 500q0 -159 81 -251.5t220 -92.5q140 0 220.5 91t80.5 253q0 83 -19 144.5t-61 108.5q-79 91 -221 91q-139 0 -220 -91.5 t-81 -252.5zM305 1483h201l204 -348h-120z" />
<glyph unicode="&#xf3;" horiz-adv-x="1133" d="M66 498q0 237 138.5 381.5t360.5 144.5q224 0 363 -145.5t139 -380.5q0 -236 -139 -381.5t-363 -145.5q-222 0 -360.5 144.5t-138.5 382.5zM264 500q0 -159 81 -251.5t220 -92.5q140 0 220.5 91t80.5 253q0 83 -19 144.5t-61 108.5q-79 91 -221 91q-139 0 -220 -91.5 t-81 -252.5zM424 1135l204 348h201l-285 -348h-120z" />
<glyph unicode="&#xf4;" horiz-adv-x="1133" d="M66 498q0 237 138.5 381.5t360.5 144.5q224 0 363 -145.5t139 -380.5q0 -236 -139 -381.5t-363 -145.5q-222 0 -360.5 144.5t-138.5 382.5zM264 500q0 -159 81 -251.5t220 -92.5q140 0 220.5 91t80.5 253q0 83 -19 144.5t-61 108.5q-79 91 -221 91q-139 0 -220 -91.5 t-81 -252.5zM272 1135l197 348h196l197 -348h-123l-172 229l-174 -229h-121z" />
<glyph unicode="&#xf5;" horiz-adv-x="1133" d="M66 498q0 237 138.5 381.5t360.5 144.5q224 0 363 -145.5t139 -380.5q0 -236 -139 -381.5t-363 -145.5q-222 0 -360.5 144.5t-138.5 382.5zM264 500q0 -159 81 -251.5t220 -92.5q140 0 220.5 91t80.5 253q0 83 -19 144.5t-61 108.5q-79 91 -221 91q-139 0 -220 -91.5 t-81 -252.5zM274 1182q9 52 25 87.5t43 63.5q50 53 125 53l29 -3q16 -2 31 -7l97 -26l33 -9l21 -2q32 0 55.5 17.5t38.5 56.5h88q-20 -103 -70.5 -156t-126.5 -53l-30 2l-36 9l-96 26l-26 6l-23 2q-31 0 -53.5 -17t-36.5 -50h-88z" />
<glyph unicode="&#xf6;" horiz-adv-x="1133" d="M66 498q0 237 138.5 381.5t360.5 144.5q224 0 363 -145.5t139 -380.5q0 -236 -139 -381.5t-363 -145.5q-222 0 -360.5 144.5t-138.5 382.5zM262 1298q0 44 33.5 78.5t78.5 34.5t79 -33t34 -80q0 -48 -32.5 -81t-80.5 -33q-45 0 -80 33q-32 34 -32 81zM264 500 q0 -159 81 -251.5t220 -92.5q140 0 220.5 91t80.5 253q0 83 -19 144.5t-61 108.5q-79 91 -221 91q-139 0 -220 -91.5t-81 -252.5zM645 1298q0 45 35 79t80 34q44 0 77 -33t33 -80q0 -49 -31 -81.5t-79 -32.5q-47 0 -81 33t-34 81z" />
<glyph unicode="&#xf7;" horiz-adv-x="1706" d="M254 541v139h1198v-139h-1198zM729 242q0 51 37 88t88 37t88 -37t37 -88t-36.5 -88t-88.5 -37q-51 0 -88 36t-37 89zM729 979q0 51 36.5 89t88.5 38q51 0 88 -37.5t37 -89.5q0 -51 -37 -88t-88 -37q-50 0 -87.5 36t-37.5 89z" />
<glyph unicode="&#xf8;" horiz-adv-x="1133" d="M16 59l134 127q-42 65 -63 143t-21 169q0 235 138.5 380.5t360.5 145.5q101 0 179 -29q82 -27 153 -88l117 115l80 -82l-119 -117q45 -66 68.5 -148.5t23.5 -176.5q0 -237 -139 -382t-363 -145q-100 0 -182.5 30.5t-159.5 96.5l-135 -129zM264 500q0 -37 1.5 -51t6 -38.5 t9.5 -43.5t14 -41l467 452q-39 32 -89 49t-108 17q-139 0 -220 -91.5t-81 -252.5zM362 231q48 -39 96 -57t107 -18q141 0 222 91.5t81 252.5q0 59 -8.5 103.5t-28.5 80.5z" />
<glyph unicode="&#xf9;" horiz-adv-x="1104" d="M23 834v165h327v-618q0 -156 28.5 -202t100.5 -46q65 0 130.5 36.5t140.5 117.5v547h-154v165h332v-823h143v-176h-315v127q-49 -39 -94.5 -69t-88.5 -50q-39 -17 -80.5 -27t-80.5 -10q-132 0 -187 75t-55 284v504h-147zM264 1483h201l204 -348h-120z" />
<glyph unicode="&#xfa;" horiz-adv-x="1104" d="M23 834v165h327v-618q0 -156 28.5 -202t100.5 -46q65 0 130.5 36.5t140.5 117.5v547h-154v165h332v-823h143v-176h-315v127q-49 -39 -94.5 -69t-88.5 -50q-39 -17 -80.5 -27t-80.5 -10q-132 0 -187 75t-55 284v504h-147zM383 1135l204 348h201l-285 -348h-120z" />
<glyph unicode="&#xfb;" horiz-adv-x="1104" d="M23 834v165h327v-618q0 -156 28.5 -202t100.5 -46q65 0 130.5 36.5t140.5 117.5v547h-154v165h332v-823h143v-176h-315v127q-49 -39 -94.5 -69t-88.5 -50q-39 -17 -80.5 -27t-80.5 -10q-132 0 -187 75t-55 284v504h-147zM231 1135l197 348h196l197 -348h-123l-172 229 l-174 -229h-121z" />
<glyph unicode="&#xfc;" horiz-adv-x="1104" d="M23 834v165h327v-618q0 -156 28.5 -202t100.5 -46q65 0 130.5 36.5t140.5 117.5v547h-154v165h332v-823h143v-176h-315v127q-49 -39 -94.5 -69t-88.5 -50q-39 -17 -80.5 -27t-80.5 -10q-132 0 -187 75t-55 284v504h-147zM221 1298q0 44 33.5 78.5t78.5 34.5t79 -33 t34 -80q0 -48 -32.5 -81t-80.5 -33q-45 0 -80 33q-32 34 -32 81zM604 1298q0 45 35 79t80 34q44 0 77 -33t33 -80q0 -49 -31 -81.5t-79 -32.5q-47 0 -81 33t-34 81z" />
<glyph unicode="&#xfd;" horiz-adv-x="537" d="M39 0v176h141v658h-141v165h321v-823h148v-176h-469z" />
<glyph unicode="&#xfe;" horiz-adv-x="954" d="M80 725q0 126 99.5 212.5t248.5 86.5q79 0 145.5 -25t120.5 -75v75h154v-325h-154q0 44 -20.5 80t-57.5 64q-69 54 -178 54q-79 0 -125.5 -35t-46.5 -94q0 -49 36.5 -79.5t125.5 -49.5l170 -34q143 -30 213 -101t70 -184q0 -146 -100.5 -235t-266.5 -89h-7v-73h29 q108 0 165.5 -45.5t57.5 -135.5t-65.5 -139t-186.5 -49q-48 0 -114 11t-144 34v100q36 -9 69.5 -15.5t67 -12t62 -8.5t49.5 -3q61 0 90 20t29 62t-31 64t-94 22h-35l-27 -1v177q-16 3 -32.5 7t-32.5 10q-69 24 -120 72v-68h-160v338h160q9 -97 79 -153t181 -56 q86 0 140 38.5t54 98.5q0 51 -39 81t-143 56l-154 35q-146 34 -214 103.5t-68 183.5z" />
<glyph unicode="&#xff;" horiz-adv-x="1006" d="M-10 834v165h420v-165h-115l221 -558l215 558h-117v165h400v-165h-117l-448 -1166h-340v166h237l76 197l-320 803h-112zM199 1298q0 44 33.5 78.5t78.5 34.5t79 -33t34 -80q0 -48 -32.5 -81t-80.5 -33q-45 0 -80 33q-32 34 -32 81zM582 1298q0 45 35 79t80 34 q44 0 77 -33t33 -80q0 -49 -31 -81.5t-79 -32.5q-47 0 -81 33t-34 81z" />
<glyph unicode="&#x152;" horiz-adv-x="2068" d="M82 711q0 209 84 370t246 254q80 45 191 66q56 10 135.5 15t193.5 5h1048v-422h-170v248h-573v-432h506v-170h-506v-461h573v271h170v-455h-1048q-215 0 -329.5 18.5t-192.5 63.5q-152 84 -240 251.5t-88 377.5zM299 717q0 -162 58 -280.5t173 -188.5q62 -38 145 -54 q44 -8 105 -12t152 -4h102v1075h-102q-85 0 -148 -4t-105 -13q-81 -15 -147 -54q-114 -69 -173.5 -187t-59.5 -278z" />
<glyph unicode="&#x153;" horiz-adv-x="1901" d="M76 498q0 237 135.5 381.5t357.5 144.5q67 0 121 -11t105 -36q96 -46 170 -143q65 94 164 142t227 48q225 0 350 -151.5t125 -426.5h-770q0 -64 21.5 -116t65.5 -94q85 -80 220 -80q96 0 177.5 45.5t133.5 130.5l154 -82q-75 -140 -194 -209.5t-283 -69.5q-120 0 -216 45 t-175 142q-68 -89 -170.5 -138t-225.5 -49q-221 0 -357 145q-68 73 -102 167.5t-34 214.5zM272 500q0 -160 80 -252t217 -92q140 0 219.5 91.5t79.5 252.5t-78.5 252.5t-220.5 91.5q-138 0 -217.5 -91.5t-79.5 -252.5zM1080 594h548q-13 127 -84 195.5t-190 68.5 q-120 0 -193 -70q-37 -36 -59 -85t-22 -109z" />
<glyph unicode="&#x178;" horiz-adv-x="1110" d="M-113 1247v174h566v-174h-154l268 -422l277 422h-178v174h555v-174h-174l-394 -596v-467h185v-184h-576v184h187v467l-390 596h-172zM250 1720q0 44 33.5 78.5t78.5 34.5t79 -33t34 -80q0 -48 -32.5 -81t-80.5 -33q-45 0 -80 33q-32 34 -32 81zM633 1720q0 45 35 79 t80 34q44 0 77 -33t33 -80q0 -49 -31 -81.5t-79 -32.5q-47 0 -81 33t-34 81z" />
<glyph unicode="&#x2c6;" horiz-adv-x="1024" d="M217 1135l197 348h196l197 -348h-123l-172 229l-174 -229h-121z" />
<glyph unicode="&#x2dc;" horiz-adv-x="1024" d="M219 1182q9 52 25 87.5t43 63.5q50 53 125 53l29 -3q16 -2 31 -7l97 -26l33 -9l21 -2q32 0 55.5 17.5t38.5 56.5h88q-20 -103 -70.5 -156t-126.5 -53l-30 2l-36 9l-96 26l-26 6l-23 2q-31 0 -53.5 -17t-36.5 -50h-88z" />
<glyph unicode="&#x2000;" horiz-adv-x="986" />
<glyph unicode="&#x2001;" horiz-adv-x="1972" />
<glyph unicode="&#x2002;" horiz-adv-x="986" />
<glyph unicode="&#x2003;" horiz-adv-x="1972" />
<glyph unicode="&#x2004;" horiz-adv-x="657" />
<glyph unicode="&#x2005;" horiz-adv-x="493" />
<glyph unicode="&#x2006;" horiz-adv-x="328" />
<glyph unicode="&#x2007;" horiz-adv-x="328" />
<glyph unicode="&#x2008;" horiz-adv-x="246" />
<glyph unicode="&#x2009;" horiz-adv-x="394" />
<glyph unicode="&#x200a;" horiz-adv-x="109" />
<glyph unicode="&#x2010;" horiz-adv-x="668" d="M86 422v176h498v-176h-498z" />
<glyph unicode="&#x2011;" horiz-adv-x="668" d="M86 422v176h498v-176h-498z" />
<glyph unicode="&#x2012;" horiz-adv-x="668" d="M86 422v176h498v-176h-498z" />
<glyph unicode="&#x2013;" horiz-adv-x="1024" d="M0 436v148h1024v-148h-1024z" />
<glyph unicode="&#x2014;" horiz-adv-x="2048" d="M0 436v148h2048v-148h-2048z" />
<glyph unicode="&#x2018;" horiz-adv-x="508" d="M131 909v252q0 135 58 206q31 37 75 58t103 21v-115q-62 -12 -88 -42q-23 -29 -23 -95v-33h106v-252h-231z" />
<glyph unicode="&#x2019;" horiz-adv-x="508" d="M143 885v114q63 14 87 43.5t24 96.5v32h-107v250h230v-250q0 -135 -58 -208q-30 -37 -73.5 -57.5t-102.5 -20.5z" />
<glyph unicode="&#x201a;" horiz-adv-x="508" d="M123 -172q62 13 87.5 44.5t25.5 96.5v31h-109v252h231v-252q0 -135 -59 -206q-30 -37 -74 -58t-102 -21v113z" />
<glyph unicode="&#x201c;" horiz-adv-x="895" d="M139 909v252q0 135 58 206q30 37 74 58t102 21v-115q-62 -12 -88 -42q-23 -29 -23 -95v-33h107v-252h-230zM514 909v252q0 135 58 206q30 37 74 58t102 21v-115q-62 -12 -88 -42q-23 -29 -23 -95v-33h106v-252h-229z" />
<glyph unicode="&#x201d;" horiz-adv-x="895" d="M150 885v114q64 14 88 44.5t24 97.5v30h-106v250h229v-250q0 -136 -59 -207q-30 -36 -74.5 -57.5t-101.5 -21.5zM524 885v114q63 14 88 44.5t25 97.5v30h-107v250h230v-250q0 -136 -59 -207q-30 -37 -75 -58t-102 -21z" />
<glyph unicode="&#x201e;" horiz-adv-x="895" d="M131 -172q63 12 87 42.5t24 96.5v33h-107v252h230v-252q0 -135 -58 -206q-30 -37 -74 -58t-102 -21v113zM506 -172q62 12 86 42.5t24 96.5v33h-106v252h229v-252q0 -135 -58 -206q-29 -36 -73.5 -57.5t-101.5 -21.5v113z" />
<glyph unicode="&#x2022;" horiz-adv-x="1208" d="M307 762q0 122 87.5 208.5t209.5 86.5q121 0 208 -86.5t87 -208.5t-87.5 -209.5t-209.5 -87.5t-208.5 87.5t-86.5 209.5z" />
<glyph unicode="&#x2026;" horiz-adv-x="2048" d="M223 0v252h238v-252h-238zM905 0v252h238v-252h-238zM1589 0v252h238v-252h-238z" />
<glyph unicode="&#x202f;" horiz-adv-x="394" />
<glyph unicode="&#x2039;" horiz-adv-x="569" d="M66 506l262 311h180l-258 -311l258 -313h-180z" />
<glyph unicode="&#x203a;" horiz-adv-x="569" d="M61 193l258 313l-258 311h181l260 -311l-260 -313h-181z" />
<glyph unicode="&#x205f;" horiz-adv-x="493" />
<glyph unicode="&#x2122;" horiz-adv-x="1706" d="M242 1378v80h452v-80h-172v-458h-108v458h-172zM813 920v538h150l151 -385l141 385h150v-538h-98v444l-166 -444h-56l-174 444v-444h-98z" />
<glyph unicode="&#xe000;" horiz-adv-x="1000" d="M0 0v1000h1000v-1000h-1000z" />
</font>
</defs>
</svg>
