<?xml version="1.0" standalone="no"?>
<!DOCTYPE svg PUBLIC "-//W3C//DTD SVG 1.1//EN" "http://www.w3.org/Graphics/SVG/1.1/DTD/svg11.dtd" >
<svg xmlns="http://www.w3.org/2000/svg">
<metadata></metadata>
<defs>
<font id="edukera_fontregular" horiz-adv-x="1024" >
<font-face units-per-em="1024" ascent="819" descent="-205" />
<missing-glyph horiz-adv-x="500" />
<glyph unicode="&#xd;" />
<glyph unicode="," d="M590 825h-171q-37 0 -74 -8q-54 -12 -91.5 -55.5t-37.5 -98.5q0 -58 42 -96.5t100 -38.5q12 0 28 2q-9 -27 -9 -34q0 -26 25 -59q-41 -1 -79.5 -8t-78.5 -28.5t-57 -53.5q-14 -30 -14 -53q0 -33 17.5 -58t45 -38.5t57.5 -20t60 -6.5q105 0 165 51q55 48 55 111 q0 31 -12.5 56t-29.5 41t-34.5 29.5t-29.5 27t-12 27.5t9 26.5t22 24t26 25.5t22 36.5t9 51.5q0 35 -15.5 66.5t-43.5 49.5h53zM676 825v-101h-100v-50h100v-101h50v101h101v50h-101v101h-50zM365 797q34 0 59 -28t35.5 -63t10.5 -68q0 -87 -72 -87q-33 0 -59 26.5t-38.5 61 t-12.5 66.5q0 38 20.5 65t56.5 27zM406 414q13 0 20 -1q1 -1 13 -9t14.5 -10.5t13 -10t14 -11.5t11.5 -11.5t11 -13.5l7 -14t5.5 -16.5t1.5 -17.5q0 -47 -36.5 -69.5t-87.5 -22.5q-34 0 -66 10t-56.5 34.5t-24.5 60.5q0 29 15.5 50t41 31.5t51 15.5t52.5 5z" />
<glyph unicode="." d="M654 855q-21 0 -36 -15l-290 -257q-33 -29 -33 -59t29 -55l293 -261q16 -15 37 -15t36 16t15 38t-18 38l-265 239l266 239q17 16 17 38t-15 38t-36 16z" />
<glyph unicode="0" d="M478 886v-45q-106 -9 -181 -84t-83 -181h-46v-44h46q8 -106 83 -181t181 -83v-46h44v46q106 8 181 83t83 181h46v44h-46q-8 106 -83 181t-181 84v45h-44zM478 796v-89q-51 -8 -87 -44t-44 -87h-89q8 88 70.5 150t149.5 70zM522 796q88 -8 150 -70t70 -150h-89 q-8 51 -44 87t-87 44v89zM478 662v-86h-86q6 33 29.5 56.5t56.5 29.5zM522 662q33 -6 56.5 -29.5t29.5 -56.5h-86v86zM258 532h89q8 -51 44 -87t87 -44v-89q-87 8 -149.5 70t-70.5 150zM392 532h86v-86q-33 6 -56.5 29.5t-29.5 56.5zM522 532h86q-6 -33 -29.5 -56.5 t-56.5 -29.5v86zM653 532h89q-8 -88 -70 -150t-150 -70v89q51 8 87 44t44 87z" />
<glyph unicode="1" d="M299 821h-8q-35 -3 -60 -27.5t-29 -60.5v-2v-1v-1.5v-2.5v-2v0v-3v-2v-1.5v-1.5v-2q0 -2 1 -5v0v-2v-1l1 -2q6 -34 33 -56t61 -22l4 1h9l8 1l129 -223l-14 -12q-31 -30 -31 -72q0 -40 28.5 -68.5t68.5 -28.5t68.5 28.5t28.5 68.5q0 42 -31 71l-14 13l121 210l14 12l14 -1 q34 0 60 21t34 53l0.5 1l0.5 1q1 5 2 11v1v2v1v2v2v1.5v1.5v2v3v1v1q-2 35 -26 60t-58 29h-1.5h-1t-2.5 1h-3h-2.5h-2.5h-4q-39 -2 -66 -30t-27 -67q0 -42 30 -70q0 -1 1 -2l14 -12l-129 -223l-20 2l-20 -2l-129 223l14 12q15 15 23 33t8 39q0 40 -28.5 68.5t-68.5 28.5z " />
<glyph unicode="2" d="M349 861l-29 -51l23 8v-254h-72q-34 109 -47 254l-50 -5q13 -145 44 -249h-32v-12h35q39 -123 95 -136q13 -3 27 0v-196h12v200q36 15 72 75q18 31 36 57h225q39 -120 56 -328l50 4q-16 204 -53 324h42l-7 -23l50 29l-50 29l7 -23h-46q-45 139 -118 156q-93 21 -208 -156 h-56v254l23 -8zM598 672q5 0 10 -1q42 -10 76 -107h-213q76 107 127 108zM275 552h68v-82q-10 -6 -16 -5q-26 6 -52 87zM355 552h48q-10 -15 -19 -31q-15 -25 -29 -40v71z" />
<glyph unicode="3" d="M523 858q-15 0 -20 -13l-2 -9v-42q0 -9 6.5 -15t15 -6t15.5 6q6 6 6 15v42q0 9 -6 15.5t-15 6.5zM285 780q-9 0 -15 -6.5t-6 -15t6 -14.5l31 -30q6 -6 15 -6t15.5 6t6.5 14.5t-6 15.5l-31 30q-7 6 -16 6zM747 750q-9 0 -15 -6l-31 -30q-7 -6 -7 -15t6.5 -15t15.5 -6t16 6 l30 30q7 6 7 14.5t-6.5 15t-15.5 6.5zM501 689q-72 0 -123 -49.5t-51 -119.5q0 -46 23.5 -84.5t63.5 -61.5v-66h174v66q39 23 63 61.5t24 84.5q0 70 -51 119.5t-123 49.5zM501 646q54 0 92 -37t38 -89q0 -34 -17 -63t-48 -46l-22 -13v-24v-23h-87v23v24l-21 13 q-31 17 -48.5 46t-17.5 63q0 52 38.5 89t92.5 37zM174 562q-8 0 -14.5 -6.5t-6.5 -15t6.5 -14.5t14.5 -6h44q9 0 15.5 6t6.5 14.5t-6.5 15t-15.5 6.5h-44zM784 520q-9 0 -15.5 -6.5t-6.5 -15t6.5 -14.5t15.5 -6h43q9 0 15.5 6t6.5 14.5t-6.5 15t-15.5 6.5h-43zM414 266v-42 h45l-2 -5q0 -16 13 -26.5t31 -10.5t30.5 10.5t12.5 26.5l-1 5h45v42h-174z" />
<glyph unicode="4" d="M292 856q-9 0 -15 -6.5t-6 -14.5v-63h-84v-586h627v586h-83v63q0 8 -6 14.5t-15 6.5h-84q-9 0 -15 -6.5t-6 -14.5v-63h-209v63q0 8 -6 14.5t-15 6.5h-83zM312 814h42v-84h-42v84zM647 814h42v-84h-42v84zM229 646h544v-418h-544v418zM382 585l-85 -24l15 -62l50 11v-219 h79v294h-59zM510 583v-68h136l-129 -224h89l130 231v61h-226z" />
<glyph unicode="5" d="M328 856q-21 0 -36 -15l-66 -67q-15 -15 -15 -35v-532q0 -9 6 -15t15 -6h481v586h-126v-293l-83 84l-84 -84v293h-138l42 42h431v-544h41v586h-468z" />
<glyph unicode="6" d="M493 854q-24 0 -49 -4q-25 -5 -49 -12q-24 -8 -46 -18t-41 -21l45 -98q38 19 73 32t65 13q35 0 52 -16.5t17 -41.5q0 -17 -3.5 -29t-11.5 -23.5t-21 -22.5q-13 -12 -31 -26q-21 -17 -36 -33q-15 -15 -25 -32q-9 -17 -14 -35t-5 -41v-32h117v26q0 14 2.5 24.5t8.5 20.5 q7 9 19 20q11 11 30 25q25 21 43 37q18 18 30 37t18.5 40.5t6.5 49.5q0 38 -13.5 67.5t-39 50.5t-61.5 31.5t-81 10.5zM477 338q-16 0 -30.5 -4t-25 -13t-16.5 -23q-6 -15 -6 -36q0 -20 6 -34t16.5 -23t24.5 -13q15 -5 31 -5q15 0 29 4.5t24.5 13.5t17 23.5t6.5 33.5 q0 21 -6.5 35.5t-16.5 23.5q-11 9 -25 13t-29 4z" />
<glyph unicode="7" d="M417 877l25 -469h117l24 469h-166zM500 326q-18 0 -33 -4.5t-27 -14t-18 -25t-6 -38.5q0 -21 6 -37q6 -15 17.5 -25t27 -14.5t33.5 -4.5q17 0 32 4.5t26.5 14.5t18 25.5t6.5 36.5q0 23 -6.5 38.5t-18 25t-26.5 14t-32 4.5z" />
<glyph unicode="8" d="M500 869q-95 0 -162.5 -67.5t-67.5 -162.5q0 -49 15 -80l164 -348q6 -15 20.5 -23.5t30.5 -8.5t30.5 8.5t21.5 23.5l163 348q15 31 15 80q0 95 -67.5 162.5t-162.5 67.5zM500 754q48 0 81.5 -33.5t33.5 -81.5q0 -47 -33.5 -81t-81.5 -34t-81.5 34t-33.5 81 q0 48 33.5 81.5t81.5 33.5z" />
<glyph unicode="9" d="M545 837q-29 0 -52 -6.5t-37 -15.5t-24.5 -23.5t-15 -24.5t-7 -25t-2.5 -19.5v-12.5v-90h-66v-110h66v-327h135v327h91q8 53 13 110h-103v76q0 8 9 17t20 9h74v115h-101z" />
<glyph unicode=";" d="M423 879q-3 0 -6 -2q-4 -3 -3 -8l18 -154q1 -9 10 -8t8 10l-14 126q93 -118 122 -238t-8 -235q-11 -33 -27 -65t-30 -52.5t-30 -39t-21.5 -24.5t-9.5 -9l11 -11q4 3 10 9.5t22.5 25.5t30.5 40t31 54t28 67q15 46 19 95.5t-4 112t-41.5 135t-90.5 144.5l119 -39q9 -3 12 6 q1 4 -2 8q-1 2 -4 3l-147 49q-2 1 -3 0z" />
<glyph unicode="?" d="M232.5 803q-19.5 0 -33 -13.5t-13.5 -32.5q0 -27 23 -40v-461q0 -4 3.5 -7.5t8.5 -3.5h23q5 0 8.5 3.5t3.5 7.5v461q23 13 23 40q0 19 -13.5 32.5t-33 13.5zM472 757q-67 0 -153 -44q-22 -11 -29 -15q-11 -9 -11 -20v-270q0 -10 7 -17t16 -7q6 0 12 4q99 53 169 53 q41 0 93.5 -25.5t84.5 -25.5q56 0 134 42q19 10 19 24v278q0 9 -6.5 16t-16.5 7q-6 0 -28 -12.5t-52 -25t-55 -12.5q-18 0 -32 7q-45 22 -79 32.5t-73 10.5z" />
<glyph unicode="A" d="M568 821q-43 0 -65.5 -23t-22.5 -51q-1 -28 15.5 -43.5t48.5 -15.5q38 0 61 22t23 53q0 58 -60 58zM563 613q-31 -1 -90 -29.5t-113 -73.5l16 -26q18 12 43 22.5t33 10.5q9 0 0 -34l-37 -150q-27 -105 33 -105q30 0 84.5 27t105.5 78l-19 24q-20 -17 -41 -26.5t-30 -9.5 q-13 0 -3 38l41 158q13 44 8 70t-29 26h-2z" />
<glyph unicode="B" d="M610 821q-8 1 -124 -133.5t-112 -147.5q3 -10 64 -35t62.5 -29.5t-25 -65t-52 -119.5t-23.5 -61q4 -2 63.5 64.5t117 137t55.5 79.5q-2 11 -63.5 37t-61.5 28q-2 3 50.5 122.5t48.5 122.5z" />
<glyph unicode="C" d="M555 819q-17 0 -26 -16l-34 -61q-7 -12 -3.5 -24.5t15.5 -18.5q7 -4 15 -4q19 0 28 16l34 61q7 12 3 24.5t-15 18.5q-8 5 -17 4zM681 744q-13 0 -22 -9l-61 -61q-9 -9 -9 -22t9.5 -22.5t22.5 -9.5t22 10l61 60q9 9 9 22.5t-9.5 22.5t-22.5 9zM358 686q-23 1 -36 -12 t-32.5 -41t-41 -73.5t-32 -91.5t0.5 -97t48.5 -88.5t88.5 -48.5t97 -0.5t91.5 32t73.5 41t41 32.5q27 27 -3 95t-100 137q-52 53 -106 84t-90 31zM362 635q23 1 69.5 -24t91.5 -71q36 -36 60.5 -75.5t31.5 -64t1 -30.5t-30.5 1t-64 31.5t-75.5 60.5t-60.5 75.5t-31.5 64 t-1 30.5q3 2 9 2zM756 619q-8 0 -15 -4l-61 -34q-12 -7 -15.5 -19.5t3.5 -23.5q9 -17 27 -17q9 0 16 5l61 34q12 6 15.5 19t-3.5 24q-9 16 -28 16z" />
<glyph unicode="D" d="M435.5 821q-96.5 0 -164.5 -68t-68 -164.5t71.5 -168.5t168.5 -72q63 0 117 32l143 -143q10 -10 25 -10t26 10l35 36q20 20 -5 45l-142 142q34 56 34 121q0 97 -72 168.5t-168.5 71.5zM435.5 750q66.5 0 117.5 -51t51 -117.5t-47.5 -114t-114 -47.5t-117.5 51t-51 117.5 t47.5 114t114 47.5z" />
<glyph unicode="E" d="M500.5 786q-12.5 0 -19.5 -11l-274 -482q-6 -10 0 -20.5t19 -10.5h548q13 0 19 10.5t0 20.5l-274 482q-6 11 -18.5 11zM463 616h74v-184h-74v184zM463 385h74v-61h-74v61z" />
<glyph unicode="F" d="M377 729l-82 -82l123 -123l-123 -123l82 -82l123 123l123 -123l82 82l-123 123l123 123l-82 82l-123 -123z" />
<glyph unicode="G" d="M497 654q-112 0 -195.5 -74.5t-97.5 -185.5h4q19 81 84.5 133.5t149.5 52.5q61 0 113.5 -29t85.5 -78l-67 -79h222v260l-81 -96q-42 45 -98 70.5t-120 25.5z" />
<glyph unicode="H" d="M204 654v-260h222l-67 79q33 49 85.5 78t113.5 29q84 0 149.5 -52.5t84.5 -133.5h4q-14 111 -97.5 185.5t-195.5 74.5q-64 0 -120 -25.5t-98 -70.5z" />
<glyph unicode="I" d="M599 708h-1h-3l-119 -119l-136 -137l-24 -112l112 24l137 136l119 119q-1 2 0 8t-6.5 21.5t-22.5 30.5q-29 29 -56 29zM364 457q21 -1 45 -24q10 -11 16 -22t7 -17l1 -6l-11 -11l-39 -8q-6 12 -16 22t-22 16l8 39z" />
<glyph unicode="J" d="M555 818q-116 -83 -186.5 -193t-70.5 -192v-13q-1 -24 -0.5 -36.5t4 -36t10 -37t20 -31t32.5 -27t49 -16t69 -6.5q63 0 104 12t60 35t27 51t8 63.5t-1.5 68.5t3.5 71t19 67q-26 -2 -89 -37l-4 6q3 98 20 141q-4 -2 -14 -9.5t-27 -21t-30 -24.5q-14 34 -15.5 82.5 t12.5 82.5zM517 487q0 -19 2.5 -39.5t6.5 -36.5t8.5 -29t6.5 -20l3 -6q2 1 5 3t12.5 11.5t18.5 22t20.5 34.5t20.5 49q22 -95 -3 -140.5t-114 -47.5q-129 -4 -126 87q1 37 23 78q-2 -3 -3 -8.5t0 -16.5t6 -22t19.5 -25t36.5 -25q-8 9 -11 20t0.5 22t8 20.5t14 21t15.5 18 t17 17t13 12.5z" />
<glyph unicode="K" d="M720 815q-33 0 -50 -27l-245 -395l-98 129q-15 19 -38.5 22.5t-42.5 -11t-22.5 -38.5t11.5 -43l148 -196q17 -23 46 -23h3q30 2 46 28l290 465q13 21 7.5 44t-25.5 36q-14 9 -30 9z" />
<glyph unicode="L" d="M318 819q-18 0 -32 -14t-14 -30v-502q0 -16 14 -30t30 -14h365q18 0 32.5 13.5t14.5 29.5v411l-139 136h-271zM343 748h202v-69q0 -17 14 -30t30 -13h68v-336h-314v448z" />
<glyph unicode="M" d="M500 820q-64 0 -115 -23t-51 -43v-70q0 -21 18 -45t39.5 -42t39.5 -38t18 -35t-18 -35t-39.5 -38t-39.5 -42t-18 -45v-70q0 -20 51 -43t115 -23t115 23t51 43v70q0 21 -18 45t-39.5 42t-39.5 38t-18 35t18 35t39.5 38t39.5 42t18 45v70q0 20 -51 43t-115 23zM502 783 q27 0 57 -8t45 -16l16 -8q20 -12 10 -18q-52 -30 -130 -30q-74 0 -128 31q-5 4 -3 7.5t6 6.5l5 3q50 32 122 32zM369 714q60 -32 131.5 -32t130.5 32l-1 -30q0 -19 -54 -72q-4 -3 -15.5 -14t-15 -14.5t-11.5 -13t-11 -15t-5.5 -14t-2.5 -17.5t2.5 -17.5t5.5 -14t11 -15 t11.5 -13t15.5 -15t15 -13.5q54 -53 54 -72v-40q-5 3 -40 14.5t-55 25.5t-20 34q0 11 -7.5 15.5t-15 0t-7.5 -15.5q0 -20 -20 -34t-55 -25.5t-39 -14.5v40q0 19 54 72q2 2 14 13.5t15.5 15t11.5 13t11 15t5.5 14t2.5 17.5t-2.5 17.5t-5.5 14t-11 15t-11.5 13t-15.5 14.5 t-14 14q-54 53 -54 72z" />
<glyph unicode="N" d="M500 818l-80 -224h-214l175 -133l-63 -231l182 139l182 -139l-63 231l175 133h-214z" />
<glyph unicode="O" d="M402 804q-50 0 -137 -64l-61 -22l121 -474h66l-59 233q41 34 74 49t54 13.5t38.5 -11t31.5 -21.5t29.5 -20.5t35.5 -5t46 22.5t64.5 64.5t88.5 117.5q5 7 -0.5 12t-14.5 1q-60 -24 -107 -31t-76.5 0.5t-52 22t-38.5 34.5t-30 37t-32.5 29t-40.5 13z" />
<glyph unicode="P" d="M235 755q-13 0 -23 -9.5t-10 -23t10 -23.5t23 -10h530q13 0 23 10t10 23.5t-10 23t-23 9.5h-530zM235 557q-13 0 -23 -9.5t-10 -23.5t10 -23.5t23 -9.5h530q13 0 23 9.5t10 23.5t-10 23.5t-23 9.5h-530zM235 359q-13 0 -23 -10t-10 -23.5t10 -23t23 -9.5h530q13 0 23 9.5 t10 23t-10 23.5t-23 10h-530z" />
<glyph unicode="Q" d="M490 787q-16 0 -29 -12l-233 -207q-23 -20 -23 -44t26 -47l230 -204q13 -12 29 -12t28 13t12 30.5t-14 29.5l-210 190l210 190q14 12 14 30q0 17 -12 30t-28 13zM754 787q-16 0 -28 -12l-233 -207q-23 -20 -23 -44t26 -47l230 -204q12 -12 28 -12q17 0 29 13t12 30 q0 18 -14 30l-210 190l210 190q14 12 14 30q0 17 -12 30t-29 13z" />
<glyph unicode="R" d="M245 787q-17 0 -29 -12.5t-12 -30.5t14 -30l211 -190l-211 -190q-14 -13 -14 -30q0 -18 12 -30.5t29 -12.5q16 0 29 11l233 208q24 20 24 44t-27 47l-230 205q-13 11 -29 11zM510 787q-16 0 -28.5 -12.5t-12.5 -30t15 -30.5l211 -190l-211 -190q-15 -13 -15 -30 q0 -18 12.5 -30.5t28.5 -12.5t29 11l234 208q23 20 23 44t-26 47l-231 205q-12 11 -29 11z" />
<glyph unicode="S" d="M280 820q-18 0 -30.5 -12t-12.5 -29q0 -16 11 -29l208 -233q20 -24 44 -24t47 27l205 230q11 13 11 29q0 17 -12.5 29t-30.5 12t-30 -14l-190 -211l-190 211q-13 14 -30 14zM280 555q-18 0 -30.5 -12.5t-12.5 -28.5t11 -29l208 -234q20 -23 44 -23t47 26l205 231 q11 12 11 29q0 16 -12.5 28.5t-30.5 12.5t-30 -15l-190 -211l-190 211q-13 15 -30 15z" />
<glyph unicode="T" d="M500 820q-24 0 -47 -26l-205 -231q-11 -12 -11 -29q0 -16 12.5 -28.5t30 -12.5t30.5 15l190 211l190 -211q13 -15 30 -15q18 0 30.5 12.5t12.5 28.5t-11 29l-208 234q-20 23 -44 23zM500 555q-24 0 -47 -27l-205 -230q-11 -13 -11 -29q0 -17 12.5 -29t30.5 -12t30 14 l190 211l190 -211q13 -14 30 -14q18 0 30.5 12t12.5 29q0 16 -11 29l-208 233q-20 24 -44 24z" />
<glyph unicode="U" d="M380 825q-14 -1 -13 -28l5 -93q1 -23 -14.5 -38t-37.5 -14l-93 5q-23 1 -27 -9t13 -25l69 -62q17 -16 17 -37.5t-17 -36.5l-69 -62q-17 -15 -13 -25t27 -9l93 5q22 1 37.5 -14.5t14.5 -37.5l-5 -93q-1 -23 9 -27t25 13l62 69q15 17 37 17t37 -17l62 -69q15 -17 25 -13 t9 27l-5 93q-1 22 14.5 37.5t37.5 14.5l93 -5q23 -1 27 9t-13 25l-69 62q-17 15 -17 36.5t17 37.5l69 62q17 15 13 25t-27 9l-93 -5q-22 -1 -37.5 14t-14.5 38l5 93q1 23 -9 27t-25 -13l-62 -69q-15 -17 -37 -17t-37 17l-62 69q-12 14 -21 14z" />
<glyph unicode="V" d="M685 825q-1 0 -2 -1q-24 -1 -37.5 -17.5t-15.5 -31.5l-1 -16q-5 -28 -7 -74h-5q-22 49 -65 77.5t-101 28.5q-97 0 -169 -82.5t-72 -210.5q0 -122 62 -196.5t159 -74.5q61 0 108.5 31t75.5 82h3q7 -100 77 -112q43 -10 69 1t26 32q0 19 -12.5 29.5t-24.5 11.5l-12 1 q-23 4 -32.5 25t-9.5 64q0 202 13 368q1 6 1.5 13.5t0 20.5t-8 22t-20.5 9zM463 714q52 0 90 -40.5t49 -97.5q4 -19 4 -59q0 -46 -7 -76q-13 -55 -53.5 -95.5t-90.5 -40.5q-67 0 -106.5 57.5t-39.5 136.5v3q0 91 43.5 151.5t110.5 60.5z" />
<glyph unicode="W" d="M500 824q-87 0 -148.5 -61.5t-61.5 -148.5v-180q0 -88 66.5 -149t153.5 -61q102 0 162 64l12 16q10 14 10 28q0 20 -15.5 34.5t-35.5 14.5q-23 0 -39 -22q-35 -37 -94 -37q-49 0 -85.5 34t-36.5 78v63h273q20 0 34.5 14.5t14.5 34.5v68q0 87 -61.5 148.5t-148.5 61.5z M500 726q47 0 79.5 -32.5t32.5 -79.5v-19h-224v19q0 47 32.5 79.5t79.5 32.5z" />
<glyph unicode="X" d="M500 838l-157 -179h90v-270h-90l157 -179l157 179h-90v270h90z" />
<glyph unicode="Y" d="M262 796l-48 -48l238 -238l-238 -238l48 -48l238 238l238 -238l48 48l-238 238l238 238l-48 48l-238 -238z" />
<glyph unicode="Z" d="M434 798v-222h-220v-131h220v-219h132v219h220v131h-220v222h-132z" />
<glyph unicode="a" d="M500 706q-91 0 -170.5 -48.5t-132.5 -133.5q53 -85 132.5 -133.5t170.5 -48.5t170.5 48.5t132.5 133.5q-53 85 -132.5 133.5t-170.5 48.5zM500 658q55 0 94.5 -39.5t39.5 -94.5t-39.5 -94.5t-94.5 -39.5t-94.5 39.5t-39.5 94.5t39.5 94.5t94.5 39.5zM500 595 q-29 0 -50 -21t-21 -50t21 -50t50 -21t50 21t21 50t-21 50t-50 21z" />
<glyph unicode="b" d="M426 777q-37 -25 -74 -51q-40 -28 -74 -65q-34 -38 -58 -86q-23 -49 -23 -112q0 -91 44 -142q43 -50 105 -50q21 0 42.5 6.5t39.5 20.5q18 13 29.5 35t11.5 52.5t-12 52.5q-11 22 -27 36t-36 20q-20 7 -37 7q-18 0 -35.5 -3.5t-32.5 -13.5q-8 8 -16 24.5t-8 42.5 q0 58 47 104t126 101zM761 777q-39 -26 -74 -51q-41 -28 -75 -65.5t-57 -85.5q-24 -49 -24 -112q0 -91 44 -142q44 -50 105 -50q21 0 43 6.5t40 20.5q17 13 29 35q11 22 11 52.5t-11 52.5q-12 22 -28 36t-35.5 20.5t-37.5 6.5q-17 0 -35 -3.5t-32 -13.5q-8 8 -16.5 24.5 t-8.5 42.5q0 58 47 104t126 101z" />
<glyph unicode="c" d="M325 827q-15 0 -26.5 -10t-11.5 -25q0 -7 3 -13l175 -527q11 -31 35 -31t35 31l175 527q3 6 3 13q0 15 -12 25t-27 10q-25 0 -33 -25l-52 -155h-178l-52 155q-8 25 -34 25zM435 574h130l-65 -195z" />
<glyph unicode="d" d="M686 824q-17 0 -29 -16l-374 -526q-7 -11 -7 -22q0 -15 11.5 -25.5t26.5 -10.5q17 0 29 16l374 526q7 11 7 22q0 15 -11.5 25.5t-26.5 10.5zM335 824q-57 0 -97.5 -41t-40.5 -98t40.5 -97.5t97.5 -40.5t98 40.5t41 97.5t-41 98t-98 41zM335 751q27 0 46.5 -19t19.5 -46.5 t-19.5 -46.5t-46.5 -19t-46.5 19t-19.5 46.5t19.5 46.5t46.5 19zM665 500q-57 0 -98 -40.5t-41 -97.5t41 -97.5t98 -40.5t97.5 40.5t40.5 97.5t-40.5 97.5t-97.5 40.5zM665 428q27 0 46 -19.5t19 -46.5t-19 -46.5t-46 -19.5t-46.5 19.5t-19.5 46.5t19.5 46.5t46.5 19.5z" />
<glyph unicode="e" d="M462 827l-38 -90q-13 -4 -22 -9l-90 37l-53 -54l36 -89q-4 -10 -9 -23l-89 -38v-75l89 -38q5 -13 9 -22l-36 -90l54 -53l89 36q10 -4 22 -8l39 -90h75l38 90q13 5 21 9l91 -37l53 54l-37 90q4 8 8 21l91 39v75l-91 38q-4 13 -8 21l37 91l-54 53l-90 -37q-9 4 -21 9 l-39 90h-75zM499 638q47 0 80.5 -33.5t33.5 -80.5t-33.5 -80.5t-80.5 -33.5t-80 33.5t-33 80.5t33 80.5t80 33.5z" />
<glyph unicode="f" d="M227.5 774q-12.5 0 -21.5 -8.5t-9 -22.5v-438q0 -12 9 -21.5t22 -9.5h228q14 0 22 9.5t8 21.5t-8 21t-22 9h-198v408q0 14 -9 22.5t-21.5 8.5zM672 643q-54 0 -92.5 -38.5t-38.5 -92.5v-207q0 -14 9 -22.5t21.5 -8.5t21.5 8.5t9 22.5v207q0 29 20.5 49.5t49.5 20.5 t49.5 -20.5t20.5 -49.5v-207q0 -14 9 -22.5t21.5 -8.5t21.5 8.5t9 22.5v207q0 54 -38.5 92.5t-92.5 38.5z" />
<glyph unicode="g" d="M589 827q-20 0 -41 -7t-40.5 -21t-31.5 -39t-12 -58v-356q0 -6 -1.5 -12.5t-6 -17t-16.5 -17.5t-30 -7h-88q-15 0 -25 -10t-10 -25t10.5 -25.5t25.5 -10.5h87q33 0 58.5 12t39 31.5t20.5 40.5t7 41v356q0 17 6 28.5t15.5 16.5t17 6.5t15.5 2.5h89q15 0 25 10.5t10 25 t-10 25t-25 10.5h-89z" />
<glyph unicode="h" d="M794 729q-7 0 -13 -3l-222 -111q-16 -8 -16 -25.5t16 -25.5l222 -112q6 -2 13 -2q18 0 26 15q5 11 1.5 22.5t-14.5 16.5l-170 85l170 86q11 5 14.5 16.5t-1.5 21.5q-8 17 -26 16zM200 719q-13 0 -23.5 -9.5t-10.5 -23.5q0 -10 6 -18l91 -142l-96 -150q-6 -9 -6 -18 q0 -14 10.5 -23.5t24.5 -9.5q16 0 27 16l80 124l80 -124q10 -16 26 -16q14 0 24.5 9.5t10.5 23.5q0 9 -6 18l-96 150l91 142q6 8 6 18q0 14 -10.5 23.5t-24.5 9.5q-16 0 -26 -16l-75 -117l-76 117q-10 16 -27 16zM559 382q-15 0 -23.5 -9.5t-8.5 -22t8.5 -22t23.5 -9.5h248 q15 0 23.5 9.5t8.5 22t-8.5 22t-23.5 9.5h-248z" />
<glyph unicode="i" d="M465 827h-1t-2 -1h-2q-4 -1 -5 -1t-1 -1l-234 -116l-5 -5q-1 0 -1 -0.5v-0.5q-3 -2 -4 -5q-1 -2 -1 -3q-1 -2 -1 -6v-1v-326v-1q0 -3 1 -7l1 -2q2 -3 4 -5q1 -1 1 -2q3 -2 6 -3q0 -1 0.5 -1h0.5h1l304 -117q4 -2 8.5 -2t9.5 2l1 1l234 116q3 2 5 5q1 0 1 0.5v0.5q3 2 4 5 q1 2 1 3q1 2 1 6v1v326v1q0 3 -1 7q0 1 -0.5 1.5l-0.5 0.5q-1 3 -4 5q-1 1 -1 2l-6 4h-1l-1 1l-304 116q0 1 -1.5 1h-1.5q-4 1 -5 1zM488 769l223 -85l-177 -89l-46 18v156zM441 765v-134l-152 58zM255 652l186 -71v-88l-186 -93v252zM745 648v-252l-186 71v88zM488 563 l24 -9v-69l-24 9v69zM466 453l46 -18v-156l-223 85zM559 417l152 -58l-152 -76v134z" />
<glyph unicode="j" d="M346 856q-21 0 -36.5 -16t-15.5 -38t18 -38l266 -240l-266 -240q-18 -16 -18 -38t15.5 -38t36.5 -16q20 0 36 14l295 262q29 26 29 56t-33 59l-291 259q-16 14 -36 14z" />
<glyph unicode="k" d="M583 827q-54 0 -90 -33.5t-36 -84.5v-54h-52q-17 0 -27 -11t-10 -26t10 -26t27 -11h52v-242q0 -18 -14 -31.5t-39 -13.5q-17 0 -27 -10.5t-10 -25.5t10 -26t27 -11q54 0 90 33.5t36 84.5v242h66q17 0 27 11t10 26t-10 26t-27 11h-66v54q0 18 13.5 31.5t39.5 13.5 q17 0 26.5 10.5t9.5 25.5t-9.5 26t-26.5 11z" />
<glyph unicode="l" d="M424 827q-45 0 -75 -28t-30 -70v-44h-43q-14 0 -22 -9t-8 -21.5t8 -21.5t22 -9h43v-305q0 -16 -11 -26.5t-32 -10.5q-14 0 -22.5 -9t-8.5 -21.5t8.5 -21.5t22.5 -9q44 0 74 28t30 70v305h54q15 0 23 9t8 21.5t-8 21.5t-23 9h-54v44q0 16 11.5 26.5t32.5 10.5q14 0 22 9 t8 21.5t-8 21.5t-22 9zM531 685q-12 0 -22 -9t-10 -21q0 -9 6 -17l84 -130l-88 -137q-6 -8 -6 -17q0 -13 10 -22t22 -9q15 0 25 15l73 114l73 -114q10 -15 24 -15q13 0 23 9t10 22q0 8 -6 17l-88 137l84 130q5 8 5 17q0 12 -9.5 21t-22.5 9q-15 0 -24 -14l-69 -108l-69 108 q-10 14 -25 14z" />
<glyph unicode="m" d="M630 801q-9 0 -16.5 -7t-7.5 -16q0 -7 4 -13l65 -101l-68 -106q-4 -6 -4 -13q0 -9 7.5 -16t16.5 -7q12 0 19 11l57 88l56 -88q8 -11 19 -11q10 0 17.5 7t7.5 16q0 7 -4 13l-69 106l65 101q5 6 5 13q0 9 -7.5 16t-17.5 7q-11 0 -19 -11l-53 -83l-53 83q-8 11 -20 11z M369.5 740q-71.5 0 -122 -50t-50.5 -122v-149q0 -71 55 -121.5t126 -50.5q83 0 133 53l10 13q8 11 8 23q0 16 -13 28t-28 12q-20 0 -33 -18q-29 -31 -77 -31q-40 0 -70.5 28t-30.5 64v53h225q16 0 28 12t12 28v56q0 72 -50.5 122t-122 50zM369.5 660q38.5 0 65.5 -27t27 -65 v-16h-185v16q0 38 27 65t65.5 27z" />
<glyph unicode="n" d="M521 808q-20 0 -29 -16q-290 -503 -291 -503q-6 -11 -3 -24.5t14 -20.5q12 -7 26 -3.5t21 15.5q290 502 290 503q7 11 3.5 24t-14.5 21q-7 5 -17 4zM581 751l-131 -227l216 -125q6 -4 11.5 0t4.5 10l-19 144l133 54q6 3 6.5 9.5t-4.5 9.5z" />
<glyph unicode="o" d="M222 721q-13 0 -23.5 -9.5t-10.5 -23.5q0 -9 6 -18l91 -142l-96 -150q-6 -8 -6 -18q0 -14 10.5 -23.5t24.5 -9.5q16 0 27 16l80 124l80 -124q10 -16 26 -16q14 0 24.5 9.5t10.5 23.5q0 10 -6 18l-96 150l91 142q6 9 6 18q0 14 -10.5 23.5t-24.5 9.5q-16 0 -26 -16 l-75 -117l-76 117q-10 16 -27 16zM507 626q-15 0 -23.5 -9.5t-8.5 -22.5t8.5 -22.5t23.5 -9.5h278q15 0 23.5 9.5t8.5 22.5t-8.5 22.5t-23.5 9.5h-278zM507 486q-15 0 -23.5 -9.5t-8.5 -22.5t8.5 -22.5t23.5 -9.5h278q15 0 23.5 9.5t8.5 22.5t-8.5 22.5t-23.5 9.5h-278z" />
<glyph unicode="p" d="M398 838q-13 0 -22 -10q-7 -9 -5.5 -20.5t10.5 -18.5q41 -34 82 -76q-93 -110 -93 -189t93 -189q-41 -42 -82 -76q-9 -7 -10.5 -18.5t5.5 -20.5q9 -10 22 -10q9 0 17 6q41 33 85 79q44 -45 85 -79q8 -6 17 -6q14 0 22 10q7 9 5.5 20.5t-10.5 18.5q-41 34 -82 76 q93 110 93 189t-93 189q41 42 82 76q9 7 10.5 18.5t-5.5 20.5q-9 10 -22 10q-9 0 -17 -6q-41 -33 -85 -79q-45 46 -85 79q-8 6 -17 6zM500 672q75 -90 75 -148t-75 -148q-75 90 -75 148t75 148z" />
<glyph unicode="q" d="M254 751q-13 0 -20 -8t-7 -19q0 -23 23 -27q34 -6 55 -26t36 -52q-18 10 -41 10q-49 0 -83 -34t-34 -82v-100q0 -48 34 -82t82.5 -34t82.5 34t34 82v100q0 56 -14.5 103t-51.5 84.5t-92 50.5h-2.5h-1.5zM507 625q-15 0 -23 -9t-8 -22t8 -22.5t23 -9.5h278q15 0 23.5 9.5 t8.5 22.5t-8.5 22t-23.5 9h-278zM300 575q26 0 44 -18t18 -44v-100q0 -26 -18 -44t-44 -18t-44.5 18t-18.5 44v100q0 26 18.5 44t44.5 18zM507 486q-15 0 -23 -9.5t-8 -22.5t8 -22.5t23 -9.5h278q15 0 23.5 9.5t8.5 22.5t-8.5 22.5t-23.5 9.5h-278z" />
<glyph unicode="r" d="M439 827q-17 0 -26.5 -11t-9.5 -26q0 -13 8 -23t23 -13q46 -7 73.5 -33.5t47.5 -70.5q-24 14 -55 14q-64 0 -109.5 -45t-45.5 -110v-133q0 -64 45.5 -109.5t109.5 -45.5t109.5 45.5t45.5 109.5v133q0 55 -11.5 104.5t-35.5 93.5t-66 75.5t-98 43.5q-1 0 -2.5 0.5 t-2.5 0.5zM500 592q35 0 59 -24t24 -59v-133q0 -35 -24 -59t-59 -24t-59 24t-24 59v133q0 35 24 59t59 24z" />
<glyph unicode="s" d="M197 700v-88h71q22 -19 68 -84q63 -91 102 -123h-64q-8 12 -22 12q-11 0 -19 -8t-8 -19t8 -18.5t19 -7.5q14 0 22 12h111q8 -3 11 -5v-23h88v22q7 2 15 6h121q8 -12 22 -12q11 0 19 7.5t8 18.5t-8 19t-19 8q-14 0 -22 -12h-78q33 33 72 119q16 39 26 54h63v88h-88v-33 h-63q-8 12 -22 12q-11 0 -19 -7.5t-8 -18.5t8 -19t19 -8q14 0 22 12h40q-11 -17 -29 -58q-14 -32 -22 -48.5t-24 -37.5t-33 -31v6h-88v-4q-20 11 -42.5 34.5t-36 41.5t-36.5 52q-42 59 -63 82h56q8 -12 22 -12q11 0 18.5 7.5t7.5 18.5t-7.5 19t-18.5 8q-14 0 -22 -12h-89v30 h-88zM226 671h29v-29h-29v29zM744 636h30v-29h-30v29zM526 406h29v-29h-29v29z" />
<glyph unicode="t" d="M624 827q-9 0 -16 -5.5t-8 -13.5l-111 -496l-153 256q-6 10 -18 11.5t-21 -7.5l-62 -61q-7 -8 -7 -18t7 -17.5t17.5 -7.5t17.5 8l40 39l169 -282q7 -12 21 -12h4q17 3 20 19l120 537h103q11 0 18 7.5t7 17.5t-7 17.5t-18 7.5h-123z" />
<glyph unicode="u" d="M232.5 827q-15.5 0 -27.5 -10.5t-12 -28.5v-266q0 -70 49.5 -119.5t119 -49.5t119 49.5t49.5 119.5v266q0 18 -11.5 28.5t-27.5 10.5t-27.5 -10.5t-11.5 -28.5v-266q0 -38 -26.5 -64t-64 -26t-63.5 26t-26 64v266q0 18 -12 28.5t-27.5 10.5zM708.5 497 q-40.5 0 -69.5 -28.5t-29 -69.5v-155q0 -11 7 -17t16.5 -6t16 6t6.5 17v155q0 22 15.5 37.5t37 15.5t37 -15.5t15.5 -37.5v-155q0 -11 7 -17t16 -6t16 6t7 17v155q0 41 -29 69.5t-69.5 28.5z" />
<glyph unicode="v" d="M562 746q-12 0 -20 -9.5t-8 -21t9 -20.5l151 -136h-468q-14 0 -21.5 -8.5t-7.5 -20.5t7.5 -20.5t21.5 -8.5h482l-165 -148q-9 -9 -9 -20.5t8 -21t20 -9.5t20 9l203 180q18 16 18 33t-20 35l-201 178q-8 9 -20 9z" />
<glyph unicode="w" d="M500 841q-64 0 -108.5 -45t-45.5 -108v-60h79v60q0 31 22 53t53 22t53 -22t22 -53v-60h79v60q0 63 -45 108t-109 45zM318 592q-19 0 -33 -14t-14 -33v-292q0 -19 14 -32.5t33 -13.5h364q19 0 33 13.5t14 32.5v292q0 19 -14 33t-33 14h-364zM500 503q16 0 27.5 -10 t11.5 -25v-112q0 -14 -11.5 -24.5t-27.5 -10.5t-27.5 10.5t-11.5 24.5v112q0 15 11.5 25t27.5 10z" />
<glyph unicode="x" d="M344 821l-114 -127l166 -36l-17 53q94 16 177 -34t112 -142q26 -81 -1 -162l-52 24l17 -170l138 100l-55 25q35 99 3 199q-36 113 -138 172.5t-217 38.5z" />
<glyph unicode="y" d="M502 820q-122 0 -208 -86.5t-86 -208.5t86 -208.5t208 -86.5t208.5 86.5t86.5 208.5t-86.5 208.5t-208.5 86.5zM502.5 783q52.5 0 100.5 -20l-29 -68q-72 30 -143 0l-29 68q48 20 100.5 20zM502 672q61 0 104.5 -43t43.5 -104t-43.5 -104t-104.5 -43t-104 43t-43 104 t43 104t104 43zM265 625l68 -28q-15 -35 -15 -72t15 -72l-68 -28q-21 47 -21 100t21 100zM740 625q20 -47 20 -100t-20 -100l-68 28q14 34 14 72t-14 72zM431 355q71 -30 143 0l29 -67q-48 -21 -100.5 -21t-100.5 21z" />
<glyph unicode="z" d="M686.5 819q-13.5 0 -23.5 -10l-40 -41q27 -19 47 -46l39 40q10 10 10 23.5t-9.5 23.5t-23 10zM315.5 819q-13.5 0 -23 -10t-9.5 -23.5t9 -23.5l39 -40q21 27 48 46l-41 41q-9 10 -22.5 10zM501 772q-76 0 -130 -55t-54 -133q0 -88 69 -146q23 -20 25 -54q-8 -5 -8 -14 v-70q0 -12 10 -20q21 -16 49 -42q9 -9 21 -9h33q12 0 21 9q30 26 52 43q9 7 9 19v70q0 9 -8 14q2 34 26 54q69 59 69 146q0 78 -54 133t-130 55zM514 692l-15 -102l79 6l-94 -159l15 104l-72 -6zM239 629q-14 0 -23.5 -9.5t-9.5 -23.5t9.5 -23.5t23.5 -9.5h46q-1 12 -1 21 q0 23 4 45h-49zM713 629q5 -22 5 -45q0 -9 -2 -21h47q13 0 22.5 9.5t9.5 23.5t-9.5 23.5t-22.5 9.5h-50zM679 460q-18 -28 -42 -48l-0.5 -0.5l-0.5 -0.5l27 -28q10 -10 23.5 -10t23 10t9.5 23.5t-10 23.5zM322 460l-30 -30q-9 -10 -9 -23.5t9.5 -23.5t23 -10t22.5 10l28 28 l-0.5 0.5l-0.5 0.5q-24 20 -43 48z" />
<glyph unicode="&#xe000;" horiz-adv-x="820" d="M0 820h820v-820h-820v820z" />
</font>
</defs>
</svg>
