<?xml version="1.0" standalone="no"?>
<!DOCTYPE svg PUBLIC "-//W3C//DTD SVG 1.1//EN" "http://www.w3.org/Graphics/SVG/1.1/DTD/svg11.dtd" >
<svg xmlns="http://www.w3.org/2000/svg">
<metadata></metadata>
<defs>
<font id="geoslb712_md_btmedium_italic" horiz-adv-x="1020" >
<font-face units-per-em="2048" ascent="1638" descent="-410" />
<missing-glyph horiz-adv-x="510" />
<glyph horiz-adv-x="2048" />
<glyph horiz-adv-x="2048" />
<glyph unicode="&#xd;" horiz-adv-x="510" />
<glyph unicode=" "  horiz-adv-x="510" />
<glyph unicode="&#x09;" horiz-adv-x="510" />
<glyph unicode="&#xa0;" horiz-adv-x="510" />
<glyph unicode="!" horiz-adv-x="569" d="M2 0l64 260h243l-63 -260h-244zM166 385l84 610l94 426h209l-90 -403l-187 -633h-110z" />
<glyph unicode="&#x22;" horiz-adv-x="614" d="M90 881v555h139v-555h-139zM385 881v555h139v-555h-139z" />
<glyph unicode="#" horiz-adv-x="1575" d="M88 449l53 147h310l92 262h-330l51 146h332l162 454h166l-162 -454h256l164 454h164l-160 -454h301l-51 -146h-303l-93 -262h322l-51 -147h-322l-162 -453h-165l161 453h-258l-162 -453h-165l159 453h-309zM616 594h261l92 264h-260z" />
<glyph unicode="$" d="M-55 14l94 385h168l-37 -145q55 -35 102 -56t95 -32l90 500l-64 51q-60 49 -100.5 91.5t-64.5 80.5q-46 77 -46 164q0 94 47.5 178t130.5 139q47 29 104.5 45.5t117.5 16.5h12l33 176h104l-33 -189q54 -17 100 -39q21 -9 43 -21t42 -26l18 76h166l-94 -387h-166l35 143 q-39 33 -79 54t-93 38l-82 -456q177 -145 228.5 -224t51.5 -174q0 -179 -118.5 -297t-300.5 -118h-9l-34 -197h-107l39 209q-41 8 -88.5 28.5t-120.5 61.5l-16 -76h-168zM375 1069q0 -49 28.5 -94.5t92.5 -95.5l69 392q-84 0 -137 -57t-53 -145zM471 152q44 0 81.5 17.5 t66.5 49.5q57 60 57 154q0 59 -30 111t-97 106z" />
<glyph unicode="%" horiz-adv-x="1626" d="M115 893q0 233 108 395t262 162q105 0 164.5 -76t59.5 -213q0 -228 -107.5 -390.5t-257.5 -162.5q-103 0 -166 78t-63 207zM254 909q0 -85 29 -131.5t82 -46.5q76 0 140 132.5t64 303.5q0 75 -29 119.5t-77 44.5q-74 0 -141.5 -131.5t-67.5 -290.5zM285 -29l911 1475h135 l-911 -1475h-135zM907 256q0 234 108.5 395.5t262.5 161.5q104 0 163.5 -76t59.5 -213q0 -228 -107.5 -390.5t-256.5 -162.5q-106 0 -168 78t-62 207zM1044 274q0 -85 28.5 -131.5t80.5 -46.5q78 0 141.5 132.5t63.5 303.5q0 76 -29 118q-27 44 -76 44q-75 0 -142 -130 t-67 -290z" />
<glyph unicode="&#x26;" horiz-adv-x="1436" d="M33 389q0 169 98.5 292t304.5 214q-32 69 -47.5 125.5t-15.5 105.5q0 135 94.5 227.5t237.5 92.5q136 0 219.5 -73t83.5 -191q0 -109 -82.5 -200.5t-249.5 -166.5l209 -430q34 38 60 76.5t48 83.5q42 86 66 192h272l-41 -166h-116q-43 -107 -94 -190.5t-115 -151.5 l30 -63h199l-39 -166h-278l-54 109q-86 -70 -177 -105t-185 -35q-186 0 -307 119t-121 301zM244 410q0 -111 72.5 -188t179.5 -77q60 0 120 27.5t132 87.5l-234 477q-137 -63 -203.5 -143t-66.5 -184zM555 1128q0 -26 10.5 -62.5t36.5 -96.5q127 54 176 100.5t49 108.5 q0 49 -32.5 78.5t-87.5 29.5q-63 0 -108 -46q-22 -23 -33 -50t-11 -62z" />
<glyph unicode="'" horiz-adv-x="317" d="M90 881v555h139v-555h-139z" />
<glyph unicode="(" horiz-adv-x="735" d="M119 399q0 213 67.5 421.5t182.5 350.5q106 133 228 202q61 35 126.5 54t132.5 19l-31 -127q-114 -28 -200.5 -101.5t-153.5 -197.5q-78 -144 -126 -333.5t-48 -356.5q0 -151 42 -266.5t130 -198.5l-31 -129q-153 96 -236 268.5t-83 394.5z" />
<glyph unicode=")" horiz-adv-x="735" d="M-168 -264l31 127q116 30 201 102t153 197q78 144 126 334.5t48 357.5q0 150 -42 264t-130 199l31 129q152 -96 235.5 -268.5t83.5 -395.5q0 -110 -16 -210.5t-52 -209.5q-66 -210 -182 -352q-106 -132 -228 -201q-61 -35 -126.5 -54t-132.5 -19z" />
<glyph unicode="*" horiz-adv-x="920" d="M195 1147l45 139l237 -94l-16 254h147l-16 -254l237 94l45 -139l-247 -64l164 -196l-119 -86l-137 215l-136 -215l-118 86l161 196z" />
<glyph unicode="+" horiz-adv-x="1706" d="M254 541v139h528v541h142v-541h528v-139h-528v-541h-142v541h-528z" />
<glyph unicode="," horiz-adv-x="510" d="M-108 -272l25 98q69 0 113 44q41 38 62 130h-121l62 260h243l-61 -260q-30 -129 -113 -199q-42 -36 -94 -54.5t-116 -18.5z" />
<glyph unicode="-" horiz-adv-x="668" d="M4 422l39 176h502l-39 -176h-502z" />
<glyph unicode="." horiz-adv-x="510" d="M-29 0l62 260h243l-61 -260h-244z" />
<glyph unicode="/" horiz-adv-x="569" d="M-90 -190l571 1636h133l-571 -1636h-133z" />
<glyph unicode="0" d="M35 455q0 176 51 369.5t133 331t192 213t222 75.5q164 0 253 -122.5t89 -352.5q0 -205 -63 -414.5t-169 -357.5q-78 -112 -172 -168q-47 -28 -95 -42t-101 -14q-160 0 -250 127t-90 355zM223 449q0 -139 44 -214t124 -75q68 0 126.5 50t117.5 163q67 129 109 297t42 311 q0 131 -44.5 205t-125.5 74q-65 0 -123.5 -50t-115.5 -157q-69 -129 -111.5 -294.5t-42.5 -309.5z" />
<glyph unicode="1" d="M98 0l41 170h156l260 1085h-172l41 166h367l-302 -1251h150l-41 -170h-500z" />
<glyph unicode="2" d="M-31 0q20 200 112.5 351t303.5 313l122 93l35 27q249 189 249 330q0 72 -48 121t-120 49q-112 0 -192.5 -102.5t-111.5 -286.5h-184q36 256 166.5 402.5t319.5 146.5q157 0 259 -92q51 -45 77 -102t26 -128q0 -122 -62.5 -223t-256.5 -250l-127 -96 q-151 -116 -225.5 -205t-98.5 -178h420l78 317h166l-117 -487h-791z" />
<glyph unicode="3" d="M-14 436l1 31l1 20h188l-1 -19l-1 -19q0 -140 63 -216.5t181 -76.5q116 0 198 85t82 205q0 109 -83 165q-44 30 -105.5 46.5t-144.5 16.5l38 162h33q165 0 268 79t103 203q0 76 -52.5 122t-140.5 46q-98 0 -166 -63t-100 -183h-184q45 199 160.5 303.5t285.5 104.5 q172 0 279.5 -95t107.5 -245q0 -129 -79 -229t-220 -142q93 -47 141 -121t48 -172q0 -193 -138.5 -333t-336.5 -140q-197 0 -311.5 124.5t-114.5 340.5z" />
<glyph unicode="4" d="M-10 573l827 873h166l-227 -911h205l-33 -144h-207l-55 -221h131l-41 -170h-453l41 170h141l54 221h-490zM147 535h428l173 657z" />
<glyph unicode="5" d="M-2 401l1 36q0 16 2 24h175v-39q0 -137 51.5 -208t151.5 -71q120 0 219.5 127.5t99.5 276.5q0 98 -53 158.5t-139 60.5q-56 0 -108 -25.5t-105 -78.5l-123 106l172 653h713l-97 -366h-165l51 200h-379l-98 -383q26 12 50 21.5t48 16.5q42 12 78 12q146 0 244 -109 t98 -276q0 -95 -35.5 -191t-101.5 -178q-78 -97 -172.5 -147t-200.5 -50q-174 0 -275.5 115t-101.5 315z" />
<glyph unicode="6" d="M57 449q0 74 12.5 162t41 205.5t71.5 218.5q22 54 44 96t50 81q80 113 180.5 174.5t209.5 61.5q150 0 244 -104.5t94 -274.5l-1 -27q0 -10 -2 -16h-178l1 16l1 17q0 102 -43.5 156.5t-124.5 54.5q-107 0 -197 -116.5t-153 -338.5q58 41 110.5 60.5t106.5 19.5 q149 0 253 -117t104 -291q0 -213 -136 -364.5t-323 -151.5q-170 0 -267.5 126.5t-97.5 351.5zM244 420q0 -126 51.5 -198t142.5 -72q106 0 183 96t77 231q0 107 -60.5 174.5t-156.5 67.5q-25 0 -50 -6t-53 -20q-54 -25 -114 -79l-16 -115z" />
<glyph unicode="7" d="M78 0l41 170h157q29 124 79.5 250t126.5 264q149 270 388 571h-518l-43 -182h-166l84 348h879l-29 -143q-238 -290 -392 -570q-149 -273 -214 -538h147l-40 -170h-500z" />
<glyph unicode="8" d="M6 326q0 144 86.5 261.5t239.5 174.5q-72 51 -108 118t-36 154q0 170 121 291t293 121q162 0 271.5 -95t109.5 -235q0 -134 -72.5 -240.5t-199.5 -156.5q80 -59 117.5 -131.5t37.5 -163.5q0 -185 -136.5 -319t-328.5 -134q-169 0 -282 102.5t-113 252.5zM199 334 q0 -92 54 -148.5t146 -56.5q112 0 195.5 94t83.5 219q0 97 -54 154t-147 57q-114 0 -196 -94t-82 -225zM367 1010q0 -85 48.5 -138t125.5 -53q102 0 179 84t77 197q0 82 -50.5 136t-128.5 54q-99 0 -175 -85t-76 -195z" />
<glyph unicode="9" d="M6 348v28q0 11 2 17h178l-1 -16l-1 -17q0 -102 44 -156t124 -54q108 0 197.5 116t152.5 338q-55 -40 -110 -61q-27 -9 -53.5 -14t-55.5 -5q-150 0 -253 116q-51 59 -77 131.5t-26 160.5q0 213 136.5 364.5t324.5 151.5q171 0 267.5 -126t96.5 -349q0 -35 -3 -75t-10 -89 t-15.5 -93.5t-22.5 -99.5q-32 -132 -74 -233t-94 -176q-79 -113 -179.5 -174.5t-211.5 -61.5q-150 0 -243 103t-93 274zM309 942q0 -107 60.5 -174.5t156.5 -67.5q51 0 104.5 26t114.5 79q6 32 11.5 69.5t7.5 56.5l4 66q0 128 -53 200.5t-146 72.5q-105 0 -182.5 -96.5 t-77.5 -231.5z" />
<glyph unicode=":" horiz-adv-x="557" d="M-10 0l61 260h244l-62 -260h-243zM166 739l61 260h244l-61 -260h-244z" />
<glyph unicode=";" horiz-adv-x="557" d="M-90 -272l25 98q69 0 113 42.5t65 131.5h-123l63 260h244l-64 -260q-30 -129 -112 -199q-42 -36 -94 -54.5t-117 -18.5zM166 739l61 260h244l-61 -260h-244z" />
<glyph unicode="&#x3c;" horiz-adv-x="1706" d="M264 547v129l1178 483v-153l-969 -396l969 -393v-154z" />
<glyph unicode="=" horiz-adv-x="1706" d="M254 342v139h1198v-139h-1198zM254 739v140h1198v-140h-1198z" />
<glyph unicode="&#x3e;" horiz-adv-x="1706" d="M264 63v154l971 393l-971 396v153l1178 -483v-129z" />
<glyph unicode="?" horiz-adv-x="985" d="M102 0l62 260h244l-62 -260h-244zM150 1075q45 177 153 274t266 97q159 0 261 -96t102 -246q0 -186 -142.5 -325.5t-344.5 -139.5l-78 -266h-109l80 452l55 -8l51 -2q126 0 207.5 83.5t81.5 215.5q0 66 -51.5 114t-128.5 48q-74 0 -132 -50t-99 -151h-172z" />
<glyph unicode="@" horiz-adv-x="2048" d="M106 522q0 166 51.5 312.5t151.5 269.5q146 177 352 269.5t455 92.5q161 0 309 -45t254 -127q127 -98 196 -230t69 -284q0 -175 -63.5 -314.5t-184.5 -236.5q-31 -25 -70 -46.5t-80 -36.5q-82 -29 -166 -29q-99 0 -149.5 39t-50.5 118v19q-54 -88 -128.5 -131t-172.5 -43 q-153 0 -233.5 85t-80.5 247q0 233 138 393t339 160q43 0 78.5 -9t66.5 -29q60 -36 97 -112l57 115h132l-146 -576l-6 -31l-2 -28q0 -45 25.5 -69.5t74.5 -24.5q25 0 50 6t52 20q53 27 107 76q78 73 124 185t46 235q0 259 -190.5 420t-499.5 161q-134 0 -247 -27.5 t-210 -86.5q-189 -113 -295 -299t-106 -410q0 -177 61 -307.5t193 -230.5q99 -76 236 -118t288 -42q169 0 327 48t294 142l55 -82q-145 -109 -313 -166t-351 -57q-192 0 -349.5 47t-278.5 140q-152 116 -229 274t-77 354zM725 446q0 -105 48 -162t138 -57q96 0 174 69 t105 179l59 236q-16 86 -68 135t-130 49q-138 0 -232 -130t-94 -319z" />
<glyph unicode="A" horiz-adv-x="1294" d="M-176 0l41 176h147l557 1079h-151l39 166h694l-39 -166h-125l117 -1079h127l-41 -176h-500l41 176h164l-33 328h-493l-168 -328h137l-43 -176h-471zM453 670h395l-57 600h-33z" />
<glyph unicode="B" horiz-adv-x="1204" d="M-96 0l41 176h127l260 1079h-127l39 166h411q222 0 339.5 -86t117.5 -245q0 -130 -80 -223t-217 -126q96 -46 146.5 -122.5t50.5 -176.5q0 -122 -55.5 -222t-153.5 -157q-58 -33 -150 -48t-278 -15h-471zM281 176h225q130 0 213.5 76.5t83.5 189.5q0 104 -68.5 164 t-189.5 60h-148zM438 831h168q140 0 223.5 69t83.5 181q0 85 -64 129.5t-185 44.5h-123z" />
<glyph unicode="C" horiz-adv-x="1507" d="M51 559q0 156 62 305.5t178 276.5q134 146 302.5 226.5t346.5 80.5q127 0 232.5 -38t199.5 -116l33 129h178l-98 -389h-178q-60 122 -157 182t-237 60q-130 0 -248 -60.5t-219 -179.5q-85 -104 -134 -222q-22 -56 -34 -114t-12 -116q0 -195 120.5 -314.5t318.5 -119.5 q135 0 255.5 66.5t237.5 207.5l133 -123q-138 -165 -299.5 -248.5t-345.5 -83.5q-278 0 -456.5 165t-178.5 425z" />
<glyph unicode="D" horiz-adv-x="1479" d="M-88 0l43 176h121l260 1079h-123l41 166h508q299 0 463 -158.5t164 -451.5q0 -214 -81 -384.5t-235 -279.5q-109 -77 -253 -113q-69 -16 -183 -25t-266 -9h-459zM291 176h172q97 0 174 9t141 29q126 38 213 122t136 209t49 262q0 216 -112 332t-325 116h-188z" />
<glyph unicode="E" horiz-adv-x="1249" d="M-96 0l41 176h127l260 1079h-127l39 166h1036l-100 -411h-170l59 245h-528l-99 -407h461l-39 -166h-461l-122 -506h550l68 273h170l-106 -449h-1059z" />
<glyph unicode="F" horiz-adv-x="1219" d="M-92 0l43 176h127l258 1079h-127l41 166h1012l-99 -411h-172l60 245h-504l-98 -407h438l-41 -166h-436l-123 -506h164l-41 -176h-502z" />
<glyph unicode="G" horiz-adv-x="1579" d="M51 559q0 157 59 307t169 275q131 151 290 227q81 38 165.5 57t180.5 19q142 0 262.5 -38t227.5 -118l33 135h172l-97 -389h-170q-51 115 -159 175.5t-262 60.5q-143 0 -263.5 -57.5t-218.5 -172.5q-83 -96 -128.5 -216t-45.5 -242q0 -195 118 -313.5t310 -118.5 q180 0 317 95.5t193 260.5h-286l38 166h517q-69 -332 -278.5 -518.5t-512.5 -186.5q-283 0 -457 164.5t-174 427.5z" />
<glyph unicode="H" horiz-adv-x="1436" d="M-96 0l41 176h123l258 1079h-121l39 166h458l-38 -166h-123l-99 -407h594l99 407h-123l39 166h460l-38 -166h-123l-258 -1079h120l-41 -176h-460l41 176h122l123 506h-594l-122 -506h122l-41 -176h-458z" />
<glyph unicode="I" horiz-adv-x="631" d="M-86 0l41 176h123l258 1079h-121l39 166h463l-39 -166h-123l-258 -1079h121l-41 -176h-463z" />
<glyph unicode="J" horiz-adv-x="631" d="M-329 -430l40 174q72 0 129 24t98 67q74 78 140 341l258 1079h-121l39 166h463l-39 -166h-123l-258 -1079q-81 -332 -209.5 -470t-349.5 -138l-42 1z" />
<glyph unicode="K" horiz-adv-x="1233" d="M-92 0l41 176h123l260 1079h-123l41 166h459l-41 -166h-123l-258 -1079h123l-43 -176h-459zM428 756l565 499h-123l41 166h484l-41 -166h-107l-581 -499l360 -584h117l-43 -172h-486l41 176h123z" />
<glyph unicode="L" horiz-adv-x="1151" d="M-96 0l41 176h127l260 1079h-127l39 166h493l-41 -166h-155l-260 -1079h477l98 406h170l-139 -582h-983z" />
<glyph unicode="M" horiz-adv-x="1806" d="M-96 0l41 176h123l258 1079h-121l39 166h426l129 -1059l643 1059h440l-41 -166h-121l-260 -1079h123l-43 -176h-448l41 176h122l267 1106l-774 -1282l-99 4l-149 1276l-262 -1104h120l-41 -176h-413z" />
<glyph unicode="N" horiz-adv-x="1497" d="M-96 0l41 176h123l258 1079h-121l39 166h418l354 -1134l231 968h-121l39 166h416l-41 -166h-125l-301 -1255h-227l-391 1255l-258 -1079h120l-41 -176h-413z" />
<glyph unicode="O" horiz-adv-x="1581" d="M53 555q0 160 58.5 311t167.5 275q131 149 292 227t340 78q267 0 434.5 -158.5t167.5 -410.5q0 -196 -82 -377t-233 -312q-117 -104 -260.5 -160.5t-290.5 -56.5q-260 0 -427 164.5t-167 419.5zM266 582q0 -190 114.5 -310t299.5 -120q104 0 204 41.5t189 123.5 q108 102 169 241.5t61 293.5q0 179 -118 295.5t-302 116.5q-122 0 -231.5 -56.5t-207.5 -169.5q-86 -101 -132 -218t-46 -238z" />
<glyph unicode="P" horiz-adv-x="1159" d="M-96 0l41 176h127l260 1079h-127l39 166h411q243 0 369.5 -104t126.5 -301q0 -61 -10 -110t-34 -99q-42 -93 -128 -160q-75 -58 -174.5 -84t-292.5 -26h-147l-84 -361h155l-43 -176h-489zM406 702h169q178 0 273.5 85.5t95.5 240.5q0 114 -70 170.5t-210 56.5h-123z" />
<glyph unicode="Q" horiz-adv-x="1581" d="M53 557q0 156 58.5 308t167.5 276q131 150 293.5 228.5t336.5 78.5q268 0 436 -159t168 -412q0 -313 -195 -562.5t-495 -314.5q97 -40 188 -61t169 -21l27 1l46 3l-106 -178h-21q-79 0 -140 11q-33 5 -60 12t-54 20l-90 40q-173 79 -252 79q-53 0 -98 -17.5t-100 -56.5 l-66 94q31 26 73.5 47.5t96.5 38.5q-174 48 -278.5 196t-104.5 349zM266 582q0 -190 114.5 -310t299.5 -120q104 0 204 41.5t189 123.5q108 102 169 241.5t61 293.5q0 179 -118 295.5t-302 116.5q-122 0 -231.5 -56.5t-207.5 -169.5q-86 -101 -132 -218t-46 -238z" />
<glyph unicode="R" horiz-adv-x="1237" d="M-100 0l43 176h127l258 1079h-127l41 166h446q242 0 357.5 -80.5t115.5 -250.5q0 -161 -98 -268t-266 -128l106 -518h158l-41 -176h-289l-137 688h-195l-120 -512h127l-41 -176h-465zM440 854h209q149 0 227 59t78 170q0 93 -67.5 133.5t-224.5 40.5h-123z" />
<glyph unicode="S" horiz-adv-x="1118" d="M-43 0l94 393h172l-35 -137q81 -53 156 -83q72 -26 135 -26q100 0 163 60t63 158q0 62 -32 114t-134 131l-125 101q-123 96 -169 175.5t-46 172.5q0 161 119 274t292 113q83 0 160 -24.5t158 -75.5l18 75h172l-94 -393h-172l33 137q-70 54 -139 83q-35 14 -66.5 21 t-67.5 7q-89 0 -147.5 -56t-58.5 -141q0 -54 26 -96.5t125 -120.5l123 -96q132 -105 181.5 -189t49.5 -186q0 -181 -124 -300.5t-314 -119.5q-41 0 -80 6t-80 20q-81 24 -168 79l-18 -76h-170z" />
<glyph unicode="T" horiz-adv-x="1305" d="M96 891l127 530h1166l-127 -530h-170l86 364h-301l-261 -1079h123l-43 -176h-463l41 176h123l258 1079h-301l-88 -364h-170z" />
<glyph unicode="U" horiz-adv-x="1389" d="M135 354q0 36 6.5 80t24.5 115l168 706h-123l41 166h459l-41 -166h-121l-172 -716l-25 -117q-6 -38 -6 -70q0 -94 63 -147t173 -53q151 0 236 86.5t147 328.5l170 688h-123l39 166h415l-39 -166h-124l-164 -696q-27 -117 -56.5 -201t-64.5 -143q-68 -113 -188.5 -178.5 t-262.5 -65.5q-194 0 -313 105.5t-119 277.5z" />
<glyph unicode="V" horiz-adv-x="1276" d="M74 1255l41 166h458l-41 -166h-120l39 -999l675 999h-192l39 166h510l-39 -166h-123l-881 -1255h-194l-53 1255h-119z" />
<glyph unicode="W" horiz-adv-x="1866" d="M90 1255l39 166h428l-39 -166h-108l14 -958l537 958h-181l41 166h537l-41 -166h-121l18 -958l531 958h-162l41 166h438l-39 -166h-114l-711 -1255h-180l-21 1055l-587 -1055h-177l-32 1255h-111z" />
<glyph unicode="X" horiz-adv-x="1126" d="M-236 0l43 176h125l523 547l-197 532h-121l39 166h459l-39 -166h-123l135 -368l350 368h-127l41 166h443l-39 -166h-100l-506 -532l204 -547h121l-41 -176h-460l41 176h122l-143 385l-367 -385h119l-43 -176h-459z" />
<glyph unicode="Y" horiz-adv-x="1110" d="M25 1255l38 166h459l-39 -166h-100l156 -440l407 440h-166l39 166h500l-41 -166h-121l-559 -602l-115 -477h123l-41 -176h-465l43 176h121l115 475l-217 604h-137z" />
<glyph unicode="Z" horiz-adv-x="1171" d="M-119 0l43 180l969 1077h-492l-63 -256h-180l106 422h940l-41 -166l-968 -1077h557l69 283h180l-116 -463h-1004z" />
<glyph unicode="[" horiz-adv-x="739" d="M-41 -319l418 1740h489l-35 -133h-301l-354 -1474h328l-33 -133h-512z" />
<glyph unicode="\" horiz-adv-x="569" d="M131 1446h127l152 -1636h-127z" />
<glyph unicode="]" horiz-adv-x="739" d="M-199 -319l33 133h303l355 1474h-328l33 133h512l-418 -1740h-490z" />
<glyph unicode="^" horiz-adv-x="2048" d="M420 901l510 557h186l510 -557h-180l-422 420l-424 -420h-180z" />
<glyph unicode="_" horiz-adv-x="1024" d="M0 -340h1024v-143h-1024v143z" />
<glyph unicode="`" horiz-adv-x="1024" d="M322 1485h200l211 -350h-110z" />
<glyph unicode="a" horiz-adv-x="1065" d="M-31 279q0 146 120.5 247t299.5 101q65 0 139.5 -18.5t153.5 -55.5l25 100l9 45l3 37q0 62 -44 99.5t-116 37.5q-63 0 -124.5 -35t-127.5 -112l-162 82q71 107 182 163t253 56q150 0 237 -68q44 -33 66 -78t22 -104q0 -13 -1 -27.5t-4 -30.5q-2 -21 -4 -32t-9 -34 l-117 -482h137l-41 -170h-317l22 92q-70 -57 -140.5 -83.5t-147.5 -26.5q-136 0 -225 84.5t-89 212.5zM162 287q0 -64 48 -102t128 -38q58 0 125.5 32t154.5 100l33 133q-82 33 -139 48t-109 15q-102 0 -171.5 -54t-69.5 -134z" />
<glyph unicode="b" horiz-adv-x="1229" d="M-129 0l41 170h121l262 1085h-123l39 166h303l-127 -534q36 34 75 61t77 44q79 34 161 34q174 0 290 -124.5t116 -315.5q0 -109 -39 -214t-115 -196q-81 -95 -190.5 -150t-214.5 -55q-104 0 -185.5 50.5t-144.5 154.5l-43 -176h-303zM305 424q0 -122 69.5 -201.5 t174.5 -79.5q142 0 252 132.5t110 302.5q0 61 -16.5 109.5t-51.5 89.5q-67 79 -169 79q-144 0 -256.5 -131.5t-112.5 -300.5z" />
<glyph unicode="c" horiz-adv-x="1042" d="M2 399q0 116 45 229t128 202t193 142.5t210 53.5q37 0 70 -6t66.5 -19.5t63 -32.5t60.5 -48l20 79h156l-74 -303h-156q-27 77 -82 118.5t-129 41.5q-144 0 -263.5 -135.5t-119.5 -304.5q0 -120 73 -196.5t183 -76.5q75 0 146.5 41.5t142.5 126.5l133 -108 q-92 -116 -203 -174t-243 -58q-188 0 -304 118t-116 310z" />
<glyph unicode="d" horiz-adv-x="1237" d="M6 408q0 109 39 216.5t115 196.5q81 98 181.5 150.5t207.5 52.5q108 0 195 -52t151 -155l106 438h-122l39 166h305l-301 -1251h137l-41 -170h-313l32 135q-70 -82 -151.5 -123t-173.5 -41q-177 0 -291.5 122t-114.5 315zM199 414q0 -61 16.5 -109.5t51.5 -89.5 q68 -78 171 -78q144 0 256.5 132t112.5 300q0 126 -71.5 204.5t-184.5 78.5q-135 0 -243.5 -134.5t-108.5 -303.5z" />
<glyph unicode="e" horiz-adv-x="1159" d="M4 399q0 116 45 229t129 203q88 94 197.5 144.5t226.5 50.5q199 0 309.5 -124t110.5 -351l-2 -32v-34q-3 -18 -4 -28h-821l-2 -16v-23q0 -123 72.5 -199t193.5 -76q82 0 159 37t138 105l170 -80q-90 -114 -216.5 -174t-275.5 -60q-196 0 -313 116.5t-117 311.5zM233 598 h596v4q0 115 -68 183.5t-183 68.5q-110 0 -197 -64t-148 -192z" />
<glyph unicode="f" horiz-adv-x="584" d="M-102 0l39 170h120l160 664h-158l41 165h158l29 117q42 177 117.5 253.5t203.5 76.5q27 0 49 -3t48 -11q48 -12 98 -41l-66 -136q-35 16 -63 24.5t-49 8.5q-57 0 -92 -36q-32 -35 -66 -160l-25 -93h148l-39 -165h-148l-159 -664h141l-41 -170h-446z" />
<glyph unicode="g" horiz-adv-x="1237" d="M-88 -178l104 143q78 -69 168 -106t181 -37q139 0 234.5 75.5t125.5 208.5q-67 -34 -132.5 -51.5t-125.5 -17.5q-189 0 -316.5 123t-127.5 307q0 225 153 390t363 165q115 0 203 -50.5t153 -154.5l45 182h320l-41 -170h-138l-159 -667q-68 -277 -200.5 -397.5 t-361.5 -120.5q-124 0 -232 42.5t-216 135.5zM215 489q0 -125 76.5 -199.5t206.5 -74.5q140 0 231.5 99t91.5 251q0 124 -80 204.5t-200 80.5q-131 0 -228.5 -105.5t-97.5 -255.5z" />
<glyph unicode="h" horiz-adv-x="1108" d="M-125 0l41 170h123l258 1085h-123l39 166h303l-121 -518q86 60 157.5 90.5t137.5 30.5q115 0 183.5 -66t68.5 -178q0 -14 -1 -29.5t-4 -31.5q-3 -33 -13 -67l-117 -482h137l-41 -170h-317l155 653l15 66l4 33q0 54 -32 86q-30 32 -85 32q-47 0 -115.5 -38.5 t-181.5 -129.5l-127 -532h137l-41 -170h-440z" />
<glyph unicode="i" horiz-adv-x="541" d="M-106 0l40 170h123l160 664h-123l39 165h309l-200 -829h137l-41 -170h-444zM285 1325q0 51 33.5 86t84.5 35t86 -35t35 -86t-35 -86t-86 -35q-49 0 -84 35q-34 37 -34 86z" />
<glyph unicode="j" horiz-adv-x="555" d="M-272 -346l41 170l34 -4l31 -2q82 0 125 46.5t82 196.5l186 773h-123l41 165h308l-199 -829l-11 -45q-55 -228 -102 -320q-37 -71 -115.5 -115t-170.5 -44h-21h-18q-13 2 -20 2zM295 1325q0 51 35 86t86 35q50 0 85.5 -35t35.5 -86q0 -50 -35.5 -85.5t-85.5 -35.5 t-85.5 36t-35.5 85z" />
<glyph unicode="k" horiz-adv-x="1108" d="M-125 0l41 170h123l258 1085h-123l39 166h303l-297 -1251h137l-41 -170h-440zM307 537l426 297h-135l41 165h500l-39 -165h-121l-451 -320l222 -344h194l-41 -170h-250z" />
<glyph unicode="l" horiz-adv-x="537" d="M-113 0l41 170h123l260 1085h-123l39 166h310l-299 -1251h135l-41 -170h-445z" />
<glyph unicode="m" horiz-adv-x="1681" d="M-115 0l41 170h127l160 664h-127l39 165h295l-31 -122q89 77 161 112t142 35q90 0 150 -42.5t86 -123.5q104 89 182.5 127.5t155.5 38.5q114 0 178.5 -67t64.5 -187q0 -18 -2 -31t-4 -32t-12 -56l-115 -481h137l-40 -170h-314l156 654l10 49l4 40q0 60 -30.5 93.5 t-81.5 33.5q-46 0 -111 -37.5t-176 -130.5l-127 -532h137l-41 -170h-313l155 653l11 50l4 40q0 60 -30.5 93.5t-82.5 33.5q-22 0 -49 -9.5t-60 -28.5q-65 -36 -178 -130l-127 -532h138l-41 -170h-441z" />
<glyph unicode="n" horiz-adv-x="1120" d="M-115 0l41 170h123l160 664h-123l39 165h295l-31 -122q87 76 161.5 111.5t147.5 35.5q117 0 185.5 -66.5t68.5 -177.5q0 -14 -1 -29.5t-4 -31.5q-3 -33 -13 -68l-115 -481h135l-39 -170h-319l158 653l12 58l4 41q0 54 -32 86q-30 32 -87 32q-48 0 -111 -35t-184 -133 l-127 -532h138l-41 -170h-441z" />
<glyph unicode="o" horiz-adv-x="1149" d="M-4 399q0 118 44.5 230.5t129 204t197 142t235.5 50.5q197 0 315.5 -117.5t118.5 -314.5q0 -132 -55.5 -254t-159.5 -217q-81 -75 -183 -113.5t-214 -38.5q-192 0 -310 117t-118 311zM186 416q0 -122 72 -197.5t193 -75.5q157 0 276 131t119 304q0 125 -74 200 q-37 38 -84.5 57t-109.5 19q-156 0 -274 -133t-118 -305z" />
<glyph unicode="p" horiz-adv-x="1237" d="M-199 -332l41 170h121l242 996h-121l39 165h297l-31 -122q74 74 156.5 111.5t171.5 37.5q171 0 283 -126t112 -325q0 -111 -39.5 -217t-109.5 -188q-77 -90 -186.5 -144.5t-215.5 -54.5q-104 0 -187.5 50.5t-148.5 154.5l-80 -338h138l-41 -170h-441zM313 424 q0 -122 69.5 -201.5t174.5 -79.5q141 0 253 132t112 303q0 61 -16.5 109.5t-51.5 89.5q-68 79 -170 79q-145 0 -258 -131t-113 -301z" />
<glyph unicode="q" horiz-adv-x="1237" d="M6 408q0 108 39.5 215t114.5 198q81 98 181.5 150.5t207.5 52.5q108 0 195 -52t151 -155l45 182h320l-41 -170h-138l-237 -991h135l-39 -170h-440l41 170h121l63 268q-72 -69 -151.5 -104t-161.5 -35q-175 0 -290.5 125.5t-115.5 315.5zM199 414q0 -61 16.5 -109.5 t51.5 -89.5q68 -78 171 -78q144 0 256.5 132t112.5 300q0 126 -71.5 204.5t-184.5 78.5q-135 0 -243.5 -134.5t-108.5 -303.5z" />
<glyph unicode="r" horiz-adv-x="862" d="M-106 0l40 170h123l160 664h-123l39 165h309l-49 -198q85 116 188 169.5t246 53.5l38 -1l23 -1l-50 -193h-7q-235 0 -358.5 -107t-189.5 -380l-41 -172h180l-41 -170h-487z" />
<glyph unicode="s" horiz-adv-x="977" d="M-49 0l72 295h155q25 -70 84 -105.5t150 -35.5q76 0 121 31t45 81q0 42 -34 74t-134 78l-76 35q-127 57 -183.5 124.5t-56.5 157.5q0 125 94.5 209t237.5 84q84 0 156 -23t143 -71l16 65h156l-66 -274h-157q-18 62 -82 100.5t-150 38.5q-72 0 -116.5 -30t-44.5 -78 q0 -71 177 -151l19 -9l58 -27q126 -58 178.5 -122.5t52.5 -157.5q0 -135 -101 -225.5t-253 -90.5q-39 0 -73.5 6t-72.5 20q-70 24 -141 79l-16 -78h-158z" />
<glyph unicode="t" horiz-adv-x="635" d="M68 199q0 34 6 75t12 72q3 14 12 49l107 439h-109l39 165h109l45 189l229 184l-88 -373h158l-39 -165h-160l-121 -497l-11 -57l-3 -44q0 -48 22 -73.5t64 -25.5q30 0 66 12.5t86 40.5l-39 -163q-45 -25 -92 -41q-47 -13 -87 -13q-96 0 -151 59.5t-55 166.5z" />
<glyph unicode="u" horiz-adv-x="1120" d="M57 834l39 165h320l-158 -651l-12 -58l-4 -40q0 -56 32 -88.5t86 -32.5q47 0 110.5 35t184.5 133l129 537h-137l39 165h320l-201 -833h121l-39 -166h-293l29 119q-97 -77 -169 -110.5t-141 -33.5q-114 0 -184 66t-70 178q0 14 1 29.5t4 35.5t5.5 32.5t8.5 34.5l115 483 h-136z" />
<glyph unicode="v" horiz-adv-x="1014" d="M-6 834l41 165h401l-39 -165h-102l45 -619l414 619h-148l41 165h393l-32 -165h-80l-574 -834h-164l-75 834h-121z" />
<glyph unicode="w" horiz-adv-x="1579" d="M20 834l39 165h394l-41 -165h-103l23 -617l370 617h-151l39 165h473l-41 -165h-100l20 -617l367 617h-148l39 165h395l-32 -165h-86l-516 -834h-177l-24 690l-414 -690h-172l-43 834h-111z" />
<glyph unicode="x" horiz-adv-x="1034" d="M-172 0l41 170h111l391 348l-174 316h-101l41 165h375l-39 -165h-82l111 -199l221 199h-107l39 165h412l-39 -165h-96l-365 -324l193 -340h84l-41 -170h-387l41 170h106l-125 227l-258 -227h133l-41 -170h-444z" />
<glyph unicode="y" horiz-adv-x="1014" d="M-176 -332l41 170h194l129 185l-75 811h-119l41 165h401l-39 -165h-102l43 -590l403 590h-135l41 165h393l-32 -165h-80l-801 -1166h-303z" />
<glyph unicode="z" horiz-adv-x="1004" d="M-68 0l41 170l678 664h-327l-48 -193h-155l86 358h723l-41 -165l-662 -664h361l49 205h158l-90 -375h-773z" />
<glyph unicode="{" horiz-adv-x="1024" d="M168 457v149l23 -1l22 -1q128 0 183 60t55 208v246q0 148 22 210t78 97q44 26 107.5 39t170.5 13h37v-150h-41q-119 0 -160.5 -44.5t-41.5 -184.5v-242q0 -159 -44 -226.5t-157 -99.5q112 -27 156.5 -95.5t44.5 -229.5v-242q0 -141 41.5 -185t162.5 -44h39v-148h-43 q-107 0 -168 11.5t-104 37.5q-54 33 -78 97q-22 66 -22 211v245q0 149 -55 210t-185 61l-22 -1z" />
<glyph unicode="|" horiz-adv-x="1024" d="M438 -483v2048h150v-2048h-150z" />
<glyph unicode="}" horiz-adv-x="1024" d="M160 -266h39q120 0 162 45t42 186v240q0 161 44.5 228t156.5 97q-111 30 -156 98t-45 228v242q0 139 -42 184t-162 45h-39v150h37q53 0 95 -3t76 -10q62 -12 107 -39q53 -32 76.5 -96t23.5 -211v-246q0 -146 54 -207t184 -61l22 1l23 1v-149l-22 1l-21 1 q-132 0 -186 -60.5t-54 -210.5v-245q0 -149 -22 -211.5t-78 -96.5q-41 -25 -102 -37t-170 -12h-43v148z" />
<glyph unicode="~" horiz-adv-x="1706" d="M178 451v155q106 72 202 108t185 36q33 0 62.5 -3t64.5 -11q64 -12 164 -48l47 -17q159 -57 240 -57q87 0 179.5 37t207.5 119v-156q-101 -70 -199 -107q-46 -16 -94.5 -25t-95.5 -9t-109 14t-147 44l-34 12l-15 5q-176 60 -273 60q-41 0 -85 -9t-90 -28 q-90 -36 -210 -120z" />
<glyph unicode="&#xa0;" />
<glyph unicode="&#xa1;" horiz-adv-x="569" d="M16 0l88 406l189 630h110l-84 -610l-94 -426h-209zM260 1161l62 260h243l-61 -260h-244z" />
<glyph unicode="&#xa2;" d="M10 426q0 149 69 286t193 230q76 58 155.5 84.5t172.5 26.5l28 -2l42 -4l104 235h115l-121 -270q10 -7 23.5 -17t18.5 -15l36 -30l20 80h156l-74 -303h-155q-18 44 -40 73t-55 54l-299 -672l38 -6l28 -2q65 0 135.5 42t142.5 126l134 -109q-90 -112 -206.5 -174.5 t-234.5 -62.5h-28q-15 3 -22 4l-64 10l-95 -213h-114l110 248q-104 63 -158.5 158.5t-54.5 222.5zM199 446q0 -71 25.5 -128.5t76.5 -98.5l297 668q-160 0 -279.5 -133t-119.5 -308z" />
<glyph unicode="&#xa3;" d="M-55 170q0 88 57 147.5t145 59.5q20 0 38.5 -3t38.5 -11q37 -12 77 -41l20 70q3 17 5 34t2 33l-3 81q0 21 -1 28.5t-9 58.5h-245l36 151l191 1l-16 131l-5 85q0 208 108.5 329.5t293.5 121.5q140 0 224.5 -74t84.5 -196v-28q-3 -15 -5 -30t-3.5 -24.5t-9.5 -40.5h-176 l10 59l4 49q0 63 -36.5 99t-102.5 36q-101 0 -153 -74.5t-52 -217.5q0 -40 7 -94t22 -132h272l-37 -151h-217l1 -7l7 -118q0 -66 -19 -135q-9 -36 -23 -73t-36 -81q39 -33 81 -56q39 -18 73 -18q57 0 99.5 47t78.5 154h146q-62 -191 -143 -277t-197 -86q-57 0 -114 24 t-116 75q-44 -52 -92 -78.5t-100 -26.5q-93 0 -152 56t-59 143zM86 168q0 -28 18 -47t48 -19q27 0 50.5 17.5t43.5 54.5q-27 32 -49.5 48t-44.5 16q-29 0 -47.5 -20t-18.5 -50z" />
<glyph unicode="&#xa4;" horiz-adv-x="1241" d="M80 428l207 205q-41 52 -62.5 116.5t-21.5 135.5q0 68 20.5 131t63.5 121l-207 206l82 80l205 -204q56 41 121 63.5t133 22.5q71 0 133.5 -21.5t122.5 -64.5l204 204l82 -80l-205 -206q40 -53 61 -117t21 -135q0 -75 -20 -136.5t-62 -115.5l205 -205l-82 -82l-204 205 q-57 -42 -121 -64t-133 -22q-71 0 -136 21.5t-120 64.5l-205 -205zM319 887q0 -127 89 -216t215 -89q125 0 214 90t89 215t-89 214t-214 89q-126 0 -215 -89t-89 -214z" />
<glyph unicode="&#xa5;" horiz-adv-x="1100" d="M23 629l26 108h342l-57 158h-246l25 109h182l-90 251h-139l38 166h441l-43 -166h-105l160 -456l416 456h-162l41 166h479l-39 -166h-123l-233 -251h170l-27 -109h-243l-150 -158h356l-26 -108h-412l-106 -453h120l-40 -176h-437l43 176h123l107 453h-391z" />
<glyph unicode="&#xa6;" horiz-adv-x="1024" d="M438 -350v758h150v-758h-150zM438 674v758h150v-758h-150z" />
<glyph unicode="&#xa7;" horiz-adv-x="1042" d="M25 -238l75 312h127l-49 -203h152q103 0 148.5 21.5t45.5 72.5q0 31 -23.5 89.5t-66.5 125.5l-237 383q-43 67 -63.5 128.5t-20.5 115.5q0 101 66 168t167 67q20 0 65 -9l14 -3q-3 8 -5 12q-51 98 -51 150q0 114 87.5 172.5t256.5 58.5h299l-76 -311h-127l49 203h-158 q-90 0 -138 -30.5t-48 -90.5q0 -26 15 -65q17 -40 65 -121l215 -357q43 -72 63.5 -131.5t20.5 -111.5q0 -102 -65 -169t-164 -67q-23 0 -71 7l-7 1q80 -142 80 -209q0 -108 -80 -158.5t-252 -50.5h-309zM258 807q0 -52 36.5 -128.5t127.5 -209.5q69 -104 115.5 -142 t93.5 -38t79.5 33.5t32.5 83.5q0 52 -40 137t-121 202q-65 98 -114 138.5t-97 40.5t-80.5 -34t-32.5 -83z" />
<glyph unicode="&#xa8;" horiz-adv-x="1024" d="M328 1298q0 42 32.5 74.5t73.5 32.5q44 0 76 -32q33 -30 33 -75q0 -47 -31 -78.5t-78 -31.5q-44 0 -75 32.5t-31 77.5zM696 1298q0 42 32.5 74.5t74.5 32.5q44 0 76 -32q32 -30 32 -75q0 -47 -31 -78.5t-77 -31.5q-44 0 -75.5 32.5t-31.5 77.5z" />
<glyph unicode="&#xa9;" horiz-adv-x="1706" d="M117 727q0 148 56 282.5t163 241.5q103 103 236.5 158t279.5 55q153 0 285.5 -54.5t237.5 -159t160.5 -240.5t55.5 -283q0 -150 -55 -282q-27 -66 -66.5 -124.5t-91.5 -109.5q-108 -105 -244.5 -163t-281.5 -58q-146 0 -278 55.5t-238.5 162t-163.5 239.5 q-27 67 -41 136.5t-14 143.5zM213 727q0 -126 48 -241t142 -210q90 -88 206.5 -138t244.5 -50q125 0 242.5 48.5t212.5 142.5q89 86 136.5 201.5t47.5 246.5q0 129 -47.5 246.5t-138 207t-207 138.5t-246.5 49q-131 0 -245.5 -47t-204.5 -138t-140.5 -210t-50.5 -246z M463 733q0 200 108.5 322.5t286.5 122.5q140 0 235 -75t107 -196h-147q-12 76 -65.5 118t-139.5 42q-105 0 -165 -90.5t-60 -249.5q0 -156 62 -244t173 -88q82 0 136 47t69 129h145q0 -62 -28 -115t-80 -96q-98 -81 -248 -81q-181 0 -285 120.5t-104 333.5z" />
<glyph unicode="&#xaa;" horiz-adv-x="799" d="M-23 918q0 101 90.5 172t225.5 71q23 0 48.5 -3t53.5 -9.5t56.5 -15.5t60.5 -23l18 70l7 27l2 30q0 42 -33 69t-86 27q-48 0 -94.5 -24.5t-94.5 -77.5l-122 57q54 75 135.5 114.5t189.5 39.5q111 0 178.5 -47.5t67.5 -128.5v-20q-3 -12 -4 -17l-10 -49l-88 -338h102 l-31 -119h-237l16 65q-50 -38 -103.5 -57.5t-111.5 -19.5q-101 0 -168.5 59t-67.5 148zM121 924q0 -45 36 -72t97 -27q43 0 94 22t117 71l24 94q-19 7 -50.5 16.5t-52 15t-42 8.5t-41.5 3q-78 0 -130 -37t-52 -94z" />
<glyph unicode="&#xab;" horiz-adv-x="973" d="M61 506l281 311h180l-278 -311l207 -313h-181zM399 506l281 311h180l-278 -311l209 -313h-181z" />
<glyph unicode="&#xac;" horiz-adv-x="1706" d="M254 721v139h1198v-502h-137v363h-1061z" />
<glyph unicode="&#xad;" horiz-adv-x="668" d="M4 422l39 176h502l-39 -176h-502z" />
<glyph unicode="&#xae;" horiz-adv-x="1706" d="M117 727q0 145 57 282t166 246q101 102 232 155.5t280 53.5q78 0 146.5 -13t139.5 -43q136 -56 240 -163q101 -102 158 -238q27 -67 41 -136.5t14 -143.5q0 -150 -54.5 -283.5t-161.5 -236.5t-243.5 -160t-279.5 -57q-148 0 -279.5 56t-240.5 165q-104 105 -159.5 238.5 t-55.5 277.5zM213 727q0 -124 48.5 -240.5t139 -207.5t208 -141t239.5 -50q129 0 247 48.5t212 139.5q90 87 138 201.5t48 243.5q0 135 -45.5 250.5t-137 208t-208.5 139.5q-56 23 -119.5 36t-128.5 13q-130 0 -244.5 -46.5t-201.5 -135.5q-92 -94 -143.5 -214t-51.5 -245z M557 324v835h315q175 0 262 -58t87 -171q0 -89 -49 -147t-142 -78l187 -381h-177l-170 356h-155v-356h-158zM715 780h133q113 0 162 31.5t49 101.5q0 74 -51 110q-53 34 -164 34h-129v-277z" />
<glyph unicode="&#xaf;" horiz-adv-x="1024" d="M336 1229l29 139h540l-31 -139h-538z" />
<glyph unicode="&#xb0;" horiz-adv-x="674" d="M49 1167q0 120 84.5 204.5t204.5 84.5q117 0 202 -85t85 -204q0 -117 -84.5 -201.5t-204.5 -84.5q-121 0 -204 83t-83 203zM143 1169q0 -80 57 -138t138 -58q80 0 136 57.5t56 138.5t-55 137t-137 56t-138.5 -56t-56.5 -137z" />
<glyph unicode="&#xb1;" horiz-adv-x="1706" d="M254 29v141h1198v-141h-1198zM254 713v139h528v340h142v-340h528v-139h-528v-340h-142v340h-528z" />
<glyph unicode="&#xb2;" horiz-adv-x="674" d="M-20 565q12 121 74.5 212t199.5 186l82 57l25 18q161 111 161 195q0 44 -31.5 73t-78.5 29q-74 0 -126 -60t-75 -173h-121q21 152 108 241t212 89q104 0 171.5 -54.5t67.5 -138.5q0 -74 -41 -134.5t-170 -150.5l-84 -57q-102 -72 -150 -125t-63 -104h277l51 190h109 l-76 -293h-522z" />
<glyph unicode="&#xb3;" horiz-adv-x="674" d="M-10 827l1 18l1 13h125l-1 -12l-1 -12q0 -85 41.5 -130t119.5 -45q75 0 130 51t55 124q0 63 -55 97q-28 17 -70 27.5t-96 10.5l26 98h23q108 0 175.5 48t67.5 122q0 46 -35 72q-34 28 -91 28q-67 0 -111.5 -37.5t-65.5 -109.5h-120q30 118 105 181t189 63q112 0 183 -57 t71 -146q0 -78 -51.5 -137.5t-144.5 -85.5q62 -30 93.5 -74.5t31.5 -102.5q0 -114 -92 -198t-222 -84q-129 0 -205.5 75t-76.5 203z" />
<glyph unicode="&#xb4;" horiz-adv-x="1024" d="M449 1135l231 350h190l-301 -350h-120z" />
<glyph unicode="&#xb5;" horiz-adv-x="1151" d="M-113 -428l318 1499h180l-129 -600l-11 -65l-3 -68q0 -100 51.5 -153.5t148.5 -53.5q132 0 208 92t124 312l115 536h178l-156 -732l-4 -20q-18 -87 -18 -112q0 -36 16 -53q17 -15 56 -15h18l14 2l-31 -143l-50 -7l-58 -3q-64 0 -97 28.5t-52 100.5q-45 -67 -113 -99 q-33 -16 -71.5 -24t-86.5 -8q-80 0 -141.5 27t-114.5 89l-110 -530h-181z" />
<glyph unicode="&#xb6;" horiz-adv-x="1024" d="M66 1130q0 156 107.5 252.5t285.5 96.5h499v-86h-120v-1393h-111v1393h-176v-1393h-113v782q-83 0 -150.5 26.5t-120.5 75.5q-101 95 -101 246z" />
<glyph unicode="&#xb8;" horiz-adv-x="1024" d="M25 -422l36 98l130 -34q52 -11 81 -11q72 0 105 24t33 75q0 41 -39 62q-38 18 -138 18h-24l65 190h78l-35 -102h23q105 0 159 -42t54 -124q0 -99 -64.5 -152t-185.5 -53q-53 0 -119 13q-36 6 -73.5 15t-85.5 23z" />
<glyph unicode="&#xb9;" horiz-adv-x="672" d="M66 565l26 103h105l170 651h-113l27 98h241l-198 -749h98l-27 -103h-329z" />
<glyph unicode="&#xba;" horiz-adv-x="862" d="M-4 1004q0 81 33.5 160t97 143t148.5 99.5t178 35.5q147 0 236 -83t89 -220q0 -90 -42 -177t-120 -153q-60 -51 -136 -79t-163 -28q-144 0 -232.5 83t-88.5 219zM139 1014q0 -86 54.5 -138.5t144.5 -52.5q117 0 207 90.5t90 212.5q0 88 -55 141.5t-146 53.5 q-117 0 -206 -93.5t-89 -213.5z" />
<glyph unicode="&#xbb;" horiz-adv-x="973" d="M18 193l279 313l-207 311h178l211 -311l-280 -313h-181zM358 193l277 313l-207 311h180l209 -311l-280 -313h-179z" />
<glyph unicode="&#xbc;" horiz-adv-x="1626" d="M61 623l27 94h96l164 608h-106l24 94h232l-191 -702h94l-24 -94h-316zM301 -29l887 1475h137l-887 -1475h-137zM979 322l520 487h105l-144 -510h129l-20 -80h-129l-35 -125h82l-27 -94h-284l26 94h88l35 125h-309zM1077 299h271l108 369z" />
<glyph unicode="&#xbd;" horiz-adv-x="1626" d="M61 623l27 94h96l164 608h-106l24 94h232l-191 -702h94l-24 -94h-316zM301 -29l887 1475h137l-887 -1475h-137zM967 0q11 111 68.5 194.5t191.5 176.5l78 53l26 18q152 104 152 183q0 40 -30 67t-75 27q-70 0 -119.5 -55.5t-72.5 -161.5h-115q21 141 104 224t201 83 q99 0 163.5 -51.5t64.5 -128.5q0 -70 -40 -126.5t-161 -137.5l-80 -56q-94 -65 -141 -115t-62 -100h264l50 178h104l-74 -272h-497z" />
<glyph unicode="&#xbe;" horiz-adv-x="1626" d="M-8 866v29h119v-21q0 -77 39 -120t114 -43q37 0 67 11t57 36q52 49 52 114q0 59 -52 92q-26 16 -66 25.5t-92 9.5l24 91h20q103 0 168.5 45t65.5 114q0 41 -33.5 67.5t-87.5 26.5q-61 0 -104 -35.5t-64 -103.5h-117q29 111 102 170.5t181 59.5t176 -53t68 -138 q0 -72 -50 -127.5t-139 -79.5q57 -26 88 -68t31 -96q0 -108 -88 -187t-211 -79q-122 0 -195 69t-73 191zM301 -29l887 1475h137l-887 -1475h-137zM979 322l520 487h105l-144 -510h129l-20 -80h-129l-35 -125h82l-27 -94h-284l26 94h88l35 125h-309zM1077 299h271l108 369z " />
<glyph unicode="&#xbf;" horiz-adv-x="985" d="M43 313q0 186 142.5 325.5t344.5 139.5l78 266h109l-80 -452l-55 7l-52 3q-127 0 -207.5 -83t-80.5 -214q0 -65 51.5 -114.5t128.5 -49.5q37 0 70.5 12t62.5 38q56 50 98 151h172q-45 -178 -153.5 -274.5t-265.5 -96.5q-158 0 -260.5 96t-102.5 246zM567 1157l62 260h243 l-61 -260h-244z" />
<glyph unicode="&#xc0;" horiz-adv-x="1294" d="M-176 0l41 176h147l557 1079h-151l39 166h694l-39 -166h-125l117 -1079h127l-41 -176h-500l41 176h164l-33 328h-493l-168 -328h137l-43 -176h-471zM453 670h395l-57 600h-33zM553 1907h200l211 -350h-110z" />
<glyph unicode="&#xc1;" horiz-adv-x="1294" d="M-176 0l41 176h147l557 1079h-151l39 166h694l-39 -166h-125l117 -1079h127l-41 -176h-500l41 176h164l-33 328h-493l-168 -328h137l-43 -176h-471zM453 670h395l-57 600h-33zM680 1557l231 350h190l-301 -350h-120z" />
<glyph unicode="&#xc2;" horiz-adv-x="1294" d="M-176 0l41 176h147l557 1079h-151l39 166h694l-39 -166h-125l117 -1079h127l-41 -176h-500l41 176h164l-33 328h-493l-168 -328h137l-43 -176h-471zM453 670h395l-57 600h-33zM518 1557l266 350h184l137 -350h-108l-133 219l-225 -219h-121z" />
<glyph unicode="&#xc3;" horiz-adv-x="1294" d="M-176 0l41 176h147l557 1079h-151l39 166h694l-39 -166h-125l117 -1079h127l-41 -176h-500l41 176h164l-33 328h-493l-168 -328h137l-43 -176h-471zM453 670h395l-57 600h-33zM553 1606q26 105 76 157t126 52l26 -3q16 -2 42 -10l88 -26l24 -6l23 -2q34 0 54.5 16.5 t33.5 56.5h103q-29 -104 -79.5 -153t-127.5 -49h-11q-7 0 -19 2l-28 6l-87 28l-32 8l-22 3q-33 0 -55.5 -20t-32.5 -60h-102z" />
<glyph unicode="&#xc4;" horiz-adv-x="1294" d="M-176 0l41 176h147l557 1079h-151l39 166h694l-39 -166h-125l117 -1079h127l-41 -176h-500l41 176h164l-33 328h-493l-168 -328h137l-43 -176h-471zM453 670h395l-57 600h-33zM559 1720q0 42 32.5 74.5t73.5 32.5q44 0 76 -32q33 -30 33 -75q0 -47 -31 -78.5t-78 -31.5 q-44 0 -75 32.5t-31 77.5zM927 1720q0 42 32.5 74.5t74.5 32.5q44 0 76 -32q32 -30 32 -75q0 -47 -31 -78.5t-77 -31.5q-44 0 -75.5 32.5t-31.5 77.5z" />
<glyph unicode="&#xc5;" horiz-adv-x="1294" d="M-176 0l41 176h147l557 1079h-151l39 160h694l-39 -160h-125l117 -1079h127l-41 -176h-500l41 176h164l-33 328h-493l-168 -328h137l-43 -176h-471zM453 670h395l-57 600h-33zM563 1726q0 102 72 174t174 72t174 -71.5t72 -174.5q0 -102 -71.5 -173.5t-174.5 -71.5 q-100 0 -173 72t-73 173zM678 1726q0 -50 39 -90.5t92 -40.5t92 39t39 92q0 57 -37 94.5t-94 37.5q-51 0 -91 -39t-40 -93z" />
<glyph unicode="&#xc6;" horiz-adv-x="2001" d="M-217 0l41 176h117l933 1079h-153l41 166h1276l-99 -411h-172l60 245h-504l-98 -407h438l-39 -166h-438l-123 -506h528l66 273h172l-109 -449h-1036l43 176h127l121 506h-389l-426 -506h137l-43 -176h-471zM727 848h289l98 407h-47z" />
<glyph unicode="&#xc7;" horiz-adv-x="1507" d="M51 559q0 156 62 305.5t178 276.5q134 146 302.5 226.5t346.5 80.5q127 0 232.5 -38t199.5 -116l33 129h178l-98 -389h-178q-60 122 -157 182t-237 60q-130 0 -248 -60.5t-219 -179.5q-85 -104 -134 -222q-22 -56 -34 -114t-12 -116q0 -195 120.5 -314.5t318.5 -119.5 q135 0 255.5 66.5t237.5 207.5l133 -123q-138 -165 -299.5 -248.5t-345.5 -83.5q-54 0 -105 6l-23 -67h23q105 0 159 -42t54 -124q0 -99 -64.5 -152t-185.5 -53q-53 0 -119 13q-36 6 -73.5 15t-85.5 23l36 98l130 -34q52 -11 81 -11q72 0 105 24t33 75q0 41 -39 62 q-38 18 -138 18h-24l57 168q-162 38 -279 146q-177 165 -177 425z" />
<glyph unicode="&#xc8;" horiz-adv-x="1249" d="M-96 0l41 176h127l260 1079h-127l39 166h1036l-100 -411h-170l59 245h-528l-99 -407h461l-39 -166h-461l-122 -506h550l68 273h170l-106 -449h-1059zM525 1907h200l211 -350h-110z" />
<glyph unicode="&#xc9;" horiz-adv-x="1249" d="M-96 0l41 176h127l260 1079h-127l39 166h1036l-100 -411h-170l59 245h-528l-99 -407h461l-39 -166h-461l-122 -506h550l68 273h170l-106 -449h-1059zM652 1557l231 350h190l-301 -350h-120z" />
<glyph unicode="&#xca;" horiz-adv-x="1249" d="M-96 0l41 176h127l260 1079h-127l39 166h1036l-100 -411h-170l59 245h-528l-99 -407h461l-39 -166h-461l-122 -506h550l68 273h170l-106 -449h-1059zM490 1557l266 350h184l137 -350h-108l-133 219l-225 -219h-121z" />
<glyph unicode="&#xcb;" horiz-adv-x="1249" d="M-96 0l41 176h127l260 1079h-127l39 166h1036l-100 -411h-170l59 245h-528l-99 -407h461l-39 -166h-461l-122 -506h550l68 273h170l-106 -449h-1059zM531 1720q0 42 32.5 74.5t73.5 32.5q44 0 76 -32q33 -30 33 -75q0 -47 -31 -78.5t-78 -31.5q-44 0 -75 32.5t-31 77.5z M899 1720q0 42 32.5 74.5t74.5 32.5q44 0 76 -32q32 -30 32 -75q0 -47 -31 -78.5t-77 -31.5q-44 0 -75.5 32.5t-31.5 77.5z" />
<glyph unicode="&#xcc;" horiz-adv-x="631" d="M-86 0l41 176h123l258 1079h-121l39 166h463l-39 -166h-123l-258 -1079h121l-41 -176h-463zM244 1907h200l211 -350h-110z" />
<glyph unicode="&#xcd;" horiz-adv-x="631" d="M-86 0l41 176h123l258 1079h-121l39 166h463l-39 -166h-123l-258 -1079h121l-41 -176h-463zM371 1557l231 350h190l-301 -350h-120z" />
<glyph unicode="&#xce;" horiz-adv-x="631" d="M-86 0l41 176h123l258 1079h-121l39 166h463l-39 -166h-123l-258 -1079h121l-41 -176h-463zM209 1557l266 350h184l137 -350h-108l-133 219l-225 -219h-121z" />
<glyph unicode="&#xcf;" horiz-adv-x="631" d="M-86 0l41 176h123l258 1079h-121l39 166h463l-39 -166h-123l-258 -1079h121l-41 -176h-463zM250 1720q0 42 32.5 74.5t73.5 32.5q44 0 76 -32q33 -30 33 -75q0 -47 -31 -78.5t-78 -31.5q-44 0 -75 32.5t-31 77.5zM618 1720q0 42 32.5 74.5t74.5 32.5q44 0 76 -32 q32 -30 32 -75q0 -47 -31 -78.5t-77 -31.5q-44 0 -75.5 32.5t-31.5 77.5z" />
<glyph unicode="&#xd0;" horiz-adv-x="1579" d="M51 559q0 157 59 307t169 275q131 151 290 227q81 38 165.5 57t180.5 19q142 0 262.5 -38t227.5 -118l33 135h172l-97 -389h-170q-51 115 -159 175.5t-262 60.5q-143 0 -263.5 -57.5t-218.5 -172.5q-83 -96 -128.5 -216t-45.5 -242q0 -195 118 -313.5t310 -118.5 q180 0 317 95.5t193 260.5h-286l38 166h517q-69 -332 -278.5 -518.5t-512.5 -186.5q-283 0 -457 164.5t-174 427.5zM755 1823v30l3 19h102v-14q0 -70 32 -99q34 -28 111 -28q89 0 145 33.5t87 107.5h106q-39 -140 -125.5 -211.5t-220.5 -71.5q-117 0 -178.5 60t-61.5 174z " />
<glyph unicode="&#xd1;" horiz-adv-x="1497" d="M-96 0l41 176h123l258 1079h-121l39 166h418l354 -1134l231 968h-121l39 166h416l-41 -166h-125l-301 -1255h-227l-391 1255l-258 -1079h120l-41 -176h-413zM666 1606q26 105 76 157t126 52l26 -3q16 -2 42 -10l88 -26l24 -6l23 -2q34 0 54.5 16.5t33.5 56.5h103 q-29 -104 -79.5 -153t-127.5 -49h-11q-7 0 -19 2l-28 6l-87 28l-32 8l-22 3q-33 0 -55.5 -20t-32.5 -60h-102z" />
<glyph unicode="&#xd2;" horiz-adv-x="1581" d="M53 555q0 160 58.5 311t167.5 275q131 149 292 227t340 78q267 0 434.5 -158.5t167.5 -410.5q0 -196 -82 -377t-233 -312q-117 -104 -260.5 -160.5t-290.5 -56.5q-260 0 -427 164.5t-167 419.5zM266 582q0 -190 114.5 -310t299.5 -120q104 0 204 41.5t189 123.5 q108 102 169 241.5t61 293.5q0 179 -118 295.5t-302 116.5q-122 0 -231.5 -56.5t-207.5 -169.5q-86 -101 -132 -218t-46 -238zM678 1907h200l211 -350h-110z" />
<glyph unicode="&#xd3;" horiz-adv-x="1581" d="M53 555q0 160 58.5 311t167.5 275q131 149 292 227t340 78q267 0 434.5 -158.5t167.5 -410.5q0 -196 -82 -377t-233 -312q-117 -104 -260.5 -160.5t-290.5 -56.5q-260 0 -427 164.5t-167 419.5zM266 582q0 -190 114.5 -310t299.5 -120q104 0 204 41.5t189 123.5 q108 102 169 241.5t61 293.5q0 179 -118 295.5t-302 116.5q-122 0 -231.5 -56.5t-207.5 -169.5q-86 -101 -132 -218t-46 -238zM805 1557l231 350h190l-301 -350h-120z" />
<glyph unicode="&#xd4;" horiz-adv-x="1581" d="M53 555q0 160 58.5 311t167.5 275q131 149 292 227t340 78q267 0 434.5 -158.5t167.5 -410.5q0 -196 -82 -377t-233 -312q-117 -104 -260.5 -160.5t-290.5 -56.5q-260 0 -427 164.5t-167 419.5zM266 582q0 -190 114.5 -310t299.5 -120q104 0 204 41.5t189 123.5 q108 102 169 241.5t61 293.5q0 179 -118 295.5t-302 116.5q-122 0 -231.5 -56.5t-207.5 -169.5q-86 -101 -132 -218t-46 -238zM643 1557l266 350h184l137 -350h-108l-133 219l-225 -219h-121z" />
<glyph unicode="&#xd5;" horiz-adv-x="1581" d="M53 555q0 160 58.5 311t167.5 275q131 149 292 227t340 78q267 0 434.5 -158.5t167.5 -410.5q0 -196 -82 -377t-233 -312q-117 -104 -260.5 -160.5t-290.5 -56.5q-260 0 -427 164.5t-167 419.5zM266 582q0 -190 114.5 -310t299.5 -120q104 0 204 41.5t189 123.5 q108 102 169 241.5t61 293.5q0 179 -118 295.5t-302 116.5q-122 0 -231.5 -56.5t-207.5 -169.5q-86 -101 -132 -218t-46 -238zM678 1606q26 105 76 157t126 52l26 -3q16 -2 42 -10l88 -26l24 -6l23 -2q34 0 54.5 16.5t33.5 56.5h103q-29 -104 -79.5 -153t-127.5 -49h-11 q-7 0 -19 2l-28 6l-87 28l-32 8l-22 3q-33 0 -55.5 -20t-32.5 -60h-102z" />
<glyph unicode="&#xd6;" horiz-adv-x="1581" d="M53 555q0 160 58.5 311t167.5 275q131 149 292 227t340 78q267 0 434.5 -158.5t167.5 -410.5q0 -196 -82 -377t-233 -312q-117 -104 -260.5 -160.5t-290.5 -56.5q-260 0 -427 164.5t-167 419.5zM266 582q0 -190 114.5 -310t299.5 -120q104 0 204 41.5t189 123.5 q108 102 169 241.5t61 293.5q0 179 -118 295.5t-302 116.5q-122 0 -231.5 -56.5t-207.5 -169.5q-86 -101 -132 -218t-46 -238zM684 1720q0 42 32.5 74.5t73.5 32.5q44 0 76 -32q33 -30 33 -75q0 -47 -31 -78.5t-78 -31.5q-44 0 -75 32.5t-31 77.5zM1052 1720q0 42 32.5 74.5 t74.5 32.5q44 0 76 -32q32 -30 32 -75q0 -47 -31 -78.5t-77 -31.5q-44 0 -75.5 32.5t-31.5 77.5z" />
<glyph unicode="&#xd7;" horiz-adv-x="1706" d="M293 141l469 469l-469 469l98 99l469 -469l469 469l98 -99l-469 -469l469 -469l-98 -96l-469 467l-469 -467z" />
<glyph unicode="&#xd8;" horiz-adv-x="1581" d="M-6 41l166 166q-54 76 -81.5 163.5t-27.5 188.5q0 155 59.5 305t168.5 277q131 150 291 227.5t343 77.5q57 0 109 -7t99 -22q93 -28 177 -90l166 164l99 -100l-166 -162q57 -73 88 -161.5t31 -188.5q0 -165 -61.5 -323t-174.5 -288q-122 -140 -289 -218.5t-344 -78.5 q-114 0 -207.5 32.5t-183.5 98.5l-166 -161zM266 580q0 -51 13 -104q6 -28 15 -55.5t23 -58.5l830 818q-53 40 -119 61t-145 21q-126 0 -233.5 -55.5t-205.5 -168.5q-86 -101 -132 -220q-22 -58 -34 -118t-12 -120zM406 250q57 -51 124 -74.5t150 -23.5q104 0 204 42 t187 123q111 105 172.5 247t61.5 294q0 25 -4 52t-13 53q-15 55 -49 112z" />
<glyph unicode="&#xd9;" horiz-adv-x="1389" d="M135 354q0 36 6.5 80t24.5 115l168 706h-123l41 166h459l-41 -166h-121l-172 -716l-25 -117q-6 -38 -6 -70q0 -94 63 -147t173 -53q151 0 236 86.5t147 328.5l170 688h-123l39 166h415l-39 -166h-124l-164 -696q-27 -117 -56.5 -201t-64.5 -143q-68 -113 -188.5 -178.5 t-262.5 -65.5q-194 0 -313 105.5t-119 277.5zM644 1907h200l211 -350h-110z" />
<glyph unicode="&#xda;" horiz-adv-x="1389" d="M135 354q0 36 6.5 80t24.5 115l168 706h-123l41 166h459l-41 -166h-121l-172 -716l-25 -117q-6 -38 -6 -70q0 -94 63 -147t173 -53q151 0 236 86.5t147 328.5l170 688h-123l39 166h415l-39 -166h-124l-164 -696q-27 -117 -56.5 -201t-64.5 -143q-68 -113 -188.5 -178.5 t-262.5 -65.5q-194 0 -313 105.5t-119 277.5zM771 1557l231 350h190l-301 -350h-120z" />
<glyph unicode="&#xdb;" horiz-adv-x="1389" d="M135 354q0 36 6.5 80t24.5 115l168 706h-123l41 166h459l-41 -166h-121l-172 -716l-25 -117q-6 -38 -6 -70q0 -94 63 -147t173 -53q151 0 236 86.5t147 328.5l170 688h-123l39 166h415l-39 -166h-124l-164 -696q-27 -117 -56.5 -201t-64.5 -143q-68 -113 -188.5 -178.5 t-262.5 -65.5q-194 0 -313 105.5t-119 277.5zM609 1557l266 350h184l137 -350h-108l-133 219l-225 -219h-121z" />
<glyph unicode="&#xdc;" horiz-adv-x="1389" d="M135 354q0 36 6.5 80t24.5 115l168 706h-123l41 166h459l-41 -166h-121l-172 -716l-25 -117q-6 -38 -6 -70q0 -94 63 -147t173 -53q151 0 236 86.5t147 328.5l170 688h-123l39 166h415l-39 -166h-124l-164 -696q-27 -117 -56.5 -201t-64.5 -143q-68 -113 -188.5 -178.5 t-262.5 -65.5q-194 0 -313 105.5t-119 277.5zM650 1720q0 42 32.5 74.5t73.5 32.5q44 0 76 -32q33 -30 33 -75q0 -47 -31 -78.5t-78 -31.5q-44 0 -75 32.5t-31 77.5zM1018 1720q0 42 32.5 74.5t74.5 32.5q44 0 76 -32q32 -30 32 -75q0 -47 -31 -78.5t-77 -31.5 q-44 0 -75.5 32.5t-31.5 77.5z" />
<glyph unicode="&#xdd;" horiz-adv-x="631" d="M-86 0l41 176h123l258 1079h-121l39 166h463l-39 -166h-123l-258 -1079h121l-41 -176h-463zM424 1720q0 44 35 79.5t77 35.5q45 0 80 -35q35 -33 35 -80q0 -45 -33 -80q-34 -32 -82 -32q-44 0 -78 33t-34 79z" />
<glyph unicode="&#xde;" horiz-adv-x="1118" d="M-43 0l94 393h172l-35 -137q81 -53 156 -83q72 -26 135 -26q100 0 163 60t63 158q0 62 -32 114t-134 131l-125 101q-123 96 -169 175.5t-46 172.5q0 161 119 274t292 113q83 0 160 -24.5t158 -75.5l18 75h172l-94 -393h-172l33 137q-70 54 -139 83q-35 14 -66.5 21 t-67.5 7q-89 0 -147.5 -56t-58.5 -141q0 -54 26 -96.5t125 -120.5l123 -96q132 -105 181.5 -189t49.5 -186q0 -181 -124 -300.5t-314 -119.5l-34 1l-25 -74h23q105 0 159 -42t54 -124q0 -99 -64.5 -152t-185.5 -53q-53 0 -119 13q-36 6 -73.5 15t-85.5 23l36 98l130 -34 q52 -11 81 -11q72 0 105 24t33 75q0 41 -39 62q-38 18 -138 18h-24l59 173l-52 14q-81 24 -168 79l-18 -76h-170z" />
<glyph unicode="&#xdf;" horiz-adv-x="1186" d="M-129 0l41 170h121l198 829q62 254 152.5 350.5t253.5 96.5q172 0 282.5 -98t110.5 -248q0 -102 -60 -180t-171 -123q108 -45 162.5 -124t54.5 -194q0 -209 -135 -351t-336 -142q-30 0 -135 12q-12 0 -17 2l43 180l67 -9l46 -3q121 0 198.5 84.5t77.5 216.5 q0 112 -76 174t-237 80l39 166h8q140 0 216.5 54.5t76.5 154.5q0 81 -56.5 134.5t-144.5 53.5q-89 0 -141 -59.5t-94 -227.5l-199 -829h96l-41 -170h-401z" />
<glyph unicode="&#xe0;" horiz-adv-x="1065" d="M-31 279q0 146 120.5 247t299.5 101q65 0 139.5 -18.5t153.5 -55.5l25 100l9 45l3 37q0 62 -44 99.5t-116 37.5q-63 0 -124.5 -35t-127.5 -112l-162 82q71 107 182 163t253 56q150 0 237 -68q44 -33 66 -78t22 -104q0 -13 -1 -27.5t-4 -30.5q-2 -21 -4 -32t-9 -34 l-117 -482h137l-41 -170h-317l22 92q-70 -57 -140.5 -83.5t-147.5 -26.5q-136 0 -225 84.5t-89 212.5zM162 287q0 -64 48 -102t128 -38q58 0 125.5 32t154.5 100l33 133q-82 33 -139 48t-109 15q-102 0 -171.5 -54t-69.5 -134zM351 1485h200l211 -350h-110z" />
<glyph unicode="&#xe1;" horiz-adv-x="1065" d="M-31 279q0 146 120.5 247t299.5 101q65 0 139.5 -18.5t153.5 -55.5l25 100l9 45l3 37q0 62 -44 99.5t-116 37.5q-63 0 -124.5 -35t-127.5 -112l-162 82q71 107 182 163t253 56q150 0 237 -68q44 -33 66 -78t22 -104q0 -13 -1 -27.5t-4 -30.5q-2 -21 -4 -32t-9 -34 l-117 -482h137l-41 -170h-317l22 92q-70 -57 -140.5 -83.5t-147.5 -26.5q-136 0 -225 84.5t-89 212.5zM162 287q0 -64 48 -102t128 -38q58 0 125.5 32t154.5 100l33 133q-82 33 -139 48t-109 15q-102 0 -171.5 -54t-69.5 -134zM478 1135l231 350h190l-301 -350h-120z" />
<glyph unicode="&#xe2;" horiz-adv-x="1065" d="M-31 279q0 146 120.5 247t299.5 101q65 0 139.5 -18.5t153.5 -55.5l25 100l9 45l3 37q0 62 -44 99.5t-116 37.5q-63 0 -124.5 -35t-127.5 -112l-162 82q71 107 182 163t253 56q150 0 237 -68q44 -33 66 -78t22 -104q0 -13 -1 -27.5t-4 -30.5q-2 -21 -4 -32t-9 -34 l-117 -482h137l-41 -170h-317l22 92q-70 -57 -140.5 -83.5t-147.5 -26.5q-136 0 -225 84.5t-89 212.5zM162 287q0 -64 48 -102t128 -38q58 0 125.5 32t154.5 100l33 133q-82 33 -139 48t-109 15q-102 0 -171.5 -54t-69.5 -134zM316 1135l266 350h184l137 -350h-108l-133 219 l-225 -219h-121z" />
<glyph unicode="&#xe3;" horiz-adv-x="1065" d="M-31 279q0 146 120.5 247t299.5 101q65 0 139.5 -18.5t153.5 -55.5l25 100l9 45l3 37q0 62 -44 99.5t-116 37.5q-63 0 -124.5 -35t-127.5 -112l-162 82q71 107 182 163t253 56q150 0 237 -68q44 -33 66 -78t22 -104q0 -13 -1 -27.5t-4 -30.5q-2 -21 -4 -32t-9 -34 l-117 -482h137l-41 -170h-317l22 92q-70 -57 -140.5 -83.5t-147.5 -26.5q-136 0 -225 84.5t-89 212.5zM162 287q0 -64 48 -102t128 -38q58 0 125.5 32t154.5 100l33 133q-82 33 -139 48t-109 15q-102 0 -171.5 -54t-69.5 -134zM351 1184q26 105 76 157t126 52l26 -3 q16 -2 42 -10l88 -26l24 -6l23 -2q34 0 54.5 16.5t33.5 56.5h103q-29 -104 -79.5 -153t-127.5 -49h-11q-7 0 -19 2l-28 6l-87 28l-32 8l-22 3q-33 0 -55.5 -20t-32.5 -60h-102z" />
<glyph unicode="&#xe4;" horiz-adv-x="1065" d="M-31 279q0 146 120.5 247t299.5 101q65 0 139.5 -18.5t153.5 -55.5l25 100l9 45l3 37q0 62 -44 99.5t-116 37.5q-63 0 -124.5 -35t-127.5 -112l-162 82q71 107 182 163t253 56q150 0 237 -68q44 -33 66 -78t22 -104q0 -13 -1 -27.5t-4 -30.5q-2 -21 -4 -32t-9 -34 l-117 -482h137l-41 -170h-317l22 92q-70 -57 -140.5 -83.5t-147.5 -26.5q-136 0 -225 84.5t-89 212.5zM162 287q0 -64 48 -102t128 -38q58 0 125.5 32t154.5 100l33 133q-82 33 -139 48t-109 15q-102 0 -171.5 -54t-69.5 -134zM357 1298q0 42 32.5 74.5t73.5 32.5 q44 0 76 -32q33 -30 33 -75q0 -47 -31 -78.5t-78 -31.5q-44 0 -75 32.5t-31 77.5zM725 1298q0 42 32.5 74.5t74.5 32.5q44 0 76 -32q32 -30 32 -75q0 -47 -31 -78.5t-77 -31.5q-44 0 -75.5 32.5t-31.5 77.5z" />
<glyph unicode="&#xe5;" horiz-adv-x="1065" d="M-31 279q0 146 120.5 247t299.5 101q65 0 139.5 -18.5t153.5 -55.5l25 100l9 45l3 37q0 62 -44 99.5t-116 37.5q-63 0 -124.5 -35t-127.5 -112l-162 82q71 107 182 163t253 56q150 0 237 -68q44 -33 66 -78t22 -104q0 -13 -1 -27.5t-4 -30.5q-2 -21 -4 -32t-9 -34 l-117 -482h137l-41 -170h-317l22 92q-70 -57 -140.5 -83.5t-147.5 -26.5q-136 0 -225 84.5t-89 212.5zM162 287q0 -64 48 -102t128 -38q58 0 125.5 32t154.5 100l33 133q-82 33 -139 48t-109 15q-102 0 -171.5 -54t-69.5 -134zM401 1333q0 102 72 174t174 72t174 -71.5 t72 -174.5q0 -101 -71.5 -173.5t-174.5 -72.5q-100 0 -173 72t-73 174zM516 1333q0 -50 39 -90.5t92 -40.5q54 0 92.5 38.5t38.5 92.5q0 56 -37 93.5t-94 37.5q-51 0 -91 -39t-40 -92z" />
<glyph unicode="&#xe6;" horiz-adv-x="1831" d="M-8 270q0 153 120 255t302 102q64 0 136.5 -18.5t154.5 -55.5l28 100l7 38l3 32q0 68 -42.5 109.5t-114.5 41.5q-66 0 -130 -36.5t-126 -112.5l-166 84q90 113 196 165q54 26 112.5 39t129.5 13q101 0 178 -33t121 -98q76 63 170 97t197 34q200 0 317 -122.5t117 -336.5 l-2 -50v-35q-3 -17 -4 -25h-823l-3 -16v-23q0 -123 73.5 -199t193.5 -76q82 0 159 37t138 105l170 -80q-89 -115 -218.5 -174.5t-287.5 -59.5q-124 0 -211 41t-152 127q-97 -80 -200 -123t-207 -43q-150 0 -243 82.5t-93 214.5zM182 281q0 -64 47 -104q49 -38 129 -38 q125 0 205.5 70t108.5 203q-82 33 -139 48t-107 15q-106 0 -175 -55t-69 -139zM920 598h587v4q0 116 -67 184t-183 68q-59 0 -108 -16t-97 -52q-90 -68 -132 -188z" />
<glyph unicode="&#xe7;" horiz-adv-x="1042" d="M2 399q0 116 45 229t128 202t193 142.5t210 53.5q37 0 70 -6t66.5 -19.5t63 -32.5t60.5 -48l20 79h156l-74 -303h-156q-27 77 -82 118.5t-129 41.5q-144 0 -263.5 -135.5t-119.5 -304.5q0 -120 73 -196.5t183 -76.5q75 0 146.5 41.5t142.5 126.5l133 -108 q-92 -116 -203 -174t-243 -58l-49 2l-26 -75h23q105 0 159 -42t54 -124q0 -99 -64.5 -152t-185.5 -53q-53 0 -119 13q-36 6 -73.5 15t-85.5 23l36 98l130 -34q52 -11 81 -11q72 0 105 24t33 75q0 41 -39 62q-38 18 -138 18h-24l60 175q-104 26 -182 104q-115 118 -115 310z " />
<glyph unicode="&#xe8;" horiz-adv-x="1159" d="M4 399q0 116 45 229t129 203q88 94 197.5 144.5t226.5 50.5q199 0 309.5 -124t110.5 -351l-2 -32v-34q-3 -18 -4 -28h-821l-2 -16v-23q0 -123 72.5 -199t193.5 -76q82 0 159 37t138 105l170 -80q-90 -114 -216.5 -174t-275.5 -60q-196 0 -313 116.5t-117 311.5zM233 598 h596v4q0 115 -68 183.5t-183 68.5q-110 0 -197 -64t-148 -192zM361 1485h200l211 -350h-110z" />
<glyph unicode="&#xe9;" horiz-adv-x="1159" d="M4 399q0 116 45 229t129 203q88 94 197.5 144.5t226.5 50.5q199 0 309.5 -124t110.5 -351l-2 -32v-34q-3 -18 -4 -28h-821l-2 -16v-23q0 -123 72.5 -199t193.5 -76q82 0 159 37t138 105l170 -80q-90 -114 -216.5 -174t-275.5 -60q-196 0 -313 116.5t-117 311.5zM233 598 h596v4q0 115 -68 183.5t-183 68.5q-110 0 -197 -64t-148 -192zM488 1135l231 350h190l-301 -350h-120z" />
<glyph unicode="&#xea;" horiz-adv-x="1159" d="M4 399q0 116 45 229t129 203q88 94 197.5 144.5t226.5 50.5q199 0 309.5 -124t110.5 -351l-2 -32v-34q-3 -18 -4 -28h-821l-2 -16v-23q0 -123 72.5 -199t193.5 -76q82 0 159 37t138 105l170 -80q-90 -114 -216.5 -174t-275.5 -60q-196 0 -313 116.5t-117 311.5zM233 598 h596v4q0 115 -68 183.5t-183 68.5q-110 0 -197 -64t-148 -192zM326 1135l266 350h184l137 -350h-108l-133 219l-225 -219h-121z" />
<glyph unicode="&#xeb;" horiz-adv-x="1159" d="M4 399q0 116 45 229t129 203q88 94 197.5 144.5t226.5 50.5q199 0 309.5 -124t110.5 -351l-2 -32v-34q-3 -18 -4 -28h-821l-2 -16v-23q0 -123 72.5 -199t193.5 -76q82 0 159 37t138 105l170 -80q-90 -114 -216.5 -174t-275.5 -60q-196 0 -313 116.5t-117 311.5zM233 598 h596v4q0 115 -68 183.5t-183 68.5q-110 0 -197 -64t-148 -192zM367 1298q0 42 32.5 74.5t73.5 32.5q44 0 76 -32q33 -30 33 -75q0 -47 -31 -78.5t-78 -31.5q-44 0 -75 32.5t-31 77.5zM735 1298q0 42 32.5 74.5t74.5 32.5q44 0 76 -32q32 -30 32 -75q0 -47 -31 -78.5 t-77 -31.5q-44 0 -75.5 32.5t-31.5 77.5z" />
<glyph unicode="&#xec;" horiz-adv-x="541" d="M-106 0l40 170h123l160 664h-123l39 165h309l-200 -829h137l-41 -170h-444zM80 1485h200l211 -350h-110z" />
<glyph unicode="&#xed;" horiz-adv-x="541" d="M-106 0l40 170h123l160 664h-123l39 165h309l-200 -829h137l-41 -170h-444zM207 1135l231 350h190l-301 -350h-120z" />
<glyph unicode="&#xee;" horiz-adv-x="541" d="M-106 0l40 170h123l160 664h-123l39 165h309l-200 -829h137l-41 -170h-444zM45 1135l266 350h184l137 -350h-108l-133 219l-225 -219h-121z" />
<glyph unicode="&#xef;" horiz-adv-x="541" d="M-106 0l40 170h123l160 664h-123l39 165h309l-200 -829h137l-41 -170h-444zM86 1298q0 42 32.5 74.5t73.5 32.5q44 0 76 -32q33 -30 33 -75q0 -47 -31 -78.5t-78 -31.5q-44 0 -75 32.5t-31 77.5zM454 1298q0 42 32.5 74.5t74.5 32.5q44 0 76 -32q32 -30 32 -75 q0 -47 -31 -78.5t-77 -31.5q-44 0 -75.5 32.5t-31.5 77.5z" />
<glyph unicode="&#xf0;" horiz-adv-x="1237" d="M-88 -178l104 143q78 -69 168 -106t181 -37q139 0 234.5 75.5t125.5 208.5q-67 -34 -132.5 -51.5t-125.5 -17.5q-189 0 -316.5 123t-127.5 307q0 225 153 390t363 165q115 0 203 -50.5t153 -154.5l45 182h320l-41 -170h-138l-159 -667q-68 -277 -200.5 -397.5 t-361.5 -120.5q-124 0 -232 42.5t-216 135.5zM215 489q0 -125 76.5 -199.5t206.5 -74.5q140 0 231.5 99t91.5 251q0 124 -80 204.5t-200 80.5q-131 0 -228.5 -105.5t-97.5 -255.5zM464 1401v30l3 19h102v-14q0 -70 32 -99q34 -28 111 -28q89 0 145 33.5t87 107.5h106 q-39 -140 -125.5 -211.5t-220.5 -71.5q-117 0 -178.5 60t-61.5 174z" />
<glyph unicode="&#xf1;" horiz-adv-x="1120" d="M-115 0l41 170h123l160 664h-123l39 165h295l-31 -122q87 76 161.5 111.5t147.5 35.5q117 0 185.5 -66.5t68.5 -177.5q0 -14 -1 -29.5t-4 -31.5q-3 -33 -13 -68l-115 -481h135l-39 -170h-319l158 653l12 58l4 41q0 54 -32 86q-30 32 -87 32q-48 0 -111 -35t-184 -133 l-127 -532h138l-41 -170h-441zM338 1184q26 105 76 157t126 52l26 -3q16 -2 42 -10l88 -26l24 -6l23 -2q34 0 54.5 16.5t33.5 56.5h103q-29 -104 -79.5 -153t-127.5 -49h-11q-7 0 -19 2l-28 6l-87 28l-32 8l-22 3q-33 0 -55.5 -20t-32.5 -60h-102z" />
<glyph unicode="&#xf2;" horiz-adv-x="1149" d="M-4 399q0 118 44.5 230.5t129 204t197 142t235.5 50.5q197 0 315.5 -117.5t118.5 -314.5q0 -132 -55.5 -254t-159.5 -217q-81 -75 -183 -113.5t-214 -38.5q-192 0 -310 117t-118 311zM186 416q0 -122 72 -197.5t193 -75.5q157 0 276 131t119 304q0 125 -74 200 q-37 38 -84.5 57t-109.5 19q-156 0 -274 -133t-118 -305zM367 1485h200l211 -350h-110z" />
<glyph unicode="&#xf3;" horiz-adv-x="1149" d="M-4 399q0 118 44.5 230.5t129 204t197 142t235.5 50.5q197 0 315.5 -117.5t118.5 -314.5q0 -132 -55.5 -254t-159.5 -217q-81 -75 -183 -113.5t-214 -38.5q-192 0 -310 117t-118 311zM186 416q0 -122 72 -197.5t193 -75.5q157 0 276 131t119 304q0 125 -74 200 q-37 38 -84.5 57t-109.5 19q-156 0 -274 -133t-118 -305zM494 1135l231 350h190l-301 -350h-120z" />
<glyph unicode="&#xf4;" horiz-adv-x="1149" d="M-4 399q0 118 44.5 230.5t129 204t197 142t235.5 50.5q197 0 315.5 -117.5t118.5 -314.5q0 -132 -55.5 -254t-159.5 -217q-81 -75 -183 -113.5t-214 -38.5q-192 0 -310 117t-118 311zM186 416q0 -122 72 -197.5t193 -75.5q157 0 276 131t119 304q0 125 -74 200 q-37 38 -84.5 57t-109.5 19q-156 0 -274 -133t-118 -305zM332 1135l266 350h184l137 -350h-108l-133 219l-225 -219h-121z" />
<glyph unicode="&#xf5;" horiz-adv-x="1149" d="M-4 399q0 118 44.5 230.5t129 204t197 142t235.5 50.5q197 0 315.5 -117.5t118.5 -314.5q0 -132 -55.5 -254t-159.5 -217q-81 -75 -183 -113.5t-214 -38.5q-192 0 -310 117t-118 311zM186 416q0 -122 72 -197.5t193 -75.5q157 0 276 131t119 304q0 125 -74 200 q-37 38 -84.5 57t-109.5 19q-156 0 -274 -133t-118 -305zM367 1184q26 105 76 157t126 52l26 -3q16 -2 42 -10l88 -26l24 -6l23 -2q34 0 54.5 16.5t33.5 56.5h103q-29 -104 -79.5 -153t-127.5 -49h-11q-7 0 -19 2l-28 6l-87 28l-32 8l-22 3q-33 0 -55.5 -20t-32.5 -60h-102z " />
<glyph unicode="&#xf6;" horiz-adv-x="1149" d="M-4 399q0 118 44.5 230.5t129 204t197 142t235.5 50.5q197 0 315.5 -117.5t118.5 -314.5q0 -132 -55.5 -254t-159.5 -217q-81 -75 -183 -113.5t-214 -38.5q-192 0 -310 117t-118 311zM186 416q0 -122 72 -197.5t193 -75.5q157 0 276 131t119 304q0 125 -74 200 q-37 38 -84.5 57t-109.5 19q-156 0 -274 -133t-118 -305zM373 1298q0 42 32.5 74.5t73.5 32.5q44 0 76 -32q33 -30 33 -75q0 -47 -31 -78.5t-78 -31.5q-44 0 -75 32.5t-31 77.5zM741 1298q0 42 32.5 74.5t74.5 32.5q44 0 76 -32q32 -30 32 -75q0 -47 -31 -78.5t-77 -31.5 q-44 0 -75.5 32.5t-31.5 77.5z" />
<glyph unicode="&#xf7;" horiz-adv-x="1706" d="M254 541v139h1198v-139h-1198zM729 242q0 51 37 88t88 37t88 -37t37 -88t-36.5 -88t-88.5 -37q-51 0 -88 36t-37 89zM729 979q0 51 36.5 89t88.5 38q51 0 88 -37.5t37 -89.5q0 -51 -37 -88t-88 -37q-50 0 -87.5 36t-37.5 89z" />
<glyph unicode="&#xf8;" horiz-adv-x="1149" d="M-27 -6l115 125q-46 60 -69 129.5t-23 148.5q0 119 45.5 232.5t132 205.5t197 140.5t239.5 48.5q76 0 133 -17q60 -15 111 -51l107 119l88 -78l-109 -118q26 -33 43.5 -63.5t30.5 -68.5q24 -66 24 -149q0 -133 -57.5 -258.5t-159.5 -218.5q-77 -71 -180.5 -110.5 t-218.5 -39.5q-36 0 -69 4t-63 13q-57 15 -114 51l-125 -133zM184 410q0 -38 9 -72t30 -72l500 547q-29 20 -64 31q-15 4 -34.5 7t-38.5 3q-164 0 -283 -133t-119 -311zM305 180q36 -17 73 -28q36 -9 73 -9q157 0 276 132.5t119 310.5q0 44 -10 78q-5 19 -11.5 34.5 t-17.5 32.5z" />
<glyph unicode="&#xf9;" horiz-adv-x="1120" d="M57 834l39 165h320l-158 -651l-12 -58l-4 -40q0 -56 32 -88.5t86 -32.5q47 0 110.5 35t184.5 133l129 537h-137l39 165h320l-201 -833h121l-39 -166h-293l29 119q-97 -77 -169 -110.5t-141 -33.5q-114 0 -184 66t-70 178q0 14 1 29.5t4 35.5t5.5 32.5t8.5 34.5l115 483 h-136zM330 1485h200l211 -350h-110z" />
<glyph unicode="&#xfa;" horiz-adv-x="1120" d="M57 834l39 165h320l-158 -651l-12 -58l-4 -40q0 -56 32 -88.5t86 -32.5q47 0 110.5 35t184.5 133l129 537h-137l39 165h320l-201 -833h121l-39 -166h-293l29 119q-97 -77 -169 -110.5t-141 -33.5q-114 0 -184 66t-70 178q0 14 1 29.5t4 35.5t5.5 32.5t8.5 34.5l115 483 h-136zM457 1135l231 350h190l-301 -350h-120z" />
<glyph unicode="&#xfb;" horiz-adv-x="1120" d="M57 834l39 165h320l-158 -651l-12 -58l-4 -40q0 -56 32 -88.5t86 -32.5q47 0 110.5 35t184.5 133l129 537h-137l39 165h320l-201 -833h121l-39 -166h-293l29 119q-97 -77 -169 -110.5t-141 -33.5q-114 0 -184 66t-70 178q0 14 1 29.5t4 35.5t5.5 32.5t8.5 34.5l115 483 h-136zM295 1135l266 350h184l137 -350h-108l-133 219l-225 -219h-121z" />
<glyph unicode="&#xfc;" horiz-adv-x="1120" d="M57 834l39 165h320l-158 -651l-12 -58l-4 -40q0 -56 32 -88.5t86 -32.5q47 0 110.5 35t184.5 133l129 537h-137l39 165h320l-201 -833h121l-39 -166h-293l29 119q-97 -77 -169 -110.5t-141 -33.5q-114 0 -184 66t-70 178q0 14 1 29.5t4 35.5t5.5 32.5t8.5 34.5l115 483 h-136zM336 1298q0 42 32.5 74.5t73.5 32.5q44 0 76 -32q33 -30 33 -75q0 -47 -31 -78.5t-78 -31.5q-44 0 -75 32.5t-31 77.5zM704 1298q0 42 32.5 74.5t74.5 32.5q44 0 76 -32q32 -30 32 -75q0 -47 -31 -78.5t-77 -31.5q-44 0 -75.5 32.5t-31.5 77.5z" />
<glyph unicode="&#xfd;" horiz-adv-x="541" d="M-106 0l40 170h123l160 664h-123l39 165h309l-200 -829h137l-41 -170h-444z" />
<glyph unicode="&#xfe;" horiz-adv-x="977" d="M-49 0l72 295h155q25 -70 84 -105.5t150 -35.5q76 0 121 31t45 81q0 42 -34 74t-134 78l-76 35q-127 57 -183.5 124.5t-56.5 157.5q0 125 94.5 209t237.5 84q84 0 156 -23t143 -71l16 65h156l-66 -274h-157q-18 62 -82 100.5t-150 38.5q-72 0 -116.5 -30t-44.5 -78 q0 -71 177 -151l19 -9l58 -27q126 -58 178.5 -122.5t52.5 -157.5q0 -135 -101 -225.5t-253 -90.5l-51 3l-27 -78h23q105 0 159 -42t54 -124q0 -99 -64.5 -152t-185.5 -53q-53 0 -119 13q-36 6 -73.5 15t-85.5 23l36 98l130 -34q52 -11 81 -11q72 0 105 24t33 75q0 41 -39 62 q-38 18 -138 18h-24l62 181l-22 8q-70 24 -141 79l-16 -78h-158z" />
<glyph unicode="&#xff;" horiz-adv-x="1014" d="M-176 -332l41 170h194l129 185l-75 811h-119l41 165h401l-39 -165h-102l43 -590l403 590h-135l41 165h393l-32 -165h-80l-801 -1166h-303zM324 1298q0 42 32.5 74.5t73.5 32.5q44 0 76 -32q33 -30 33 -75q0 -47 -31 -78.5t-78 -31.5q-44 0 -75 32.5t-31 77.5zM692 1298 q0 42 32.5 74.5t74.5 32.5q44 0 76 -32q32 -30 32 -75q0 -47 -31 -78.5t-77 -31.5q-44 0 -75.5 32.5t-31.5 77.5z" />
<glyph unicode="&#x152;" horiz-adv-x="2091" d="M53 571q0 235 139 450t359 320q86 41 202 61q57 9 128.5 14t158.5 5h74h1012l-98 -411h-173l60 245h-504l-98 -407h438l-39 -166h-438l-123 -506h528l66 273h172l-109 -449h-1034l-39 -3l-61 -1q-285 0 -453 156t-168 419zM268 592q0 -192 119 -304t328 -112h227 l260 1079h-201q-162 0 -249 -20.5t-162 -67.5q-145 -87 -233.5 -245.5t-88.5 -329.5z" />
<glyph unicode="&#x153;" horiz-adv-x="1987" d="M-4 399q0 118 45.5 231t131 204.5t197.5 141.5t232 50q129 0 225.5 -51.5t153.5 -153.5q94 101 208 153t238 52q201 0 318 -122.5t117 -336.5l-2 -50q0 -13 -1 -28.5t-4 -31.5h-845l-2 -16v-25q0 -120 74 -196.5t190 -76.5q80 0 154 36.5t133 105.5l172 -82 q-104 -116 -221.5 -174t-252.5 -58q-136 0 -230 50.5t-153 154.5q-89 -99 -205 -153q-59 -26 -118.5 -39t-128.5 -13q-191 0 -308.5 117.5t-117.5 310.5zM186 416q0 -122 72 -197.5t193 -75.5q157 0 276 131t119 304q0 125 -74 200q-37 38 -84.5 57t-109.5 19 q-156 0 -274 -133t-118 -305zM1049 598h614v4q0 116 -70.5 184t-189.5 68q-113 0 -201 -63t-153 -193z" />
<glyph unicode="&#x178;" horiz-adv-x="1110" d="M25 1255l38 166h459l-39 -166h-100l156 -440l407 440h-166l39 166h500l-41 -166h-121l-559 -602l-115 -477h123l-41 -176h-465l43 176h121l115 475l-217 604h-137zM490 1720q0 42 32.5 74.5t73.5 32.5q44 0 76 -32q33 -30 33 -75q0 -47 -31 -78.5t-78 -31.5 q-44 0 -75 32.5t-31 77.5zM858 1720q0 42 32.5 74.5t74.5 32.5q44 0 76 -32q32 -30 32 -75q0 -47 -31 -78.5t-77 -31.5q-44 0 -75.5 32.5t-31.5 77.5z" />
<glyph unicode="&#x2c6;" horiz-adv-x="1024" d="M287 1135l266 350h184l137 -350h-108l-133 219l-225 -219h-121z" />
<glyph unicode="&#x2dc;" horiz-adv-x="1024" d="M322 1184q26 105 76 157t126 52l26 -3q16 -2 42 -10l88 -26l24 -6l23 -2q34 0 54.5 16.5t33.5 56.5h103q-29 -104 -79.5 -153t-127.5 -49h-11q-7 0 -19 2l-28 6l-87 28l-32 8l-22 3q-33 0 -55.5 -20t-32.5 -60h-102z" />
<glyph unicode="&#x2000;" horiz-adv-x="986" />
<glyph unicode="&#x2001;" horiz-adv-x="1972" />
<glyph unicode="&#x2002;" horiz-adv-x="986" />
<glyph unicode="&#x2003;" horiz-adv-x="1972" />
<glyph unicode="&#x2004;" horiz-adv-x="657" />
<glyph unicode="&#x2005;" horiz-adv-x="493" />
<glyph unicode="&#x2006;" horiz-adv-x="328" />
<glyph unicode="&#x2007;" horiz-adv-x="328" />
<glyph unicode="&#x2008;" horiz-adv-x="246" />
<glyph unicode="&#x2009;" horiz-adv-x="394" />
<glyph unicode="&#x200a;" horiz-adv-x="109" />
<glyph unicode="&#x2010;" horiz-adv-x="668" d="M4 422l39 176h502l-39 -176h-502z" />
<glyph unicode="&#x2011;" horiz-adv-x="668" d="M4 422l39 176h502l-39 -176h-502z" />
<glyph unicode="&#x2012;" horiz-adv-x="668" d="M4 422l39 176h502l-39 -176h-502z" />
<glyph unicode="&#x2013;" horiz-adv-x="1024" d="M-74 436l33 148h1024l-33 -148h-1024z" />
<glyph unicode="&#x2014;" horiz-adv-x="2048" d="M-74 436l33 148h2048l-33 -148h-2048z" />
<glyph unicode="&#x2018;" horiz-adv-x="510" d="M160 913l63 261q30 130 112 198q41 35 94.5 54.5t116.5 19.5l-24 -98q-69 0 -115 -44q-40 -39 -61 -130h121l-64 -261h-243z" />
<glyph unicode="&#x2019;" horiz-adv-x="510" d="M156 889l25 98q69 0 112.5 41.5t64.5 132.5h-122l63 260h244l-64 -260q-30 -129 -112 -199q-41 -34 -94.5 -53.5t-116.5 -19.5z" />
<glyph unicode="&#x201a;" horiz-adv-x="510" d="M-108 -272l25 98q69 0 113 44q41 38 62 130h-121l62 260h243l-61 -260q-30 -129 -113 -199q-42 -36 -94 -54.5t-116 -18.5z" />
<glyph unicode="&#x201c;" horiz-adv-x="928" d="M160 913l63 261q30 130 112 198q41 35 94.5 54.5t116.5 19.5l-24 -98q-69 0 -115 -44q-40 -39 -61 -130h121l-64 -261h-243zM580 913l63 261q30 130 112 198q41 35 94.5 54.5t116.5 19.5l-24 -98q-36 0 -65.5 -11.5t-51.5 -33.5q-40 -38 -61 -129h123l-64 -261h-243z" />
<glyph unicode="&#x201d;" horiz-adv-x="928" d="M156 889l25 98q69 0 112.5 41.5t64.5 132.5h-122l63 260h244l-64 -260q-30 -129 -112 -199q-41 -34 -94.5 -53.5t-116.5 -19.5zM576 889l22 98q70 0 113.5 41.5t64.5 132.5h-121l62 260h244l-62 -260q-30 -129 -113 -199q-42 -36 -94 -54.5t-116 -18.5z" />
<glyph unicode="&#x201e;" horiz-adv-x="928" d="M-108 -272l25 98q69 0 113 44q41 38 62 130h-121l62 260h243l-61 -260q-30 -129 -113 -199q-42 -36 -94 -54.5t-116 -18.5zM312 -272l22 98q70 0 116 44q41 38 62 130h-121l62 260h243l-63 -260q-30 -130 -112 -199q-41 -35 -93.5 -54t-115.5 -19z" />
<glyph unicode="&#x2022;" horiz-adv-x="1208" d="M307 762q0 122 87.5 208.5t209.5 86.5q121 0 208 -86.5t87 -208.5t-87.5 -209.5t-209.5 -87.5t-208.5 87.5t-86.5 209.5z" />
<glyph unicode="&#x2026;" horiz-adv-x="2048" d="M57 0l62 260h243l-61 -260h-244zM739 0l62 260h243l-61 -260h-244zM1423 0l62 260h243l-61 -260h-244z" />
<glyph unicode="&#x202f;" horiz-adv-x="394" />
<glyph unicode="&#x2039;" horiz-adv-x="635" d="M61 506l281 311h180l-278 -311l207 -313h-181z" />
<glyph unicode="&#x203a;" horiz-adv-x="635" d="M20 193l277 313l-207 311h180l209 -311l-278 -313h-181z" />
<glyph unicode="&#x205f;" horiz-adv-x="493" />
<glyph unicode="&#x2122;" horiz-adv-x="1706" d="M242 1378v80h452v-80h-172v-458h-108v458h-172zM813 920v538h150l151 -385l141 385h150v-538h-98v444l-166 -444h-56l-174 444v-444h-98z" />
<glyph unicode="&#xe000;" horiz-adv-x="1000" d="M0 0v1000h1000v-1000h-1000z" />
</font>
</defs>
</svg>
