<?xml version="1.0" encoding="UTF-8" standalone="no"?>
<!-- Created with Inkscape (http://www.inkscape.org/) -->

<svg
   xmlns:dc="http://purl.org/dc/elements/1.1/"
   xmlns:cc="http://creativecommons.org/ns#"
   xmlns:rdf="http://www.w3.org/1999/02/22-rdf-syntax-ns#"
   xmlns:svg="http://www.w3.org/2000/svg"
   xmlns="http://www.w3.org/2000/svg"
   xmlns:sodipodi="http://sodipodi.sourceforge.net/DTD/sodipodi-0.dtd"
   xmlns:inkscape="http://www.inkscape.org/namespaces/inkscape"
   width="744.09448819"
   height="1052.3622047"
   id="svg3962"
   version="1.1"
   inkscape:version="0.48.4 r9939"
   sodipodi:docname="sets.svg">
  <defs
     id="defs3964" />
  <sodipodi:namedview
     id="base"
     pagecolor="#ffffff"
     bordercolor="#666666"
     borderopacity="1.0"
     inkscape:pageopacity="0.0"
     inkscape:pageshadow="2"
     inkscape:zoom="0.35"
     inkscape:cx="39.285714"
     inkscape:cy="520"
     inkscape:document-units="px"
     inkscape:current-layer="layer1"
     showgrid="false"
     inkscape:window-width="1920"
     inkscape:window-height="1007"
     inkscape:window-x="0"
     inkscape:window-y="24"
     inkscape:window-maximized="1" />
  <metadata
     id="metadata3967">
    <rdf:RDF>
      <cc:Work
         rdf:about="">
        <dc:format>image/svg+xml</dc:format>
        <dc:type
           rdf:resource="http://purl.org/dc/dcmitype/StillImage" />
        <dc:title></dc:title>
      </cc:Work>
    </rdf:RDF>
  </metadata>
  <g
     inkscape:label="Layer 1"
     inkscape:groupmode="layer"
     id="layer1">
    <path
       style="fill:#00acef;fill-opacity:0.94117647"
       d="m 259.45203,924.56794 -27.1827,-24.972 -37.344,7.6308 c -20.5392,4.1969 -38.14,6.8347 -39.113,5.8618 -2.1018,-2.1018 59.5738,-200.67985 63.5479,-204.60627 1.5058,-1.48766 14.5994,-3.97689 29.0969,-5.53164 l 26.3592,-2.8268 22.5934,19.28533 c 12.4263,10.60691 29.2436,22.44101 37.3716,26.29805 17.557,8.33142 18.8773,-1.84151 -15.0208,115.73983 -13.5925,47.1475 -26.6063,86.2561 -28.9196,86.9079 -2.3133,0.6518 -15.5403,-11.099 -31.3889,-23.787 z m 161.6943,-72.4751 -28.0393,-97.88109 15.6035,-7.0227 c 8.5817,-3.86241 21.4115,-13.23184 28.5107,-20.82079 20.5809,-22.00117 33.2048,-26.7454 62.3819,-23.44442 l 25.4836,2.88311 6.3501,19.89994 c 43.598,136.62635 58.867,186.63385 57.4264,188.07435 -0.9473,0.9474 -18.6122,-1.9684 -39.2555,-6.4795 l -37.5331,-8.202 -28.6556,25.4371 c -15.7606,13.9904 -29.9106,25.4371 -31.4446,25.4371 -1.534,0 -15.4065,-44.0465 -30.8281,-97.8811 z m -90.0599,-167.07057 c -35.8245,-30.78315 -42.4287,-33.18356 -81.7269,-29.70488 -53.8227,4.76442 -67.3866,-4.55631 -76.8844,-52.83263 -6.9697,-35.42637 -16.2856,-49.1008 -44.4148,-65.19471 -28.9952,-16.58936 -45.7925,-35.61305 -45.7925,-51.862 0,-6.66973 5.8084,-25.77611 12.9074,-42.45871 7.0991,-16.68256 12.9074,-33.50373 12.9074,-37.38032 0,-3.87665 -5.8083,-21.55403 -12.9074,-39.28311 -7.099,-17.72909 -12.9074,-37.63565 -12.9074,-44.23679 0,-15.90613 13.3297,-32.1109 37.9612,-46.14897 31.0168,-17.67722 39.2121,-27.03344 46.3045,-52.86368 18.8994,-68.83161 26.5828,-75.42122 82.503,-70.75765 39.0215,3.2543 46.1865,0.6171 82.0499,-30.19944 18.4666,-15.86774 26.1007,-19.71114 39.1525,-19.71114 16.0691,0 41.7211,14.60534 55.9128,31.83484 13.1329,15.94404 28.6293,19.93119 72.9386,18.7669 39.9308,-1.04929 43.4756,-0.44528 53.742,9.15676 7.8869,7.37656 13.0392,19.52867 18.2414,43.02465 8.0971,36.57035 19.9218,51.51191 59.9642,75.76915 16.3423,9.90013 22.6987,16.93358 27.2814,30.18784 5.6833,16.43748 5.316,18.78139 -7.5293,48.0483 -7.4273,16.92228 -13.5043,36.53292 -13.5043,43.57915 0,7.04629 5.9718,26.84463 13.2705,43.99641 19.8742,46.70357 12.5377,65.95843 -34.2815,89.97194 -25.1306,12.88943 -34.0859,25.88597 -43.2614,62.78425 -6.7218,27.03077 -11.3787,36.81117 -22.1306,46.48075 -13.4414,12.08794 -14.104,12.20788 -51.227,9.26974 -43.3534,-3.4313 -49.9423,-1.14733 -86.3537,29.93281 -19.3259,16.49625 -25.7286,19.54168 -41.085,19.54168 -15.4014,0 -21.7091,-3.02283 -41.1306,-19.71114 z m 105.2079,-122.06336 c 34.6651,-13.28967 72.0358,-48.73485 90.1269,-85.48298 13.1768,-26.76595 14.0592,-31.39925 14.0592,-73.82461 0,-40.02499 -1.3253,-48.09362 -11.4463,-69.68353 -28.6466,-61.10846 -92.8679,-102.50559 -159.0217,-102.50559 -65.6241,0 -133.1833,47.03168 -157.8601,109.89514 -37.4962,95.52067 18.893,204.85092 118.5653,229.88032 25.8019,6.47929 77.6959,2.41008 105.5767,-8.27875 z m -112.8579,-42.06022 c -26.8988,-9.49692 -57.3416,-41.17658 -66.7294,-69.44054 -23.9242,-72.02921 9.4768,-147.94733 73.2473,-166.48591 67.9794,-19.76213 134.1627,9.74052 156.6441,69.82744 24.9672,66.73064 -7.1121,146.14822 -67.3207,166.66331 -25.1997,8.58644 -70.6817,8.31865 -95.8413,-0.5643 z"
       id="path3050"
       inkscape:connector-curvature="0"
       sodipodi:nodetypes="scsssscsssssscssscscscsssssssssssssssssssssssssssscssssssssssssssssss" />
  </g>
</svg>
