<?xml version="1.0" encoding="UTF-8" standalone="no"?>
<!-- Created with Inkscape (http://www.inkscape.org/) -->

<svg
   xmlns:dc="http://purl.org/dc/elements/1.1/"
   xmlns:cc="http://creativecommons.org/ns#"
   xmlns:rdf="http://www.w3.org/1999/02/22-rdf-syntax-ns#"
   xmlns:svg="http://www.w3.org/2000/svg"
   xmlns="http://www.w3.org/2000/svg"
   xmlns:sodipodi="http://sodipodi.sourceforge.net/DTD/sodipodi-0.dtd"
   xmlns:inkscape="http://www.inkscape.org/namespaces/inkscape"
   width="744.09448819"
   height="1052.3622047"
   id="svg3962"
   version="1.1"
   inkscape:version="0.48.4 r9939"
   sodipodi:docname="exercise.svg">
  <defs
     id="defs3964" />
  <sodipodi:namedview
     id="base"
     pagecolor="#ffffff"
     bordercolor="#666666"
     borderopacity="1.0"
     inkscape:pageopacity="0.0"
     inkscape:pageshadow="2"
     inkscape:zoom="0.35"
     inkscape:cx="39.285714"
     inkscape:cy="520"
     inkscape:document-units="px"
     inkscape:current-layer="layer1"
     showgrid="false"
     inkscape:window-width="1920"
     inkscape:window-height="1007"
     inkscape:window-x="0"
     inkscape:window-y="24"
     inkscape:window-maximized="1" />
  <metadata
     id="metadata3967">
    <rdf:RDF>
      <cc:Work
         rdf:about="">
        <dc:format>image/svg+xml</dc:format>
        <dc:type
           rdf:resource="http://purl.org/dc/dcmitype/StillImage" />
        <dc:title></dc:title>
      </cc:Work>
    </rdf:RDF>
  </metadata>
  <g
     inkscape:label="Layer 1"
     inkscape:groupmode="layer"
     id="layer1">
    <path
       style="fill:#00acef;fill-opacity:0.94117647"
       d="m 445.58102,225.80711 c -0.982,0 -1.9728,0.003 -2.9691,0 -5.0111,0 -9.7693,0.21927 -14.4062,0.93739 -13.3201,2.33456 -24.9045,8.60096 -35.0623,18.719 -13.2407,13.25638 -19.812,29.23311 -19.8442,47.84384 -0.068,16.83326 5.2865,31.46284 15.9377,43.8435 3.0513,3.42544 4.4252,7.39496 4.2505,11.99968 -0.281,4.57319 -2.0304,8.39264 -5.3126,11.53166 -3.2822,3.14656 -7.2408,4.71778 -11.7818,4.74999 l -147.2187,0.28094 c -4.7322,0.0685 -8.7332,1.67058 -11.9997,4.96926 -3.3617,3.42544 -4.9836,7.40044 -5.0316,12.12439 l -0.3152,148.68785 c 0.068,4.60472 -1.5239,8.48241 -4.7185,11.81261 -3.115,3.29799 -6.9756,5.12755 -11.4686,5.37491 l -0.069,0 c -4.4937,0.1302 -8.4804,-1.17447 -11.938,-4.24977 -12.3245,-10.67513 -26.9308,-15.96919 -43.812,-15.93767 -18.706,-0.0685 -34.6347,6.65012 -47.875402,19.9065 -10.906,10.82657 -17.354,23.59027 -19.25,38.28083 -0.2124,3.11504 -0.4249,6.3589 -0.3769,9.62537 0,3.26647 0.1439,6.42262 0.3769,9.59385 1.9118,14.62683 8.3611,27.39053 19.1877,38.28083 13.224802,13.25706 29.192702,19.80303 47.874702,19.9065 16.762,-0.0685 31.4416,-5.34682 43.7503,-16.0939 3.5131,-2.98759 7.4895,-4.45055 12.0627,-4.1559 4.5245,0.16445 8.344,1.95084 11.531,5.28104 3.1547,3.25825 4.7362,7.15307 4.6252,11.75025 l 0.185,147.71854 c 0,4.66851 1.6713,8.70051 4.9378,12.06251 3.3939,3.40173 7.3929,4.93746 12.1251,4.93746 l 147.1248,-0.0617 c 4.5732,0 8.5304,-1.53998 11.8126,-4.71874 3.2823,-3.0831 5.0179,-6.95902 5.2811,-11.50001 0.2124,-4.60479 -1.1594,-8.54189 -4.219,-12.03126 -10.6593,-12.35641 -16.0164,-26.97879 -15.9685,-43.81246 0.096,-18.70591 6.6495,-34.58712 19.9065,-47.84364 13.2722,-13.25706 29.2482,-19.9387 47.9062,-19.87497 18.7375,-0.0685 34.7053,6.60489 47.9062,19.74958 13.2167,13.25686 19.7811,29.29621 19.7811,47.90654 0,16.86546 -5.3557,31.44625 -16.0315,43.90619 -3.0034,3.43367 -4.4581,7.43635 -4.1874,11.93753 0.1987,4.5092 1.9823,8.44753 5.3125,11.5625 l -0.096,-0.0343 c 3.2829,3.15471 7.2812,4.68688 11.7502,4.71874 l 149.2189,1.06251 c 4.7637,-0.0411 8.7394,-1.70059 12.0936,-5.06252 2.0872,-2.15901 3.5796,-4.5425 4.3128,-7.18747 0.4523,-1.58534 0.6578,-3.14498 0.6873,-4.93753 l 0,-148.74973 c 0.069,-4.58965 -1.4904,-8.4276 -4.6561,-11.75026 l 0,0 c -3.1808,-3.27743 -7.0051,-5.0042 -11.5002,-5.2502 l -0.069,0 c -4.5088,-0.24668 -8.4235,1.19983 -11.9688,4.21894 -12.3087,10.73886 -27.0432,16.03154 -43.7812,16.03154 -18.6737,0 -34.6183,-6.61859 -47.8747,-19.87497 -13.1213,-13.19334 -19.7653,-29.12964 -19.7817,-47.87537 0.068,-18.71352 6.5877,-34.65735 19.8441,-47.9062 13.2646,-13.25638 29.2393,-19.90718 47.9377,-19.84345 16.8655,-0.0685 31.3608,5.19812 43.7812,15.93698 3.4336,3.03555 7.4045,4.34639 11.9373,4.21894 4.5732,-0.24669 8.4324,-2.07692 11.531,-5.37492 3.163,-3.29799 4.7671,-7.23941 4.7191,-11.81261 l 0.096,-148.71869 c 0,-4.72394 -1.6397,-8.73389 -4.9377,-11.99967 -1.5692,-1.61782 -2.9581,-2.59632 -4.3128,-3.28155 -2.0632,-0.90039 -4.8165,-1.40471 -8.2186,-1.49996 l -148.781,-0.40428 c -4.4855,0 -8.4201,-1.60412 -11.7503,-4.68763 -3.2185,-3.17054 -5.035,-6.95779 -5.2495,-11.5625 -0.233,-4.50879 1.1285,-8.60644 4.1559,-11.96885 10.7868,-12.41218 16.0692,-27.00955 16.1247,-43.84349 -0.068,-18.64226 -6.6179,-34.65804 -19.875,-47.87468 -11.4316,-11.48027 -24.8785,-17.97964 -40.4057,-19.4378 -0.984,-0.0822 -1.9563,-0.16446 -2.9375,-0.18501 z"
       id="path5482-6"
       inkscape:connector-curvature="0" />
  </g>
</svg>
